<svg width="343" height="343" viewBox="0 0 343 343" fill="none" xmlns="http://www.w3.org/2000/svg">
<path d="M281.185 179.43C220.213 144.225 121.676 144.225 61.0951 179.43C0.51447 214.636 0.836891 271.718 61.8086 306.916C122.78 342.115 221.324 342.122 281.905 306.916C342.485 271.711 342.163 214.636 281.185 179.43Z" fill="#F5F5F5"/>
<path d="M236.272 218.436C216.858 207.227 185.508 207.227 166.19 218.436C149.15 228.342 147.257 243.681 160.435 254.849C149.802 254.163 138.778 256.221 130.656 260.941C116.4 269.221 116.476 282.653 130.827 290.939C145.178 299.226 168.358 299.219 182.613 290.939C193.96 284.347 196.217 274.475 189.473 266.58C205.814 268.939 223.773 266.429 236.533 259.034C255.789 247.824 255.693 229.645 236.272 218.436Z" fill="#E6E6E6"/>
<path d="M272.568 282.749L238.797 263.252C238.57 263.12 238.383 262.931 238.252 262.703C238.122 262.476 238.053 262.218 238.053 261.956C238.053 261.694 238.122 261.436 238.252 261.209C238.383 260.981 238.57 260.792 238.797 260.659L268.562 243.365C268.79 243.232 269.049 243.162 269.313 243.162C269.577 243.162 269.837 243.232 270.064 243.365L304.584 263.294C304.81 263.425 304.998 263.614 305.129 263.841C305.26 264.068 305.328 264.325 305.328 264.587C305.328 264.849 305.26 265.106 305.129 265.333C304.998 265.56 304.81 265.748 304.584 265.88L275.566 282.742C275.112 283.007 274.595 283.148 274.068 283.149C273.542 283.15 273.024 283.012 272.568 282.749Z" fill="#E6E6E6"/>
<path d="M45.3584 241.815C43.7463 242.748 43.7394 244.257 45.3584 245.19L51.9303 249.018C52.832 249.478 53.83 249.718 54.8423 249.718C55.8547 249.718 56.8526 249.478 57.7544 249.018L130.018 207.295C131.63 206.369 131.643 204.853 130.018 203.92L123.432 200.12C122.529 199.664 121.532 199.426 120.52 199.426C119.508 199.426 118.511 199.664 117.608 200.12L45.3584 241.815Z" fill="#E6E6E6"/>
<path d="M65.6296 247.811C64.0107 248.744 64.0107 250.253 65.6296 251.179L72.2221 254.986C73.1238 255.446 74.1218 255.686 75.1342 255.686C76.1465 255.686 77.1445 255.446 78.0462 254.986L139.786 219.314C141.398 218.381 141.412 216.872 139.786 215.939L133.194 212.139C132.293 211.679 131.296 211.439 130.285 211.439C129.274 211.439 128.277 211.679 127.376 212.139L65.6296 247.811Z" fill="#E6E6E6"/>
<path d="M182.894 61.1569L185.453 59.6683L212.502 75.2268V78.1834L182.894 61.1569Z" fill="#F5F5F5"/>
<path d="M182.894 61.1569L212.502 78.1834V81.5654L182.888 64.5526L182.894 61.1569Z" fill="#E0E0E0"/>
<path d="M227.965 87.0877L230.523 85.5991L257.572 101.158V104.114L227.965 87.0877Z" fill="#F5F5F5"/>
<path d="M227.965 87.0877L257.572 104.114V107.496L227.958 90.4834L227.965 87.0877Z" fill="#E0E0E0"/>
<path d="M273.035 113.012L275.594 111.523L302.643 127.082V130.045L273.035 113.012Z" fill="#F5F5F5"/>
<path d="M273.035 113.012L302.643 130.045V133.427L273.028 116.407L273.035 113.012Z" fill="#E0E0E0"/>
<path d="M183.038 32.7291L185.597 31.2404L185.446 107.832L182.888 109.314L183.038 32.7291Z" fill="#F0F0F0"/>
<path d="M182.888 109.314L185.446 107.832L214.91 124.742L212.351 126.231L182.888 109.314Z" fill="#F5F5F5"/>
<path d="M180.102 27.6458L215.459 47.9583L215.287 131.314L179.938 111.002L180.102 27.6458ZM212.344 126.231L212.495 49.639L183.038 32.7291L182.888 109.321L212.351 126.224" fill="#E0E0E0"/>
<path d="M180.102 27.6458L182.661 26.1572L218.018 46.4696L215.459 47.9583L180.102 27.6458Z" fill="#F5F5F5"/>
<path d="M215.459 47.9583L218.018 46.4696L217.846 129.825L215.287 131.314L215.459 47.9583Z" fill="#F0F0F0"/>
<path d="M228.109 58.6599L230.667 57.1712L230.517 133.756L227.958 135.245L228.109 58.6599Z" fill="#F0F0F0"/>
<path d="M227.958 135.245L230.517 133.756L259.98 150.673L257.421 152.162L227.958 135.245Z" fill="#F5F5F5"/>
<path d="M225.173 53.5766L260.522 73.8891L260.358 157.245L225.008 136.932L225.173 53.5766ZM257.415 152.162L257.565 75.5698L228.067 58.6599L227.917 135.245L257.38 152.162" fill="#E0E0E0"/>
<path d="M225.173 53.5766L227.731 52.088L263.081 72.4004L260.522 73.8891L225.173 53.5766Z" fill="#F5F5F5"/>
<path d="M260.522 73.8891L263.081 72.4005L262.916 155.756L260.358 157.245L260.522 73.8891Z" fill="#F0F0F0"/>
<path d="M273.179 84.5838L275.738 83.102L275.587 159.687L273.028 161.176L273.179 84.5838Z" fill="#F0F0F0"/>
<path d="M273.028 161.176L275.587 159.687L305.05 176.597L302.492 178.086L273.028 161.176Z" fill="#F5F5F5"/>
<path d="M270.243 79.5005L305.592 99.813L305.428 183.162L270.071 162.856L270.243 79.5005ZM302.526 178.086L302.643 101.528L273.179 84.5838L273.028 161.21L302.526 178.086Z" fill="#E0E0E0"/>
<path d="M270.243 79.5005L272.802 78.0119L308.151 98.3312L305.592 99.813L270.243 79.5005Z" fill="#F5F5F5"/>
<path d="M305.592 99.813L308.151 98.3312L307.987 181.68L305.428 183.169L305.592 99.813Z" fill="#F0F0F0"/>
<path d="M244.964 96.2046C244.557 95.4734 243.96 94.8664 243.235 94.4485L219.52 80.8314C217.462 79.6446 212.523 81.2567 212.523 84.5975V98.3175C212.523 99.1346 212.739 99.9371 213.148 100.644C213.558 101.351 214.146 101.938 214.855 102.344L233.171 112.806L230.009 111.002L231.525 115.303C231.547 115.365 231.592 115.416 231.651 115.446C231.71 115.475 231.778 115.48 231.84 115.461C232.108 115.317 233.302 114.679 233.981 114.233H234.029C234.029 114.233 234.077 114.233 234.091 114.178L234.461 113.574L238.577 115.927C239.261 116.354 240.047 116.593 240.853 116.619C241.659 116.645 242.458 116.457 243.169 116.075C243.879 115.692 244.476 115.129 244.898 114.442C245.321 113.754 245.554 112.968 245.574 112.161V98.4684C245.57 97.6737 245.359 96.8938 244.964 96.2046Z" fill="#A2BE24"/>
<path opacity="0.2" d="M234.07 114.123C234.07 114.123 234.029 114.123 234.008 114.178H233.96C233.274 114.624 232.087 115.262 231.82 115.406C231.851 115.4 231.88 115.387 231.906 115.37C231.932 115.352 231.954 115.329 231.971 115.303L233.439 112.916L233.151 112.751L234.44 113.492L234.07 114.123Z" fill="white"/>
<path opacity="0.4" d="M240.354 98.8183C240.06 98.2178 239.638 97.6888 239.119 97.2679C238.941 97.1267 238.753 96.9983 238.556 96.8838L214.821 83.2667C214.586 83.132 214.32 83.0614 214.05 83.0619C213.779 83.0623 213.514 83.1339 213.28 83.2694C213.045 83.4049 212.851 83.5995 212.716 83.8338C212.58 84.0681 212.509 84.3338 212.509 84.6044C212.509 81.2635 217.428 79.6514 219.506 80.8382L243.242 94.4553C243.967 94.8733 244.564 95.4803 244.971 96.2115L240.354 98.8183Z" fill="white"/>
<path opacity="0.2" d="M240.875 114.562V100.897C240.878 100.713 240.866 100.53 240.841 100.348C240.769 99.8137 240.604 99.296 240.354 98.8183L244.964 96.2046C245.357 96.8944 245.565 97.6743 245.567 98.4684V112.106C245.547 112.913 245.314 113.699 244.891 114.387C244.469 115.074 243.872 115.638 243.162 116.02C242.451 116.402 241.652 116.59 240.846 116.564C240.04 116.538 239.255 116.299 238.57 115.872C238.802 116.006 239.065 116.077 239.333 116.078C239.601 116.079 239.865 116.01 240.098 115.877C240.331 115.745 240.525 115.554 240.662 115.323C240.798 115.092 240.872 114.83 240.875 114.562Z" fill="white"/>
<path d="M232.794 97.069C233.224 97.3367 233.578 97.7098 233.823 98.1529C234.386 99.1339 234.386 100.211 233.823 100.506L225.893 105.027C225.728 105.102 225.545 105.133 225.364 105.115C225.184 105.097 225.011 105.031 224.864 104.924C224.436 104.658 224.084 104.288 223.842 103.847L221.18 99.2093C220.611 98.2283 220.618 97.1513 221.18 96.8495C221.344 96.7749 221.525 96.7451 221.705 96.7632C221.885 96.7813 222.056 96.8465 222.202 96.9524C222.632 97.2201 222.986 97.5932 223.231 98.0363L224.871 100.904L231.772 96.9661C231.937 96.8929 232.117 96.8639 232.297 96.8819C232.476 96.9 232.647 96.9644 232.794 97.069Z" fill="white"/>
<path d="M125.065 41.9077C124.557 40.1379 120.949 36.7765 117.388 36.8451C117.046 36.8543 116.707 36.9215 116.387 37.044L46.9224 76.5576C45.9114 77.1452 45.0702 77.985 44.481 78.9951C43.8918 80.0051 43.5748 81.1508 43.561 82.32V232.602C43.561 236.43 47.9789 240.079 52.1223 238.323C52.2149 238.296 52.3045 238.259 52.3899 238.214L121.861 198.624C122.88 198.044 123.727 197.205 124.316 196.192C124.905 195.179 125.215 194.027 125.216 192.855V42.6212C125.221 42.3749 125.169 42.1307 125.065 41.9077Z" fill="#455A64"/>
<path d="M53.2543 98.2146C53.2596 97.6324 53.4177 97.0618 53.7126 96.5599C54.0075 96.0579 54.429 95.6421 54.935 95.354L119.419 58.6599C119.671 58.5157 119.957 58.4404 120.248 58.4414C120.538 58.4424 120.824 58.5197 121.075 58.6655C121.327 58.8114 121.535 59.0207 121.68 59.2725C121.826 59.5243 121.902 59.8098 121.902 60.1005V181.241C121.902 181.828 121.746 182.404 121.451 182.912C121.156 183.419 120.732 183.839 120.222 184.129L55.7376 220.892C55.4852 221.036 55.1994 221.111 54.9087 221.11C54.6181 221.109 54.3328 221.032 54.0814 220.886C53.83 220.74 53.6212 220.531 53.4761 220.279C53.3309 220.028 53.2545 219.742 53.2543 219.451V98.2146Z" fill="#A2BE24"/>
<path opacity="0.2" d="M53.2543 98.2146C53.2596 97.6324 53.4177 97.0618 53.7126 96.5599C54.0075 96.0579 54.429 95.6421 54.935 95.354L119.419 58.6599C119.671 58.5157 119.957 58.4404 120.248 58.4414C120.538 58.4424 120.824 58.5197 121.075 58.6655C121.327 58.8114 121.535 59.0207 121.68 59.2725C121.826 59.5243 121.902 59.8098 121.902 60.1005V181.241C121.902 181.828 121.746 182.404 121.451 182.912C121.156 183.419 120.732 183.839 120.222 184.129L55.7376 220.892C55.4852 221.036 55.1994 221.111 54.9087 221.11C54.6181 221.109 54.3328 221.032 54.0814 220.886C53.83 220.74 53.6212 220.531 53.4761 220.279C53.3309 220.028 53.2545 219.742 53.2543 219.451V98.2146Z" fill="black"/>
<path opacity="0.3" d="M43.561 82.32V232.602C43.561 236.43 47.9789 240.079 52.1223 238.323C51.873 238.413 51.6056 238.442 51.3427 238.408C51.0799 238.373 50.8292 238.275 50.612 238.123C50.3947 237.971 50.2172 237.769 50.0944 237.534C49.9717 237.299 49.9072 237.038 49.9065 236.773V86.5389C49.9125 85.2325 50.3012 83.9565 51.0247 82.8688L44.2265 79.4388C43.7898 80.3366 43.5623 81.3217 43.561 82.32Z" fill="black"/>
<path opacity="0.1" d="M117.395 36.8382C117.053 36.8474 116.714 36.9147 116.394 37.0371L46.9224 76.5576C45.7653 77.2209 44.8353 78.2179 44.2539 79.4182L51.0522 82.8482C51.6249 81.9829 52.3904 81.262 53.2885 80.7422L122.794 41.16C122.991 41.0483 123.209 40.9782 123.434 40.9542C123.659 40.9301 123.887 40.9525 124.103 41.02C124.319 41.0876 124.519 41.1988 124.69 41.3468C124.862 41.4947 125.001 41.6763 125.099 41.8803C124.564 40.131 120.969 36.7696 117.395 36.8382Z" fill="white"/>
<path d="M96.1498 66C96.6368 65.7188 97.0416 65.9383 97.0416 66.5008C97.0235 66.8081 96.9341 67.1069 96.7805 67.3736C96.6269 67.6403 96.4133 67.8676 96.1566 68.0375L82.5258 75.9059C82.0387 76.1871 81.6409 75.947 81.6409 75.3914C81.6566 75.0862 81.7443 74.7891 81.8969 74.5244C82.0496 74.2597 82.2627 74.0349 82.5189 73.8685L96.1498 66Z" fill="#263238"/>
<path d="M79.0203 75.8922C79.5074 75.6109 79.8984 75.8304 79.9053 76.3929C79.8885 76.6997 79.8004 76.9983 79.6479 77.2651C79.4955 77.5318 79.283 77.7594 79.0272 77.9296C78.5401 78.2108 78.1354 77.9776 78.1285 77.4151C78.1479 77.1092 78.2387 76.8122 78.3935 76.5477C78.5484 76.2832 78.7631 76.0587 79.0203 75.8922Z" fill="#263238"/>
<path d="M87.7463 64.8544C88.7205 64.2919 89.5025 64.7447 89.5094 65.8629C89.4768 66.4748 89.301 67.0705 88.9959 67.6019C88.6909 68.1334 88.2652 68.5857 87.7532 68.9224C86.7791 69.4849 85.9696 69.0253 85.9696 67.9071C86.0055 67.2946 86.185 66.6991 86.4936 66.1687C86.8023 65.6384 87.2314 65.1882 87.7463 64.8544Z" fill="#263238"/>
<path d="M87.7463 206.321C89.7357 205.176 91.3341 206.088 91.3409 208.379C91.2786 209.626 90.923 210.84 90.3032 211.924C89.6834 213.007 88.8168 213.929 87.7737 214.615C85.7843 215.761 84.1448 214.821 84.1379 212.557C84.2043 211.307 84.5659 210.09 85.1931 209.006C85.8203 207.922 86.6952 207.002 87.7463 206.321Z" fill="#263238"/>
<path d="M137.783 67.6876C137.33 66.0824 134.065 63.0228 130.82 63.0914C130.508 63.0996 130.2 63.1599 129.908 63.2698L66.8508 99.1339C65.9298 99.6679 65.1639 100.433 64.6286 101.353C64.0933 102.273 63.8071 103.317 63.7981 104.382V240.786C63.7981 244.264 67.8043 247.577 71.5636 245.986C71.6463 245.961 71.7267 245.929 71.8037 245.89L134.895 209.916C135.82 209.389 136.59 208.627 137.125 207.706C137.659 206.785 137.941 205.74 137.941 204.675V68.3393C137.94 68.1127 137.886 67.8895 137.783 67.6876Z" fill="#A2BE24"/>
<path opacity="0.2" d="M63.798 104.382V240.786C63.798 244.264 67.8042 247.577 71.5635 245.986C71.3397 246.068 71.0996 246.095 70.8631 246.065C70.6266 246.036 70.4005 245.951 70.2035 245.817C70.0065 245.683 69.8441 245.504 69.7299 245.295C69.6157 245.085 69.5529 244.852 69.5467 244.614V108.148C69.5517 106.962 69.9074 105.805 70.5688 104.821L64.3948 101.734C63.9958 102.559 63.7916 103.465 63.798 104.382Z" fill="white"/>
<path opacity="0.4" d="M130.82 63.112C130.508 63.1202 130.2 63.1805 129.908 63.2904L66.8507 99.1339C65.8004 99.7373 64.9565 100.643 64.4291 101.734L70.6031 104.821C71.1269 104.028 71.8325 103.372 72.6611 102.907L135.718 67.0291C135.898 66.9356 136.094 66.8791 136.296 66.8631C136.498 66.8471 136.701 66.8718 136.893 66.9358C137.085 66.9998 137.262 67.1018 137.414 67.2357C137.565 67.3695 137.689 67.5326 137.776 67.7151C137.33 66.0755 134.065 63.016 130.82 63.112Z" fill="white"/>
<path opacity="0.3" d="M137.783 67.6876C137.33 66.0824 134.065 63.0228 130.82 63.0914C130.508 63.0996 130.2 63.1599 129.908 63.2698L66.8508 99.1339C65.9298 99.6679 65.1639 100.433 64.6286 101.353C64.0933 102.273 63.8071 103.317 63.7981 104.382V240.786C63.7981 244.264 67.8043 247.577 71.5636 245.986C71.6463 245.961 71.7267 245.929 71.8037 245.89L134.895 209.916C135.82 209.389 136.59 208.627 137.125 207.706C137.659 206.785 137.941 205.74 137.941 204.675V68.3393C137.94 68.1127 137.886 67.8895 137.783 67.6876Z" fill="white"/>
<path d="M132.398 166.17C132.995 165.827 133.496 166.101 133.496 166.801V179.917C133.472 180.293 133.36 180.659 133.17 180.984C132.979 181.31 132.715 181.586 132.398 181.79L74.774 214.917C74.1703 215.267 73.6764 214.992 73.6764 214.293V201.169C73.6966 200.79 73.8058 200.421 73.9953 200.092C74.1849 199.763 74.4493 199.484 74.7671 199.276L132.398 166.17Z" fill="#A2BE24"/>
<g opacity="0.7">
<path d="M132.398 166.17C132.995 165.827 133.496 166.101 133.496 166.801V179.917C133.472 180.293 133.36 180.659 133.17 180.984C132.979 181.31 132.715 181.586 132.398 181.79L74.774 214.917C74.1703 215.267 73.6764 214.992 73.6764 214.293V201.169C73.6966 200.79 73.8058 200.421 73.9953 200.092C74.1849 199.763 74.4493 199.484 74.7671 199.276L132.398 166.17Z" fill="white"/>
</g>
<path d="M132.398 185.343C132.995 184.994 133.496 185.275 133.496 185.968V199.091C133.476 199.473 133.367 199.845 133.176 200.176C132.985 200.508 132.719 200.789 132.398 200.998L74.774 234.125C74.1703 234.475 73.6764 234.2 73.6764 233.501V220.377C73.6966 219.998 73.8058 219.629 73.9953 219.3C74.1849 218.971 74.4493 218.692 74.7671 218.484L132.398 185.343Z" fill="#A2BE24"/>
<g opacity="0.2">
<path d="M132.398 185.343C132.995 184.994 133.496 185.275 133.496 185.968V199.091C133.476 199.473 133.367 199.845 133.176 200.176C132.985 200.508 132.719 200.789 132.398 200.998L74.774 234.125C74.1703 234.475 73.6764 234.2 73.6764 233.501V220.377C73.6966 219.998 73.8058 219.629 73.9953 219.3C74.1849 218.971 74.4493 218.692 74.7671 218.484L132.398 185.343Z" fill="black"/>
</g>
<path d="M132.398 88.3774C132.995 88.0344 133.496 88.3088 133.496 89.0085V154.672C133.474 155.051 133.364 155.419 133.173 155.747C132.982 156.075 132.717 156.353 132.398 156.559L74.774 189.686C74.1703 190.043 73.6764 189.761 73.6764 189.062V123.398C73.6971 123.019 73.8066 122.65 73.9961 122.321C74.1855 121.992 74.4497 121.712 74.7671 121.504L132.398 88.3774Z" fill="#A2BE24"/>
<g opacity="0.2">
<path d="M132.398 88.3774C132.995 88.0344 133.496 88.3088 133.496 89.0085V154.672C133.474 155.051 133.364 155.419 133.173 155.747C132.982 156.075 132.717 156.353 132.398 156.559L74.774 189.686C74.1703 190.043 73.6764 189.761 73.6764 189.062V123.398C73.6971 123.019 73.8066 122.65 73.9961 122.321C74.1855 121.992 74.4497 121.712 74.7671 121.504L132.398 88.3774Z" fill="black"/>
</g>
<path d="M118.074 163.268C117.946 161.306 117.821 159.346 117.697 157.389L96.3076 156.525V159.845C92.6786 164.962 91.4233 171.034 91.2037 180.233L118.383 164.64C118.278 164.183 118.175 163.725 118.074 163.268Z" fill="#37474F"/>
<path d="M120.688 120.811C120.386 121.497 119.556 121.861 119.151 122.52C119.039 122.71 118.966 122.921 118.937 123.139C118.908 123.358 118.923 123.581 118.982 123.794C119.04 124.007 119.141 124.206 119.278 124.379C119.415 124.552 119.586 124.696 119.78 124.802C119.973 124.908 120.186 124.973 120.406 124.995C120.626 125.017 120.848 124.994 121.059 124.929C121.27 124.863 121.465 124.756 121.634 124.613C121.802 124.47 121.94 124.295 122.039 124.097C122.17 124.719 122.17 125.362 122.039 125.984C121.98 126.295 121.841 126.585 121.635 126.826C121.429 127.066 121.164 127.249 120.866 127.356C121.309 127.81 121.614 128.38 121.745 129C121.877 129.62 121.829 130.265 121.609 130.859C121.388 131.453 121.003 131.973 120.499 132.357C119.995 132.741 119.392 132.974 118.76 133.029C119 134.751 117.875 136.61 116.455 137.612C114.988 138.578 113.225 138.989 111.482 138.771C109.754 138.555 108.072 138.062 106.501 137.31C104.096 138.223 101.523 138.609 98.9555 138.442C97.3228 138.284 95.6146 137.845 94.4827 136.658C93.3508 135.471 93.1107 133.358 94.2975 132.247C93.9088 132.48 93.4643 132.603 93.0113 132.603C92.5582 132.603 92.1137 132.48 91.725 132.247C91.3438 132.045 91.0311 131.734 90.8265 131.354C90.622 130.974 90.5347 130.542 90.5758 130.112C90.617 129.683 90.7846 129.275 91.0576 128.94C91.3305 128.606 91.6965 128.36 92.1092 128.234C91.8224 128.05 91.5902 127.793 91.4369 127.489C91.2837 127.185 91.2149 126.845 91.238 126.505C91.2912 126.181 91.4326 125.878 91.6468 125.628C91.861 125.379 92.1396 125.194 92.4522 125.092C92.3658 125.372 92.3599 125.67 92.4351 125.952C92.5103 126.235 92.6636 126.491 92.8775 126.69C93.1056 126.856 93.3771 126.951 93.6586 126.965C93.9401 126.978 94.2193 126.909 94.4622 126.766C94.6883 126.609 94.8782 126.405 95.019 126.168C95.1599 125.932 95.2483 125.668 95.2785 125.394C95.347 124.85 95.347 124.299 95.2785 123.754C95.0158 121.865 95.2015 119.94 95.8204 118.136C96.1408 117.24 96.6803 116.439 97.3896 115.805C98.0989 115.171 98.9556 114.725 99.8816 114.507C100.615 112.299 102.134 110.437 104.148 109.273C106.165 108.125 108.536 107.766 110.803 108.265C112.682 108.683 114.521 109.808 115.275 111.585C116.087 111.415 116.916 111.343 117.745 111.372C118.564 111.362 119.358 111.655 119.974 112.195C120.273 112.472 120.48 112.833 120.567 113.23C120.654 113.628 120.617 114.042 120.462 114.418C120.215 114.926 119.686 115.385 119.81 115.941C119.933 116.497 120.462 116.627 120.722 117.059C120.827 117.263 120.882 117.489 120.882 117.718C120.882 117.947 120.827 118.172 120.722 118.376C120.517 118.788 120.248 119.165 119.926 119.494C119.652 119.81 119.364 120.228 119.515 120.619C119.666 121.01 120.475 121.196 120.688 120.811Z" fill="#263238"/>
<path d="M113.533 135.684L114.98 135.492C116.36 135.31 117.761 135.571 118.983 136.237C120.205 136.902 121.184 137.939 121.779 139.196L128.028 152.388C128.028 152.388 134.518 147.037 136.109 145.062C136.61 144.437 136.493 143.504 136.576 142.702C136.6 141.896 136.819 141.107 137.214 140.404C137.766 139.511 138.084 138.495 138.14 137.447C138.146 137.358 138.173 137.271 138.22 137.195C138.267 137.119 138.332 137.056 138.409 137.01C138.486 136.965 138.573 136.939 138.663 136.935C138.752 136.931 138.841 136.949 138.922 136.987L139.032 137.042C139.294 137.161 139.507 137.367 139.635 137.625C139.734 137.895 139.764 138.185 139.724 138.469C139.671 139.207 139.544 139.938 139.347 140.651C140.444 139.579 141.284 138.273 141.803 136.83C141.957 136.261 142.188 135.717 142.489 135.211C142.646 134.965 142.871 134.77 143.136 134.648C143.401 134.527 143.696 134.484 143.984 134.525C144.105 135.023 144.131 135.54 144.06 136.048C144.245 136.046 144.429 136.083 144.6 136.155C144.771 136.227 144.926 136.333 145.055 136.466C145.16 136.608 145.233 136.771 145.267 136.944C145.302 137.118 145.297 137.296 145.254 137.468C145.63 137.7 145.94 138.027 146.153 138.415C146.366 138.803 146.474 139.24 146.468 139.683C146.457 140.547 146.241 141.396 145.837 142.16C144.616 144.72 142.673 146.866 140.246 148.334C137.015 152.704 133.674 157.753 130.141 161.306C129.731 161.71 129.238 162.02 128.696 162.213C128.154 162.406 127.576 162.478 127.003 162.424C126.431 162.369 125.877 162.19 125.38 161.899C124.884 161.607 124.458 161.211 124.132 160.737C120.863 155.985 117.841 151.069 115.076 146.008L113.533 135.684Z" fill="#FFA8A7"/>
<path d="M113.533 135.684L114.98 135.492C116.36 135.31 117.761 135.571 118.983 136.237C120.205 136.902 121.184 137.939 121.779 139.196L126.697 149.582C124.337 153.252 119.494 154.521 119.494 154.521L115.07 145.981L113.533 135.684Z" fill="#E0E0E0"/>
<path opacity="0.2" d="M125.202 156.566C125.794 154.966 126.764 153.533 128.028 152.388L127.699 151.702C126.972 152.121 125.373 153.41 125.202 156.566Z" fill="black"/>
<path opacity="0.2" d="M138.263 146.118C139.017 145.755 139.601 145.115 139.895 144.332C140.189 143.548 140.169 142.682 139.841 141.913C140.17 142.234 140.402 142.64 140.511 143.087C140.62 143.533 140.602 144.001 140.459 144.437C140.274 144.887 139.974 145.279 139.588 145.574C139.202 145.87 138.745 146.057 138.263 146.118Z" fill="black"/>
<path d="M94.668 136.294L101.219 135.725C102.391 137.254 103.899 138.491 105.626 139.342C107.354 140.193 109.254 140.634 111.18 140.63C111.967 140.695 112.752 140.487 113.403 140.04C113.78 139.671 114.04 139.199 114.151 138.683C114.262 138.167 114.219 137.63 114.027 137.138C113.812 136.533 113.494 135.969 113.087 135.471H115.001C117.29 137.564 119.08 140.142 120.242 143.017C120.824 144.266 121.115 145.632 121.093 147.01C121.067 147.694 120.879 148.361 120.543 148.958C120.208 149.554 119.736 150.062 119.165 150.44C119.301 152.041 119.248 153.653 119.007 155.242C118.833 156.825 118.084 158.29 116.901 159.358C115.718 160.218 114.329 160.751 112.874 160.901C109.203 161.523 105.448 161.453 101.802 160.696C99.7032 160.256 97.5149 159.509 96.2115 157.807C94.9904 156.223 94.7572 154.096 94.7983 152.1C94.8395 150.104 94.668 136.294 94.668 136.294Z" fill="#EBEBEB"/>
<path d="M113.403 140.061C112.752 140.507 111.967 140.716 111.18 140.651C109.256 140.649 107.359 140.203 105.635 139.349C103.911 138.495 102.407 137.255 101.24 135.725L103.449 135.533V128.433L111.132 131.39V135.506H113.094C113.501 136.003 113.819 136.567 114.034 137.173C114.222 137.663 114.263 138.198 114.151 138.711C114.039 139.224 113.778 139.694 113.403 140.061Z" fill="#FFA8A7"/>
<path opacity="0.2" d="M103.991 128.639C106.289 133.098 107.716 133.194 111.125 133.592V131.39L103.991 128.639Z" fill="black"/>
<path d="M117.896 118.321C118.568 121.687 118.61 125.148 118.019 128.529C117.8 129.798 117.43 131.143 116.421 131.959C115.186 132.954 113.41 132.81 111.839 132.604C110.108 132.471 108.405 132.09 106.783 131.472C105.973 131.158 105.239 130.677 104.627 130.06C104.016 129.443 103.542 128.704 103.236 127.891C102.803 128.128 102.303 128.213 101.816 128.134C101.329 128.054 100.882 127.814 100.547 127.452C99.8867 126.709 99.5314 125.743 99.5523 124.749C99.4994 124.305 99.5611 123.855 99.7317 123.442C99.9022 123.029 100.176 122.667 100.526 122.389C100.796 122.247 101.095 122.166 101.399 122.153C101.704 122.14 102.008 122.195 102.289 122.314C102.85 122.558 103.351 122.921 103.758 123.377C103.957 123.608 104.188 123.809 104.444 123.974C104.576 124.053 104.728 124.095 104.883 124.095C105.037 124.095 105.189 124.053 105.322 123.974C105.458 123.84 105.562 123.678 105.627 123.499C105.692 123.319 105.717 123.128 105.699 122.938C105.672 121.379 106.025 119.837 106.728 118.445C107.517 117.114 109.122 116.133 110.618 116.538C111.304 116.723 111.928 117.183 112.634 117.224C113.206 117.197 113.761 117.016 114.24 116.702C114.568 116.469 114.952 116.325 115.353 116.284C115.755 116.244 116.16 116.308 116.528 116.471C116.897 116.635 117.217 116.891 117.457 117.215C117.697 117.54 117.848 117.921 117.896 118.321Z" fill="#FFA8A7"/>
<path d="M113.06 122.506L115.104 125.943L112.669 126.396L113.06 122.506Z" fill="#F28F8F"/>
<path d="M110.322 127.596L112.175 128.495C112.015 128.705 111.792 128.857 111.538 128.929C111.284 129.001 111.014 128.988 110.768 128.893C110.558 128.759 110.399 128.558 110.318 128.322C110.237 128.087 110.239 127.831 110.322 127.596Z" fill="#F28F8F"/>
<path opacity="0.3" d="M110.322 127.596L112.175 128.495C112.015 128.705 111.792 128.857 111.538 128.929C111.284 129.001 111.014 128.988 110.768 128.893C110.558 128.759 110.399 128.558 110.318 128.322C110.237 128.087 110.239 127.831 110.322 127.596Z" fill="black"/>
<path d="M111.413 128.968C111.197 129.01 110.973 128.989 110.768 128.906C110.599 128.811 110.461 128.668 110.373 128.494C110.285 128.321 110.251 128.125 110.275 127.932C110.541 127.931 110.8 128.021 111.009 128.186C111.242 128.383 111.387 128.664 111.413 128.968Z" fill="#F28F8F"/>
<path opacity="0.1" d="M111.413 128.968C111.197 129.01 110.973 128.989 110.768 128.906C110.599 128.811 110.461 128.668 110.373 128.494C110.285 128.321 110.251 128.125 110.275 127.932C110.541 127.931 110.8 128.021 111.009 128.186C111.242 128.383 111.387 128.664 111.413 128.968Z" fill="black"/>
<path d="M109.54 122.643C109.531 122.733 109.54 122.824 109.566 122.911C109.593 122.997 109.635 123.078 109.693 123.148C109.75 123.218 109.821 123.276 109.901 123.319C109.98 123.362 110.068 123.389 110.158 123.398C110.248 123.407 110.339 123.398 110.426 123.372C110.512 123.346 110.593 123.303 110.663 123.245C110.733 123.188 110.791 123.117 110.834 123.038C110.877 122.958 110.903 122.87 110.912 122.78C110.921 122.69 110.913 122.599 110.886 122.513C110.86 122.426 110.817 122.345 110.76 122.275C110.703 122.205 110.632 122.147 110.552 122.104C110.473 122.061 110.385 122.035 110.295 122.026C110.205 122.017 110.114 122.025 110.027 122.052C109.941 122.078 109.86 122.121 109.79 122.178C109.72 122.235 109.662 122.306 109.619 122.386C109.576 122.466 109.549 122.553 109.54 122.643Z" fill="#263238"/>
<path d="M115.399 123.007C115.389 123.141 115.419 123.274 115.484 123.391C115.55 123.509 115.648 123.604 115.768 123.666C115.887 123.727 116.021 123.753 116.155 123.739C116.288 123.725 116.415 123.672 116.519 123.586C116.622 123.501 116.699 123.388 116.738 123.259C116.778 123.131 116.779 122.994 116.742 122.865C116.705 122.736 116.63 122.621 116.528 122.534C116.426 122.447 116.3 122.392 116.167 122.376C116.075 122.364 115.981 122.372 115.892 122.398C115.803 122.423 115.72 122.467 115.648 122.526C115.576 122.585 115.517 122.658 115.474 122.741C115.431 122.823 115.406 122.914 115.399 123.007Z" fill="#263238"/>
<path d="M116.352 120.304L117.793 121.525C117.878 121.341 117.905 121.136 117.871 120.936C117.836 120.736 117.742 120.552 117.601 120.407C117.424 120.273 117.213 120.192 116.992 120.173C116.771 120.155 116.549 120.2 116.352 120.304Z" fill="#263238"/>
<path d="M110.446 119.618L108.793 120.53C108.746 120.332 108.76 120.125 108.834 119.935C108.907 119.745 109.036 119.582 109.204 119.467C109.405 119.375 109.627 119.34 109.847 119.367C110.066 119.393 110.273 119.48 110.446 119.618Z" fill="#263238"/>
<path d="M93.6528 154.864L91.4644 162.884L99.964 170.005C100.567 170.513 101.337 170.779 102.125 170.752C102.994 170.695 103.868 170.746 104.725 170.903C105.411 171.054 106.035 171.274 106.7 171.425C107.167 171.542 107.646 171.602 108.127 171.603C108.226 171.598 108.324 171.618 108.412 171.662C108.5 171.706 108.576 171.771 108.632 171.852C108.687 171.933 108.721 172.028 108.73 172.126C108.739 172.224 108.723 172.322 108.683 172.412C108.609 172.556 108.512 172.685 108.395 172.797C108.038 173.072 107.609 173.239 107.16 173.277C106.451 173.374 105.729 173.337 105.034 173.167C105.734 173.948 106.643 174.512 107.654 174.793C108.608 175.108 109.609 175.294 110.556 175.63C110.922 175.725 111.249 175.934 111.489 176.227C111.549 176.298 111.595 176.382 111.622 176.472C111.649 176.561 111.657 176.656 111.646 176.749C111.635 176.842 111.605 176.932 111.558 177.014C111.511 177.095 111.448 177.165 111.372 177.221C110.967 177.475 110.412 177.098 110 177.276C110.055 177.534 110.055 177.8 110 178.058C109.924 178.319 109.756 178.543 109.527 178.689C109.408 178.755 109.275 178.789 109.139 178.789C109.004 178.789 108.87 178.755 108.752 178.689C108.55 179.003 108.287 179.273 107.978 179.482C107.669 179.69 107.321 179.834 106.954 179.903C106.225 180.051 105.474 180.051 104.745 179.903C101.72 179.341 99.8062 176.707 97.4258 174.745C97.1034 174.477 88.7341 169.806 84.4466 167.425C83.7377 167.032 83.1794 166.414 82.8591 165.669C82.5388 164.924 82.4747 164.094 82.6768 163.309L85.4208 152.683L93.6528 154.864Z" fill="#FFA8A7"/>
<path opacity="0.2" d="M86.2439 162.705C87.1631 162.273 90.0992 161.923 91.4644 162.884L91.6907 162.061C90.8256 161.599 89.8399 161.414 88.8662 161.529C87.8925 161.644 86.9774 162.055 86.2439 162.705Z" fill="black"/>
<path d="M94.7092 136.329L93.5087 136.665C92.2876 137.014 91.1692 137.654 90.2493 138.53C89.3293 139.405 88.6353 140.491 88.2265 141.693L84.3781 152.978C87.8081 156.621 94.0575 155.502 94.0575 155.502L95.2923 149.754C99.6416 142.194 95.649 137.557 94.7092 136.329Z" fill="#E0E0E0"/>
<path d="M99.2025 191.572C99.9502 191.14 100.54 191.106 100.911 191.456L100.101 192.766C99.9818 192.675 99.836 192.626 99.6861 192.626C99.5362 192.626 99.3904 192.675 99.2711 192.766C98.9975 192.934 98.7721 193.171 98.617 193.452C98.4619 193.733 98.3824 194.05 98.3861 194.371C98.3861 195.057 98.7429 195.263 99.2779 194.954C99.6459 194.711 99.9345 194.365 100.108 193.96L100.924 194.323C100.554 195.1 99.9587 195.747 99.2162 196.182C97.9883 196.868 97.0965 196.464 97.0896 195.119C97.1161 194.398 97.3235 193.695 97.6927 193.076C98.0619 192.456 98.5811 191.939 99.2025 191.572Z" fill="#A2BE24"/>
<path d="M95.4157 193.857L97.0896 197.287L95.7656 198.055L95.5049 197.438L94.0643 198.275L93.8105 199.187L92.5002 199.942L94.1535 194.604L95.4157 193.857ZM94.4073 196.992L95.1551 196.56L94.7778 195.675L94.4073 196.992Z" fill="#A2BE24"/>
<path d="M103.168 189.281C103.915 188.849 104.54 188.821 104.883 189.164L104.073 190.461C103.953 190.369 103.806 190.319 103.655 190.319C103.503 190.319 103.356 190.369 103.236 190.461C102.964 190.631 102.74 190.867 102.585 191.148C102.43 191.429 102.349 191.745 102.351 192.066C102.351 192.752 102.715 192.958 103.243 192.649C103.613 192.408 103.902 192.062 104.073 191.655L104.889 192.018C104.519 192.795 103.924 193.442 103.181 193.877C101.953 194.563 101.055 194.159 101.055 192.814C101.084 192.096 101.293 191.396 101.662 190.779C102.031 190.162 102.549 189.647 103.168 189.281Z" fill="#A2BE24"/>
<path d="M108.34 186.393L108.347 187.504L106.515 188.561V189.068L108.12 188.142L108.127 189.206L106.515 190.139L106.522 190.715L108.422 189.617V190.729L105.26 192.553L105.246 188.177L108.34 186.393Z" fill="#A2BE24"/>
<path d="M110.741 185.007C111.804 184.397 112.477 184.644 112.477 185.652C112.444 186.207 112.267 186.743 111.964 187.209C111.661 187.674 111.242 188.053 110.748 188.307L110.206 188.623V189.693L108.923 190.44V186.064L110.741 185.007ZM110.666 187.216C110.819 187.142 110.949 187.026 111.041 186.882C111.133 186.738 111.184 186.571 111.187 186.4C111.187 186.084 111.015 185.981 110.666 186.187L110.199 186.455V187.484L110.666 187.216Z" fill="#A2BE24"/>
<path d="M116.044 181.948V183.087L114.926 183.738L114.932 186.969L113.656 187.703L113.643 184.472L112.531 185.117L112.525 183.971L116.044 181.948Z" fill="#A2BE24"/>
<g opacity="0.3">
<path d="M99.2025 191.572C99.9502 191.14 100.54 191.106 100.911 191.456L100.101 192.766C99.9818 192.675 99.836 192.626 99.6861 192.626C99.5362 192.626 99.3904 192.675 99.2711 192.766C98.9975 192.934 98.7721 193.171 98.617 193.452C98.4619 193.733 98.3824 194.05 98.3861 194.371C98.3861 195.057 98.7429 195.263 99.2779 194.954C99.6459 194.711 99.9345 194.365 100.108 193.96L100.924 194.323C100.554 195.1 99.9587 195.747 99.2162 196.182C97.9883 196.868 97.0965 196.464 97.0896 195.119C97.1161 194.398 97.3235 193.695 97.6927 193.076C98.0619 192.456 98.5811 191.939 99.2025 191.572Z" fill="white"/>
<path d="M95.4157 193.857L97.0896 197.287L95.7656 198.055L95.5049 197.438L94.0643 198.275L93.8105 199.187L92.5002 199.942L94.1535 194.604L95.4157 193.857ZM94.4073 196.992L95.1551 196.56L94.7778 195.675L94.4073 196.992Z" fill="white"/>
<path d="M103.168 189.281C103.915 188.849 104.54 188.821 104.883 189.164L104.073 190.461C103.953 190.369 103.806 190.319 103.655 190.319C103.503 190.319 103.356 190.369 103.236 190.461C102.964 190.631 102.74 190.867 102.585 191.148C102.43 191.429 102.349 191.745 102.351 192.066C102.351 192.752 102.715 192.958 103.243 192.649C103.613 192.408 103.902 192.062 104.073 191.655L104.889 192.018C104.519 192.795 103.924 193.442 103.181 193.877C101.953 194.563 101.055 194.159 101.055 192.814C101.084 192.096 101.293 191.396 101.662 190.779C102.031 190.162 102.549 189.647 103.168 189.281Z" fill="white"/>
<path d="M108.34 186.393L108.347 187.504L106.515 188.561V189.068L108.12 188.142L108.127 189.206L106.515 190.139L106.522 190.715L108.422 189.617V190.729L105.26 192.553L105.246 188.177L108.34 186.393Z" fill="white"/>
<path d="M110.741 185.007C111.804 184.397 112.477 184.644 112.477 185.652C112.444 186.207 112.267 186.743 111.964 187.209C111.661 187.674 111.242 188.053 110.748 188.307L110.206 188.623V189.693L108.923 190.44V186.064L110.741 185.007ZM110.666 187.216C110.819 187.142 110.949 187.026 111.041 186.882C111.133 186.738 111.184 186.571 111.187 186.4C111.187 186.084 111.015 185.981 110.666 186.187L110.199 186.455V187.484L110.666 187.216Z" fill="white"/>
<path d="M116.044 181.948V183.087L114.926 183.738L114.932 186.969L113.656 187.703L113.643 184.472L112.531 185.117L112.525 183.971L116.044 181.948Z" fill="white"/>
</g>
<g opacity="0.5">
<path d="M94.6199 212.536C95.889 211.802 96.7671 212.132 96.774 213.483C96.7418 214.191 96.5272 214.879 96.151 215.48C95.7748 216.081 95.2498 216.575 94.6268 216.913L92.754 217.997V213.62L94.6199 212.536ZM94.5719 215.795C94.8466 215.636 95.0748 215.408 95.2337 215.134C95.3926 214.859 95.4767 214.548 95.4774 214.231C95.4774 213.545 95.107 213.408 94.5651 213.723L94.03 214.032V216.09L94.5651 215.781" fill="white"/>
<path d="M100.327 209.237L100.334 210.355L98.5027 211.411V211.926L100.108 210.993L100.115 212.056L98.5027 212.982L98.5096 213.559L100.41 212.461V213.572L97.2473 215.397L97.2405 211.027L100.327 209.237Z" fill="white"/>
<path d="M102.9 207.673C103.648 207.247 104.231 207.22 104.608 207.57L103.799 208.866C103.683 208.771 103.539 208.716 103.389 208.709C103.239 208.703 103.092 208.746 102.969 208.832C102.694 209.001 102.467 209.238 102.311 209.521C102.154 209.803 102.074 210.121 102.077 210.444C102.077 211.13 102.44 211.329 102.975 211.02C103.345 210.779 103.634 210.433 103.805 210.026L104.615 210.389C104.247 211.17 103.649 211.819 102.9 212.248C101.679 212.934 100.773 212.53 100.773 211.185C100.808 210.469 101.021 209.773 101.392 209.16C101.763 208.547 102.282 208.036 102.9 207.673Z" fill="white"/>
<path d="M106.227 205.834L106.241 209.065L107.956 208.071L107.963 209.216L104.958 210.945L104.944 206.575L106.227 205.834Z" fill="white"/>
<path d="M109.582 203.893L109.595 208.27L108.313 209.01L108.306 204.634L109.582 203.893Z" fill="white"/>
<path d="M113.958 201.368L113.972 205.745L112.916 206.356L111.461 205.203L111.468 207.186L110.22 207.913L110.206 203.536L111.262 202.926L112.71 204.085L112.703 202.096L113.958 201.368Z" fill="white"/>
<path d="M117.676 199.228V200.339L115.845 201.396L115.852 201.91L117.457 200.984V202.041L115.852 202.967V203.543L117.752 202.445L117.759 203.557L114.589 205.388L114.576 201.012L117.676 199.228Z" fill="white"/>
</g>
<path d="M175.575 179.814C168.948 184.411 161.491 187.594 155.962 193.761C145.672 205.272 145.398 223.801 153.506 236.979C161.615 250.157 176.707 258.059 192.066 259.871C208.181 261.771 225.097 257.319 237.74 247.145C250.383 236.972 258.43 221.077 258.423 204.846C258.416 188.616 250.109 172.46 236.512 163.597C224.109 155.509 206.328 153.198 193.85 162.452C187.559 167.13 183.361 174.038 177.091 178.73C176.59 179.094 176.083 179.458 175.575 179.814Z" fill="#A2BE24"/>
<path opacity="0.2" d="M175.575 179.814C168.948 184.411 161.491 187.594 155.962 193.761C145.672 205.272 145.398 223.801 153.506 236.979C161.615 250.157 176.707 258.059 192.066 259.871C208.181 261.771 225.097 257.319 237.74 247.145C250.383 236.972 258.43 221.077 258.423 204.846C258.416 188.616 250.109 172.46 236.512 163.597C224.109 155.509 206.328 153.198 193.85 162.452C187.559 167.13 183.361 174.038 177.091 178.73C176.59 179.094 176.083 179.458 175.575 179.814Z" fill="black"/>
<path opacity="0.1" d="M175.575 179.814C168.948 184.411 161.491 187.594 155.962 193.761C145.672 205.272 145.398 223.801 153.506 236.979C161.615 250.157 176.707 258.059 192.066 259.871C208.181 261.771 225.097 257.319 237.74 247.145C250.383 236.972 258.43 221.077 258.423 204.846C258.416 188.616 250.109 172.46 236.512 163.597C224.109 155.509 206.328 153.198 193.85 162.452C187.559 167.13 183.361 174.038 177.091 178.73C176.59 179.094 176.083 179.458 175.575 179.814Z" fill="white"/>
<path d="M249.773 202.617C249.56 191.415 245.384 180.651 237.987 172.237C230.59 163.822 220.45 158.301 209.367 156.655C207.829 156.807 206.302 157.064 204.799 157.423C216.455 158.044 227.444 163.054 235.556 171.448C243.668 179.841 248.301 190.994 248.524 202.665C248.819 217.757 241.431 233.165 228.76 243.825C218.827 252.201 205.635 257.751 191.14 259.747L192.066 259.871C193.37 260.021 194.678 260.131 195.99 260.2C208.873 257.703 220.535 252.393 229.563 244.779C242.522 233.851 250.075 218.093 249.773 202.617Z" fill="white"/>
<path opacity="0.1" d="M178.271 247.276C178.271 247.166 178.271 247.056 178.319 246.946C178.865 243.357 180.519 240.028 183.051 237.425C185.582 234.822 188.864 233.076 192.437 232.431C198.828 231.205 204.952 228.859 210.527 225.502C214.485 223.108 218.217 220.179 222.655 218.882C226.961 217.652 231.556 217.92 235.689 219.643C231.964 215.726 225.577 214.005 220.467 215.774C224.007 210.369 227.114 204.538 228.328 198.192C229.543 191.847 228.685 184.884 224.857 179.67C223.226 177.45 221.123 175.619 218.699 174.309C216.275 173 213.591 172.244 210.84 172.096C208.089 171.949 205.34 172.413 202.79 173.456C200.24 174.498 197.953 176.094 196.093 178.127C192.307 182.277 190.166 188.108 187.676 193.143C185.892 196.759 184.04 200.463 181.097 203.221C176.652 207.378 170.252 208.88 165.642 212.825C160.421 217.339 158.164 224.548 158.137 231.456C158.225 236.115 158.905 240.744 160.161 245.231C165.568 250.386 172.014 254.327 179.067 256.79C178.057 253.725 177.785 250.466 178.271 247.276Z" fill="black"/>
<path d="M161.388 242.233C161.867 244.722 162.138 247.246 162.198 249.779L163.988 249.093C164.836 248.775 165.759 248.713 166.642 248.914C167.525 249.115 168.329 249.571 168.955 250.225L169.044 250.315C169.363 250.65 169.8 250.85 170.262 250.871C170.725 250.893 171.178 250.735 171.528 250.431C171.714 250.267 171.864 250.067 171.97 249.843C172.077 249.619 172.136 249.376 172.145 249.128L172.385 241.52L161.388 242.233Z" fill="#FFA8A7"/>
<path d="M168.29 270.517C164.585 274.482 157.753 277.953 152.786 274.565L153.342 275.834C158.308 279.216 165.141 275.745 168.852 271.779C172.563 267.814 170.156 265.057 173.489 261.537C174.75 260.334 175.736 258.871 176.378 257.25C176.227 256.873 176.089 256.379 175.911 255.809C175.19 257.462 174.182 258.974 172.934 260.275C169.593 263.794 172.001 266.545 168.29 270.517Z" fill="#263238"/>
<path d="M174.086 251.666C173.512 250.854 173.115 249.931 172.92 248.956C172.884 248.73 172.8 248.515 172.674 248.324C172.547 248.133 172.381 247.972 172.186 247.852L172.145 249.128C172.136 249.376 172.077 249.619 171.97 249.843C171.864 250.067 171.714 250.267 171.527 250.431C171.178 250.735 170.725 250.893 170.262 250.871C169.8 250.85 169.363 250.65 169.044 250.315L168.955 250.225C168.329 249.571 167.525 249.115 166.642 248.914C165.759 248.713 164.836 248.775 163.988 249.093L162.17 249.779C161.897 249.878 161.663 250.061 161.5 250.301C161.337 250.541 161.255 250.827 161.265 251.117C161.382 256.317 158.953 263.232 156.401 267.032C153.781 268.116 151.517 271.69 152.669 274.304L152.786 274.565C157.753 277.953 164.585 274.482 168.29 270.517C171.994 266.552 169.593 263.794 172.934 260.275C174.182 258.974 175.19 257.462 175.911 255.809C175.498 254.35 174.884 252.956 174.086 251.666Z" fill="#37474F"/>
<path d="M166.828 259.178C166.978 259.255 167.151 259.27 167.312 259.219C167.472 259.168 167.605 259.056 167.682 258.907C167.76 258.757 167.775 258.584 167.724 258.424C167.673 258.263 167.561 258.13 167.411 258.053C166.324 257.439 165.096 257.116 163.848 257.116C162.599 257.116 161.371 257.439 160.284 258.053C160.174 258.464 160.051 258.876 159.927 259.281C160.97 258.668 162.155 258.336 163.364 258.318C164.574 258.3 165.768 258.596 166.828 259.178Z" fill="white"/>
<path d="M167.741 256.365C167.89 256.436 168.062 256.446 168.218 256.392C168.375 256.338 168.504 256.225 168.578 256.077C168.616 256.005 168.64 255.927 168.648 255.846C168.656 255.765 168.648 255.684 168.625 255.606C168.601 255.528 168.562 255.456 168.511 255.393C168.459 255.33 168.396 255.278 168.324 255.24C167.186 254.616 165.907 254.294 164.609 254.304C163.311 254.313 162.037 254.655 160.908 255.295C160.833 255.72 160.744 256.146 160.648 256.571C162.815 255.432 164.997 254.972 167.741 256.365Z" fill="white"/>
<path d="M165.82 261.977C165.97 262.049 166.141 262.06 166.299 262.007C166.457 261.955 166.587 261.843 166.664 261.695C166.702 261.623 166.726 261.543 166.733 261.462C166.741 261.38 166.733 261.298 166.708 261.219C166.684 261.141 166.645 261.068 166.592 261.005C166.54 260.942 166.476 260.89 166.403 260.851C165.341 260.253 164.146 259.933 162.927 259.921C161.708 259.909 160.507 260.205 159.433 260.783C159.276 261.222 159.104 261.654 158.939 262.079C159.979 261.468 161.16 261.138 162.366 261.12C163.572 261.102 164.762 261.397 165.82 261.977Z" fill="white"/>
<path d="M156.408 267.032C153.787 268.116 151.524 271.69 152.676 274.304L152.793 274.565C157.684 277.905 164.379 274.565 168.125 270.689C164.997 264.563 158.466 266.093 156.408 267.032Z" fill="white"/>
<path d="M164.722 264.714C164.873 264.785 165.045 264.795 165.203 264.741C165.361 264.688 165.491 264.574 165.566 264.426C165.604 264.354 165.628 264.275 165.635 264.194C165.643 264.112 165.634 264.031 165.61 263.953C165.586 263.875 165.546 263.803 165.494 263.74C165.442 263.678 165.378 263.626 165.305 263.589C164.242 262.988 163.044 262.667 161.823 262.655C160.601 262.643 159.397 262.941 158.322 263.52C158.096 264.007 157.869 264.474 157.636 264.892C159.838 263.781 161.978 263.321 164.722 264.714Z" fill="white"/>
<path d="M153.589 257.36C153.022 259.827 152.253 262.243 151.291 264.583L153.198 264.686C154.106 264.732 154.981 265.045 155.713 265.586C156.445 266.126 157.002 266.87 157.314 267.725L157.355 267.849C157.512 268.285 157.832 268.643 158.248 268.849C158.663 269.055 159.142 269.092 159.584 268.953C159.821 268.88 160.04 268.758 160.227 268.597C160.415 268.435 160.567 268.236 160.675 268.013L163.961 261.153L153.589 257.36Z" fill="#FFA8A7"/>
<path d="M148.492 286.062C143.498 288.195 135.842 288.607 132.666 283.51V284.882C135.842 289.986 143.498 289.567 148.492 287.434C153.486 285.301 152.395 281.809 156.868 279.936C158.507 279.347 160 278.411 161.244 277.192C161.244 276.787 161.327 276.28 161.395 275.69C160.07 276.913 158.537 277.889 156.868 278.571C152.395 280.403 153.486 283.894 148.492 286.062Z" fill="#263238"/>
<path d="M161.395 271.114C161.193 270.144 161.193 269.142 161.395 268.171C161.462 267.951 161.48 267.72 161.448 267.492C161.416 267.265 161.335 267.047 161.21 266.854L160.661 268.006C160.507 268.326 160.262 268.593 159.957 268.774C159.653 268.956 159.301 269.043 158.947 269.025C158.592 269.008 158.251 268.886 157.965 268.676C157.68 268.465 157.463 268.175 157.341 267.842L157.3 267.718C156.988 266.863 156.432 266.119 155.7 265.579C154.968 265.038 154.093 264.725 153.184 264.679L151.242 264.576C150.952 264.556 150.663 264.627 150.417 264.781C150.17 264.936 149.979 265.164 149.87 265.434C147.874 270.236 142.86 275.587 138.997 278.029C136.164 277.967 132.645 280.32 132.645 283.181V283.469C135.821 288.566 143.477 288.154 148.471 286.021C153.465 283.887 152.374 280.396 156.847 278.523C158.516 277.841 160.05 276.865 161.375 275.642C161.596 274.141 161.603 272.617 161.395 271.114Z" fill="#37474F"/>
<path d="M151.723 275.086C151.828 275.217 151.981 275.301 152.149 275.319C152.316 275.337 152.484 275.288 152.615 275.182C152.746 275.077 152.829 274.923 152.847 274.756C152.865 274.589 152.816 274.421 152.711 274.29C151.962 273.291 150.968 272.503 149.825 272.002C148.682 271.5 147.428 271.303 146.187 271.43C145.919 271.759 145.652 272.081 145.37 272.404C146.571 272.262 147.787 272.435 148.901 272.905C150.015 273.375 150.987 274.127 151.723 275.086Z" fill="white"/>
<path d="M153.698 272.856C153.807 272.982 153.96 273.059 154.126 273.073C154.291 273.088 154.455 273.037 154.583 272.932C154.71 272.828 154.792 272.68 154.811 272.517C154.83 272.355 154.785 272.191 154.686 272.061C153.896 271.03 152.855 270.218 151.663 269.703C150.471 269.188 149.166 268.987 147.874 269.118C147.634 269.474 147.387 269.804 147.126 270.188C149.548 270.016 151.743 270.476 153.698 272.856Z" fill="white"/>
<path d="M149.678 277.213C149.783 277.344 149.935 277.428 150.102 277.446C150.269 277.465 150.436 277.417 150.567 277.312C150.698 277.207 150.782 277.055 150.8 276.889C150.819 276.722 150.771 276.555 150.666 276.424C149.936 275.447 148.971 274.67 147.86 274.166C146.75 273.663 145.53 273.448 144.314 273.543C143.991 273.886 143.628 274.229 143.333 274.53C144.532 274.392 145.747 274.566 146.859 275.036C147.971 275.506 148.942 276.256 149.678 277.213Z" fill="white"/>
<path d="M139.018 278.036C136.185 277.974 132.666 280.327 132.666 283.188V283.476C135.794 288.497 143.264 288.168 148.265 286.117C147.874 279.25 141.316 278.008 139.018 278.036Z" fill="white"/>
<path d="M147.572 279.277C147.684 279.389 147.832 279.455 147.989 279.463C148.146 279.471 148.301 279.421 148.423 279.323C148.546 279.224 148.627 279.084 148.653 278.928C148.678 278.773 148.645 278.614 148.56 278.482C147.827 277.503 146.858 276.726 145.744 276.222C144.63 275.718 143.406 275.504 142.187 275.6C141.789 275.957 141.392 276.286 141 276.609C143.443 276.458 145.617 276.897 147.572 279.277Z" fill="white"/>
<path d="M182.943 192.368L157.938 206.301C155.667 207.56 153.849 209.501 152.741 211.85C151.633 214.199 151.291 216.836 151.764 219.39L156.614 245.533L152.635 258.183C156.065 262.786 163.954 263.019 163.954 263.019C168.351 254.197 171.575 250.452 174.079 243.064C176.583 235.675 178.243 230.571 178.243 230.571L199.009 224.891C203.76 223.604 208.015 220.92 211.224 217.188C214.434 213.455 216.449 208.845 217.009 203.955C217.366 200.813 217.38 198.666 217.38 198.666L182.943 192.368Z" fill="#455A64"/>
<path opacity="0.2" d="M183.162 199.393C183.149 202.18 184.121 204.881 185.906 207.021L168.255 218.066C165.666 219.687 163.749 222.189 162.857 225.111L156.607 245.533L162.239 222.785C162.889 220.17 164.536 217.912 166.828 216.495L183.162 206.424C181.488 202.26 183.162 199.393 183.162 199.393Z" fill="black"/>
<path d="M167.562 168.523C170.107 175.383 178.772 173.606 178.772 173.606C179.211 164.414 167.562 168.523 167.562 168.523Z" fill="#A2BE24"/>
<path opacity="0.3" d="M167.562 168.523C170.107 175.383 178.772 173.606 178.772 173.606C179.211 164.414 167.562 168.523 167.562 168.523Z" fill="black"/>
<path d="M185.652 149.397H185.007C180.686 149.445 175.218 152.388 172.55 159.927L162.17 180.027L174.018 185.282L180.5 166.307L185.652 149.397Z" fill="#FFA8A7"/>
<path opacity="0.2" d="M177.331 162.74C176.501 165.113 176.453 167.672 176.323 170.183C176.192 172.694 175.897 175.726 174.752 177.962C173.485 177.086 171.968 176.643 170.429 176.7C168.889 176.756 167.41 177.31 166.211 178.278C165.351 178.998 164.69 179.926 164.29 180.974L174.018 185.289L180.5 166.314L183.69 155.852C182.226 156.52 180.909 157.474 179.817 158.656C178.726 159.839 177.88 161.227 177.331 162.74Z" fill="black"/>
<path d="M174.127 181.66C173.676 180.54 172.945 179.554 172.005 178.797C171.064 178.039 169.946 177.535 168.756 177.331C167.518 177.203 166.268 177.382 165.117 177.854C163.966 178.325 162.949 179.074 162.157 180.034C160.867 181.598 161.066 183.711 161.882 185.563C162.554 187.017 163.713 188.191 165.159 188.88C166.605 189.569 168.246 189.73 169.799 189.336C172.872 188.458 175.28 184.623 174.127 181.66Z" fill="#FFA8A7"/>
<path d="M185.652 149.397C180.493 148.828 173.99 151.208 167.562 168.523C175.932 168.735 178.772 173.606 178.772 173.606C182.551 164.002 186.812 150.611 186.812 150.611L185.652 149.397Z" fill="#A2BE24"/>
<path opacity="0.1" d="M185.652 149.397C180.493 148.828 173.99 151.208 167.562 168.523C175.932 168.735 178.772 173.606 178.772 173.606C182.551 164.002 186.812 150.611 186.812 150.611L185.652 149.397Z" fill="white"/>
<path d="M217.798 200.621C213.36 204.881 192.053 205.663 181.179 195.311C182.222 188.005 181.865 180.178 181.179 172.44C180.493 164.702 175.959 151.174 184.609 149.582C196.148 147.325 201.979 149.397 211.363 151.853C219.623 165.566 218.498 186.091 217.798 200.621Z" fill="#A2BE24"/>
<path opacity="0.2" d="M217.798 200.621C213.36 204.881 192.053 205.663 181.179 195.311C182.222 188.005 181.865 180.178 181.179 172.44C180.493 164.702 175.959 151.174 184.609 149.582C196.148 147.325 201.979 149.397 211.363 151.853C219.623 165.566 218.498 186.091 217.798 200.621Z" fill="white"/>
<path d="M178.977 137.577C177.064 136.651 175.564 135.045 174.77 133.073C173.977 131.101 173.945 128.904 174.683 126.91C173.655 126.652 172.745 126.052 172.104 125.209C171.822 124.796 171.671 124.308 171.671 123.809C171.671 123.309 171.821 122.821 172.103 122.408C172.384 121.996 172.784 121.678 173.249 121.495C173.714 121.313 174.224 121.276 174.711 121.388C174.333 120.704 174.195 119.914 174.319 119.143C174.444 118.372 174.823 117.665 175.397 117.134C175.984 116.654 176.719 116.391 177.479 116.391C178.238 116.391 178.973 116.654 179.561 117.134C179.464 116.664 179.521 116.174 179.724 115.738C179.926 115.302 180.263 114.943 180.686 114.713C181.569 114.306 182.56 114.196 183.512 114.397C184.465 114.548 185.392 114.85 186.345 114.974C187.974 115.093 189.612 115.017 191.223 114.747C192.834 114.486 194.484 114.632 196.025 115.173C197.527 115.804 199.077 117.635 198.659 119.522C198.833 119.183 199.077 118.886 199.375 118.649C199.673 118.413 200.018 118.242 200.387 118.15C200.754 118.077 201.132 118.083 201.496 118.166C201.86 118.25 202.203 118.411 202.5 118.637C201.602 119.439 200.751 120.276 199.859 121.072C200.785 120.441 202.418 120.887 203.131 121.758C203.779 122.683 204.161 123.767 204.236 124.893C204.841 129.124 204.825 133.42 204.188 137.646C203.866 139.827 203.015 142.626 201.224 143.923L178.977 137.577Z" fill="#37474F"/>
<path d="M189.631 145.631L190.084 150.639C190.105 151.028 190.004 151.414 189.796 151.743C189.519 152.266 189.413 152.862 189.493 153.448C189.573 154.033 189.835 154.579 190.242 155.009C190.886 155.495 191.67 155.762 192.478 155.77C194.003 155.85 195.527 155.607 196.952 155.058C198.376 154.508 199.669 153.664 200.744 152.58C200.967 152.355 201.143 152.087 201.261 151.792C201.379 151.498 201.436 151.182 201.43 150.865L201.101 138.174L189.631 145.631Z" fill="#FFA8A7"/>
<path opacity="0.3" d="M201.073 138.174L189.631 145.631L190.029 150.069C192.457 149.5 194.893 148.8 196.813 147.243C199.256 145.254 201.403 143.292 201.073 138.174Z" fill="black"/>
<path d="M176.625 127.521C176.879 133.37 178.277 139.112 180.741 144.424C181.244 145.601 181.909 146.702 182.716 147.696C183.532 148.695 184.66 149.391 185.92 149.671C187.463 149.96 189.027 149.418 190.509 148.883C193.212 147.902 195.997 146.879 198.144 144.993C200.292 143.106 201.773 140.109 201.039 137.33C201.803 137.637 202.632 137.747 203.449 137.65C204.267 137.553 205.047 137.252 205.718 136.775C206.365 136.258 206.874 135.587 207.197 134.824C207.52 134.061 207.649 133.23 207.57 132.405C207.398 130.806 206.198 129.201 204.572 129.16C204.079 129.177 203.596 129.298 203.154 129.515C202.711 129.733 202.32 130.042 202.007 130.422C201.389 131.19 200.886 132.043 200.511 132.954C200.34 133.39 200.08 133.787 199.75 134.12C199.58 134.282 199.366 134.39 199.134 134.428C198.903 134.466 198.665 134.432 198.453 134.333C198.254 134.164 198.095 133.954 197.989 133.717C197.882 133.479 197.83 133.221 197.836 132.961L197.376 129.352C197.338 129.075 197.221 128.815 197.038 128.603C196.856 128.391 196.616 128.237 196.347 128.159C195.539 127.883 194.856 127.328 194.419 126.594C194.044 125.952 193.765 125.259 193.589 124.536C193.555 124.4 193.49 124.273 193.397 124.167C193.305 124.06 193.189 123.977 193.059 123.925C192.928 123.872 192.787 123.85 192.647 123.863C192.506 123.875 192.371 123.92 192.252 123.995C187.772 126.787 181.79 127.925 176.625 127.521Z" fill="#FFA8A7"/>
<path d="M186.016 134.82L183.752 140.802L187.71 140.85L186.016 134.82Z" fill="#F28F8F"/>
<path d="M191.737 142.064L189.068 143.991C189.377 144.28 189.77 144.46 190.19 144.504C190.61 144.549 191.032 144.456 191.394 144.238C191.692 143.97 191.888 143.608 191.951 143.212C192.013 142.816 191.938 142.411 191.737 142.064Z" fill="#F28F8F"/>
<path opacity="0.3" d="M191.737 142.064L189.068 143.991C189.377 144.28 189.77 144.46 190.19 144.504C190.61 144.549 191.032 144.456 191.394 144.238C191.692 143.97 191.888 143.608 191.951 143.212C192.013 142.816 191.938 142.411 191.737 142.064Z" fill="black"/>
<path d="M190.399 144.506C190.75 144.514 191.095 144.422 191.394 144.238C191.634 144.04 191.809 143.775 191.9 143.478C191.99 143.18 191.991 142.863 191.902 142.565C191.45 142.634 191.043 142.874 190.763 143.236C190.484 143.597 190.354 144.051 190.399 144.506Z" fill="#F28F8F"/>
<path d="M191.614 134.058C191.674 134.271 191.669 134.498 191.6 134.708C191.532 134.919 191.402 135.104 191.228 135.241C191.053 135.378 190.843 135.46 190.622 135.476C190.401 135.493 190.18 135.444 189.987 135.335C189.794 135.226 189.638 135.062 189.539 134.864C189.439 134.667 189.4 134.444 189.428 134.224C189.455 134.004 189.547 133.797 189.692 133.63C189.837 133.462 190.028 133.342 190.242 133.283C190.526 133.207 190.829 133.245 191.086 133.39C191.342 133.535 191.532 133.775 191.614 134.058Z" fill="#263238"/>
<path d="M182.476 136.253C182.516 136.394 182.527 136.541 182.51 136.686C182.493 136.831 182.448 136.971 182.376 137.099C182.305 137.226 182.209 137.338 182.094 137.428C181.98 137.519 181.848 137.586 181.708 137.625C181.495 137.687 181.268 137.683 181.057 137.616C180.846 137.548 180.66 137.419 180.522 137.246C180.384 137.072 180.301 136.861 180.284 136.64C180.266 136.419 180.314 136.198 180.423 136.004C180.531 135.811 180.694 135.654 180.892 135.554C181.09 135.453 181.313 135.414 181.533 135.441C181.753 135.467 181.96 135.559 182.128 135.704C182.296 135.848 182.417 136.04 182.476 136.253Z" fill="#263238"/>
<path d="M180.219 132.261L178.298 134.579C178.113 134.313 178.013 133.996 178.013 133.671C178.013 133.346 178.113 133.028 178.298 132.762C178.541 132.509 178.849 132.329 179.188 132.24C179.527 132.152 179.884 132.159 180.219 132.261Z" fill="#263238"/>
<path d="M189.405 129.537L192.258 130.518C192.279 130.194 192.2 129.871 192.032 129.593C191.864 129.315 191.615 129.094 191.319 128.961C190.978 128.869 190.618 128.874 190.279 128.976C189.941 129.078 189.638 129.272 189.405 129.537Z" fill="#263238"/>
<path opacity="0.15" d="M186.352 200.099C186.352 200.099 186.352 200.099 186.352 200.058C186.352 200.017 186.352 200.058 186.352 200.024C186.352 199.99 186.352 200.024 186.352 199.983C186.349 199.969 186.349 199.955 186.352 199.942V199.9L178.593 185.494L177.434 186.592L185.22 201.039C185.269 201.119 185.304 201.208 185.323 201.3C185.329 201.327 185.329 201.355 185.323 201.383C185.317 201.41 185.305 201.435 185.289 201.458L186.352 200.243C186.356 200.225 186.356 200.207 186.352 200.189C186.355 200.17 186.355 200.152 186.352 200.134C186.352 200.134 186.352 200.113 186.352 200.099Z" fill="white"/>
<path opacity="0.2" d="M178.477 185.343V185.295V185.254C178.475 185.238 178.475 185.222 178.477 185.206L178.442 185.165L178.408 185.117L178.374 185.069V185.021L178.339 184.98L178.305 184.939V184.904L178.189 184.802H178.147H178.113H178.072H178.024H177.976L177.921 184.767L169.003 179.753H168.955H168.9H168.852H168.804H168.756H168.708H168.667H168.619H168.571H168.406C168.381 179.751 168.355 179.755 168.331 179.765C168.308 179.774 168.286 179.789 168.269 179.807L167.206 181.022C167.242 180.993 167.285 180.975 167.331 180.968C167.376 180.961 167.423 180.965 167.466 180.981C167.637 181.027 167.801 181.096 167.953 181.186L176.871 186.201C177.036 186.297 177.208 186.414 177.379 186.537C177.549 186.667 177.712 186.807 177.866 186.956C178.014 187.096 178.154 187.245 178.285 187.401C178.396 187.533 178.495 187.676 178.58 187.827L179.643 186.606L178.477 185.343Z" fill="white"/>
<path d="M217.098 155.722C215.836 153.554 213.895 152.024 211.391 151.839L209.916 154.144C208.354 157.001 207.553 160.211 207.59 163.467L207.858 187.559L206.088 188.293C201.115 190.431 195.916 192.003 190.591 192.979C187.814 190.777 184.36 189.604 180.816 189.658L182.133 192.107C179.643 193.706 174.011 190.831 174.011 190.831C173.599 194.344 175.87 197.986 178.888 199.832C181.907 201.677 210.712 198.967 216.817 195.03C220.837 192.43 219.884 167.59 219.884 167.59C220.163 163.444 219.193 159.31 217.098 155.722Z" fill="#FFA8A7"/>
<path d="M167.899 183.56C167.707 184.509 167.599 185.473 167.576 186.441C167.794 188.75 168.771 190.921 170.354 192.615C170.681 192.986 171.09 193.275 171.548 193.459C171.776 193.548 172.023 193.574 172.264 193.536C172.505 193.497 172.732 193.395 172.92 193.239C173.259 192.833 173.433 192.314 173.407 191.785C173.477 191.005 173.433 190.22 173.277 189.453C173.112 188.682 172.676 187.996 172.049 187.518C171.558 187.226 171.032 186.996 170.485 186.832C169.959 186.601 169.491 186.257 169.113 185.824L167.899 183.56Z" fill="#FFA8A7"/>
<path d="M211.391 151.853C218.313 152.505 222.161 157.307 220.46 178.518C215.534 181.708 206.85 178.991 206.85 178.991C205.368 155.756 209.134 153.204 211.391 151.853Z" fill="#A2BE24"/>
<path opacity="0.1" d="M211.391 151.853C218.313 152.505 222.161 157.307 220.46 178.518C215.534 181.708 206.85 178.991 206.85 178.991C205.368 155.756 209.134 153.204 211.391 151.853Z" fill="white"/>
<path d="M186.352 200.099C186.352 200.099 186.352 200.099 186.352 200.058C186.352 200.017 186.352 200.058 186.352 200.024C186.352 199.99 186.352 200.024 186.352 199.983C186.349 199.969 186.349 199.955 186.352 199.942V199.9L178.593 185.494V185.46V185.412V185.371C178.592 185.355 178.592 185.339 178.593 185.323L178.559 185.282L178.525 185.234L178.49 185.186V185.138L178.456 185.097L178.422 185.055V185.021L178.305 184.918H178.264H178.23H178.189H178.141H178.093L178.038 184.884L169.12 179.869H169.072H169.017H168.969H168.921H168.873H168.825H168.784H168.736H168.688H168.523C168.497 179.868 168.472 179.872 168.448 179.881C168.424 179.891 168.403 179.905 168.386 179.924L167.322 181.138C167.233 181.2 167.226 181.344 167.357 181.584L175.108 195.99C175.543 196.661 176.131 197.218 176.823 197.616L185.741 202.631C186.208 202.891 186.482 202.898 186.517 202.706C186.524 202.733 186.524 202.762 186.517 202.788L187.58 201.574C187.584 201.556 187.584 201.537 187.58 201.519C187.583 201.501 187.583 201.483 187.58 201.464C187.58 201.464 186.352 200.113 186.352 200.099ZM166.245 179.732C166.245 179.732 166.245 179.732 166.307 179.732C166.287 179.731 166.266 179.731 166.245 179.732ZM185.261 201.3C185.255 201.197 185.222 201.098 185.165 201.012C185.214 201.092 185.249 201.18 185.268 201.272C185.268 201.272 185.282 201.314 185.282 201.327L185.261 201.3Z" fill="#455A64"/>
<path d="M246.315 260.79L243.427 262.464L243.441 259.13L246.315 260.79Z" fill="#E6E6E6"/>
<path d="M243.557 226.744L271.622 242.954L243.557 226.744Z" fill="#CFCFCF"/>
<path d="M246.315 260.79L271.56 275.367V278.701L274.565 280.437L274.674 241.218L240.539 221.516L240.429 260.735L243.434 262.464V259.13L246.315 260.79ZM271.587 255.672L243.53 239.462L243.571 226.744L271.656 242.954L271.587 255.672ZM271.546 271.869L243.475 255.665L243.53 242.981V242.947L271.601 259.15L271.546 271.869Z" fill="#E0E0E0"/>
<path d="M243.475 255.665L243.51 242.981V242.947L271.581 259.15L271.539 271.869L243.475 255.665Z" fill="#E0E0E0"/>
<path d="M243.516 239.462L243.558 226.744L271.622 242.954L271.587 255.672L243.516 239.462Z" fill="#E0E0E0"/>
<path d="M274.668 241.218L304.467 223.904L304.351 263.122L274.558 280.437L274.668 241.218Z" fill="#EBEBEB"/>
<path d="M274.668 241.218L240.532 221.516L270.332 204.202L304.467 223.904L274.668 241.218Z" fill="#F5F5F5"/>
<path opacity="0.2" d="M246.315 260.79L243.427 262.464L243.441 259.13L246.315 260.79Z" fill="white"/>
<path d="M243.557 226.744L271.622 242.954L243.557 226.744Z" fill="#CFCFCF"/>
<path opacity="0.8" d="M243.475 255.665L243.51 242.981V242.947L271.581 259.15L271.539 271.869L243.475 255.665Z" fill="white"/>
<path opacity="0.8" d="M243.516 239.462L243.558 226.744L271.622 242.954L271.587 255.672L243.516 239.462Z" fill="white"/>
<path d="M252.709 236.759L252.716 235.003L262.436 240.614L262.429 242.371L252.709 236.759Z" fill="#E0E0E0"/>
<path d="M252.709 252.736L252.716 250.973L262.436 256.591L262.429 258.348L252.709 252.736Z" fill="#E0E0E0"/>
<path opacity="0.05" d="M281.26 214.313C277.466 212.125 271.347 212.125 267.581 214.313C263.815 216.502 263.836 220.048 267.622 222.237C271.409 224.425 277.542 224.425 281.301 222.237C285.06 220.048 285.074 216.502 281.26 214.313Z" fill="black"/>
<path d="M284.573 200.545L274.174 200.847L263.781 200.545C263.328 207.57 264.7 214.725 266.593 218.217C267.043 219.104 267.764 219.825 268.651 220.275C271.718 222.051 276.678 222.051 279.723 220.275C280.628 219.807 281.352 219.051 281.781 218.127C283.661 214.649 285.019 207.536 284.573 200.545Z" fill="white"/>
<path d="M281.5 196.285C285.575 198.638 285.616 202.459 281.548 204.805C277.48 207.151 270.922 207.158 266.847 204.805C262.772 202.452 262.731 198.631 266.799 196.285C270.867 193.939 277.432 193.939 281.5 196.285Z" fill="#EBEBEB"/>
<path d="M279.888 197.225C283.064 199.057 283.078 202.027 279.922 203.865C276.767 205.704 271.629 205.704 268.452 203.865C265.276 202.027 265.256 199.063 268.411 197.225C271.567 195.387 276.712 195.387 279.888 197.225Z" fill="#E0E0E0"/>
<g opacity="0.15">
<path d="M279.888 197.225C283.064 199.057 283.078 202.027 279.922 203.865C276.767 205.704 271.629 205.704 268.452 203.865C265.276 202.027 265.256 199.063 268.411 197.225C271.567 195.387 276.712 195.387 279.888 197.225Z" fill="black"/>
</g>
<path d="M273.309 200.84C274.145 201.536 275.133 202.023 276.193 202.261C277.254 202.5 278.355 202.483 279.408 202.212C280.423 201.904 281.346 201.347 282.092 200.592C282.838 199.838 283.384 198.909 283.682 197.89C282.45 197.306 281.322 196.525 280.341 195.579C281.9 195.184 283.539 195.241 285.067 195.743C285.492 195.079 285.747 194.32 285.809 193.534C285.872 192.748 285.739 191.959 285.424 191.236C283.649 190.447 281.652 190.309 279.785 190.845C280.561 190.171 281.468 189.663 282.449 189.354C283.429 189.045 284.463 188.941 285.486 189.048C285.628 186.067 285.161 183.089 284.114 180.295C280.238 180.493 276.479 182.167 275.196 183.368C275.138 184.754 275.284 186.14 275.628 187.484C275.126 187.229 274.698 186.852 274.382 186.386C274.067 185.92 273.875 185.382 273.824 184.822C271.395 185.433 270.36 186.64 269.982 187.566C270.332 189.289 271.124 190.892 272.28 192.217C270.003 191.531 269.077 188.993 269.077 188.993C266.854 194.316 267.286 200.312 273.309 200.84Z" fill="#A2BE24"/>
<path opacity="0.2" d="M273.309 200.84C274.145 201.536 275.133 202.023 276.193 202.261C277.254 202.5 278.355 202.483 279.408 202.212C280.423 201.904 281.346 201.347 282.092 200.592C282.838 199.838 283.384 198.909 283.682 197.89C282.45 197.306 281.322 196.525 280.341 195.579C281.9 195.184 283.539 195.241 285.067 195.743C285.492 195.079 285.747 194.32 285.809 193.534C285.872 192.748 285.739 191.959 285.424 191.236C283.649 190.447 281.652 190.309 279.785 190.845C280.561 190.171 281.468 189.663 282.449 189.354C283.429 189.045 284.463 188.941 285.486 189.048C285.628 186.067 285.161 183.089 284.114 180.295C280.238 180.493 276.479 182.167 275.196 183.368C275.138 184.754 275.284 186.14 275.628 187.484C275.126 187.229 274.698 186.852 274.382 186.386C274.067 185.92 273.875 185.382 273.824 184.822C271.395 185.433 270.36 186.64 269.982 187.566C270.332 189.289 271.124 190.892 272.28 192.217C270.003 191.531 269.077 188.993 269.077 188.993C266.854 194.316 267.286 200.312 273.309 200.84Z" fill="black"/>
<path opacity="0.3" d="M273.309 200.84C274.145 201.536 275.133 202.023 276.193 202.261C277.254 202.5 278.355 202.483 279.408 202.212C280.423 201.904 281.346 201.347 282.092 200.592C282.838 199.838 283.384 198.909 283.682 197.89C282.45 197.306 281.322 196.525 280.341 195.579C281.9 195.184 283.539 195.241 285.067 195.743C285.492 195.079 285.747 194.32 285.809 193.534C285.872 192.748 285.739 191.959 285.424 191.236C283.649 190.447 281.652 190.309 279.785 190.845C280.561 190.171 281.468 189.663 282.449 189.354C283.429 189.045 284.463 188.941 285.486 189.048C285.628 186.067 285.161 183.089 284.114 180.295C280.238 180.493 276.479 182.167 275.196 183.368C275.138 184.754 275.284 186.14 275.628 187.484C275.126 187.229 274.698 186.852 274.382 186.386C274.067 185.92 273.875 185.382 273.824 184.822C271.395 185.433 270.36 186.64 269.982 187.566C270.332 189.289 271.124 190.892 272.28 192.217C270.003 191.531 269.077 188.993 269.077 188.993C266.854 194.316 267.286 200.312 273.309 200.84Z" fill="white"/>
<path d="M273.172 201.416C273.114 201.41 273.06 201.381 273.022 201.337C272.984 201.292 272.964 201.235 272.966 201.176C273.337 196.278 276.143 188.197 282.817 181.536C282.861 181.505 282.914 181.491 282.967 181.495C283.02 181.5 283.07 181.523 283.108 181.561C283.146 181.599 283.169 181.649 283.174 181.702C283.178 181.755 283.164 181.808 283.133 181.852C276.54 188.43 273.783 196.388 273.419 201.211C273.417 201.24 273.408 201.269 273.394 201.296C273.38 201.322 273.361 201.346 273.338 201.365C273.316 201.384 273.289 201.399 273.26 201.407C273.232 201.416 273.202 201.419 273.172 201.416Z" fill="#F5F5F5"/>
<path d="M275.004 203.461C274.226 204.095 273.309 204.536 272.328 204.749C271.348 204.961 270.33 204.939 269.36 204.683C268.389 204.428 267.493 203.946 266.744 203.279C265.995 202.611 265.414 201.775 265.05 200.84C266.163 200.33 267.182 199.634 268.061 198.782C266.588 198.427 265.046 198.472 263.595 198.913C263.156 198.352 262.867 197.688 262.758 196.984C262.649 196.28 262.722 195.56 262.971 194.893C264.662 194.2 266.534 194.089 268.295 194.577C266.728 193.351 264.754 192.765 262.772 192.938C262.438 190.31 262.694 187.641 263.52 185.124C267.211 185.343 270.867 186.873 272.136 187.957C272.282 189.176 272.233 190.41 271.992 191.614C272.439 191.403 272.819 191.072 273.09 190.657C273.36 190.243 273.509 189.762 273.522 189.267C275.834 189.823 276.876 190.907 277.288 191.73C277.072 193.252 276.425 194.681 275.422 195.846C276.072 195.616 276.662 195.241 277.147 194.751C277.631 194.26 277.999 193.666 278.221 193.013C280.629 197.712 280.574 203.008 275.004 203.461Z" fill="#A2BE24"/>
<path opacity="0.3" d="M275.004 203.461C274.226 204.095 273.309 204.536 272.328 204.749C271.348 204.961 270.33 204.939 269.36 204.683C268.389 204.428 267.493 203.946 266.744 203.279C265.995 202.611 265.414 201.775 265.05 200.84C266.163 200.33 267.182 199.634 268.061 198.782C266.588 198.427 265.046 198.472 263.595 198.913C263.156 198.352 262.867 197.688 262.758 196.984C262.649 196.28 262.722 195.56 262.971 194.893C264.662 194.2 266.534 194.089 268.295 194.577C266.728 193.351 264.754 192.765 262.772 192.938C262.438 190.31 262.694 187.641 263.52 185.124C267.211 185.343 270.867 186.873 272.136 187.957C272.282 189.176 272.233 190.41 271.992 191.614C272.439 191.403 272.819 191.072 273.09 190.657C273.36 190.243 273.509 189.762 273.522 189.267C275.834 189.823 276.876 190.907 277.288 191.73C277.072 193.252 276.425 194.681 275.422 195.846C276.072 195.616 276.662 195.241 277.147 194.751C277.631 194.26 277.999 193.666 278.221 193.013C280.629 197.712 280.574 203.008 275.004 203.461Z" fill="white"/>
<path d="M275.155 203.996C275.1 203.995 275.048 203.975 275.007 203.94C274.966 203.905 274.938 203.857 274.928 203.804C274.297 199.544 271.196 192.464 264.563 186.551C264.519 186.512 264.493 186.457 264.49 186.398C264.486 186.34 264.507 186.282 264.546 186.239C264.585 186.195 264.64 186.169 264.698 186.165C264.757 186.162 264.814 186.182 264.858 186.222C271.587 192.21 274.729 199.4 275.374 203.735C275.379 203.764 275.378 203.794 275.371 203.822C275.365 203.851 275.352 203.877 275.335 203.901C275.318 203.925 275.296 203.945 275.271 203.96C275.246 203.975 275.218 203.985 275.189 203.989L275.155 203.996Z" fill="white"/>
</svg>
