<svg width="182" height="170" viewBox="0 0 182 170" fill="none" xmlns="http://www.w3.org/2000/svg">
<path d="M91 169.927C141.258 169.927 182 146.404 182 117.387C182 88.3702 141.258 64.8474 91 64.8474C40.7421 64.8474 0 88.3702 0 117.387C0 146.404 40.7421 169.927 91 169.927Z" fill="#F0F0F0"/>
<path d="M72.1696 157.199C89.5004 157.199 103.55 149.089 103.55 139.084C103.55 129.078 89.5004 120.968 72.1696 120.968C54.8389 120.968 40.7895 129.078 40.7895 139.084C40.7895 149.089 54.8389 157.199 72.1696 157.199Z" fill="#E0E0E0"/>
<path d="M161.408 116.418L157.727 114.293C157.727 114.293 156.827 106.413 157.426 100.31C158.268 91.7353 163.807 81.4143 170.412 83.8401C177.017 86.2658 167.384 94.9954 165.24 102.269C163.096 109.542 161.408 116.418 161.408 116.418Z" fill="#A2BE24"/>
<path opacity="0.15" d="M161.408 116.418L157.727 114.293C157.727 114.293 156.827 106.413 157.426 100.31C158.268 91.7353 163.807 81.4143 170.412 83.8401C177.017 86.2658 167.384 94.9954 165.24 102.269C163.096 109.542 161.408 116.418 161.408 116.418Z" fill="black"/>
<path d="M159.473 115.525C159.532 115.522 159.587 115.496 159.627 115.453C159.667 115.41 159.688 115.352 159.686 115.294C159.04 96.2393 168.527 86.6522 168.62 86.5595C168.662 86.5175 168.685 86.4605 168.685 86.4011C168.685 86.3417 168.662 86.2847 168.62 86.2427C168.599 86.2221 168.575 86.2057 168.548 86.1945C168.521 86.1833 168.492 86.1775 168.463 86.1775C168.434 86.1775 168.405 86.1833 168.379 86.1945C168.352 86.2057 168.327 86.2221 168.307 86.2427C168.207 86.3354 158.585 96.0616 159.237 115.309C159.238 115.339 159.245 115.368 159.258 115.395C159.27 115.422 159.288 115.447 159.31 115.467C159.332 115.487 159.358 115.502 159.386 115.513C159.414 115.523 159.443 115.527 159.473 115.525Z" fill="white"/>
<path d="M163.722 117.743L161.103 116.232C161.103 116.232 160.655 110.825 163.309 104.258C165.626 98.5413 171.343 93.7941 174.225 94.7907C177.106 95.7873 177.033 97.8306 175.627 99.9744C174.221 102.118 165.68 107.221 163.722 117.743Z" fill="#A2BE24"/>
<path d="M162.339 117.171C162.398 117.17 162.455 117.146 162.496 117.104C162.538 117.062 162.562 117.006 162.563 116.947C162.509 104.895 173.823 96.7529 173.939 96.6718C173.963 96.6553 173.983 96.634 173.999 96.6093C174.015 96.5846 174.025 96.5569 174.03 96.528C174.035 96.4992 174.033 96.4696 174.026 96.4412C174.019 96.4128 174.007 96.3861 173.989 96.3628C173.955 96.3151 173.903 96.2828 173.845 96.2726C173.788 96.2625 173.728 96.2755 173.68 96.3087C173.564 96.3898 162.065 104.671 162.115 116.947C162.115 117.006 162.139 117.063 162.181 117.105C162.223 117.147 162.28 117.171 162.339 117.171Z" fill="white"/>
<path d="M25.2038 111.686L28.6029 109.391C28.6029 109.391 30.0977 100.507 28.7072 92.67C26.7527 81.6769 19.1549 78.0228 16.451 79.1816C13.7472 80.3404 13.1678 83.6121 18.2162 89.885C21.2098 93.5738 25.0995 101.45 25.2038 111.686Z" fill="#A2BE24"/>
<g opacity="0.15">
<path d="M25.2038 111.686L28.6029 109.391C28.6029 109.391 30.0977 100.507 28.7072 92.67C26.7527 81.6769 19.1549 78.0228 16.451 79.1816C13.7472 80.3404 13.1678 83.6121 18.2162 89.885C21.2098 93.5738 25.0995 101.45 25.2038 111.686Z" fill="black"/>
</g>
<path d="M26.3703 107.282H26.3355C26.3008 107.28 26.2669 107.271 26.2361 107.254C26.2053 107.238 26.1783 107.216 26.1568 107.188C26.1352 107.161 26.1197 107.129 26.1113 107.096C26.1028 107.062 26.1016 107.027 26.1076 106.993C27.3359 96.6445 22.9673 85.412 18.2124 80.9429C18.1666 80.8966 18.1409 80.8342 18.1409 80.7691C18.1409 80.704 18.1666 80.6415 18.2124 80.5953C18.235 80.5721 18.2621 80.5538 18.2919 80.5412C18.3218 80.5287 18.3538 80.5222 18.3862 80.5222C18.4186 80.5222 18.4506 80.5287 18.4805 80.5412C18.5103 80.5538 18.5373 80.5721 18.56 80.5953C23.4038 85.1455 27.8535 96.5634 26.6098 107.062C26.6025 107.121 26.5744 107.176 26.5305 107.216C26.4866 107.257 26.4298 107.28 26.3703 107.282Z" fill="white"/>
<path d="M16.3042 117.688C15.7634 118.013 14.1875 116.842 13.751 116.56C13.003 116.072 12.3936 115.399 11.9819 114.606C11.5201 113.707 11.3487 112.686 11.4914 111.686C11.5705 111.163 11.6853 110.647 11.8351 110.141C11.9703 109.635 12.1055 109.129 12.2214 108.619C12.3927 108.123 12.4585 107.597 12.4145 107.074C12.2639 106.042 11.333 105.336 10.4832 104.729C9.54846 104.053 8.5519 103.161 8.5519 101.917C8.59954 100.94 8.97356 100.007 9.61412 99.2673C10.1935 98.4948 10.8888 97.8227 11.4103 97.0154C11.818 96.456 12.0261 95.7759 12.0012 95.0841C11.9341 94.6576 11.7817 94.249 11.5532 93.8828C11.0974 93.0793 10.5064 92.3377 10.1858 91.4841C9.86519 90.6304 9.88837 89.5334 10.5721 88.8961C11.1167 88.3746 11.9472 88.2897 12.7004 88.3244C13.4101 88.3951 14.0958 88.6206 14.7089 88.9849C16.7059 90.0472 17.8802 92.3648 19.993 93.172C20.8081 93.4811 21.6965 93.5351 22.5424 93.7437C23.3883 93.9523 24.2613 94.3656 24.6668 95.1343C25.4664 96.66 24.072 98.5836 24.6437 100.202C25.1535 101.639 26.575 102.164 27.3784 103.451C27.7045 104.022 27.8398 104.682 27.7647 105.336C27.7194 106.439 27.4719 107.524 27.0346 108.538C26.5317 109.589 25.9641 110.608 25.3351 111.589C25.3351 111.589 16.3853 117.638 16.3042 117.688Z" fill="#A2BE24"/>
<path d="M21.5265 114.486C21.494 114.486 21.462 114.479 21.4322 114.466C21.4024 114.453 21.3754 114.434 21.3528 114.411C21.3302 114.388 21.3125 114.36 21.3005 114.33C21.2885 114.3 21.2827 114.267 21.2832 114.235C21.4995 104.455 16.6866 93.763 13.2798 90.6729C13.2313 90.6292 13.2021 90.5681 13.1985 90.503C13.1949 90.4379 13.2172 90.374 13.2605 90.3252C13.2831 90.3021 13.3102 90.2837 13.34 90.2712C13.3699 90.2587 13.4019 90.2522 13.4343 90.2522C13.4667 90.2522 13.4987 90.2587 13.5285 90.2712C13.5584 90.2837 13.5854 90.3021 13.6081 90.3252C17.0845 93.454 21.9939 104.331 21.7737 114.247C21.7732 114.279 21.7664 114.31 21.7537 114.339C21.741 114.369 21.7227 114.395 21.6997 114.418C21.6768 114.44 21.6497 114.457 21.6199 114.469C21.5902 114.481 21.5585 114.487 21.5265 114.486Z" fill="white"/>
<path d="M19.7227 102.57C19.6998 102.576 19.6759 102.576 19.6531 102.57C16.4935 101.658 12.5768 101.566 12.5381 101.562C12.5058 101.561 12.474 101.554 12.4444 101.542C12.4148 101.529 12.3881 101.51 12.3658 101.487C12.3435 101.463 12.3261 101.436 12.3146 101.405C12.303 101.375 12.2976 101.343 12.2987 101.311C12.298 101.278 12.3042 101.246 12.3168 101.216C12.3293 101.186 12.348 101.158 12.3716 101.136C12.3952 101.113 12.4232 101.096 12.4539 101.085C12.4845 101.074 12.5172 101.069 12.5497 101.071C12.5884 101.071 16.5669 101.168 19.7883 102.095C19.8506 102.114 19.9029 102.156 19.934 102.213C19.9651 102.271 19.9724 102.338 19.9544 102.4C19.9394 102.45 19.9086 102.493 19.8669 102.524C19.8251 102.554 19.7745 102.571 19.7227 102.57Z" fill="white"/>
<path d="M110.761 104.961L109.297 104.115C109.053 103.956 108.85 103.743 108.705 103.491C108.559 103.239 108.475 102.957 108.459 102.666V41.822C108.475 41.5321 108.559 41.25 108.704 40.9984C108.849 40.7468 109.051 40.5328 109.293 40.3735L149.986 16.8809C150.246 16.7496 150.532 16.6812 150.823 16.6812C151.113 16.6812 151.4 16.7496 151.659 16.8809L153.123 17.7268C153.367 17.8852 153.57 18.099 153.716 18.3507C153.861 18.6024 153.945 18.8849 153.961 19.1753V80.0197C153.945 80.3096 153.861 80.5917 153.716 80.8433C153.571 81.0949 153.37 81.3089 153.127 81.4682L112.434 104.965C112.175 105.096 111.888 105.165 111.597 105.164C111.306 105.163 111.02 105.094 110.761 104.961Z" fill="#455A64"/>
<path d="M153.961 19.0401C153.903 18.6075 153.552 18.4492 153.131 18.6925L112.434 42.189C112.188 42.3434 111.984 42.5572 111.843 42.8108L108.702 40.9993C108.843 40.7437 109.046 40.5283 109.293 40.3735L149.986 16.8809C150.246 16.7496 150.532 16.6812 150.823 16.6812C151.113 16.6812 151.4 16.7496 151.659 16.8809L153.123 17.7268C153.349 17.8724 153.541 18.0651 153.686 18.2918C153.83 18.5185 153.924 18.7738 153.961 19.0401Z" fill="#455A64"/>
<path d="M112.291 105.03C112.044 105.13 111.778 105.176 111.511 105.165C111.245 105.154 110.984 105.085 110.746 104.965L109.278 104.115C109.035 103.956 108.833 103.742 108.688 103.49C108.543 103.238 108.46 102.956 108.444 102.666V41.822C108.454 41.5315 108.537 41.2484 108.687 40.9993L111.827 42.8108C111.675 43.0603 111.59 43.3452 111.58 43.6375V104.482C111.596 104.961 111.897 105.181 112.291 105.03Z" fill="#263238"/>
<path d="M111.596 43.6451V104.482C111.596 105.015 111.982 105.231 112.434 104.965L153.127 81.4682C153.37 81.3089 153.571 81.0949 153.716 80.8433C153.861 80.5917 153.945 80.3096 153.961 80.0197V19.1753C153.961 18.6423 153.575 18.426 153.127 18.6925L112.434 42.1889C112.189 42.3481 111.985 42.563 111.839 42.8162C111.694 43.0693 111.61 43.3534 111.596 43.6451Z" fill="#37474F"/>
<path d="M102.094 66.8209C101.568 66.5081 99.1309 65.1214 99.0034 65.048C98.9041 64.9887 98.8193 64.9079 98.7554 64.8115C98.6915 64.7151 98.65 64.6056 98.6341 64.491C98.6181 64.3765 98.6281 64.2598 98.6633 64.1496C98.6985 64.0394 98.7579 63.9386 98.8373 63.8544L108.459 53.5334L111.596 55.3334L101.978 65.6621C101.902 65.7426 101.845 65.8383 101.809 65.9427C101.774 66.0472 101.761 66.1581 101.772 66.2679C101.783 66.3777 101.817 66.4839 101.873 66.5793C101.928 66.6746 102.004 66.7571 102.094 66.8209Z" fill="#455A64"/>
<path d="M111.596 55.3452L101.978 65.6623C101.871 65.7764 101.801 65.9201 101.778 66.0746C101.754 66.2291 101.778 66.3871 101.846 66.5276C101.915 66.6682 102.024 66.7848 102.16 66.8621C102.295 66.9393 102.452 66.9735 102.607 66.9602L111.596 66.2186V55.3452Z" fill="#37474F"/>
<path d="M132.778 36.7698C137.522 34.0311 141.365 36.2522 141.365 41.7294C141.365 47.2066 137.522 53.8619 132.778 56.6006C128.035 59.3392 124.192 57.1182 124.192 51.6448C124.192 46.1714 128.035 39.5084 132.778 36.7698Z" fill="#A2BE24"/>
<path d="M132.717 41.0803C134.262 40.1919 135.502 40.9104 135.502 42.6872C135.449 43.6531 135.169 44.5929 134.685 45.4305C134.202 46.268 133.527 46.9797 132.717 47.5078C131.171 48.3962 129.928 47.6777 129.928 45.9009C129.981 44.9347 130.261 43.9947 130.746 43.1571C131.23 42.3195 131.905 41.608 132.717 41.0803Z" fill="white"/>
<path d="M138.209 50.5515C138.209 47.6352 136.158 46.4494 133.632 47.9095L132.052 48.821C129.526 50.2811 127.475 53.8425 127.475 56.751V57.5506C127.952 57.7031 128.45 57.78 128.95 57.7785C130.306 57.7324 131.625 57.333 132.778 56.6197C134.974 55.2672 136.832 53.4308 138.209 51.2506V50.5515Z" fill="white"/>
<path d="M127.34 83.7124L138.217 77.4317C138.68 77.1652 139.055 77.3815 139.055 77.9146V81.418C139.039 81.7084 138.955 81.9909 138.81 82.2426C138.664 82.4944 138.461 82.7081 138.217 82.8665L127.34 89.1471C126.876 89.4136 126.502 89.1973 126.502 88.6643V85.1609C126.517 84.8705 126.601 84.5879 126.747 84.3362C126.893 84.0845 127.096 83.8708 127.34 83.7124Z" fill="#A2BE24"/>
<path d="M122.013 75.8866L143.532 63.4566C144.084 63.136 144.536 63.3948 144.536 64.036V65.3377C144.517 65.6861 144.417 66.025 144.242 66.327C144.068 66.629 143.824 66.8856 143.532 67.0759L122.002 79.5059C121.449 79.8265 121.001 79.5677 121.001 78.9265V77.6364C121.019 77.2853 121.12 76.9435 121.296 76.6392C121.472 76.335 121.718 76.077 122.013 75.8866Z" fill="#FAFAFA"/>
<path d="M124.532 66.8905C124.825 66.7206 125.053 66.6935 125.215 66.8133C125.378 66.933 125.459 67.1995 125.459 67.609C125.467 67.9827 125.383 68.3527 125.215 68.6867C125.063 68.9885 124.826 69.2386 124.532 69.4051L123.952 69.7412V70.9888C123.951 71.0318 123.941 71.074 123.921 71.1124C123.908 71.1474 123.883 71.1771 123.852 71.1974L123.558 71.3673C123.548 71.3749 123.536 71.3789 123.523 71.3789C123.511 71.3789 123.499 71.3749 123.489 71.3673C123.468 71.3412 123.458 71.3079 123.462 71.2746V67.6631C123.461 67.6204 123.471 67.5781 123.489 67.5395C123.503 67.5051 123.527 67.4756 123.558 67.4545L124.532 66.8905ZM123.952 69.042L124.512 68.7176C124.648 68.6412 124.762 68.5324 124.844 68.4008C124.932 68.2457 124.975 68.0691 124.968 67.891C124.968 67.6824 124.926 67.5626 124.844 67.5279C124.787 67.5139 124.727 67.5133 124.67 67.526C124.612 67.5387 124.558 67.5645 124.512 67.6013L123.952 67.9257V69.042Z" fill="#FAFAFA"/>
<path d="M127.077 65.419C127.116 65.3958 127.147 65.3958 127.166 65.419C127.191 65.4536 127.208 65.4931 127.216 65.5349L128.108 68.5555C128.108 68.5555 128.108 68.5786 128.108 68.5902C128.108 68.6333 128.097 68.6756 128.077 68.7138C128.064 68.7488 128.04 68.7785 128.008 68.7988L127.745 68.9494C127.699 68.9765 127.664 68.9803 127.645 68.9494C127.626 68.93 127.613 68.9061 127.606 68.8799L127.448 68.3507L126.289 69.0151L126.135 69.7258C126.124 69.7643 126.109 69.8018 126.092 69.8379C126.073 69.8849 126.037 69.9234 125.992 69.946L125.729 70.0967C125.719 70.1048 125.707 70.1093 125.694 70.1093C125.682 70.1093 125.669 70.1048 125.659 70.0967C125.639 70.0717 125.63 70.0398 125.632 70.0078C125.63 69.9937 125.63 69.9794 125.632 69.9653L126.521 65.9173C126.532 65.8578 126.548 65.7995 126.571 65.7435C126.59 65.7028 126.621 65.6691 126.66 65.6469L127.077 65.419ZM127.278 67.7598L126.892 66.3962L126.505 68.2194L127.278 67.7598Z" fill="#FAFAFA"/>
<path d="M129.46 63.9858C129.59 63.9043 129.737 63.8552 129.889 63.8429C129.997 63.8332 130.105 63.8575 130.198 63.9124C130.283 63.9675 130.349 64.0469 130.387 64.1403C130.43 64.2354 130.453 64.3377 130.457 64.4416C130.46 64.4845 130.45 64.5273 130.43 64.5652C130.416 64.6002 130.392 64.6299 130.36 64.6502L130.105 64.797C130.063 64.8201 130.032 64.824 130.013 64.797C129.989 64.7812 129.969 64.7601 129.955 64.7352C129.939 64.7004 129.917 64.6692 129.889 64.6433C129.861 64.6174 129.828 64.5974 129.793 64.5845C129.675 64.5677 129.555 64.5983 129.46 64.6695C129.398 64.7099 129.338 64.7551 129.283 64.8047C129.225 64.8575 129.175 64.9172 129.132 64.9824C129.091 65.0453 129.057 65.1126 129.032 65.1832C129.009 65.2504 128.997 65.3209 128.997 65.3918C128.992 65.4568 129.004 65.5219 129.032 65.5811C129.043 65.6018 129.06 65.6194 129.08 65.6322C129.101 65.6449 129.124 65.6526 129.147 65.6545C129.219 65.6669 129.292 65.6669 129.364 65.6545L129.7 65.5811C129.825 65.544 129.956 65.5283 130.086 65.5347C130.179 65.5345 130.27 65.5643 130.345 65.6197C130.416 65.6792 130.467 65.7586 130.492 65.8476C130.529 65.9727 130.546 66.1032 130.542 66.2339C130.542 66.4064 130.517 66.5781 130.468 66.7437C130.421 66.9141 130.353 67.0776 130.264 67.2304C130.17 67.3871 130.059 67.5322 129.932 67.6631C129.802 67.7978 129.653 67.9135 129.491 68.0068C129.372 68.0793 129.242 68.1303 129.105 68.1575C128.994 68.1789 128.879 68.1695 128.773 68.1304C128.676 68.0856 128.596 68.0112 128.545 67.918C128.482 67.7988 128.447 67.6665 128.444 67.5317C128.444 67.4878 128.453 67.4443 128.471 67.4043C128.489 67.3714 128.514 67.3434 128.545 67.3231L128.8 67.1764C128.838 67.1532 128.869 67.1455 128.893 67.157C128.916 67.1686 128.931 67.1879 128.947 67.2227C128.963 67.2624 128.983 67.3001 129.008 67.3347C129.032 67.3684 129.066 67.394 129.105 67.4081C129.156 67.4198 129.209 67.4198 129.259 67.4081C129.341 67.3888 129.42 67.3562 129.491 67.3116C129.566 67.2688 129.637 67.2197 129.704 67.1648C129.834 67.062 129.937 66.9295 130.005 66.7785C130.036 66.7011 130.052 66.6185 130.051 66.5352C130.055 66.5049 130.052 66.4742 130.044 66.445C130.035 66.4158 130.021 66.3886 130.001 66.3652C129.98 66.3468 129.956 66.3331 129.929 66.3251C129.902 66.3171 129.874 66.315 129.847 66.3189C129.759 66.3225 129.672 66.3367 129.588 66.3613C129.487 66.3845 129.371 66.4116 129.236 66.4347C129.133 66.4606 129.026 66.4685 128.92 66.4579C128.836 66.4525 128.757 66.4184 128.696 66.3613C128.629 66.2959 128.582 66.2129 128.56 66.1219C128.529 65.9877 128.515 65.8501 128.518 65.7124C128.518 65.5424 128.542 65.3732 128.591 65.2103C128.637 65.0427 128.705 64.8817 128.792 64.7313C128.876 64.582 128.977 64.4432 129.093 64.318C129.199 64.1905 129.323 64.0786 129.46 63.9858Z" fill="#FAFAFA"/>
<path d="M131.998 62.5259C132.126 62.4418 132.274 62.3913 132.427 62.3791C132.535 62.3699 132.642 62.3942 132.736 62.4486C132.818 62.5051 132.883 62.5842 132.921 62.6765C132.963 62.7716 132.987 62.8739 132.991 62.9778C132.995 63.0208 132.986 63.0642 132.964 63.1014C132.95 63.1364 132.926 63.1661 132.894 63.1864L132.639 63.3332C132.601 63.3563 132.57 63.3641 132.547 63.3332C132.522 63.3177 132.503 63.2946 132.493 63.2675C132.457 63.1997 132.398 63.1474 132.326 63.1207C132.269 63.1123 132.21 63.1154 132.154 63.13C132.097 63.1446 132.044 63.1703 131.998 63.2057C131.934 63.2451 131.873 63.2904 131.817 63.3409C131.76 63.3938 131.711 63.4534 131.67 63.5186C131.627 63.5806 131.593 63.6482 131.569 63.7194C131.545 63.7864 131.532 63.8569 131.531 63.928C131.526 63.993 131.538 64.0581 131.565 64.1173C131.577 64.138 131.594 64.1556 131.614 64.1683C131.635 64.1811 131.658 64.1888 131.681 64.1907C131.753 64.2031 131.826 64.2031 131.898 64.1907L132.234 64.1173C132.359 64.0823 132.49 64.0666 132.62 64.0709C132.713 64.0701 132.804 64.0999 132.879 64.1559C132.949 64.2162 133.002 64.2952 133.029 64.3838C133.064 64.5096 133.079 64.6397 133.076 64.7701C133.076 64.9426 133.051 65.1143 133.002 65.2799C132.955 65.4503 132.886 65.6138 132.798 65.7666C132.705 65.9248 132.593 66.0713 132.465 66.2031C132.335 66.3345 132.188 66.4488 132.029 66.543C131.91 66.6152 131.779 66.6661 131.643 66.6937C131.533 66.7147 131.419 66.7054 131.314 66.6666C131.216 66.6232 131.134 66.5485 131.083 66.4542C131.019 66.3353 130.986 66.2027 130.986 66.0679C130.982 66.0249 130.991 65.9815 131.013 65.9443C131.027 65.9094 131.051 65.8796 131.083 65.8593L131.338 65.7126C131.376 65.6894 131.411 65.6817 131.43 65.6932C131.444 65.6993 131.456 65.7084 131.465 65.7198C131.474 65.7312 131.481 65.7446 131.484 65.7589C131.502 65.7979 131.523 65.8354 131.546 65.8709C131.572 65.9049 131.607 65.9304 131.647 65.9443C131.697 65.956 131.75 65.956 131.801 65.9443C131.883 65.925 131.961 65.8924 132.033 65.8477C132.106 65.804 132.176 65.755 132.241 65.701C132.309 65.648 132.369 65.5856 132.419 65.5156C132.469 65.4488 132.511 65.3762 132.543 65.2992C132.574 65.2219 132.589 65.1392 132.589 65.0559C132.593 65.0256 132.59 64.995 132.581 64.9657C132.573 64.9365 132.558 64.9094 132.539 64.8859C132.518 64.8675 132.493 64.8539 132.467 64.8459C132.44 64.8379 132.412 64.8357 132.384 64.8396C132.298 64.8449 132.213 64.8591 132.129 64.8821C132.029 64.9053 131.909 64.9323 131.778 64.9555C131.673 64.9813 131.565 64.9892 131.457 64.9786C131.374 64.9742 131.294 64.94 131.233 64.8821C131.168 64.8163 131.122 64.7333 131.102 64.6426C131.068 64.5102 131.052 64.3737 131.056 64.237C131.057 64.0658 131.082 63.8956 131.129 63.731C131.177 63.564 131.244 63.4032 131.33 63.252C131.413 63.1018 131.516 62.9629 131.635 62.8387C131.739 62.7162 131.862 62.6106 131.998 62.5259Z" fill="#FAFAFA"/>
<path d="M134.814 63.0087L134.501 64.8589C134.492 64.9145 134.476 64.969 134.455 65.0211C134.44 65.0628 134.411 65.0981 134.374 65.1216L134.08 65.2915C134.041 65.3147 134.014 65.3147 133.995 65.2915C133.969 65.2598 133.954 65.2204 133.953 65.1795L133.489 61.9156C133.489 61.9156 133.489 61.8847 133.489 61.8731C133.49 61.8301 133.501 61.7879 133.52 61.7495C133.535 61.7151 133.559 61.6856 133.59 61.6645L133.856 61.51C133.878 61.501 133.903 61.501 133.926 61.51C133.949 61.51 133.964 61.5409 133.972 61.6027L134.277 63.8005L134.544 62.1512C134.551 62.1101 134.562 62.0699 134.578 62.0314C134.594 61.9826 134.627 61.9412 134.671 61.9156L134.968 61.7417C135.011 61.7186 135.042 61.7224 135.061 61.7417C135.078 61.7663 135.09 61.7938 135.096 61.8229L135.366 63.1632L135.671 60.6138C135.675 60.5637 135.69 60.5149 135.714 60.4709C135.732 60.4421 135.756 60.4171 135.783 60.3975L136.05 60.243C136.06 60.2355 136.072 60.2314 136.085 60.2314C136.097 60.2314 136.11 60.2355 136.12 60.243C136.131 60.2557 136.139 60.2704 136.144 60.2863C136.15 60.3022 136.152 60.319 136.15 60.3357C136.152 60.3512 136.152 60.3667 136.15 60.3821L135.687 64.1791C135.679 64.2346 135.665 64.2891 135.644 64.3413C135.627 64.3825 135.597 64.4175 135.559 64.4417L135.262 64.6117C135.227 64.631 135.2 64.631 135.181 64.6117C135.161 64.5762 135.146 64.5386 135.135 64.4997L134.814 63.0087Z" fill="#FAFAFA"/>
<path d="M136.622 61.371C136.63 61.1568 136.656 60.9436 136.699 60.7336C136.743 60.5284 136.81 60.3288 136.9 60.1388C136.985 59.954 137.094 59.7813 137.224 59.625C137.356 59.47 137.514 59.3393 137.692 59.2388C137.828 59.1465 137.987 59.0943 138.151 59.0881C138.274 59.0895 138.392 59.1379 138.48 59.2233C138.573 59.3285 138.641 59.4542 138.677 59.5903C138.726 59.7677 138.754 59.9507 138.758 60.1349C138.758 60.2044 138.758 60.2817 138.758 60.3667C138.758 60.4516 138.758 60.5405 138.758 60.6332C138.758 60.7259 138.758 60.8147 138.758 60.8997C138.758 60.9847 138.758 61.0658 138.758 61.1392C138.749 61.3521 138.724 61.564 138.68 61.7727C138.636 61.9773 138.57 62.1767 138.483 62.3675C138.396 62.5517 138.285 62.7242 138.155 62.8813C138.023 63.0348 137.866 63.1653 137.692 63.2675C137.552 63.3592 137.391 63.4113 137.224 63.4182C137.164 63.4194 137.104 63.4084 137.049 63.3858C136.993 63.3632 136.942 63.3296 136.9 63.2868C136.799 63.1787 136.73 63.0452 136.699 62.9006C136.653 62.7225 136.627 62.5398 136.622 62.3559C136.622 62.2864 136.622 62.2092 136.622 62.1242C136.622 62.0392 136.622 61.9504 136.622 61.8576C136.622 61.7649 136.622 61.68 136.622 61.5911C136.622 61.5023 136.618 61.4405 136.622 61.371ZM138.267 60.4478C138.276 60.3533 138.265 60.258 138.236 60.1677C138.207 60.0775 138.159 59.994 138.097 59.9225C137.997 59.8336 137.858 59.8375 137.692 59.9225C137.511 60.0284 137.368 60.1877 137.282 60.3783C137.173 60.6034 137.115 60.8502 137.112 61.1006C137.112 61.2435 137.112 61.4019 137.112 61.5757C137.112 61.7495 137.112 61.904 137.112 62.0431C137.104 62.1376 137.114 62.2328 137.143 62.3231C137.173 62.4134 137.22 62.4968 137.282 62.5684C137.383 62.6534 137.522 62.6456 137.692 62.5491C137.869 62.4424 138.01 62.2849 138.097 62.0971C138.207 61.8733 138.265 61.6279 138.267 61.3787C138.267 61.2319 138.267 61.0735 138.267 60.8997C138.267 60.7259 138.271 60.5868 138.267 60.4478Z" fill="#FAFAFA"/>
<path d="M140.442 57.6975C140.747 57.5237 140.975 57.4966 141.133 57.6241C141.227 57.7275 141.297 57.8504 141.338 57.984C141.378 58.1175 141.389 58.2585 141.369 58.3966C141.372 58.659 141.332 58.9201 141.249 59.1692C141.171 59.4012 141.049 59.6162 140.89 59.8026L141.392 60.8958C141.394 60.9137 141.394 60.9318 141.392 60.9498C141.392 60.9847 141.384 61.019 141.369 61.0503C141.358 61.0783 141.339 61.1025 141.315 61.1198L141.006 61.2975C140.956 61.3245 140.921 61.3284 140.898 61.2975C140.877 61.2772 140.86 61.2537 140.847 61.2279L140.372 60.1966L139.889 60.4747V61.7803C139.89 61.823 139.881 61.8652 139.862 61.9039C139.847 61.9375 139.823 61.9667 139.793 61.9889L139.499 62.1588C139.49 62.167 139.477 62.1715 139.465 62.1715C139.452 62.1715 139.44 62.167 139.43 62.1588C139.419 62.147 139.41 62.133 139.405 62.1177C139.4 62.1024 139.398 62.0861 139.399 62.07V58.4584C139.4 58.4155 139.411 58.3733 139.43 58.3348C139.443 58.2999 139.468 58.2701 139.499 58.2498L140.442 57.6975ZM139.897 59.7756L140.442 59.482C140.575 59.4077 140.689 59.3032 140.774 59.1769C140.863 59.028 140.906 58.8559 140.898 58.6825C140.898 58.4739 140.855 58.358 140.774 58.3348C140.656 58.3188 140.537 58.3493 140.442 58.4198L139.917 58.7211L139.897 59.7756Z" fill="#FAFAFA"/>
<path d="M143.03 56.2104C143.17 56.1189 143.33 56.0632 143.497 56.0482C143.618 56.0437 143.736 56.0867 143.826 56.1679C143.928 56.2755 143.999 56.4091 144.03 56.5542C144.082 56.7457 144.111 56.9429 144.115 57.1413C144.115 57.4117 144.115 57.6898 144.115 57.9718C144.107 58.2017 144.079 58.4305 144.03 58.6555C143.986 58.8644 143.919 59.0679 143.829 59.2619C143.743 59.4401 143.634 59.6063 143.505 59.7563C143.376 59.9099 143.222 60.0405 143.049 60.1426L142.134 60.6408C142.124 60.649 142.112 60.6535 142.099 60.6535C142.086 60.6535 142.074 60.649 142.064 60.6408C142.053 60.6292 142.044 60.6152 142.039 60.5998C142.034 60.5845 142.032 60.5682 142.033 60.552V56.9404C142.034 56.8975 142.045 56.8553 142.064 56.8168C142.078 56.7819 142.102 56.7521 142.134 56.7319L143.03 56.2104ZM143.625 57.4117C143.623 57.3071 143.607 57.2032 143.578 57.1027C143.56 57.0266 143.522 56.9571 143.466 56.9018C143.442 56.8776 143.413 56.8585 143.381 56.8459C143.349 56.8333 143.315 56.8273 143.281 56.8284C143.184 56.8349 143.091 56.8669 143.01 56.9211L142.524 57.1992V59.7177L143.03 59.428C143.128 59.371 143.215 59.2978 143.289 59.2117C143.361 59.127 143.422 59.0335 143.47 58.9336C143.518 58.8271 143.555 58.7157 143.578 58.6014C143.605 58.4821 143.621 58.3605 143.625 58.2383C143.636 57.9563 143.636 57.6821 143.625 57.4117Z" fill="#FAFAFA"/>
<path d="M89.988 0.148049C90.6547 0.296405 91.2971 0.538283 91.8961 0.866501C92.4697 1.17485 92.9838 1.58294 93.4142 2.07164C93.826 2.54175 94.1316 3.09508 94.3103 3.69395C94.4926 4.33501 94.5059 5.01232 94.3489 5.66004C94.2453 6.17358 94.0419 6.66178 93.7502 7.09694C93.4839 7.46906 93.1666 7.80192 92.8077 8.08578C92.4552 8.35946 92.0791 8.60118 91.6837 8.80809L90.5713 9.39908C90.2361 9.57386 89.918 9.77946 89.621 10.0132C89.3523 10.2193 89.1464 10.4962 89.0262 10.8128C88.9673 10.9574 88.8698 11.0831 88.7442 11.1759C88.6848 11.222 88.6157 11.254 88.542 11.2694C88.4684 11.2848 88.3922 11.2832 88.3193 11.2647L86.6816 10.9016C86.6027 10.8851 86.5279 10.853 86.4616 10.8073C86.3953 10.7615 86.3388 10.703 86.2953 10.6351C86.2491 10.572 86.2183 10.499 86.2056 10.4218C86.1928 10.3446 86.1984 10.2655 86.2219 10.1909C86.3538 9.68371 86.5863 9.20819 86.9056 8.79264C87.1969 8.42507 87.5345 8.09661 87.9099 7.8154C88.2756 7.54768 88.6633 7.31122 89.0687 7.10853C89.4549 6.91154 89.8412 6.72227 90.1773 6.533C90.4899 6.36497 90.7838 6.16428 91.0541 5.93429C91.2912 5.73574 91.4557 5.46398 91.5215 5.16176C91.5829 4.89933 91.5799 4.62592 91.5126 4.36492C91.4453 4.10392 91.3158 3.8631 91.1352 3.66305C90.6835 3.16991 90.0798 2.84219 89.4202 2.73216C88.1996 2.46177 87.1696 2.8725 86.3301 3.96434C86.249 4.08352 86.1469 4.18693 86.0288 4.26949C85.8954 4.33558 85.7415 4.34668 85.6 4.30039L83.858 3.91413C83.7337 3.89012 83.624 3.81791 83.5528 3.71327C83.5148 3.65736 83.4893 3.59393 83.4779 3.52728C83.4666 3.46064 83.4698 3.39233 83.4872 3.327C83.6352 2.79027 83.9109 2.29729 84.2906 1.8901C84.7189 1.41788 85.2276 1.02551 85.7932 0.731309C86.4115 0.407773 87.078 0.186045 87.767 0.0746591C88.5051 -0.0453958 89.2595 -0.0204683 89.988 0.148049ZM88.1378 12.578C88.291 12.614 88.4241 12.7085 88.5085 12.8413C88.593 12.9741 88.6221 13.1347 88.5897 13.2888L88.1725 15.1815C88.1584 15.2607 88.1277 15.3361 88.0825 15.4026C88.0372 15.4692 87.9784 15.5255 87.9099 15.5677C87.8452 15.6123 87.772 15.6429 87.6948 15.6575C87.6177 15.6722 87.5383 15.6705 87.4618 15.6527L85.5923 15.2239C85.5128 15.2105 85.4371 15.1801 85.3705 15.1348C85.3038 15.0895 85.2477 15.0303 85.206 14.9613C85.1628 14.896 85.1332 14.8227 85.1193 14.7456C85.1053 14.6686 85.1073 14.5895 85.1249 14.5132L85.546 12.6205C85.582 12.4671 85.6763 12.3337 85.809 12.2486C85.9416 12.1635 86.1022 12.1335 86.2567 12.1647L88.1378 12.578Z" fill="#A2BE24"/>
<path d="M92.0506 18.2678C92.5157 18.1932 92.989 18.1841 93.4566 18.2407C93.9033 18.2938 94.3373 18.4246 94.739 18.627C95.1216 18.8255 95.4584 19.1018 95.7279 19.4382C95.9701 19.7674 96.1407 20.1437 96.2285 20.5429C96.3163 20.9421 96.3195 21.3553 96.2377 21.7558C96.1641 22.0637 96.0457 22.3591 95.8862 22.6326C95.7325 22.8986 95.5541 23.1495 95.3532 23.3819C95.1562 23.6137 94.9669 23.8339 94.7931 24.0463C94.623 24.2442 94.4717 24.4576 94.3412 24.6836C94.2188 24.8818 94.157 25.1114 94.1635 25.3441C94.1601 25.4529 94.1296 25.5592 94.0747 25.6532C94.0467 25.6965 94.0099 25.7333 93.9666 25.7613C93.9233 25.7893 93.8746 25.8077 93.8236 25.8154L92.6648 26.0008C92.6106 26.0106 92.5551 26.0095 92.5013 25.9976C92.4476 25.9857 92.3968 25.9631 92.3519 25.9313C92.3063 25.9026 92.2681 25.8635 92.2406 25.8171C92.213 25.7708 92.1969 25.7185 92.1936 25.6647C92.145 25.3053 92.1713 24.9397 92.2708 24.5909C92.3616 24.2822 92.4914 23.9862 92.6571 23.7102C92.8195 23.4454 93.0057 23.1959 93.2133 22.9648C93.418 22.733 93.5996 22.5167 93.7772 22.3081C93.9359 22.1218 94.0732 21.9184 94.1867 21.7017C94.2872 21.5151 94.3238 21.3007 94.291 21.0914C94.2619 20.9071 94.1888 20.7326 94.0778 20.5826C93.9669 20.4326 93.8214 20.3117 93.6536 20.23C93.2384 20.0294 92.7683 19.9723 92.3172 20.0678C91.9087 20.1275 91.5286 20.3121 91.2292 20.5964C90.9297 20.8806 90.7256 21.2505 90.6446 21.6553C90.622 21.7527 90.5828 21.8455 90.5288 21.9296C90.4598 22.0029 90.3663 22.0483 90.2661 22.057L89.0455 22.254C88.9597 22.2705 88.8709 22.2524 88.7983 22.2038C88.7611 22.1783 88.7298 22.1451 88.7065 22.1064C88.6832 22.0678 88.6684 22.0246 88.6631 21.9798C88.6268 21.5965 88.6865 21.2102 88.8369 20.8558C88.9897 20.4433 89.2146 20.0614 89.5013 19.7279C89.8155 19.3626 90.1858 19.0497 90.5983 18.8008C91.0434 18.5309 91.5366 18.3499 92.0506 18.2678ZM94.0438 26.7077C94.097 26.6992 94.1513 26.7014 94.2036 26.714C94.256 26.7265 94.3054 26.7493 94.3489 26.781C94.3944 26.811 94.4331 26.8502 94.4624 26.8961C94.4917 26.9421 94.5109 26.9937 94.5189 27.0476L94.7352 28.3725C94.7519 28.4799 94.7256 28.5897 94.662 28.6779C94.5984 28.7661 94.5025 28.8257 94.3953 28.8437L93.1013 29.0561C92.9939 29.0728 92.8842 29.0464 92.7961 28.9828C92.7513 28.9524 92.7134 28.913 92.6848 28.8671C92.6562 28.8212 92.6375 28.7698 92.63 28.7162L92.4137 27.3913C92.4039 27.3382 92.4054 27.2835 92.418 27.231C92.4307 27.1784 92.4542 27.1291 92.4871 27.0862C92.5174 27.0414 92.5568 27.0035 92.6027 26.9748C92.6486 26.9462 92.7001 26.9276 92.7536 26.9201L94.0438 26.7077Z" fill="#A2BE24"/>
<g opacity="0.2">
<path d="M92.0506 18.2678C92.5157 18.1932 92.989 18.1841 93.4566 18.2407C93.9033 18.2938 94.3373 18.4246 94.739 18.627C95.1216 18.8255 95.4584 19.1018 95.7279 19.4382C95.9701 19.7674 96.1407 20.1437 96.2285 20.5429C96.3163 20.9421 96.3195 21.3553 96.2377 21.7558C96.1641 22.0637 96.0457 22.3591 95.8862 22.6326C95.7325 22.8986 95.5541 23.1495 95.3532 23.3819C95.1562 23.6137 94.9669 23.8339 94.7931 24.0463C94.623 24.2442 94.4717 24.4576 94.3412 24.6836C94.2188 24.8818 94.157 25.1114 94.1635 25.3441C94.1601 25.4529 94.1296 25.5592 94.0747 25.6532C94.0467 25.6965 94.0099 25.7333 93.9666 25.7613C93.9233 25.7893 93.8746 25.8077 93.8236 25.8154L92.6648 26.0008C92.6106 26.0106 92.5551 26.0095 92.5013 25.9976C92.4476 25.9857 92.3968 25.9631 92.3519 25.9313C92.3063 25.9026 92.2681 25.8635 92.2406 25.8171C92.213 25.7708 92.1969 25.7185 92.1936 25.6647C92.145 25.3053 92.1713 24.9397 92.2708 24.5909C92.3616 24.2822 92.4914 23.9862 92.6571 23.7102C92.8195 23.4454 93.0057 23.1959 93.2133 22.9648C93.418 22.733 93.5996 22.5167 93.7772 22.3081C93.9359 22.1218 94.0732 21.9184 94.1867 21.7017C94.2872 21.5151 94.3238 21.3007 94.291 21.0914C94.2619 20.9071 94.1888 20.7326 94.0778 20.5826C93.9669 20.4326 93.8214 20.3117 93.6536 20.23C93.2384 20.0294 92.7683 19.9723 92.3172 20.0678C91.9087 20.1275 91.5286 20.3121 91.2292 20.5964C90.9297 20.8806 90.7256 21.2505 90.6446 21.6553C90.622 21.7527 90.5828 21.8455 90.5288 21.9296C90.4598 22.0029 90.3663 22.0483 90.2661 22.057L89.0455 22.254C88.9597 22.2705 88.8709 22.2524 88.7983 22.2038C88.7611 22.1783 88.7298 22.1451 88.7065 22.1064C88.6832 22.0678 88.6684 22.0246 88.6631 21.9798C88.6268 21.5965 88.6865 21.2102 88.8369 20.8558C88.9897 20.4433 89.2146 20.0614 89.5013 19.7279C89.8155 19.3626 90.1858 19.0497 90.5983 18.8008C91.0434 18.5309 91.5366 18.3499 92.0506 18.2678ZM94.0438 26.7077C94.097 26.6992 94.1513 26.7014 94.2036 26.714C94.256 26.7265 94.3054 26.7493 94.3489 26.781C94.3944 26.811 94.4331 26.8502 94.4624 26.8961C94.4917 26.9421 94.5109 26.9937 94.5189 27.0476L94.7352 28.3725C94.7519 28.4799 94.7256 28.5897 94.662 28.6779C94.5984 28.7661 94.5025 28.8257 94.3953 28.8437L93.1013 29.0561C92.9939 29.0728 92.8842 29.0464 92.7961 28.9828C92.7513 28.9524 92.7134 28.913 92.6848 28.8671C92.6562 28.8212 92.6375 28.7698 92.63 28.7162L92.4137 27.3913C92.4039 27.3382 92.4054 27.2835 92.418 27.231C92.4307 27.1784 92.4542 27.1291 92.4871 27.0862C92.5174 27.0414 92.5568 27.0035 92.6027 26.9748C92.6486 26.9462 92.7001 26.9276 92.7536 26.9201L94.0438 26.7077Z" fill="black"/>
</g>
<path d="M102.974 20.3498C103.027 20.3864 103.071 20.4333 103.105 20.4878C103.139 20.5423 103.162 20.6031 103.171 20.6665C103.183 20.7293 103.183 20.794 103.169 20.8565C103.155 20.919 103.128 20.9779 103.09 21.0296L102.171 22.3236C102.134 22.3762 102.087 22.4209 102.033 22.4547C101.978 22.4886 101.917 22.511 101.854 22.5206C101.791 22.5329 101.726 22.532 101.664 22.518C101.601 22.5041 101.543 22.4773 101.491 22.4394L100.224 21.5394C100.171 21.5033 100.127 21.4564 100.093 21.4018C100.06 21.3472 100.039 21.2862 100.031 21.2227C100.019 21.1599 100.019 21.0952 100.033 21.0327C100.047 20.9702 100.074 20.9113 100.112 20.8596L101.043 19.5656C101.118 19.4608 101.232 19.3898 101.359 19.3681C101.486 19.3464 101.617 19.3757 101.723 19.4498L102.974 20.3498ZM108.32 11.5854C108.782 11.9092 109.193 12.2997 109.541 12.7442C109.879 13.1577 110.141 13.6287 110.313 14.1348C110.474 14.6197 110.528 15.1335 110.472 15.6412C110.406 16.1826 110.201 16.6977 109.877 17.136C109.636 17.4905 109.326 17.7926 108.965 18.0244C108.648 18.2234 108.303 18.3743 107.942 18.4725C107.589 18.5645 107.23 18.6266 106.868 18.6579L105.84 18.7506C105.532 18.7752 105.227 18.8283 104.929 18.909C104.653 18.9715 104.402 19.1108 104.203 19.3107C104.113 19.4021 103.999 19.4663 103.874 19.4961C103.815 19.5131 103.752 19.5157 103.692 19.5036C103.631 19.4915 103.575 19.4651 103.527 19.4266L102.406 18.6309C102.299 18.5544 102.226 18.4396 102.202 18.3103C102.187 18.2476 102.188 18.1825 102.203 18.1201C102.219 18.0577 102.249 17.9998 102.291 17.9511C102.552 17.6115 102.879 17.3278 103.252 17.1167C103.588 16.9333 103.947 16.7944 104.318 16.7034C104.677 16.6164 105.043 16.5608 105.412 16.5373C105.775 16.5142 106.115 16.4871 106.431 16.4562C106.721 16.4306 107.007 16.3736 107.285 16.2863C107.528 16.2054 107.737 16.0465 107.88 15.8343C108.009 15.6552 108.093 15.4475 108.124 15.2289C108.156 15.0103 108.134 14.7874 108.061 14.579C107.879 14.0641 107.529 13.6251 107.069 13.3313C106.234 12.7365 105.324 12.7172 104.338 13.2734C104.238 13.3366 104.129 13.3811 104.013 13.4047C103.953 13.4089 103.893 13.4012 103.836 13.3819C103.779 13.3627 103.726 13.3324 103.681 13.2927L102.491 12.4468C102.448 12.4182 102.411 12.3812 102.383 12.3381C102.354 12.295 102.335 12.2466 102.325 12.1957C102.316 12.1432 102.318 12.0892 102.33 12.0374C102.343 11.9855 102.366 11.9369 102.399 11.8944C102.679 11.5348 103.044 11.2496 103.461 11.064C103.934 10.8495 104.441 10.7188 104.96 10.6777C105.53 10.6301 106.104 10.6757 106.659 10.8129C107.259 10.9573 107.823 11.22 108.32 11.5854Z" fill="#A2BE24"/>
<g opacity="0.6">
<path d="M102.974 20.3498C103.027 20.3864 103.071 20.4333 103.105 20.4878C103.139 20.5423 103.162 20.6031 103.171 20.6665C103.183 20.7293 103.183 20.794 103.169 20.8565C103.155 20.919 103.128 20.9779 103.09 21.0296L102.171 22.3236C102.134 22.3762 102.087 22.4209 102.033 22.4547C101.978 22.4886 101.917 22.511 101.854 22.5206C101.791 22.5329 101.726 22.532 101.664 22.518C101.601 22.5041 101.543 22.4773 101.491 22.4394L100.224 21.5394C100.171 21.5033 100.127 21.4564 100.093 21.4018C100.06 21.3472 100.039 21.2862 100.031 21.2227C100.019 21.1599 100.019 21.0952 100.033 21.0327C100.047 20.9702 100.074 20.9113 100.112 20.8596L101.043 19.5656C101.118 19.4608 101.232 19.3898 101.359 19.3681C101.486 19.3464 101.617 19.3757 101.723 19.4498L102.974 20.3498ZM108.32 11.5854C108.782 11.9092 109.193 12.2997 109.541 12.7442C109.879 13.1577 110.141 13.6287 110.313 14.1348C110.474 14.6197 110.528 15.1335 110.472 15.6412C110.406 16.1826 110.201 16.6977 109.877 17.136C109.636 17.4905 109.326 17.7926 108.965 18.0244C108.648 18.2234 108.303 18.3743 107.942 18.4725C107.589 18.5645 107.23 18.6266 106.868 18.6579L105.84 18.7506C105.532 18.7752 105.227 18.8283 104.929 18.909C104.653 18.9715 104.402 19.1108 104.203 19.3107C104.113 19.4021 103.999 19.4663 103.874 19.4961C103.815 19.5131 103.752 19.5157 103.692 19.5036C103.631 19.4915 103.575 19.4651 103.527 19.4266L102.406 18.6309C102.299 18.5544 102.226 18.4396 102.202 18.3103C102.187 18.2476 102.188 18.1825 102.203 18.1201C102.219 18.0577 102.249 17.9998 102.291 17.9511C102.552 17.6115 102.879 17.3278 103.252 17.1167C103.588 16.9333 103.947 16.7944 104.318 16.7034C104.677 16.6164 105.043 16.5608 105.412 16.5373C105.775 16.5142 106.115 16.4871 106.431 16.4562C106.721 16.4306 107.007 16.3736 107.285 16.2863C107.528 16.2054 107.737 16.0465 107.88 15.8343C108.009 15.6552 108.093 15.4475 108.124 15.2289C108.156 15.0103 108.134 14.7874 108.061 14.579C107.879 14.0641 107.529 13.6251 107.069 13.3313C106.234 12.7365 105.324 12.7172 104.338 13.2734C104.238 13.3366 104.129 13.3811 104.013 13.4047C103.953 13.4089 103.893 13.4012 103.836 13.3819C103.779 13.3627 103.726 13.3324 103.681 13.2927L102.491 12.4468C102.448 12.4182 102.411 12.3812 102.383 12.3381C102.354 12.295 102.335 12.2466 102.325 12.1957C102.316 12.1432 102.318 12.0892 102.33 12.0374C102.343 11.9855 102.366 11.9369 102.399 11.8944C102.679 11.5348 103.044 11.2496 103.461 11.064C103.934 10.8495 104.441 10.7188 104.96 10.6777C105.53 10.6301 106.104 10.6757 106.659 10.8129C107.259 10.9573 107.823 11.22 108.32 11.5854Z" fill="white"/>
</g>
<path d="M74.2091 54.542H60.4851V21.2924C60.4851 18.4045 61.6323 15.6349 63.6744 13.5928C65.7164 11.5508 68.486 10.4036 71.3739 10.4036H72.6409C75.5287 10.4036 78.2983 11.5508 80.3404 13.5928C82.3824 15.6349 83.5296 18.4045 83.5296 21.2924V45.2407C83.5245 47.7094 82.5403 50.0751 80.7929 51.8189C79.0455 53.5627 76.6777 54.542 74.2091 54.542Z" fill="#263238"/>
<path d="M59.1486 134.587C58.9059 135.965 58.7767 137.36 58.7624 138.759C58.7122 141.293 58.2486 142.193 58.1868 144.271C58.1135 146.647 58.5268 147.535 59.4886 148.871C60.4504 150.208 62.9649 151.417 64.0542 149.161C65.1435 146.905 64.9851 145.426 64.6413 143.097C64.2898 140.687 64.2551 139.354 64.0387 137.519C63.8611 135.901 63.6525 134.669 63.6525 134.669L59.1486 134.587Z" fill="#263238"/>
<path d="M66.3409 117.758L57.9976 117.607C58.1212 123.177 59.0057 129.361 59.1564 134.603C59.1873 135.588 59.1332 142.247 59.504 144.259C60.0641 147.303 63.6718 146.89 63.8649 145.071C64.0581 143.251 63.6332 135.476 63.6448 134.672C63.61 131.32 65.1898 125.661 66.0048 119.643C66.0396 119.353 66.3023 118.048 66.3409 117.758Z" fill="#FFA8A7"/>
<path d="M77.0597 130.254C77.0597 130.254 76.7314 130.076 76.6734 130.427C76.5923 130.845 76.4687 131.706 76.2872 132.394C76.0477 133.348 75.8468 134.92 75.9898 135.7C76.1327 136.48 77.9481 137.477 79.1262 137.84C80.5782 138.288 81.9024 139.076 82.9889 140.138C84.1477 141.235 86.67 142.27 88.3966 142.259C90.4245 142.259 91.8382 141.583 92.5064 140.497C93.1747 139.412 91.8961 139.281 89.5785 137.794L87.7824 136.635C84.109 134.236 82.761 132.954 81.7296 130.555L77.0597 130.254Z" fill="#263238"/>
<path d="M81.7606 128.766C81.6988 127.044 82.8884 112.4 82.8884 112.4L74.9662 116.012C76.6619 126.14 77.025 128.531 77.052 130.188C77.0173 130.327 77.0029 130.47 77.0095 130.613C77.0095 132.579 79.2383 133.641 80.9687 134.954C82.4398 136.107 84.0074 137.13 85.6541 138.014C86.9133 138.643 89.4704 138.701 89.7871 137.894C87.6781 136.283 84.6112 133.873 82.9348 132.034C82.1159 131.169 81.8224 130.493 81.7606 128.766Z" fill="#FFA8A7"/>
<path d="M61.416 63.4067C58.3723 70.0852 58.3722 75.2535 58.8783 83.7783C59.3263 91.6002 60.0718 98.495 60.0718 98.495C59.9559 99.8817 58.0285 102.589 57.7774 108.723C57.5456 114.455 58.1637 121.744 58.1637 121.744C58.1637 121.744 62.4937 124.143 65.6958 121.721C65.6958 121.721 68.7859 106.97 69.6898 99.7928C70.4623 93.5315 71.8529 85.532 71.8529 85.532L74.7769 99.7503C74.1458 101.768 73.6883 103.835 73.4095 105.931C73.0001 110.152 75.364 118.442 75.364 118.442C75.364 118.442 79.837 119.774 82.5678 117.352C82.5678 117.352 83.5876 103.876 83.97 98.7924C84.4799 91.9826 83.406 73.55 82.5678 63.7891L61.416 63.4067Z" fill="#455A64"/>
<path d="M71.8606 85.5203L73.0619 74.8053C73.0619 74.8053 78.4464 74.0869 80.8876 71.7925C80.1889 72.8856 79.2581 73.8116 78.1613 74.5045C77.0645 75.1974 75.8285 75.6404 74.5413 75.8019L72.8031 85.7714L74.7769 99.7503L71.8606 85.5203Z" fill="#263238"/>
<path d="M93.6652 60.7722C93.8877 58.8169 93.9857 56.8494 93.9588 54.8817C93.839 53.1821 93.5339 52.904 91.1584 49.895C87.9524 45.8277 85.2138 42.1697 82.3168 38.535C80.2464 35.9393 78.0679 35.5415 75.9511 35.6573C74.4679 35.7384 77.3649 42.8727 78.8211 47.0946L87.1374 56.0482C87.395 56.4016 87.5133 56.8376 87.4695 57.2727L86.9674 64.8898L89.4588 68.2271C89.4588 68.2271 93.2326 64.9748 93.6652 60.7722Z" fill="#FFA8A7"/>
<path d="M67.9323 35.8891C66.3216 36.0011 63.3937 36.2754 63.3937 36.2754C61.7057 37.2179 61.277 37.9943 60.9641 40.2346C60.8289 41.1925 61.6091 43.738 62.2774 47.3573L63.5443 54.0667L63.4053 57.3963C62.7486 59.4281 61.2615 61.9504 59.9482 65.6701C66.3988 69.2701 71.8065 69.4053 76.7121 68.7602C80.4511 68.2774 82.4327 67.3735 83.0932 66.4774C82.9541 62.804 82.7069 60.5328 82.6297 56.6933C82.6026 55.0826 82.6992 53.4526 82.7648 51.5985C85.2717 49.5358 85.3026 46.1058 83.9236 43.8732C80.7447 38.7243 77.6507 35.4836 75.6035 35.6496L67.9323 35.8891Z" fill="#A2BE24"/>
<path opacity="0.6" d="M67.9323 35.8891C66.3216 36.0011 63.3937 36.2754 63.3937 36.2754C61.7057 37.2179 61.277 37.9943 60.9641 40.2346C60.8289 41.1925 61.6091 43.738 62.2774 47.3573L63.5443 54.0667L63.4053 57.3963C62.7486 59.4281 61.2615 61.9504 59.9482 65.6701C66.3988 69.2701 71.8065 69.4053 76.7121 68.7602C80.4511 68.2774 82.4327 67.3735 83.0932 66.4774C82.9541 62.804 82.7069 60.5328 82.6297 56.6933C82.6026 55.0826 82.6992 53.4526 82.7648 51.5985C85.2717 49.5358 85.3026 46.1058 83.9236 43.8732C80.7447 38.7243 77.6507 35.4836 75.6035 35.6496L67.9323 35.8891Z" fill="white"/>
<path opacity="0.1" d="M77.7704 51.6488C77.7704 51.6488 74.8271 53.9355 71.4627 52.742C70.518 52.4443 69.6661 51.9078 68.9894 51.1844C68.3127 50.461 67.8342 49.5753 67.6001 48.6128C67.6001 48.6128 67.2447 52.4561 71.4821 53.7656C75.5881 55.0286 77.7704 51.6488 77.7704 51.6488Z" fill="black"/>
<path d="M81.7644 25.3404C81.637 30.918 79.8331 32.2931 78.9215 32.6794C78.0099 33.0657 76.264 32.8339 74.5645 32.5519V35.9202C74.5645 35.9202 76.5267 37.9751 76.3799 39.5085C76.2331 41.042 73.2898 41.2158 71.0958 39.7133C69.8852 38.8817 68.7903 37.8933 67.8396 36.7738C67.6571 36.5578 67.5571 36.2841 67.5576 36.0013V28.1215C67.5576 28.1215 66.6267 29.1065 64.9812 27.9786C64.6262 27.752 64.3222 27.454 64.0885 27.1036C63.8549 26.7531 63.6967 26.3579 63.624 25.943C63.5514 25.5282 63.5658 25.1027 63.6665 24.6937C63.7672 24.2847 63.9518 23.9012 64.2087 23.5674C64.9272 22.7215 66.7503 22.6636 67.6233 23.9537C68.1177 24.9155 68.1834 25.885 68.7357 25.4987C70.2035 24.4404 69.4156 22.0224 71.1885 20.8636C71.7703 20.5599 72.3747 20.3016 72.9962 20.091C76.1597 18.9979 78.9022 18.0786 79.5627 15.9155C80.8065 16.6263 81.9189 18.7623 81.7644 25.3404Z" fill="#FFA8A7"/>
<path d="M75.5262 30.323C75.9316 30.323 76.2601 29.9945 76.2601 29.5891C76.2601 29.1838 75.9316 28.8552 75.5262 28.8552C75.1209 28.8552 74.7923 29.1838 74.7923 29.5891C74.7923 29.9945 75.1209 30.323 75.5262 30.323Z" fill="#B16668"/>
<path d="M75.0396 24.4944C75.0394 24.6455 74.9949 24.7933 74.9116 24.9194C74.8283 25.0454 74.7098 25.1443 74.5709 25.2037C74.432 25.2632 74.2787 25.2806 74.13 25.2537C73.9813 25.2269 73.8437 25.1571 73.7343 25.0529C73.6248 24.9487 73.5484 24.8147 73.5143 24.6674C73.4803 24.5202 73.4902 24.3663 73.5428 24.2246C73.5954 24.0829 73.6884 23.9598 73.8102 23.8705C73.9321 23.7811 74.0775 23.7295 74.2284 23.7219C74.3331 23.7167 74.4377 23.7328 74.5359 23.7693C74.6342 23.8057 74.7239 23.8618 74.7998 23.9341C74.8757 24.0063 74.9361 24.0933 74.9773 24.1896C75.0185 24.2859 75.0397 24.3897 75.0396 24.4944Z" fill="#263238"/>
<path d="M80.8915 24.5715C80.8994 24.666 80.8884 24.7612 80.8591 24.8514C80.8299 24.9416 80.783 25.0251 80.7212 25.097C80.6593 25.1689 80.5838 25.2278 80.499 25.2702C80.4141 25.3126 80.3217 25.3377 80.2271 25.344C80.1316 25.3529 80.0354 25.3413 79.9447 25.31C79.8541 25.2788 79.7711 25.2286 79.7013 25.1629C79.6315 25.0971 79.5766 25.0173 79.54 24.9286C79.5035 24.84 79.4862 24.7446 79.4893 24.6488C79.4794 24.5536 79.4889 24.4573 79.5175 24.366C79.546 24.2746 79.5929 24.19 79.6553 24.1174C79.7177 24.0448 79.7942 23.9857 79.8803 23.9437C79.9663 23.9018 80.06 23.8778 80.1556 23.8733C80.2512 23.8689 80.3468 23.8839 80.4363 23.9177C80.5259 23.9514 80.6077 24.0031 80.6766 24.0696C80.7455 24.136 80.8001 24.2159 80.837 24.3042C80.874 24.3925 80.8925 24.4874 80.8915 24.5831V24.5715Z" fill="#263238"/>
<path d="M74.0469 26.4797C73.3806 26.4797 72.7416 26.2153 72.2702 25.7446C71.7987 25.2738 71.5333 24.6352 71.5323 23.969C71.5323 22.2617 73.2937 22.2617 74.0469 22.2617C74.8001 22.2617 76.5576 22.2617 76.5576 23.969C76.5566 24.6346 76.2917 25.2726 75.8211 25.7432C75.3505 26.2139 74.7124 26.4787 74.0469 26.4797ZM74.0469 22.6557C72.5018 22.6557 71.9301 23.042 71.9301 23.969C71.9301 24.5324 72.154 25.0728 72.5524 25.4712C72.9508 25.8696 73.4912 26.0935 74.0546 26.0935C74.618 26.0935 75.1584 25.8696 75.5568 25.4712C75.9552 25.0728 76.179 24.5324 76.179 23.969C76.1636 23.0227 75.5687 22.6557 74.0469 22.6557Z" fill="#455A64"/>
<path d="M80.4241 26.4797C79.7578 26.4797 79.1188 26.2153 78.6474 25.7446C78.1759 25.2738 77.9105 24.6352 77.9095 23.969C77.9095 22.2617 79.6708 22.2617 80.4241 22.2617C81.1773 22.2617 82.9348 22.2617 82.9348 23.969C82.9338 24.6346 82.6689 25.2726 82.1983 25.7432C81.7277 26.2139 81.0896 26.4787 80.4241 26.4797ZM80.4241 22.6557C78.9022 22.6557 78.3073 23.042 78.3073 23.969C78.3073 24.5324 78.5312 25.0728 78.9296 25.4712C79.328 25.8696 79.8684 26.0935 80.4318 26.0935C80.9952 26.0935 81.5356 25.8696 81.934 25.4712C82.3324 25.0728 82.5562 24.5324 82.5562 23.969C82.5408 23.0227 81.9459 22.6557 80.4241 22.6557Z" fill="#455A64"/>
<path d="M76.9477 23.158L77.0713 27.8511L79.5395 27.0863L76.9477 23.158Z" fill="#F28F8F"/>
<path d="M74.5606 32.5634C72.7683 32.3278 69.0795 31.2694 68.504 29.8093C68.7356 30.5472 69.1871 31.1968 69.798 31.6711C70.8988 32.6175 74.5606 33.6797 74.5606 33.6797V32.5634Z" fill="#F28F8F"/>
<path d="M74.6494 20.879L73.0117 21.8794C72.8826 21.6546 72.8451 21.3887 72.9069 21.1369C72.9688 20.8851 73.1253 20.6669 73.3439 20.5275C73.4519 20.4619 73.5721 20.4189 73.6972 20.4012C73.8224 20.3834 73.9498 20.3911 74.0718 20.424C74.1939 20.4568 74.308 20.5141 74.4072 20.5923C74.5065 20.6705 74.5889 20.768 74.6494 20.879Z" fill="#263238"/>
<path d="M81.3125 21.9914L79.4893 21.3541C79.5246 21.2332 79.5842 21.1209 79.6645 21.024C79.7448 20.927 79.8441 20.8475 79.9563 20.7904C80.0684 20.7332 80.1911 20.6996 80.3167 20.6916C80.4423 20.6836 80.5682 20.7013 80.6867 20.7438C80.9313 20.8316 81.1326 21.0102 81.2491 21.2424C81.3656 21.4747 81.3883 21.7429 81.3125 21.9914Z" fill="#263238"/>
<path d="M76.3606 24.17C76.3344 24.17 76.3084 24.1648 76.2843 24.1546C76.2601 24.1445 76.2382 24.1296 76.2199 24.1109C76.2016 24.0922 76.1871 24.07 76.1775 24.0457C76.1678 24.0213 76.1631 23.9953 76.1636 23.9691C76.1636 23.6485 76.7971 23.4399 77.3687 23.4399C77.9404 23.4399 78.3073 23.6485 78.3073 23.9691C78.2954 24.0111 78.27 24.048 78.2352 24.0743C78.2003 24.1006 78.1579 24.1148 78.1142 24.1148C78.0706 24.1148 78.0281 24.1006 77.9933 24.0743C77.9584 24.048 77.9331 24.0111 77.9211 23.9691C77.9211 23.9305 77.7241 23.8339 77.3803 23.8339C77.1035 23.828 76.8282 23.8752 76.5692 23.973C76.5692 23.9999 76.5638 24.0265 76.5531 24.0511C76.5425 24.0758 76.527 24.0981 76.5074 24.1165C76.4879 24.135 76.4648 24.1493 76.4395 24.1584C76.4143 24.1676 76.3874 24.1716 76.3606 24.17Z" fill="#455A64"/>
<path d="M71.737 23.9998H71.7138L67.2988 23.6136C67.0925 23.4091 66.8468 23.2488 66.5765 23.1423L71.7602 23.6213C71.8121 23.6281 71.8594 23.6549 71.8919 23.696C71.9244 23.7372 71.9395 23.7894 71.934 23.8415C71.9249 23.8868 71.9003 23.9275 71.8642 23.9564C71.8282 23.9854 71.7832 24.0007 71.737 23.9998Z" fill="#455A64"/>
<path d="M53.6096 28.6042C55.0542 26.6729 56.0392 25.2167 57.3564 23.5828C58.1057 22.6442 58.5847 21.9721 59.2877 21.0103C59.7821 20.3459 60.0602 19.7858 60.6242 19.5811C61.2335 19.3314 61.7826 18.9548 62.2349 18.4764C62.513 18.1688 62.771 17.8436 63.0074 17.503C63.8353 16.3886 64.8187 15.3987 65.9276 14.5635C67.0864 13.6906 68.3804 13.0185 69.5739 12.188C70.2846 11.6897 71.0456 10.8631 70.1804 10.0906C69.915 9.86708 69.5974 9.71429 69.2572 9.64637C67.152 9.19058 65.3212 9.91289 63.2624 10.4382C62.3681 10.6614 61.4935 10.9572 60.6474 11.3228C60.2312 11.4874 59.8409 11.7111 59.4886 11.9871C58.996 12.4838 58.5923 13.0612 58.295 13.6944C57.395 15.3013 55.4637 16.7382 54.1118 18.009C52.5319 19.4961 51.1182 20.8596 49.3144 22.4974C47.6921 23.9768 46.1045 25.3364 44.6174 26.951C43.3852 28.2836 43.8449 29.3265 44.0071 29.6896C45.0114 31.7523 46.1354 32.4939 47.4835 33.7724C49.8011 35.9857 57.816 42.3552 60.4697 44.4604C61.0398 44.9082 61.4876 45.4928 61.7714 46.1599L62.2812 47.338C65.3096 47.8943 67.3297 43.3479 64.8229 37.8746C64.4077 36.9895 63.7736 36.225 62.9804 35.6535C59.813 33.3475 53.6096 28.6042 53.6096 28.6042Z" fill="#FFA8A7"/>
<path d="M53.6096 28.6042C52.6457 29.79 51.3612 30.6736 49.9092 31.1497C49.9092 31.1497 51.8405 31.6441 54.4864 29.2686L53.6096 28.6042Z" fill="#F28F8F"/>
<path d="M92.8772 56.7435L92.3828 56.3186C92.3089 56.2699 92.2246 56.2393 92.1367 56.2292C92.0488 56.2192 91.9598 56.2299 91.8768 56.2607L86.5116 57.7207C86.2413 57.8108 85.9937 57.9583 85.7857 58.1529C85.5777 58.3476 85.4142 58.5849 85.3065 58.8486L81.4438 69.9846C81.3973 70.0754 81.3791 70.178 81.3914 70.2792C81.4038 70.3804 81.4463 70.4756 81.5133 70.5524L82.0232 70.9928C82.0974 71.0439 82.183 71.0763 82.2725 71.087C82.3619 71.0978 82.4527 71.0867 82.5369 71.0546L87.9099 69.5945C88.1801 69.5044 88.4277 69.357 88.6357 69.1623C88.8437 68.9676 89.0072 68.7303 89.115 68.4666C89.8876 66.2765 92.2051 59.5207 92.9777 57.3306C93.0704 57.0564 93.024 56.8478 92.8772 56.7435Z" fill="#455A64"/>
<path d="M81.9498 70.4136L85.8125 59.2776C85.9198 59.014 86.0832 58.777 86.2913 58.5829C86.4994 58.3888 86.7473 58.2423 87.0176 58.1535L92.379 56.6934C92.8773 56.5583 93.1515 56.8441 92.9738 57.3308C92.2013 59.5209 89.8837 66.2767 89.1112 68.4668C89.0034 68.7305 88.8399 68.9678 88.6319 69.1625C88.4239 69.3571 88.1763 69.5046 87.906 69.5947L82.5447 71.0702C82.0503 71.1861 81.7837 70.9002 81.9498 70.4136Z" fill="#A2BE24"/>
<path d="M86.4344 58.4625C86.1554 58.6738 85.9392 58.9568 85.8086 59.2814L81.946 70.4135C81.9017 70.5019 81.8833 70.601 81.8929 70.6994C81.9025 70.7978 81.9396 70.8915 82 70.9698L81.5211 70.5603C81.4525 70.4844 81.4086 70.3894 81.3955 70.2879C81.3824 70.1864 81.4006 70.0834 81.4477 69.9925L85.3103 58.8565C85.4325 58.5538 85.6307 58.2877 85.8859 58.084L86.4344 58.4625Z" fill="#37474F"/>
<path d="M91.4056 61.8191C91.0193 62.9509 89.679 63.708 87.4618 64.2333C85.2447 64.7586 84.0202 67.111 84.3717 67.8256C84.7232 68.5401 88.3077 69.2084 89.7408 69.0037C91.1738 68.7989 92.6107 66.7286 93.0472 66.0874C93.4837 65.4462 93.9858 60.9732 93.5262 60.3591C93.0665 59.7449 92.097 59.8415 92.097 59.8415L91.4056 61.8191Z" fill="#F28F8F"/>
</svg>
