<svg width="32" height="32" viewBox="0 0 32 32" fill="none" xmlns="http://www.w3.org/2000/svg">
<path d="M16 0C7.1625 0 0 7.1625 0 16C0 24.8375 7.1625 32 16 32C24.8375 32 32 24.8375 32 16C32 7.1625 24.8375 0 16 0ZM16.5688 8.88125C17.1562 8.16875 18.1562 7.625 19.0125 7.5625C19.1562 8.5375 18.7563 9.4875 18.2313 10.1625C17.6688 10.8875 16.7 11.4438 15.7625 11.4125C15.6 10.4813 16.0375 9.525 16.5688 8.88125ZM21.8375 21.2437C21.1625 22.2687 20.2125 23.55 19.0312 23.5625C17.9813 23.575 17.7125 22.8813 16.2938 22.8875C14.875 22.8938 14.575 23.575 13.525 23.5625C12.3438 23.55 11.4438 22.3937 10.7688 21.3687C8.88125 18.4937 8.68125 15.125 9.85 13.3313C10.675 12.0563 11.9812 11.3125 13.2125 11.3125C14.4625 11.3125 15.2437 12 16.2812 12C17.2812 12 17.8937 11.3125 19.3375 11.3125C20.4312 11.3125 21.5875 11.9062 22.4125 12.9375C19.7125 14.4187 20.15 18.275 22.8813 19.3062C22.5 20.1313 22.3188 20.5063 21.8375 21.2437Z" fill="white"/>
</svg>
