<svg width="192" height="56" viewBox="0 0 192 56" fill="none" xmlns="http://www.w3.org/2000/svg">
<g clip-path="url(#clip0_191_7658)">
<path d="M55.4352 4C55.5073 4 55.5793 4 55.6535 4C55.9554 5.26476 56.0116 6.57068 55.6535 7.83019C55.6449 7.86205 55.6363 7.89391 55.6274 7.92673C55.3805 8.82386 54.8769 9.66567 54.2672 10.3584C54.1655 10.4707 54.1655 10.4707 54.0816 10.6038C54.0528 10.6038 54.024 10.6038 53.9943 10.6038C53.9826 10.6301 53.9709 10.6564 53.9588 10.6836C53.907 10.7798 53.8591 10.8421 53.7759 10.912C53.7471 10.912 53.7183 10.912 53.6886 10.912C53.6742 10.9555 53.6598 10.9991 53.6449 11.044C53.5556 11.1281 53.5556 11.1281 53.4375 11.2229C53.394 11.2579 53.3505 11.2929 53.3057 11.329C53.2587 11.3661 53.2117 11.4032 53.1646 11.4403C53.1416 11.4584 53.1185 11.4766 53.0948 11.4953C52.842 11.6938 52.5866 11.8886 52.3295 12.0814C52.0778 12.2714 51.8339 12.4695 51.5927 12.673C51.5699 12.6919 51.547 12.7109 51.5235 12.7305C50.9249 13.2287 50.3639 13.7688 49.8898 14.3899C49.8555 14.4325 49.8213 14.4751 49.7861 14.5189C48.4711 16.1675 47.81 18.2924 48.004 20.4021C48.0079 20.4458 48.0118 20.4895 48.0158 20.5345C48.0446 20.8495 48.0791 21.1638 48.1159 21.478C48.3924 23.8455 48.3924 23.8455 48.4051 24.8239C48.4058 24.8737 48.4065 24.9234 48.4072 24.9747C48.4112 25.3501 48.4098 25.7253 48.4051 26.1006C48.4048 26.1404 48.4045 26.1802 48.4042 26.2211C48.3905 27.4051 48.1951 28.6164 47.8812 29.7547C47.871 29.7929 47.8608 29.8311 47.8503 29.8705C47.6352 30.6741 47.3099 31.421 46.9642 32.1761C46.9498 34.9655 46.9354 37.755 46.9205 40.6289C53.3904 40.6289 59.8602 40.6289 66.5261 40.6289C66.5261 40.5999 66.5261 40.5708 66.5261 40.5409C67.3907 40.5409 68.2553 40.5409 69.146 40.5409C69.146 40.5118 69.146 40.4828 69.146 40.4528C69.1714 40.4475 69.1967 40.4422 69.2228 40.4367C69.4203 40.394 69.6108 40.3465 69.801 40.2767C69.8406 40.264 69.8802 40.2513 69.9211 40.2382C70.0416 40.1774 70.052 40.1338 70.1067 40.0126C70.1211 39.9856 70.1355 39.9586 70.1503 39.9307C70.2578 39.7259 70.3205 39.5348 70.3686 39.3082C70.3975 39.3082 70.4263 39.3082 70.456 39.3082C70.4555 39.2716 70.455 39.235 70.4544 39.1973C70.4538 39.1255 70.4538 39.1255 70.4532 39.0523C70.4527 39.0048 70.4522 38.9573 70.4517 38.9083C70.456 38.7799 70.456 38.7799 70.4996 38.6478C70.5048 38.5567 70.5074 38.4654 70.5086 38.3742C70.5099 38.2884 70.5099 38.2884 70.5113 38.2009C70.512 38.1401 70.5127 38.0793 70.5135 38.0186C70.5143 37.9633 70.5151 37.908 70.5159 37.8511C70.5189 37.6443 70.5215 37.4375 70.5242 37.2307C70.5305 36.7686 70.5368 36.3064 70.5433 35.8302C72.3157 35.8302 74.088 35.8302 75.9141 35.8302C75.9285 36.513 75.9429 37.1959 75.9578 37.8994C75.9722 38.0011 75.9866 38.1028 76.0014 38.2076C76.0061 38.3255 76.0035 38.4416 76.0014 38.5597C76.0302 38.5597 76.0591 38.5597 76.0888 38.5597C76.0888 38.676 76.0888 38.7922 76.0888 38.912C76.132 38.9265 76.1752 38.941 76.2197 38.956C76.2551 39.0346 76.2551 39.0346 76.2825 39.1348C76.3348 39.3094 76.4018 39.4639 76.4853 39.6253C76.5346 39.7226 76.5747 39.8223 76.6127 39.9245C76.6416 39.9245 76.6704 39.9245 76.7001 39.9245C76.7001 39.9536 76.7001 39.9826 76.7001 40.0126C76.7721 40.0416 76.8442 40.0707 76.9184 40.1006C76.9184 40.1297 76.9184 40.1587 76.9184 40.1887C77.0777 40.2447 77.2325 40.2912 77.3987 40.3208C77.3987 40.3498 77.3987 40.3789 77.3987 40.4088C77.4996 40.4088 77.6004 40.4088 77.7044 40.4088C77.7188 40.4524 77.7332 40.496 77.748 40.5409C80.8893 40.5409 84.0305 40.5409 87.267 40.5409C87.267 40.5118 87.267 40.4828 87.267 40.4528C87.3207 40.4408 87.3207 40.4408 87.3755 40.4286C87.4225 40.4175 87.4696 40.4065 87.5181 40.3951C87.588 40.379 87.588 40.379 87.6593 40.3625C87.7884 40.3216 87.8616 40.273 87.9656 40.1887C87.9944 40.1887 88.0233 40.1887 88.053 40.1887C88.053 40.1451 88.053 40.1015 88.053 40.0566C88.0818 40.0566 88.1106 40.0566 88.1403 40.0566C88.1466 39.9994 88.1529 39.9422 88.1594 39.8833C88.1785 39.7099 88.1785 39.7099 88.2276 39.6604C88.2377 39.6011 88.2456 39.5413 88.2522 39.4815C88.2585 39.4243 88.2648 39.3671 88.2713 39.3082C88.3145 39.2937 88.3577 39.2791 88.4023 39.2642C88.4023 38.1309 88.4023 36.9977 88.4023 35.8302C90.1891 35.8302 91.9758 35.8302 93.8167 35.8302C93.8312 36.3823 93.8456 36.9343 93.8604 37.5031C93.8748 37.5322 93.8892 37.5613 93.9041 37.5912C93.9132 37.6705 93.9202 37.7501 93.9259 37.8297C93.9295 37.8777 93.9331 37.9257 93.9368 37.9751C93.9422 38.0507 93.9422 38.0507 93.9477 38.1278C93.9788 38.5653 93.9788 38.5653 94.0351 39C94.0783 39.0145 94.1215 39.0291 94.1661 39.044C94.2044 39.1335 94.2044 39.1335 94.2343 39.2421C94.2623 39.3485 94.2623 39.3485 94.2971 39.4403C94.3403 39.462 94.3403 39.462 94.3844 39.4843C94.3925 39.5238 94.3925 39.5238 94.4008 39.5641C94.4367 39.6909 94.5101 39.7461 94.6027 39.8365C94.6027 39.8655 94.6027 39.8946 94.6027 39.9245C94.636 39.9372 94.6694 39.95 94.7037 39.9631C94.821 40.0126 94.821 40.0126 94.952 40.1006C94.952 40.1297 94.952 40.1587 94.952 40.1887C95.0097 40.1887 95.0673 40.1887 95.1267 40.1887C95.1267 40.2177 95.1267 40.2468 95.1267 40.2767C95.3567 40.3262 95.5888 40.3553 95.8217 40.3868C95.9563 40.4088 95.9563 40.4088 96.0437 40.4528C96.0437 40.4819 96.0437 40.5109 96.0437 40.5409C103.623 40.5264 111.202 40.5118 119.011 40.4969C118.968 40.3516 118.925 40.2063 118.88 40.0566C118.852 40.0421 118.823 40.0275 118.793 40.0126C118.793 39.9254 118.793 39.8382 118.793 39.7484C118.764 39.7484 118.735 39.7484 118.706 39.7484C118.697 39.6872 118.697 39.6872 118.688 39.6248C118.681 39.5721 118.673 39.5193 118.665 39.465C118.653 39.3861 118.653 39.3861 118.642 39.3056C118.632 39.1814 118.632 39.1814 118.575 39.1321C118.568 39.0821 118.562 39.0322 118.556 38.9807C118.546 38.8221 118.546 38.8221 118.444 38.7359C118.427 38.6325 118.427 38.6325 118.419 38.513C118.42 38.3688 118.42 38.3688 118.356 38.2516C118.356 38.1651 118.357 38.0785 118.359 37.9921C118.36 37.9006 118.36 37.9006 118.336 37.8196C118.291 37.6307 118.292 37.4333 118.281 37.2399C118.284 37.1123 118.284 37.1123 118.225 37.0629C118.222 36.9666 118.222 36.8703 118.223 36.774C118.223 36.7213 118.224 36.6685 118.224 36.6142C118.224 36.5734 118.225 36.5326 118.225 36.4906C118.197 36.4906 118.168 36.4906 118.138 36.4906C118.088 36.3898 118.082 36.3165 118.073 36.2044C118.069 36.1654 118.065 36.1263 118.062 36.0861C118.054 36.0035 118.047 35.921 118.04 35.8384C118.036 35.7994 118.033 35.7604 118.029 35.7201C118.026 35.6843 118.023 35.6484 118.019 35.6114C118.012 35.5192 118.012 35.5192 117.963 35.434C117.958 35.3163 117.962 35.1996 117.963 35.0818C117.935 35.0818 117.906 35.0818 117.876 35.0818C117.876 34.9801 117.876 34.8784 117.876 34.7736C117.847 34.7736 117.819 34.7736 117.789 34.7736C117.725 34.5738 117.691 34.4134 117.701 34.2013C117.673 34.2013 117.644 34.2013 117.614 34.2013C117.614 34.1286 117.614 34.056 117.614 33.9811C117.585 33.9811 117.557 33.9811 117.527 33.9811C117.527 33.923 117.527 33.8649 117.527 33.805C117.498 33.805 117.469 33.805 117.439 33.805C117.439 33.7469 117.439 33.6888 117.439 33.6289C117.411 33.6289 117.382 33.6289 117.352 33.6289C117.333 33.5754 117.314 33.5218 117.295 33.4666C117.203 33.1962 117.203 33.1962 117.003 33.0126C116.976 32.8998 116.976 32.8998 116.959 32.7925C116.93 32.7925 116.902 32.7925 116.872 32.7925C116.872 32.7634 116.872 32.7343 116.872 32.7044C116.829 32.6899 116.785 32.6753 116.741 32.6604C116.741 32.6168 116.741 32.5732 116.741 32.5283C116.712 32.5283 116.683 32.5283 116.654 32.5283C116.654 32.4992 116.654 32.4702 116.654 32.4403C116.619 32.4294 116.585 32.4185 116.55 32.4072C116.415 32.3425 116.412 32.305 116.348 32.1761C116.248 32.1261 116.248 32.1261 116.13 32.0881C116.042 32.0447 115.954 32.0008 115.868 31.956C115.868 31.9124 115.868 31.8688 115.868 31.8239C115.767 31.8094 115.666 31.7948 115.562 31.7799C115.562 31.7508 115.562 31.7218 115.562 31.6918C115.533 31.6955 115.504 31.6991 115.475 31.7028C115.342 31.6917 115.286 31.6665 115.172 31.6038C115.019 31.5206 114.909 31.498 114.732 31.5157C114.732 31.5012 114.732 31.4867 114.732 31.4717C114.701 31.469 114.67 31.4664 114.638 31.4636C114.598 31.4599 114.558 31.4562 114.517 31.4524C114.477 31.4489 114.437 31.4453 114.395 31.4416C114.296 31.4277 114.296 31.4277 114.252 31.3836C114.115 31.3659 113.977 31.3625 113.84 31.3561C113.798 31.3542 113.756 31.3522 113.712 31.3502C113.364 31.3369 113.017 31.3427 112.669 31.3561C112.619 31.358 112.57 31.3599 112.519 31.3619C112.286 31.3626 112.286 31.3626 112.069 31.4277C111.998 31.4366 111.927 31.4437 111.856 31.4497C111.718 31.4613 111.591 31.4793 111.457 31.5157C111.419 31.523 111.38 31.5303 111.34 31.5377C111.241 31.5497 111.241 31.5497 111.195 31.6038C111.094 31.6056 110.992 31.6056 110.89 31.6038C110.89 31.6328 110.89 31.6619 110.89 31.6918C110.803 31.7064 110.717 31.7209 110.628 31.7359C110.628 31.7504 110.628 31.7649 110.628 31.7799C110.455 31.7944 110.282 31.8089 110.104 31.8239C110.089 31.8675 110.075 31.9111 110.06 31.956C109.957 31.9993 109.957 31.9993 109.828 32.033C109.786 32.0446 109.744 32.0562 109.7 32.0681C109.582 32.0878 109.516 32.0887 109.405 32.044C109.321 31.9195 109.3 31.7942 109.274 31.6478C109.226 31.406 109.164 31.1756 109.084 30.9427C109.051 30.8414 109.033 30.7397 109.012 30.6352C108.99 30.5709 108.967 30.5067 108.944 30.4426C108.882 30.2627 108.869 30.12 108.881 29.9308C108.852 29.9163 108.824 29.9018 108.794 29.8868C108.749 29.665 108.746 29.4515 108.75 29.2264C108.707 29.2119 108.664 29.1974 108.619 29.1824C108.619 29.0952 108.619 29.0081 108.619 28.9182C108.691 28.9182 108.763 28.9182 108.837 28.9182C108.852 28.8747 108.866 28.8311 108.881 28.7862C109.002 28.7398 109.117 28.7021 109.241 28.6678C109.275 28.6579 109.308 28.648 109.343 28.6378C109.513 28.5891 109.663 28.5527 109.842 28.566C109.856 28.5225 109.871 28.4789 109.885 28.434C109.925 28.4263 109.925 28.4263 109.965 28.4185C110.083 28.3954 110.201 28.372 110.319 28.3487C110.361 28.3406 110.402 28.3326 110.444 28.3243C110.484 28.3165 110.523 28.3087 110.563 28.3007C110.6 28.2935 110.636 28.2864 110.674 28.279C110.758 28.2658 110.758 28.2658 110.802 28.2138C110.904 28.212 111.006 28.212 111.108 28.2138C111.122 28.1703 111.137 28.1267 111.152 28.0818C111.202 28.0759 111.252 28.0701 111.303 28.064C111.368 28.0562 111.433 28.0484 111.498 28.0405C111.531 28.0367 111.564 28.0328 111.598 28.0289C111.76 28.0226 111.76 28.0226 111.894 27.9497C111.96 27.9465 112.027 27.946 112.093 27.9469C112.129 27.9473 112.165 27.9477 112.203 27.9481C112.23 27.9487 112.258 27.9492 112.287 27.9497C112.287 27.9206 112.287 27.8916 112.287 27.8616C112.446 27.8471 112.604 27.8326 112.767 27.8176C112.767 27.8031 112.767 27.7886 112.767 27.7736C112.817 27.7709 112.866 27.7683 112.917 27.7655C112.982 27.7618 113.047 27.7581 113.111 27.7543C113.144 27.7526 113.176 27.7509 113.21 27.7491C113.387 27.7421 113.387 27.7421 113.553 27.6855C113.627 27.6813 113.7 27.6799 113.774 27.6798C113.842 27.6796 113.842 27.6796 113.913 27.6794C113.962 27.6795 114.012 27.6796 114.063 27.6797C114.14 27.6796 114.14 27.6796 114.218 27.6796C114.326 27.6795 114.434 27.6796 114.541 27.6798C114.707 27.68 114.872 27.6798 115.038 27.6795C115.142 27.6795 115.247 27.6796 115.352 27.6797C115.401 27.6796 115.451 27.6795 115.502 27.6794C115.548 27.6796 115.594 27.6797 115.642 27.6798C115.682 27.6799 115.723 27.6799 115.765 27.6799C115.868 27.6855 115.868 27.6855 115.999 27.7296C116.118 27.7396 116.237 27.7479 116.356 27.7543C116.389 27.7562 116.422 27.7581 116.455 27.7601C116.536 27.7647 116.617 27.7692 116.697 27.7736C116.697 27.7881 116.697 27.8026 116.697 27.8176C116.841 27.8321 116.985 27.8467 117.134 27.8616C117.134 27.8907 117.134 27.9198 117.134 27.9497C117.158 27.9487 117.182 27.9476 117.208 27.9466C117.446 27.9409 117.648 27.9689 117.876 28.0377C117.934 28.0543 117.993 28.0708 118.051 28.0873C118.094 28.1 118.137 28.1127 118.182 28.1258C118.182 28.1548 118.182 28.1839 118.182 28.2138C118.268 28.2138 118.355 28.2138 118.444 28.2138C118.444 28.2429 118.444 28.272 118.444 28.3019C118.588 28.3164 118.732 28.3309 118.88 28.3459C118.88 28.375 118.88 28.404 118.88 28.434C118.938 28.434 118.996 28.434 119.055 28.434C119.055 28.4775 119.055 28.5211 119.055 28.566C119.086 28.5715 119.116 28.5769 119.148 28.5825C119.281 28.6118 119.407 28.6529 119.535 28.6981C119.535 28.7272 119.535 28.7562 119.535 28.7862C119.593 28.8007 119.651 28.8152 119.71 28.8302C119.71 28.8592 119.71 28.8883 119.71 28.9182C119.797 28.9328 119.883 28.9473 119.972 28.9623C119.972 28.9913 119.972 29.0204 119.972 29.0503C120.015 29.0503 120.059 29.0503 120.103 29.0503C120.103 29.0794 120.103 29.1084 120.103 29.1384C120.146 29.1384 120.19 29.1384 120.234 29.1384C120.234 29.1674 120.234 29.1965 120.234 29.2264C120.306 29.2555 120.378 29.2845 120.452 29.3145C120.452 29.3435 120.452 29.3726 120.452 29.4025C120.478 29.4071 120.503 29.4116 120.529 29.4163C120.643 29.4513 120.713 29.499 120.802 29.5786C120.802 29.6077 120.802 29.6367 120.802 29.6667C120.831 29.6667 120.859 29.6667 120.889 29.6667C120.889 29.6957 120.889 29.7248 120.889 29.7547C120.947 29.7838 121.004 29.8128 121.064 29.8428C121.064 29.8718 121.064 29.9009 121.064 29.9308C121.087 29.9401 121.111 29.9493 121.136 29.9589C121.276 30.0411 121.376 30.1545 121.484 30.2748C121.505 30.2977 121.527 30.3207 121.549 30.3443C121.671 30.4796 121.74 30.5985 121.806 30.7673C121.849 30.7818 121.892 30.7964 121.937 30.8113C121.998 30.888 121.998 30.888 122.054 30.9819C122.073 31.0127 122.093 31.0434 122.112 31.0751C122.155 31.1635 122.155 31.1635 122.155 31.2956C122.184 31.2956 122.213 31.2956 122.243 31.2956C122.417 31.5873 122.417 31.5873 122.417 31.7359C122.446 31.7359 122.475 31.7359 122.505 31.7359C122.505 31.794 122.505 31.8521 122.505 31.912C122.548 31.9265 122.591 31.941 122.636 31.956C122.677 32.0327 122.677 32.0327 122.709 32.1266C122.72 32.1573 122.731 32.1881 122.743 32.2198C122.767 32.3082 122.767 32.3082 122.767 32.4403C122.795 32.4403 122.824 32.4403 122.854 32.4403C122.974 32.7294 123.076 33.0189 123.16 33.3208C123.174 33.3208 123.188 33.3208 123.203 33.3208C123.21 33.3707 123.216 33.4206 123.222 33.4721C123.23 33.6205 123.23 33.6205 123.291 33.673C123.305 33.7757 123.32 33.8784 123.334 33.9811C123.349 33.9957 123.363 34.0102 123.378 34.0252C123.38 34.1279 123.38 34.2306 123.378 34.3333C123.407 34.3333 123.436 34.3333 123.465 34.3333C123.475 34.4222 123.485 34.511 123.495 34.5999C123.505 34.6888 123.505 34.6888 123.553 34.7736C123.552 34.8244 123.551 34.8753 123.55 34.9277C123.535 35.0844 123.535 35.0844 123.64 35.1698C123.656 35.2635 123.656 35.2635 123.664 35.3707C123.665 35.5035 123.665 35.5035 123.727 35.6101C123.737 35.6814 123.743 35.753 123.749 35.8247C123.754 35.8897 123.754 35.8897 123.76 35.9561C123.767 36.0483 123.775 36.1404 123.782 36.2326C123.787 36.2976 123.787 36.2976 123.793 36.364C123.796 36.4041 123.799 36.4441 123.802 36.4854C123.805 36.5778 123.805 36.5778 123.858 36.6226C123.861 36.7189 123.862 36.8153 123.861 36.9116C123.861 36.9643 123.86 37.017 123.86 37.0713C123.859 37.1121 123.859 37.1529 123.858 37.195C123.887 37.195 123.916 37.195 123.946 37.195C124.006 37.3775 124.006 37.5607 124.016 37.7514C124.023 37.919 124.023 37.919 124.077 38.0755C124.087 38.184 124.094 38.2917 124.1 38.4005C124.103 38.451 124.103 38.451 124.106 38.5025C124.11 38.5748 124.113 38.6472 124.117 38.7195C124.123 38.8244 124.129 38.9293 124.135 39.0342C124.173 39.7444 124.164 40.4424 124.164 41.1572C135 41.1572 145.836 41.1572 157 41.1572C156.859 41.3354 156.732 41.4606 156.555 41.5947C156.314 41.7819 156.077 41.9737 155.843 42.1698C155.616 42.3593 155.388 42.5461 155.155 42.7284C154.934 42.9016 154.72 43.0808 154.507 43.2643C154.282 43.4577 154.05 43.6416 153.817 43.8247C153.684 43.9241 153.684 43.9241 153.589 44.0241C153.413 44.1399 153.273 44.1313 153.068 44.1289C153.028 44.1291 152.987 44.1294 152.946 44.1296C152.81 44.1302 152.675 44.1295 152.539 44.1288C152.441 44.129 152.343 44.1292 152.245 44.1295C151.973 44.1301 151.701 44.1297 151.43 44.129C151.165 44.1285 150.901 44.1289 150.636 44.1292C150.088 44.1299 149.541 44.1297 148.993 44.1291C148.437 44.1285 147.882 44.1282 147.327 44.1284C147.274 44.1285 147.274 44.1285 147.221 44.1285C147.042 44.1286 146.863 44.1286 146.685 44.1287C145.39 44.1293 144.096 44.129 142.802 44.1282C141.52 44.1275 140.238 44.127 138.956 44.1271C138.875 44.1271 138.795 44.1271 138.714 44.1271C138.391 44.1271 138.068 44.1271 137.744 44.1271C136.84 44.1271 135.937 44.1271 135.033 44.127C134.992 44.127 134.95 44.127 134.908 44.127C133.596 44.1269 132.284 44.1265 130.972 44.1259C130.929 44.1259 130.887 44.1259 130.843 44.1259C130.151 44.1256 129.46 44.1253 128.769 44.125C126.027 44.1238 123.285 44.1232 120.544 44.1232C120.457 44.1232 120.37 44.1232 120.284 44.1232C120.111 44.1232 119.937 44.1232 119.764 44.1233C119.376 44.1233 118.988 44.1233 118.6 44.1233C118.514 44.1233 118.428 44.1233 118.342 44.1233C116.047 44.1233 113.751 44.1229 111.456 44.1224C111.416 44.1224 111.376 44.1223 111.334 44.1223C110.604 44.1222 110.604 44.1222 110.246 44.1221C109.365 44.1219 108.483 44.1217 107.601 44.1217C107.542 44.1216 107.542 44.1216 107.481 44.1216C107.321 44.1216 107.16 44.1216 107 44.1216C105.514 44.1216 104.029 44.1212 102.543 44.1203C102.4 44.1203 102.258 44.1202 102.116 44.1201C102.081 44.1201 102.046 44.1201 102.01 44.12C101.456 44.1197 100.902 44.1197 100.348 44.1198C99.804 44.1199 99.2598 44.1197 98.7156 44.1191C98.4243 44.1188 98.133 44.1187 97.8418 44.1189C97.577 44.1191 97.3123 44.1189 97.0475 44.1184C96.9521 44.1183 96.8568 44.1183 96.7614 44.1185C96.6321 44.1188 96.5029 44.1185 96.3736 44.1181C96.3367 44.1183 96.2998 44.1185 96.2618 44.1187C95.943 44.1166 95.6052 44.0899 95.345 43.8868C95.345 43.8577 95.345 43.8287 95.345 43.7987C95.2586 43.7842 95.1721 43.7697 95.083 43.7547C95.083 43.7257 95.083 43.6966 95.083 43.6667C95.0506 43.6558 95.0182 43.6449 94.9848 43.6337C94.8546 43.574 94.7818 43.5121 94.69 43.4025C94.69 43.3735 94.69 43.3444 94.69 43.3145C94.618 43.2854 94.5459 43.2564 94.4717 43.2264C94.4717 43.1683 94.4717 43.1102 94.4717 43.0503C94.4285 43.0358 94.3853 43.0213 94.3407 43.0063C94.267 42.9458 94.267 42.9458 94.2097 42.8742C94.2097 42.8306 94.2097 42.787 94.2097 42.7421C94.1809 42.7421 94.1521 42.7421 94.1224 42.7421C94.1224 42.6986 94.1224 42.655 94.1224 42.6101C94.0936 42.6101 94.0648 42.6101 94.0351 42.6101C94.0062 42.5229 93.9774 42.4357 93.9477 42.3459C93.9189 42.3459 93.8901 42.3459 93.8604 42.3459C93.8167 42.2579 93.7731 42.1698 93.7294 42.0818C93.7078 42.0427 93.6862 42.0037 93.6639 41.9634C93.5726 41.7601 93.5212 41.5494 93.4674 41.3333C93.4386 41.3479 93.4098 41.3624 93.3801 41.3774C93.3801 41.45 93.3801 41.5226 93.3801 41.5975C93.3513 41.5975 93.3225 41.5975 93.2928 41.5975C93.2982 41.6424 93.2982 41.6424 93.3037 41.6883C93.2913 41.8349 93.2387 41.9236 93.1628 42.0474C93.1008 42.1561 93.0656 42.27 93.0308 42.3899C93.0019 42.3899 92.9731 42.3899 92.9434 42.3899C92.9434 42.4335 92.9434 42.4771 92.9434 42.522C92.9146 42.522 92.8858 42.522 92.8561 42.522C92.8435 42.5556 92.8309 42.5892 92.8179 42.6238C92.7688 42.7421 92.7688 42.7421 92.6814 42.8742C92.6526 42.8742 92.6238 42.8742 92.5941 42.8742C92.5941 42.9033 92.5941 42.9323 92.5941 42.9623C92.5653 42.9623 92.5365 42.9623 92.5068 42.9623C92.4924 43.0204 92.478 43.0785 92.4631 43.1384C92.4199 43.1384 92.3767 43.1384 92.3321 43.1384C92.3321 43.1674 92.3321 43.1965 92.3321 43.2264C92.3033 43.2264 92.2745 43.2264 92.2448 43.2264C92.2448 43.2555 92.2448 43.2845 92.2448 43.3145C92.1684 43.408 92.1684 43.408 92.0701 43.4906C92.0125 43.4906 91.9549 43.4906 91.8955 43.4906C91.8955 43.5196 91.8955 43.5487 91.8955 43.5786C91.7645 43.6667 91.7645 43.6667 91.6335 43.6667C91.6335 43.6957 91.6335 43.7248 91.6335 43.7547C91.584 43.7674 91.5344 43.7801 91.4834 43.7932C91.4321 43.8096 91.3807 43.8259 91.3278 43.8428C91.3134 43.8718 91.299 43.9009 91.2842 43.9308C91.197 43.9668 91.197 43.9668 91.0904 43.9996C90.944 44.0452 90.944 44.0452 90.8039 44.1069C90.5822 44.1471 90.373 44.1549 90.1489 44.1509C90.1345 44.1945 90.1201 44.2381 90.1052 44.283C86.1714 44.283 82.2377 44.283 78.1847 44.283C78.1703 44.254 78.1559 44.2249 78.141 44.195C78.0648 44.1566 78.0648 44.1566 77.9745 44.1262C77.9445 44.1152 77.9145 44.1043 77.8836 44.093C77.7954 44.0641 77.7073 44.0403 77.617 44.0189C77.617 43.9898 77.617 43.9608 77.617 43.9308C77.545 43.9163 77.4729 43.9018 77.3987 43.8868C77.3987 43.8577 77.3987 43.8287 77.3987 43.7987C77.36 43.7878 77.3213 43.777 77.2814 43.7657C77.1308 43.7085 77.0392 43.64 76.9184 43.5346C76.8752 43.5055 76.8319 43.4765 76.7874 43.4465C76.773 43.403 76.7586 43.3594 76.7437 43.3145C76.7149 43.3008 76.6861 43.2872 76.6564 43.2732C76.5691 43.2264 76.5691 43.2264 76.5363 43.1329C76.5309 43.092 76.5309 43.092 76.5254 43.0503C76.4822 43.0503 76.4389 43.0503 76.3944 43.0503C76.3339 42.9764 76.3339 42.9764 76.2771 42.8797C76.258 42.8481 76.2389 42.8164 76.2192 42.7838C76.1761 42.6981 76.1761 42.6981 76.1761 42.6101C76.1329 42.5955 76.0896 42.581 76.0451 42.566C76.0307 42.4934 76.0163 42.4208 76.0014 42.3459C75.9726 42.3459 75.9438 42.3459 75.9141 42.3459C75.7477 42.0299 75.6081 41.7249 75.5211 41.3774C75.4217 41.4776 75.4155 41.5195 75.3901 41.6553C75.3598 41.8056 75.322 41.9413 75.2591 42.0818C75.2303 42.0818 75.2015 42.0818 75.1718 42.0818C75.1655 42.1081 75.1592 42.1344 75.1527 42.1616C75.133 42.2386 75.1094 42.3145 75.0845 42.3899C75.0556 42.3899 75.0268 42.3899 74.9971 42.3899C74.9935 42.4145 74.9899 42.439 74.9862 42.4642C74.9437 42.5965 74.8658 42.6793 74.7788 42.7862C74.7644 42.8298 74.75 42.8733 74.7351 42.9182C74.6686 42.9843 74.6686 42.9843 74.5878 43.0503C74.5072 43.1167 74.4312 43.1806 74.3596 43.2567C74.2985 43.3145 74.2985 43.3145 74.2112 43.3145C74.2112 43.3435 74.2112 43.3726 74.2112 43.4025C74.1832 43.4152 74.1553 43.4279 74.1266 43.441C74.0299 43.483 74.0299 43.483 73.9928 43.5786C73.9496 43.5786 73.9064 43.5786 73.8618 43.5786C73.8618 43.6077 73.8618 43.6367 73.8618 43.6667C73.8159 43.6857 73.77 43.7048 73.7227 43.7245C73.6201 43.7682 73.5339 43.8129 73.4388 43.873C73.3379 43.9308 73.3379 43.9308 73.1632 43.9308C73.1632 43.9599 73.1632 43.9889 73.1632 44.0189C73.1259 44.0247 73.0886 44.0306 73.0501 44.0366C73.0019 44.0444 72.9536 44.0521 72.9039 44.0601C72.8558 44.0678 72.8077 44.0755 72.7581 44.0834C72.6434 44.0945 72.6434 44.0945 72.5956 44.1509C72.4789 44.1572 72.3631 44.1528 72.2462 44.1509C72.2462 44.18 72.2462 44.2091 72.2462 44.239C72.1432 44.2909 72.0823 44.2885 71.9675 44.2885C71.9269 44.2886 71.8863 44.2887 71.8445 44.2888C71.7771 44.2886 71.7771 44.2886 71.7083 44.2884C71.6607 44.2885 71.613 44.2885 71.5639 44.2886C71.4023 44.2887 71.2408 44.2885 71.0792 44.2883C70.9629 44.2883 70.8467 44.2884 70.7305 44.2884C70.4767 44.2885 70.223 44.2884 69.9693 44.2883C69.592 44.288 69.2148 44.288 68.8375 44.288C68.2029 44.2881 67.5684 44.2879 66.9338 44.2877C66.3053 44.2874 65.6767 44.2872 65.0482 44.2872C64.9896 44.2872 64.9896 44.2872 64.9299 44.2872C64.7316 44.2872 64.5334 44.2872 64.3351 44.2871C62.9299 44.2871 61.5246 44.2868 60.1194 44.2863C58.754 44.2859 57.3885 44.2856 56.0231 44.2854C55.981 44.2854 55.939 44.2854 55.8956 44.2854C55.4732 44.2854 55.0508 44.2853 54.6283 44.2853C53.7677 44.2851 52.9071 44.285 52.0465 44.2849C51.9871 44.2849 51.9871 44.2849 51.9266 44.2849C49.2827 44.2845 46.6388 44.2838 43.995 44.283C43.995 44.2578 43.9951 44.2326 43.9952 44.2066C43.9985 42.7096 43.9997 41.2126 43.9984 39.7155C43.9982 39.5354 43.9981 39.3553 43.9979 39.1751C43.9979 39.1393 43.9979 39.1034 43.9978 39.0665C43.9974 38.4874 43.9984 37.9084 43.9999 37.3293C44.0014 36.7342 44.0014 36.1392 44 35.5441C43.9992 35.1775 43.9996 34.811 44.0015 34.4444C44.0026 34.1923 44.0023 33.9403 44.0009 33.6882C44.0001 33.5432 44.0002 33.3982 44.0015 33.2532C44.0076 32.572 43.9481 32.0594 43.604 31.466C43.4957 31.2706 43.4244 31.0567 43.3482 30.8471C43.3238 30.7807 43.3238 30.7807 43.2988 30.7131C43.1862 30.401 43.0951 30.0894 43.0236 29.7654C42.9938 29.6249 42.9938 29.6249 42.9492 29.5014C42.82 29.0988 42.7584 28.6736 42.685 28.2579C42.6761 28.2087 42.6672 28.1596 42.6579 28.109C42.2782 25.9259 42.4788 23.5812 42.7814 21.4027C42.8546 20.875 42.9144 20.3604 42.8892 19.8269C42.853 19.0371 42.8567 18.4496 43.3508 17.7943C43.4299 17.6884 43.5026 17.5798 43.5747 17.4689C43.7105 17.2612 43.8512 17.0576 43.995 16.8553C44.0133 16.8295 44.0316 16.8037 44.0504 16.7772C44.2841 16.4497 44.5386 16.1427 44.7996 15.8374C44.8504 15.7762 44.9002 15.714 44.9492 15.6513C45.2101 15.3197 45.4961 15.0216 45.7941 14.7242C45.8756 14.6428 45.9567 14.5611 46.0378 14.4794C46.2954 14.2204 46.5532 13.9641 46.8332 13.7296C46.8596 13.7073 46.886 13.685 46.9132 13.6621C47.1173 13.4912 47.3245 13.3241 47.5318 13.1572C47.5607 13.1339 47.5896 13.1107 47.6194 13.0867C48.164 12.65 48.739 12.2626 49.3221 11.8805C49.3583 11.8567 49.3944 11.8329 49.4316 11.8084C49.9044 11.4983 50.3884 11.2104 50.8795 10.9307C51.3188 10.679 51.738 10.4006 52.144 10.0975C52.1714 10.0771 52.1988 10.0567 52.2271 10.0356C52.696 9.6851 52.696 9.6851 53.121 9.28302C53.213 9.19149 53.3051 9.10008 53.3973 9.00872C53.4735 8.93487 53.4735 8.93487 53.514 8.84277C53.5428 8.84277 53.5716 8.84277 53.6013 8.84277C53.6111 8.81995 53.6209 8.79714 53.631 8.77363C53.694 8.65671 53.7696 8.55366 53.8493 8.44781C54.8034 7.18025 55.3207 5.58207 55.4352 4Z" fill="white"/>
<path d="M138.231 30.4502C138.269 30.4499 138.307 30.4497 138.346 30.4494C138.426 30.449 138.506 30.4487 138.585 30.4486C138.706 30.4481 138.826 30.4468 138.946 30.4454C139.396 30.4427 139.796 30.4746 140.233 30.5912C140.302 30.6055 140.371 30.6193 140.44 30.6325C140.616 30.6719 140.776 30.7373 140.941 30.8081C141.129 30.8815 141.323 30.933 141.517 30.9862C141.554 31.0012 141.591 31.0161 141.63 31.0315C141.644 31.075 141.659 31.1186 141.674 31.1635C141.71 31.1672 141.746 31.1708 141.783 31.1745C141.969 31.2148 142.119 31.2922 142.285 31.3837C142.285 31.4127 142.285 31.4418 142.285 31.4717C142.357 31.4862 142.429 31.5008 142.503 31.5157C142.503 31.5448 142.503 31.5738 142.503 31.6038C142.59 31.6183 142.676 31.6328 142.765 31.6478C142.765 31.6769 142.765 31.7059 142.765 31.7359C142.794 31.7359 142.823 31.7359 142.853 31.7359C142.853 31.7649 142.853 31.794 142.853 31.8239C142.884 31.8348 142.916 31.8457 142.948 31.8569C143.083 31.9174 143.18 31.9878 143.289 32.0881C143.289 32.1171 143.289 32.1462 143.289 32.1761C143.327 32.1952 143.327 32.1952 143.366 32.2146C143.414 32.2392 143.414 32.2392 143.464 32.2642C143.495 32.2769 143.527 32.2896 143.559 32.3027C143.639 32.3522 143.639 32.3522 143.671 32.4458C143.675 32.473 143.678 32.5002 143.682 32.5283C143.725 32.5283 143.769 32.5283 143.813 32.5283C143.909 32.6081 143.909 32.6081 143.988 32.7044C143.988 32.748 143.988 32.7916 143.988 32.8365C144.017 32.8365 144.045 32.8365 144.075 32.8365C144.075 32.8655 144.075 32.8946 144.075 32.9245C144.169 32.8883 144.169 32.8883 144.203 32.798C144.315 32.5722 144.549 32.4089 144.774 32.3082C144.774 32.2791 144.774 32.2501 144.774 32.2201C144.927 32.0769 145.053 31.9775 145.254 31.912C145.254 31.8829 145.254 31.8538 145.254 31.8239C145.327 31.7672 145.327 31.7672 145.423 31.7083C145.455 31.6887 145.486 31.6691 145.519 31.6488C145.603 31.6038 145.603 31.6038 145.691 31.6038C145.691 31.5747 145.691 31.5457 145.691 31.5157C145.726 31.503 145.761 31.4903 145.797 31.4772C145.915 31.4395 145.915 31.4395 145.953 31.3396C146.048 31.2925 146.048 31.2925 146.166 31.2461C146.204 31.2305 146.243 31.215 146.283 31.199C146.389 31.1635 146.389 31.1635 146.52 31.1635C146.535 31.1199 146.549 31.0764 146.564 31.0315C146.635 30.9943 146.635 30.9943 146.726 30.9654C146.76 30.9545 146.794 30.9436 146.828 30.9324C146.863 30.9215 146.899 30.9106 146.935 30.8994C146.969 30.8885 147.003 30.8776 147.038 30.8664C147.107 30.8442 147.176 30.8223 147.246 30.8007C147.35 30.7674 147.453 30.7318 147.556 30.6959C147.707 30.6449 147.853 30.6108 148.01 30.5885C148.148 30.5688 148.271 30.546 148.402 30.5023C148.596 30.4461 148.782 30.4473 148.982 30.449C149.02 30.449 149.059 30.449 149.098 30.449C149.179 30.4492 149.26 30.4495 149.341 30.4501C149.465 30.4509 149.588 30.451 149.711 30.451C149.79 30.4512 149.869 30.4514 149.948 30.4517C149.984 30.4518 150.021 30.4518 150.058 30.4519C150.28 30.4537 150.493 30.4714 150.712 30.5032C150.712 30.5322 150.712 30.5613 150.712 30.5912C150.755 30.5894 150.797 30.5876 150.841 30.5857C151.038 30.5849 151.221 30.6306 151.411 30.6793C151.411 30.7083 151.411 30.7374 151.411 30.7673C151.454 30.7724 151.497 30.7775 151.541 30.7828C151.727 30.8097 151.903 30.8599 152.082 30.9159C152.114 30.9251 152.145 30.9343 152.178 30.9438C152.258 30.9687 152.337 30.9997 152.415 31.0315C152.43 31.075 152.444 31.1186 152.459 31.1635C152.513 31.169 152.513 31.169 152.568 31.1745C152.754 31.2148 152.904 31.2922 153.07 31.3837C153.07 31.4127 153.07 31.4418 153.07 31.4717C153.142 31.4862 153.214 31.5008 153.288 31.5157C153.288 31.5448 153.288 31.5738 153.288 31.6038C153.336 31.6215 153.336 31.6215 153.384 31.6396C153.507 31.6918 153.615 31.748 153.725 31.8239C153.725 31.853 153.725 31.882 153.725 31.912C153.755 31.921 153.785 31.9301 153.815 31.9395C154.001 32.0274 154.199 32.1627 154.293 32.3522C154.331 32.3699 154.331 32.3699 154.369 32.388C154.5 32.4578 154.587 32.5498 154.686 32.6604C154.686 32.6894 154.686 32.7185 154.686 32.7484C154.715 32.7484 154.743 32.7484 154.773 32.7484C154.778 32.7893 154.778 32.7893 154.784 32.831C154.795 32.8619 154.806 32.8927 154.817 32.9245C154.842 32.9351 154.866 32.9457 154.892 32.9565C155.038 33.0387 155.122 33.1661 155.221 33.2988C155.241 33.3249 155.261 33.3511 155.281 33.378C155.428 33.573 155.428 33.573 155.428 33.673C155.457 33.673 155.486 33.673 155.515 33.673C155.603 33.805 155.603 33.805 155.603 33.9371C155.632 33.9371 155.66 33.9371 155.69 33.9371C155.821 34.1903 155.821 34.1903 155.821 34.2893C155.85 34.2893 155.879 34.2893 155.908 34.2893C155.945 34.3588 155.981 34.4286 156.018 34.4984C156.038 34.5373 156.058 34.5761 156.079 34.6161C156.127 34.7296 156.127 34.7296 156.127 34.9057C156.156 34.9057 156.184 34.9057 156.214 34.9057C156.232 34.9547 156.25 35.0037 156.269 35.0543C156.321 35.1968 156.377 35.3374 156.435 35.478C156.49 35.6146 156.535 35.7474 156.569 35.8907C156.599 36.0416 156.599 36.0416 156.65 36.1367C156.95 36.7453 156.894 37.5822 156.887 38.2408C156.885 38.3964 156.885 38.5519 156.885 38.7075C156.885 38.808 156.884 38.9085 156.884 39.009C156.884 39.0547 156.883 39.1004 156.883 39.1475C156.883 39.1911 156.882 39.2346 156.882 39.2795C156.881 39.3171 156.881 39.3546 156.881 39.3933C156.864 39.5872 156.82 39.7777 156.782 39.9686C156.277 39.9686 155.773 39.9686 155.253 39.9686C155.253 39.7044 155.253 39.7044 155.297 39.6604C155.307 39.5492 155.315 39.4389 155.322 39.3274C155.324 39.2962 155.325 39.2649 155.327 39.2326C155.332 39.1551 155.336 39.0775 155.341 39C155.37 39 155.398 39 155.428 39C155.428 38.5642 155.428 38.1283 155.428 37.6793C155.399 37.6793 155.37 37.6793 155.341 37.6793C155.338 37.6353 155.335 37.5913 155.333 37.546C155.329 37.4892 155.325 37.4324 155.322 37.3738C155.318 37.3171 155.315 37.2604 155.311 37.202C155.312 37.0691 155.312 37.0691 155.253 37.0189C155.254 36.9835 155.255 36.9481 155.256 36.9116C155.266 36.7913 155.266 36.7913 155.166 36.7107C155.148 36.5865 155.148 36.5865 155.139 36.441C155.136 36.3928 155.132 36.3446 155.129 36.2949C155.127 36.2578 155.125 36.2206 155.122 36.1824C155.094 36.1824 155.065 36.1824 155.035 36.1824C154.964 36.0692 154.946 36.0205 154.964 35.8852C154.973 35.8525 154.982 35.8199 154.991 35.7862C154.948 35.7862 154.905 35.7862 154.86 35.7862C154.846 35.6845 154.832 35.5828 154.817 35.478C154.788 35.478 154.759 35.478 154.729 35.478C154.729 35.4344 154.729 35.3908 154.729 35.3459C154.701 35.3459 154.672 35.3459 154.642 35.3459C154.642 35.2878 154.642 35.2297 154.642 35.1698C154.613 35.1698 154.584 35.1698 154.555 35.1698C154.511 35.0377 154.467 34.9057 154.424 34.7736C154.395 34.7736 154.366 34.7736 154.336 34.7736C154.322 34.73 154.308 34.6864 154.293 34.6415C154.25 34.6125 154.206 34.5834 154.162 34.5535C154.156 34.5262 154.151 34.499 154.145 34.4709C154.125 34.3661 154.125 34.3661 154.014 34.2948C153.884 34.188 153.839 34.0891 153.769 33.9371C153.74 33.9226 153.711 33.9081 153.681 33.8931C153.681 33.864 153.681 33.835 153.681 33.805C153.653 33.805 153.624 33.805 153.594 33.805C153.536 33.7407 153.536 33.7407 153.471 33.6565C153.359 33.519 153.279 33.4727 153.114 33.4088C153.056 33.3469 153.056 33.3469 152.999 33.274C152.907 33.1354 152.907 33.1354 152.765 33.1006C152.765 33.0716 152.765 33.0425 152.765 33.0126C152.736 33.0126 152.707 33.0126 152.677 33.0126C152.677 32.9835 152.677 32.9545 152.677 32.9245C152.65 32.9165 152.622 32.9085 152.594 32.9003C152.559 32.8892 152.523 32.8782 152.486 32.8668C152.451 32.856 152.415 32.8453 152.379 32.8343C152.284 32.7925 152.284 32.7925 152.197 32.6604C152.092 32.6063 152.092 32.6063 151.973 32.5641C151.933 32.5489 151.894 32.5338 151.853 32.5182C151.822 32.507 151.792 32.4958 151.76 32.4843C151.76 32.4552 151.76 32.4262 151.76 32.3962C151.674 32.3962 151.587 32.3962 151.498 32.3962C151.498 32.3672 151.498 32.3381 151.498 32.3082C151.445 32.3027 151.392 32.2973 151.337 32.2917C151.19 32.2735 151.066 32.2401 150.931 32.1761C150.931 32.1471 150.931 32.118 150.931 32.0881C150.786 32.0881 150.642 32.0881 150.494 32.0881C150.494 32.0735 150.494 32.059 150.494 32.044C149.817 31.9754 149.119 31.9644 148.442 32.044C148.427 32.0586 148.413 32.0731 148.398 32.0881C148.296 32.0899 148.194 32.0899 148.092 32.0881C148.092 32.1171 148.092 32.1462 148.092 32.1761C148.035 32.1761 147.977 32.1761 147.918 32.1761C147.918 32.2052 147.918 32.2342 147.918 32.2642C147.759 32.2787 147.601 32.2932 147.437 32.3082C147.437 32.3372 147.437 32.3663 147.437 32.3962C147.38 32.3962 147.322 32.3962 147.263 32.3962C147.263 32.4253 147.263 32.4544 147.263 32.4843C147.186 32.5213 147.108 32.5579 147.031 32.5944C146.966 32.625 146.966 32.625 146.9 32.6563C146.782 32.7044 146.782 32.7044 146.651 32.7044C146.637 32.748 146.623 32.7916 146.608 32.8365C146.521 32.882 146.434 32.926 146.346 32.9686C146.301 33.0118 146.257 33.0556 146.215 33.1006C146.186 33.1006 146.157 33.1006 146.127 33.1006C146.127 33.1297 146.127 33.1588 146.127 33.1887C146.098 33.196 146.068 33.2032 146.037 33.2107C145.876 33.2938 145.792 33.4038 145.677 33.5428C145.59 33.6451 145.492 33.7231 145.385 33.805C145.348 33.8432 145.311 33.8813 145.273 33.9206C145.177 34.015 145.109 34.0544 144.992 34.1132C144.961 34.1582 144.961 34.1582 144.929 34.204C144.861 34.2893 144.861 34.2893 144.763 34.3223C144.62 34.3354 144.48 34.3362 144.337 34.3333C144.337 34.3624 144.337 34.3915 144.337 34.4214C144.179 34.4214 144.02 34.4214 143.857 34.4214C143.857 34.3923 143.857 34.3633 143.857 34.3333C143.817 34.3327 143.778 34.3321 143.737 34.3315C143.686 34.3294 143.634 34.3273 143.581 34.3251C143.53 34.3236 143.479 34.322 143.426 34.3204C143.289 34.2893 143.289 34.2893 143.214 34.1825C143.195 34.1451 143.177 34.1077 143.158 34.0692C143.115 34.0401 143.072 34.0111 143.027 33.9811C143.027 33.9521 143.027 33.923 143.027 33.8931C142.984 33.8786 142.941 33.864 142.896 33.8491C142.837 33.7763 142.779 33.7028 142.722 33.6289C142.606 33.5224 142.606 33.5224 142.46 33.4969C142.46 33.4678 142.46 33.4388 142.46 33.4088C142.431 33.4088 142.402 33.4088 142.372 33.4088C142.372 33.3798 142.372 33.3507 142.372 33.3208C142.343 33.3208 142.315 33.3208 142.285 33.3208C142.285 33.2917 142.285 33.2627 142.285 33.2327C142.242 33.2182 142.198 33.2037 142.154 33.1887C142.154 33.1596 142.154 33.1306 142.154 33.1006C142.096 33.1006 142.039 33.1006 141.979 33.1006C141.935 33.0577 141.891 33.0134 141.848 32.9686C141.748 32.9056 141.646 32.8495 141.543 32.7925C141.543 32.7634 141.543 32.7344 141.543 32.7044C141.485 32.7044 141.427 32.7044 141.368 32.7044C141.368 32.6754 141.368 32.6463 141.368 32.6164C141.267 32.6018 141.166 32.5873 141.062 32.5723C141.062 32.5433 141.062 32.5142 141.062 32.4843C141.036 32.4779 141.01 32.4716 140.983 32.465C140.907 32.4452 140.831 32.4214 140.757 32.3962C140.757 32.3672 140.757 32.3381 140.757 32.3082C140.704 32.3027 140.652 32.2973 140.598 32.2917C140.439 32.2719 140.296 32.2331 140.145 32.1761C140.145 32.1471 140.145 32.118 140.145 32.0881C140.016 32.0881 139.886 32.0881 139.752 32.0881C139.752 32.059 139.752 32.0299 139.752 32C139.061 32 138.369 32 137.656 32C137.656 32.0291 137.656 32.0581 137.656 32.0881C137.527 32.0881 137.397 32.0881 137.263 32.0881C137.263 32.1171 137.263 32.1462 137.263 32.1761C137.191 32.1761 137.119 32.1761 137.045 32.1761C137.045 32.2052 137.045 32.2342 137.045 32.2642C136.851 32.286 136.851 32.286 136.652 32.3082C136.652 32.3372 136.652 32.3663 136.652 32.3962C136.58 32.3962 136.508 32.3962 136.434 32.3962C136.434 32.4253 136.434 32.4544 136.434 32.4843C136.4 32.4992 136.365 32.514 136.33 32.5293C136.286 32.549 136.242 32.5686 136.196 32.5888C136.152 32.6083 136.108 32.6277 136.063 32.6477C135.948 32.6934 135.948 32.6934 135.91 32.7925C135.82 32.83 135.82 32.83 135.711 32.864C135.675 32.8755 135.638 32.8869 135.601 32.8987C135.573 32.9073 135.546 32.9158 135.517 32.9245C135.517 32.9536 135.517 32.9827 135.517 33.0126C135.459 33.0126 135.402 33.0126 135.342 33.0126C135.33 33.0389 135.319 33.0653 135.307 33.0924C135.234 33.2272 135.162 33.2997 135.028 33.373C134.846 33.4916 134.707 33.6485 134.556 33.805C134.518 33.8414 134.481 33.8777 134.442 33.9151C134.328 34.0358 134.234 34.1637 134.138 34.2995C134.076 34.3774 134.076 34.3774 133.945 34.4654C133.929 34.5238 133.914 34.5825 133.901 34.6415C133.858 34.6633 133.858 34.6633 133.814 34.6855C133.777 34.772 133.75 34.8599 133.721 34.9494C133.679 35.0471 133.627 35.096 133.552 35.1698C133.499 35.3063 133.499 35.3063 133.465 35.434C133.436 35.434 133.407 35.434 133.377 35.434C133.363 35.5211 133.348 35.6083 133.334 35.6981C133.29 35.7127 133.247 35.7272 133.203 35.7422C133.188 35.8584 133.174 35.9746 133.159 36.0944C133.13 36.0944 133.101 36.0944 133.072 36.0944C133.073 36.1325 133.075 36.1706 133.077 36.2099C133.071 36.3639 133.038 36.4794 132.984 36.6227C132.955 36.6227 132.927 36.6227 132.897 36.6227C132.883 36.8696 132.868 37.1166 132.853 37.3711C132.824 37.3711 132.796 37.3711 132.766 37.3711C132.766 38.0103 132.766 38.6496 132.766 39.3082C132.795 39.3082 132.824 39.3082 132.853 39.3082C132.868 39.5261 132.882 39.744 132.897 39.9686C132.407 39.9686 131.917 39.9686 131.412 39.9686C131.342 39.827 131.366 39.6852 131.369 39.5283C131.34 39.5283 131.311 39.5283 131.281 39.5283C131.241 39.1323 131.231 38.7403 131.232 38.3424C131.232 38.2866 131.232 38.2308 131.232 38.1733C131.232 37.8158 131.249 37.4628 131.281 37.1069C131.31 37.1069 131.339 37.1069 131.369 37.1069C131.367 37.0595 131.364 37.012 131.362 36.9632C131.363 36.7144 131.416 36.4793 131.47 36.2374C131.479 36.1922 131.488 36.147 131.498 36.1004C131.512 36.0351 131.512 36.0351 131.526 35.9685C131.539 35.9096 131.539 35.9096 131.552 35.8495C131.59 35.7329 131.643 35.6616 131.718 35.566C131.753 35.4681 131.785 35.3689 131.813 35.2689C131.829 35.2174 131.844 35.1658 131.859 35.1127C131.87 35.0735 131.881 35.0342 131.893 34.9937C131.921 34.9937 131.95 34.9937 131.98 34.9937C131.985 34.9701 131.991 34.9465 131.996 34.9222C132.029 34.7972 132.07 34.6758 132.111 34.5535C132.14 34.5535 132.169 34.5535 132.198 34.5535C132.205 34.5271 132.211 34.5008 132.217 34.4737C132.237 34.3967 132.261 34.3207 132.286 34.2453C132.314 34.2453 132.343 34.2453 132.373 34.2453C132.377 34.2226 132.38 34.1999 132.384 34.1765C132.431 34.0232 132.51 33.8987 132.591 33.761C132.62 33.761 132.649 33.761 132.679 33.761C132.689 33.7311 132.698 33.7011 132.709 33.6702C132.788 33.491 132.892 33.2792 133.072 33.1887C133.086 33.1451 133.1 33.1015 133.115 33.0566C133.144 33.0566 133.173 33.0566 133.203 33.0566C133.203 33.0276 133.203 32.9985 133.203 32.9686C133.231 32.9686 133.26 32.9686 133.29 32.9686C133.304 32.925 133.319 32.8814 133.334 32.8365C133.362 32.8365 133.391 32.8365 133.421 32.8365C133.433 32.8102 133.444 32.7838 133.456 32.7567C133.508 32.6605 133.556 32.5982 133.639 32.5283C133.668 32.5283 133.697 32.5283 133.727 32.5283C133.736 32.5029 133.745 32.4775 133.754 32.4513C133.836 32.316 133.945 32.2618 134.076 32.1761C134.113 32.1389 134.15 32.1017 134.188 32.0633C134.29 31.96 134.388 31.897 134.513 31.8239C134.527 31.7949 134.541 31.7658 134.556 31.7359C134.657 31.6743 134.758 31.6159 134.862 31.5598C134.895 31.5416 134.928 31.5234 134.963 31.5047C135.037 31.4717 135.037 31.4717 135.124 31.4717C135.145 31.4063 135.145 31.4063 135.168 31.3396C135.263 31.2882 135.263 31.2882 135.38 31.2433C135.419 31.2282 135.458 31.213 135.497 31.1974C135.604 31.1635 135.604 31.1635 135.735 31.1635C135.75 31.1199 135.764 31.0764 135.779 31.0315C135.9 30.9831 135.9 30.9831 136.052 30.9407C136.262 30.8812 136.262 30.8812 136.466 30.8063C136.578 30.7621 136.664 30.7605 136.783 30.7673C136.783 30.7383 136.783 30.7092 136.783 30.6793C136.833 30.6702 136.883 30.6612 136.934 30.6519C137 30.6399 137.065 30.628 137.13 30.616C137.163 30.61 137.196 30.6041 137.23 30.598C137.391 30.5805 137.391 30.5805 137.525 30.5032C137.761 30.4594 137.992 30.4514 138.231 30.4502Z" fill="white"/>
<path d="M110.06 46.3082C110.507 46.3082 110.954 46.3082 111.414 46.3082C111.428 47.1508 111.443 47.9934 111.457 48.8616C111.609 48.6873 111.609 48.6873 111.763 48.5094C112.241 48.0481 112.835 47.8977 113.484 47.8917C113.932 47.9133 114.374 48.0069 114.702 48.3319C115.078 48.7892 115.086 49.3662 115.11 49.9337C115.117 50.0705 115.126 50.1838 115.169 50.3145C115.622 50.4286 116.1 50.3857 116.566 50.4025C116.566 49.0514 116.566 47.7002 116.566 46.3082C117.071 46.3082 117.575 46.3082 118.094 46.3082C118.094 48.008 118.094 49.7078 118.094 51.4591C117.645 51.4637 117.196 51.4682 116.733 51.4729C116.591 51.4749 116.449 51.4769 116.304 51.4789C116.191 51.4796 116.079 51.4801 115.967 51.4806C115.938 51.4812 115.909 51.4818 115.879 51.4824C115.793 51.484 115.707 51.4841 115.621 51.4841C115.573 51.4846 115.524 51.4851 115.474 51.4856C115.301 51.4506 115.237 51.3732 115.125 51.239C115.111 51.2099 115.096 51.1809 115.082 51.1509C115.024 51.2526 114.966 51.3543 114.907 51.4591C114.139 51.4653 113.372 51.4699 112.604 51.4728C112.248 51.4742 111.892 51.476 111.535 51.479C111.225 51.4817 110.914 51.4834 110.603 51.484C110.439 51.4843 110.274 51.4851 110.11 51.487C109.955 51.4888 109.8 51.4894 109.645 51.489C109.561 51.4891 109.478 51.4905 109.394 51.492C109.006 51.4892 108.777 51.3926 108.5 51.1203C108.481 51.1013 108.463 51.0824 108.445 51.0629C108.417 51.0883 108.389 51.1137 108.36 51.1399C108.091 51.3393 107.791 51.4622 107.456 51.4676C107.416 51.4683 107.376 51.469 107.335 51.4697C107.152 51.4717 106.97 51.4735 106.788 51.4745C106.692 51.4753 106.596 51.4765 106.5 51.4781C106.361 51.4806 106.222 51.4815 106.083 51.4822C106.041 51.4832 105.998 51.4842 105.954 51.4852C105.605 51.4841 105.401 51.3736 105.148 51.1372C105.115 51.1004 105.115 51.1004 105.082 51.0629C105.059 51.0804 105.035 51.098 105.01 51.116C104.977 51.1393 104.944 51.1627 104.91 51.1867C104.878 51.2097 104.847 51.2327 104.814 51.2564C104.521 51.4225 104.238 51.4788 103.905 51.4769C103.85 51.4774 103.85 51.4774 103.793 51.4778C103.673 51.4786 103.552 51.4785 103.431 51.4782C103.347 51.4784 103.262 51.4786 103.177 51.4789C103 51.4793 102.824 51.4792 102.647 51.4787C102.421 51.4782 102.195 51.4791 101.969 51.4804C101.794 51.4812 101.619 51.4812 101.445 51.481C101.362 51.481 101.278 51.4812 101.195 51.4818C101.078 51.4824 100.962 51.482 100.845 51.4812C100.811 51.4816 100.777 51.482 100.742 51.4825C100.451 51.4786 100.177 51.3977 99.9652 51.1888C99.9355 51.1428 99.9355 51.1428 99.9053 51.0959C99.8845 51.0648 99.8638 51.0337 99.8424 51.0017C99.828 50.9783 99.8137 50.9549 99.7989 50.9308C99.7767 50.9489 99.7545 50.9669 99.7317 50.9855C99.7016 51.0092 99.6715 51.0329 99.6406 51.0574C99.6112 51.0809 99.5818 51.1044 99.5515 51.1286C99.1938 51.3614 98.7 51.3314 98.2941 51.2543C97.8978 51.1346 97.5569 50.915 97.3535 50.5437C97.0984 49.9738 97.106 49.3161 97.31 48.7296C97.4846 48.3542 97.7715 48.141 98.1478 47.9894C98.4552 47.8928 98.7411 47.8871 99.0603 47.8888C99.1065 47.8888 99.1526 47.8889 99.2002 47.889C99.347 47.8892 99.4938 47.8898 99.6406 47.8903C99.7404 47.8905 99.8401 47.8907 99.9399 47.8909C100.184 47.8914 100.428 47.8921 100.672 47.8931C100.672 47.9207 100.673 47.9484 100.673 47.9768C100.676 48.2647 100.679 48.5525 100.684 48.8403C100.685 48.9477 100.686 49.0551 100.687 49.1625C100.689 49.3169 100.691 49.4713 100.693 49.6257C100.694 49.6737 100.694 49.7217 100.694 49.7711C100.695 49.816 100.696 49.861 100.697 49.9073C100.697 49.9467 100.698 49.9861 100.698 50.0266C100.721 50.1692 100.754 50.2482 100.847 50.3585C100.978 50.3908 100.978 50.3908 101.131 50.3842C101.16 50.3843 101.189 50.3844 101.218 50.3845C101.313 50.3846 101.408 50.3831 101.503 50.3815C101.569 50.3812 101.635 50.381 101.701 50.3809C101.875 50.3803 102.048 50.3784 102.222 50.3762C102.364 50.3746 102.505 50.374 102.647 50.3735C102.816 50.3729 102.985 50.3717 103.154 50.3705C103.186 50.3703 103.219 50.3701 103.252 50.3699C103.343 50.3691 103.434 50.3681 103.526 50.367C103.578 50.3664 103.63 50.3658 103.683 50.3653C103.794 50.3596 103.886 50.3471 103.991 50.3145C104.024 50.1929 104.041 50.0827 104.043 49.9567C104.044 49.9215 104.045 49.8862 104.046 49.8499C104.047 49.8123 104.047 49.7747 104.048 49.7359C104.05 49.6777 104.05 49.6777 104.051 49.6182C104.054 49.4944 104.056 49.3706 104.059 49.2468C104.061 49.1628 104.063 49.0788 104.065 48.9947C104.069 48.7889 104.074 48.5831 104.078 48.3773C104.568 48.3773 105.058 48.3773 105.563 48.3773C105.564 48.5697 105.564 48.5697 105.566 48.766C105.568 48.8903 105.57 49.0146 105.572 49.1389C105.573 49.2252 105.574 49.3116 105.574 49.3979C105.575 49.5221 105.577 49.6462 105.58 49.7703C105.58 49.8282 105.58 49.8282 105.58 49.8872C105.584 50.0514 105.589 50.1535 105.676 50.2949C105.821 50.3828 105.928 50.3799 106.098 50.3788C106.128 50.3787 106.158 50.3787 106.19 50.3787C106.254 50.3784 106.318 50.3777 106.382 50.3766C106.479 50.375 106.577 50.3748 106.675 50.3748C107.03 50.3911 107.03 50.3911 107.353 50.2704C107.428 50.1193 107.407 49.9455 107.41 49.7789C107.412 49.719 107.412 49.719 107.413 49.6579C107.416 49.5301 107.419 49.4022 107.421 49.2744C107.423 49.1878 107.425 49.1012 107.427 49.0147C107.432 48.8022 107.436 48.5898 107.44 48.3773C107.93 48.3773 108.42 48.3773 108.925 48.3773C108.927 48.5024 108.929 48.6275 108.931 48.7564C108.934 48.8776 108.936 48.9988 108.939 49.1201C108.94 49.2043 108.942 49.2885 108.943 49.3727C108.945 49.4938 108.948 49.6149 108.95 49.7359C108.951 49.7924 108.951 49.7924 108.952 49.8499C108.953 49.8852 108.954 49.9204 108.955 49.9567C108.955 50.003 108.955 50.003 108.956 50.0503C108.971 50.1541 109.002 50.2253 109.056 50.3145C109.356 50.466 109.724 50.3864 110.06 50.4025C110.06 49.0514 110.06 47.7002 110.06 46.3082ZM98.7263 49.0515C98.6198 49.2523 98.6106 49.4257 98.609 49.6486C98.6081 49.6797 98.6072 49.7109 98.6063 49.743C98.6048 49.9415 98.6256 50.0708 98.7509 50.2264C98.8925 50.275 98.9711 50.2868 99.1111 50.2319C99.375 49.9088 99.2825 49.3436 99.2749 48.9497C98.9762 48.9147 98.9762 48.9147 98.7263 49.0515ZM112.058 49.5496C112.002 49.6282 111.949 49.7079 111.897 49.7889C111.872 49.827 111.872 49.827 111.847 49.8659C111.734 50.0488 111.693 50.1858 111.632 50.4025C112.266 50.4025 112.9 50.4025 113.553 50.4025C113.609 49.7142 113.609 49.7142 113.357 49.0735C112.849 48.8081 112.373 49.1362 112.058 49.5496Z" fill="white"/>
<path d="M79.4946 24.7359C79.4946 24.7649 79.4946 24.794 79.4946 24.8239C79.5207 24.8139 79.5469 24.8039 79.5738 24.7936C79.6053 24.7891 79.6368 24.7846 79.6693 24.7799C79.7348 24.8377 79.7348 24.8377 79.8003 24.912C79.892 24.9637 79.892 24.9637 79.9749 25C79.9749 25.0291 79.9749 25.0581 79.9749 25.0881C80.0614 25.1316 80.0614 25.1316 80.1496 25.1761C80.1496 25.2052 80.1496 25.2342 80.1496 25.2642C80.1829 25.2751 80.2162 25.286 80.2506 25.2972C80.3801 25.3579 80.4283 25.4047 80.4989 25.5283C80.4989 25.5719 80.4989 25.6155 80.4989 25.6604C80.5277 25.6604 80.5566 25.6604 80.5862 25.6604C80.7011 25.8768 80.7878 26.0815 80.8482 26.3208C80.8644 26.368 80.8807 26.4152 80.8974 26.4638C81.0136 26.9663 80.923 27.5837 80.691 28.0446C80.6309 28.1353 80.5702 28.22 80.4989 28.3019C80.6099 28.3031 80.7209 28.304 80.8319 28.3046C80.8786 28.3052 80.8786 28.3052 80.9262 28.3058C81.1097 28.3066 81.2782 28.2894 81.4595 28.2579C81.5618 28.2695 81.6639 28.2835 81.7652 28.3019C81.7796 28.2728 81.794 28.2438 81.8089 28.2138C81.8089 28.2429 81.8089 28.272 81.8089 28.3019C81.8783 28.2924 81.8783 28.2924 81.9491 28.2826C82.0097 28.2744 82.0703 28.2661 82.1309 28.2579C82.1614 28.2537 82.1919 28.2495 82.2233 28.2451C82.4539 28.2138 82.4539 28.2138 82.5512 28.2138C82.5512 28.2429 82.5512 28.272 82.5512 28.3019C82.616 28.2801 82.616 28.2801 82.6822 28.2579C82.7919 28.2541 82.9004 28.2528 83.0102 28.2536C83.042 28.2536 83.0738 28.2537 83.1065 28.2538C83.208 28.254 83.3094 28.2546 83.4108 28.2551C83.4797 28.2553 83.5485 28.2555 83.6173 28.2557C83.7859 28.2562 83.9545 28.257 84.1231 28.2579C84.1231 28.2869 84.1231 28.316 84.1231 28.3459C84.1772 28.3368 84.2313 28.3278 84.287 28.3184C84.5466 28.2893 84.7832 28.3384 85.0373 28.3899C85.1268 28.4076 85.2164 28.4251 85.306 28.4422C85.3451 28.4501 85.3842 28.458 85.4245 28.4661C85.5221 28.4873 85.5221 28.4873 85.6077 28.434C85.6077 28.463 85.6077 28.4921 85.6077 28.522C85.9103 28.5438 85.9103 28.5438 86.219 28.566C86.219 28.5951 86.219 28.6242 86.219 28.6541C86.2456 28.6579 86.2722 28.6617 86.2995 28.6656C86.6783 28.7268 87.0346 28.8418 87.398 28.9623C87.398 28.9913 87.398 29.0204 87.398 29.0503C87.428 29.0593 87.458 29.0684 87.4889 29.0777C87.5282 29.0895 87.5676 29.1014 87.6081 29.1136C87.6471 29.1254 87.6861 29.1371 87.7263 29.1492C87.8065 29.1738 87.8862 29.1997 87.9656 29.2264C87.98 29.2555 87.9945 29.2845 88.0093 29.3145C88.0579 29.3354 88.1066 29.3562 88.1567 29.3778C88.2983 29.4393 88.3456 29.4729 88.4459 29.5786C88.4802 29.5904 88.5144 29.6022 88.5497 29.6144C88.7054 29.6854 88.7754 29.7985 88.8826 29.9308C88.9547 29.976 89.0272 30.0204 89.1009 30.0629C89.1009 30.092 89.1009 30.121 89.1009 30.151C89.1279 30.1619 89.155 30.1727 89.1828 30.184C89.2909 30.2481 89.3171 30.2997 89.3629 30.4151C89.3917 30.4151 89.4206 30.4151 89.4502 30.4151C89.6143 30.5593 89.7165 30.6966 89.7996 30.8994C89.7996 30.943 89.7996 30.9866 89.7996 31.0315C89.8284 31.0315 89.8572 31.0315 89.8869 31.0315C89.8869 31.1041 89.8869 31.1767 89.8869 31.2516C89.715 31.2259 89.6263 31.1412 89.4939 31.0315C89.246 30.8504 89.246 30.8504 88.9699 30.7233C88.9555 30.6942 88.9411 30.6652 88.9263 30.6352C88.8288 30.5913 88.8288 30.5913 88.7107 30.5527C88.554 30.498 88.4014 30.4406 88.2495 30.3738C87.407 30.0327 86.3372 29.7949 85.4274 29.7994C85.3054 29.7988 85.2026 29.7803 85.0837 29.7547C84.686 29.7102 84.2899 29.7067 83.8902 29.7123C83.8364 29.7129 83.8364 29.7129 83.7815 29.7135C83.7495 29.714 83.7174 29.7145 83.6845 29.715C83.5991 29.7107 83.5991 29.7107 83.4681 29.6667C83.3779 29.6705 83.2878 29.6772 83.198 29.6859C83.1268 29.6927 83.1268 29.6927 83.0542 29.6995C82.9997 29.7051 82.9997 29.7051 82.9442 29.7107C82.9442 29.6816 82.9442 29.6526 82.9442 29.6227C82.8793 29.6662 82.8793 29.6662 82.8132 29.7107C82.7404 29.7124 82.6676 29.7126 82.5948 29.7107C82.5804 29.7252 82.566 29.7398 82.5512 29.7547C82.4682 29.7669 82.3848 29.7764 82.3013 29.7848C82.2241 29.793 82.2241 29.793 82.1453 29.8012C82.0368 29.8123 81.9284 29.8233 81.8199 29.8343C81.5024 29.8657 81.5024 29.8657 81.1911 29.932C80.9679 29.9889 80.747 30.0062 80.518 30.0244C80.4743 30.0282 80.4305 30.032 80.3854 30.0359C80.1604 30.0547 79.9387 30.0674 79.7129 30.0629C79.7129 30.092 79.7129 30.121 79.7129 30.151C79.6475 30.1454 79.6475 30.1454 79.5808 30.1398C79.5244 30.1353 79.4681 30.1308 79.41 30.1262C79.3538 30.1216 79.2976 30.117 79.2396 30.1123C79.1941 30.1105 79.1486 30.1087 79.1016 30.1069C79.0872 30.1215 79.0728 30.136 79.058 30.151C78.9492 30.1541 78.8411 30.1508 78.7324 30.1482C78.6227 30.1467 78.6227 30.1467 78.5253 30.1757C78.4467 30.195 78.4467 30.195 78.3593 30.151C78.2738 30.1482 78.2738 30.1482 78.177 30.1547C78.1408 30.1567 78.1047 30.1586 78.0674 30.1606C78.0106 30.164 78.0106 30.164 77.9527 30.1675C77.9154 30.1694 77.878 30.1713 77.8395 30.1733C77.6599 30.1834 77.4869 30.196 77.3114 30.239C77.3114 30.2099 77.3114 30.1809 77.3114 30.151C77.2681 30.1655 77.2249 30.18 77.1804 30.195C77.0706 30.1987 76.9621 30.2001 76.8524 30.1993C76.8206 30.1992 76.7888 30.1992 76.756 30.1991C76.6546 30.1988 76.5532 30.1983 76.4517 30.1977C76.3829 30.1975 76.3141 30.1973 76.2452 30.1971C76.0766 30.1966 75.908 30.1959 75.7394 30.195C75.7394 30.1659 75.7394 30.1369 75.7394 30.1069C75.6989 30.1142 75.6584 30.1215 75.6166 30.1289C75.1802 30.198 74.7179 30.0433 74.2985 29.9308C74.2841 29.9599 74.2697 29.9889 74.2548 30.0189C74.2548 29.9898 74.2548 29.9608 74.2548 29.9308C74.2008 29.9245 74.1468 29.9181 74.0911 29.9116C73.992 29.8994 73.901 29.8856 73.8045 29.8593C73.7203 29.8337 73.7203 29.8337 73.5998 29.8868C73.5998 29.8577 73.5998 29.8287 73.5998 29.7988C73.5503 29.7888 73.5008 29.7788 73.4497 29.7685C73.2372 29.7208 73.0284 29.6617 72.8193 29.6006C72.7866 29.5912 72.7539 29.5818 72.7202 29.5721C72.5744 29.529 72.4609 29.4881 72.3336 29.4025C72.2586 29.3699 72.1831 29.3388 72.1071 29.309C72.0677 29.2934 72.0284 29.2779 71.9878 29.2619C71.9428 29.2443 71.9428 29.2443 71.8969 29.2264C71.8969 29.1974 71.8969 29.1683 71.8969 29.1384C71.8555 29.1248 71.8141 29.1111 71.7714 29.0971C71.6349 29.0503 71.6349 29.0503 71.5476 29.0063C71.5476 28.9772 71.5476 28.9482 71.5476 28.9182C71.4318 28.8709 71.3169 28.826 71.1983 28.7862C71.1983 28.7571 71.1983 28.7281 71.1983 28.6981C71.1713 28.6845 71.1442 28.6709 71.1164 28.6569C71.0564 28.6266 70.9963 28.5963 70.9363 28.566C70.9363 28.537 70.9363 28.5079 70.9363 28.478C70.9066 28.4707 70.8768 28.4635 70.8462 28.456C70.6857 28.3733 70.601 28.2658 70.4872 28.1272C70.4228 28.0503 70.357 27.9823 70.284 27.9139C70.194 27.8176 70.194 27.8176 70.194 27.6855C70.1652 27.6855 70.1363 27.6855 70.1066 27.6855C70.0561 27.5326 70.06 27.4055 70.063 27.2453C70.1062 27.2598 70.1494 27.2744 70.194 27.2893C70.194 27.3184 70.194 27.3474 70.194 27.3774C70.2413 27.3937 70.2413 27.3937 70.2895 27.4104C70.4235 27.4704 70.5165 27.5495 70.6306 27.6415C70.7476 27.6961 70.7476 27.6961 70.849 27.7296C70.849 27.7586 70.849 27.7877 70.849 27.8176C70.9108 27.8388 70.9726 27.8599 71.0345 27.8809C71.069 27.8927 71.1034 27.9044 71.1389 27.9165C71.2309 27.9462 71.3226 27.9713 71.4166 27.9937C71.4166 28.0228 71.4166 28.0518 71.4166 28.0818C71.4468 28.0893 71.4771 28.0968 71.5082 28.1045C71.5509 28.1151 71.5936 28.1258 71.6377 28.1368C71.6863 28.1489 71.7349 28.1611 71.785 28.1736C71.8836 28.1991 71.9819 28.2258 72.0798 28.2541C72.7828 28.4559 73.5273 28.6202 74.2594 28.6479C74.3891 28.6543 74.5162 28.6702 74.6448 28.6871C74.7901 28.7048 74.9357 28.7144 75.0817 28.7229C75.1131 28.7248 75.1445 28.7266 75.1768 28.7286C75.5244 28.7474 75.8718 28.7461 76.2197 28.7421C76.2197 28.7712 76.2197 28.8003 76.2197 28.8302C76.263 28.8157 76.3062 28.8011 76.3507 28.7862C76.5074 28.7848 76.6635 28.7891 76.8201 28.7932C76.9686 28.7981 76.9686 28.7981 77.093 28.6981C77.071 28.6806 77.0489 28.6631 77.0262 28.645C76.9978 28.6217 76.9694 28.5983 76.9402 28.5743C76.9119 28.5513 76.8835 28.5283 76.8543 28.5047C76.7874 28.434 76.7874 28.434 76.7874 28.3019C76.7586 28.3019 76.7298 28.3019 76.7001 28.3019C76.6857 28.2293 76.6712 28.1566 76.6564 28.0818C76.6276 28.0818 76.5988 28.0818 76.5691 28.0818C76.5414 28.0297 76.5142 27.9773 76.4872 27.9249C76.4644 27.8813 76.4644 27.8813 76.4411 27.8367C76.1718 27.2192 76.2623 26.634 76.4381 26.0126C76.4669 26.0126 76.4957 26.0126 76.5254 26.0126C76.5282 25.9748 76.5309 25.937 76.5338 25.8981C76.5768 25.7158 76.6648 25.605 76.7847 25.4678C76.8046 25.4438 76.8245 25.4198 76.845 25.395C76.8962 25.3346 76.9508 25.2771 77.0057 25.2201C77.0345 25.2201 77.0634 25.2201 77.093 25.2201C77.093 25.1911 77.093 25.162 77.093 25.1321C77.1507 25.1176 77.2083 25.103 77.2677 25.0881C77.2677 25.059 77.2677 25.0299 77.2677 25C77.3109 25 77.3542 25 77.3987 25C77.3987 24.971 77.3987 24.9419 77.3987 24.912C77.548 24.8002 77.6501 24.7639 77.8354 24.7799C77.8354 24.7508 77.8354 24.7218 77.8354 24.6918C78.3583 24.4781 78.9742 24.5454 79.4946 24.7359Z" fill="white"/>
<path d="M148.529 46.3082C149.033 46.3082 149.538 46.3082 150.057 46.3082C150.058 46.4233 150.059 46.5384 150.06 46.657C150.063 47.0371 150.066 47.4171 150.07 47.7972C150.072 48.0277 150.074 48.2582 150.076 48.4886C150.077 48.711 150.079 48.9334 150.082 49.1557C150.082 49.2406 150.083 49.3255 150.084 49.4104C150.084 49.5292 150.086 49.648 150.087 49.7668C150.087 49.8019 150.087 49.8371 150.087 49.8734C150.09 50.108 150.09 50.108 150.188 50.3145C150.593 50.5183 151.09 50.3868 151.542 50.4025C151.542 49.0514 151.542 47.7002 151.542 46.3082C152.046 46.3082 152.551 46.3082 153.07 46.3082C153.07 48.008 153.07 49.7078 153.07 51.4591C152.595 51.4627 152.119 51.4664 151.629 51.4701C151.405 51.4725 151.405 51.4725 151.176 51.475C151.057 51.4755 150.938 51.4759 150.819 51.4763C150.788 51.4768 150.758 51.4772 150.726 51.4777C150.304 51.4837 149.982 51.4728 149.664 51.1619C149.635 51.1293 149.607 51.0966 149.577 51.0629C149.535 51.101 149.535 51.101 149.492 51.1399C149.076 51.4482 148.649 51.4724 148.148 51.4794C148.084 51.4805 148.019 51.4823 147.955 51.4848C147.417 51.5048 147.417 51.5048 147.248 51.3889C147.175 51.3036 147.175 51.3036 147.088 51.1509C147.03 51.2526 146.973 51.3543 146.913 51.4591C146.309 51.4642 145.706 51.4681 145.102 51.4705C144.821 51.4717 144.541 51.4732 144.26 51.4757C143.99 51.4781 143.719 51.4794 143.448 51.48C143.345 51.4804 143.242 51.4812 143.139 51.4824C142.994 51.484 142.85 51.4842 142.705 51.4841C142.662 51.4849 142.62 51.4857 142.576 51.4865C142.253 51.484 142.088 51.3904 141.862 51.1656C141.833 51.1366 141.833 51.1366 141.805 51.1069C141.798 51.1487 141.792 51.1904 141.785 51.2335C141.761 51.3711 141.761 51.3711 141.717 51.4591C140.766 51.4591 139.815 51.4591 138.835 51.4591C138.835 51.1104 138.835 50.7618 138.835 50.4025C139.369 50.4025 139.902 50.4025 140.451 50.4025C140.446 50.2109 140.442 50.0193 140.437 49.8219C140.436 49.7619 140.435 49.7018 140.434 49.6399C140.433 49.5922 140.431 49.5445 140.43 49.4953C140.428 49.4467 140.427 49.3981 140.426 49.3479C140.405 49.199 140.364 49.1141 140.276 48.9937C140.164 48.9371 140.077 48.9404 139.951 48.9357C139.904 48.9339 139.857 48.9321 139.809 48.9302C139.76 48.9284 139.71 48.9267 139.66 48.9249C139.61 48.923 139.56 48.9211 139.509 48.9192C139.387 48.9145 139.264 48.91 139.141 48.9057C139.141 48.5715 139.141 48.2373 139.141 47.8931C139.324 47.891 139.507 47.8893 139.691 47.8882C139.753 47.8878 139.815 47.8872 139.877 47.8864C140.509 47.8788 141.133 47.8907 141.624 48.3443C141.875 48.6169 141.982 48.9583 141.988 49.3239C141.99 49.3702 141.991 49.4165 141.992 49.4642C141.994 49.5614 141.996 49.6587 141.998 49.7559C141.999 49.8022 142.001 49.8485 142.002 49.8962C142.003 49.9596 142.003 49.9596 142.005 50.0242C142.026 50.1573 142.062 50.218 142.154 50.3145C142.306 50.3654 142.443 50.3662 142.6 50.3675C142.632 50.368 142.664 50.3684 142.697 50.3688C142.803 50.3702 142.908 50.3713 143.014 50.3724C143.087 50.3733 143.161 50.3742 143.234 50.3752C143.427 50.3776 143.619 50.3798 143.812 50.3819C144.009 50.3841 144.205 50.3866 144.402 50.389C144.788 50.3937 145.174 50.3982 145.56 50.4025C145.557 50.219 145.553 50.0356 145.549 49.8522C145.548 49.8005 145.548 49.7489 145.547 49.6957C145.538 49.3853 145.511 49.1679 145.341 48.9057C145.138 48.7863 144.91 48.8033 144.686 48.8616C144.41 48.9977 144.41 48.9977 144.293 49.478C143.847 49.478 143.4 49.478 142.94 49.478C142.94 48.9335 143.02 48.6485 143.394 48.2568C143.873 47.8375 144.515 47.7336 145.132 47.7484C145.658 47.7882 146.221 47.8989 146.608 48.2893C146.994 48.7681 147.068 49.2812 147.09 49.8815C147.098 50.1225 147.098 50.1225 147.215 50.3217C147.415 50.3761 147.605 50.3758 147.811 50.3722C147.853 50.3724 147.894 50.3725 147.936 50.3727C148.202 50.3736 148.202 50.3736 148.442 50.2704C148.512 50.1284 148.493 49.9729 148.494 49.8167C148.495 49.7789 148.495 49.7411 148.496 49.7022C148.497 49.5769 148.498 49.4516 148.499 49.3263C148.5 49.2396 148.501 49.1528 148.502 49.0661C148.504 48.8375 148.506 48.609 148.509 48.3804C148.511 48.1473 148.513 47.9142 148.516 47.681C148.52 47.2234 148.525 46.7658 148.529 46.3082Z" fill="white"/>
<path d="M35.2619 4C35.3195 4 35.3772 4 35.4366 4C35.4418 4.03337 35.447 4.06675 35.4525 4.10113C35.7335 5.86893 36.1764 7.45903 37.3578 8.84277C37.3925 8.88368 37.4272 8.9246 37.4629 8.96676C37.6768 9.21217 37.9002 9.42614 38.1552 9.62783C38.2462 9.70044 38.3337 9.77437 38.421 9.85122C38.8807 10.2505 39.3984 10.5684 39.9247 10.8691C40.6471 11.2821 41.3529 11.7224 42.0446 12.1856C42.1181 12.2351 42.1181 12.2351 42.2046 12.2767C42.2046 12.3058 42.2046 12.3348 42.2046 12.3648C42.234 12.3744 42.2633 12.384 42.2935 12.3938C42.4637 12.4714 42.6002 12.5778 42.7477 12.6922C42.7783 12.7156 42.8089 12.7391 42.8404 12.7632C43.117 12.9759 43.3911 13.1919 43.6635 13.4101C43.7313 13.4641 43.7997 13.5175 43.868 13.5708C43.9281 13.6181 43.9281 13.6181 43.9894 13.6663C44.0245 13.6936 44.0595 13.7209 44.0955 13.749C44.12 13.7716 44.1444 13.7943 44.1696 13.8176C44.1696 13.8467 44.1696 13.8757 44.1696 13.9057C44.1946 13.9169 44.2195 13.9281 44.2453 13.9397C44.3548 13.9995 44.4374 14.0694 44.5298 14.1533C44.5761 14.195 44.5761 14.195 44.6233 14.2376C44.6465 14.2588 44.6697 14.28 44.6935 14.3019C44.6782 14.4251 44.6564 14.4718 44.5654 14.5583C44.5294 14.5854 44.4933 14.6124 44.4561 14.6403C44.2552 14.7958 44.0669 14.9599 43.8798 15.1318C43.789 15.215 43.6973 15.2967 43.6046 15.3778C43.458 15.5068 43.3126 15.6372 43.168 15.7685C43.1271 15.8055 43.0862 15.8426 43.044 15.8808C42.9452 15.966 42.9452 15.966 42.9033 16.0629C42.8745 16.0629 42.8456 16.0629 42.816 16.0629C42.816 16.0919 42.816 16.121 42.816 16.1509C42.7451 16.2262 42.6721 16.2995 42.5976 16.3711C42.5751 16.3974 42.5526 16.4237 42.5294 16.4509C42.4666 16.5031 42.4666 16.5031 42.292 16.5031C42.2803 16.479 42.2687 16.4549 42.2567 16.43C41.9367 15.765 41.9367 15.765 41.5497 15.1384C41.5224 15.0989 41.4952 15.0595 41.4671 15.0188C41.1226 14.5313 40.7457 14.0486 40.3156 13.6345C40.2397 13.5535 40.2397 13.5535 40.2397 13.4654C40.2027 13.4498 40.2027 13.4498 40.1648 13.4339C40.0422 13.3644 39.9627 13.2793 39.8658 13.1765C39.6402 12.9447 39.3997 12.7432 39.1481 12.5409C39.0933 12.4955 39.0385 12.4499 38.9838 12.4043C38.7082 12.1751 38.4318 11.9515 38.1383 11.7457C37.7018 11.438 37.3054 11.0854 36.9266 10.7083C36.904 10.6859 36.8814 10.6635 36.858 10.6404C36.7029 10.4826 36.7029 10.4826 36.7029 10.3836C36.674 10.3836 36.6452 10.3836 36.6155 10.3836C35.8377 9.46169 35.3493 8.41412 35.1093 7.23175C35.095 7.16302 35.0794 7.09454 35.0624 7.02644C34.9864 6.70366 34.9881 6.38248 34.9909 6.05283C34.9917 5.95518 34.9918 5.85755 34.9918 5.75989C34.9935 5.28324 34.9935 5.28324 35.0436 5.2327C35.0663 5.1007 35.0871 4.969 35.1063 4.83648C35.1476 4.5544 35.1978 4.27778 35.2619 4Z" fill="white"/>
<path d="M84.7619 23.0042C84.7816 23.0236 84.8014 23.0429 84.8218 23.0629C84.8218 23.0919 84.8218 23.121 84.8218 23.1509C84.8472 23.1542 84.8726 23.1574 84.8989 23.1607C85.031 23.2071 85.077 23.2783 85.1602 23.3903C85.187 23.4257 85.2137 23.461 85.2414 23.4975C85.3021 23.5912 85.3021 23.5912 85.3021 23.6792C85.3309 23.6792 85.3597 23.6792 85.3894 23.6792C85.4015 23.7105 85.4136 23.7418 85.4261 23.774C85.4498 23.8347 85.4498 23.8347 85.474 23.8966C85.4976 23.9571 85.4976 23.9571 85.5216 24.0189C85.5553 24.1161 85.5553 24.1161 85.6077 24.1635C85.7833 24.8521 85.7176 25.5146 85.3676 26.134C85.3081 26.2237 85.2477 26.2904 85.1711 26.3648C85.1423 26.4084 85.1134 26.4519 85.0837 26.4968C85.0549 26.4968 85.0261 26.4968 84.9964 26.4968C84.9748 26.5622 84.9748 26.5622 84.9528 26.6289C84.9239 26.6289 84.8951 26.6289 84.8654 26.6289C84.8654 26.6725 84.8654 26.7161 84.8654 26.761C84.9281 26.7833 84.9909 26.8052 85.0537 26.827C85.0887 26.8393 85.1236 26.8515 85.1596 26.8642C85.2622 26.8992 85.2622 26.8992 85.3894 26.8931C85.3894 26.9221 85.3894 26.9512 85.3894 26.9811C85.4263 26.9857 85.4633 26.9902 85.5013 26.9949C85.7301 27.041 85.9322 27.1086 86.088 27.2893C86.1529 27.3329 86.1529 27.3329 86.219 27.3773C86.219 27.4064 86.219 27.4355 86.219 27.4654C86.2515 27.4763 86.2839 27.4872 86.3173 27.4984C86.4497 27.5591 86.5144 27.6219 86.612 27.7295C86.6489 27.7659 86.6859 27.8022 86.7239 27.8396C86.9613 28.0851 86.9613 28.0851 86.9613 28.2138C87.019 28.2429 87.0766 28.2719 87.136 28.3019C87.136 28.3455 87.136 28.389 87.136 28.4339C87.1648 28.4339 87.1936 28.4339 87.2233 28.4339C87.2233 28.4775 87.2233 28.5211 87.2233 28.566C87.2522 28.566 87.281 28.566 87.3107 28.566C87.3107 28.5951 87.3107 28.6241 87.3107 28.6541C87.3539 28.6686 87.3971 28.6831 87.4417 28.6981C87.4417 28.7417 87.4417 28.7853 87.4417 28.8302C87.384 28.8447 87.3264 28.8592 87.267 28.8742C87.267 28.8451 87.267 28.8161 87.267 28.7862C87.2364 28.7743 87.2059 28.7625 87.1744 28.7504C87.0407 28.6948 86.913 28.6318 86.784 28.566C86.7393 28.5433 86.6947 28.5206 86.6487 28.4972C86.5751 28.4597 86.5018 28.4214 86.4293 28.3817C86.3446 28.3369 86.3446 28.3369 86.219 28.3459C86.219 28.3168 86.219 28.2878 86.219 28.2578C86.1822 28.2514 86.1822 28.2514 86.1447 28.2448C85.9374 28.2076 85.7307 28.1685 85.5247 28.1247C85.4867 28.1168 85.4488 28.1088 85.4097 28.1006C85.3338 28.0847 85.2581 28.0684 85.1824 28.0519C84.9538 28.004 84.7492 27.9904 84.5161 27.9937C84.4205 27.9854 84.3255 27.974 84.2302 27.9624C83.8384 27.9147 83.4507 27.8972 83.0561 27.8974C82.9859 27.8974 82.9859 27.8974 82.9142 27.8973C82.7136 27.8987 82.5293 27.905 82.3329 27.9497C82.3329 27.9206 82.3329 27.8916 82.3329 27.8616C82.268 27.8834 82.268 27.8834 82.2019 27.9056C82.1118 27.9152 82.0215 27.9228 81.9312 27.9292C81.8784 27.933 81.8256 27.9369 81.7713 27.9408C81.7161 27.9446 81.661 27.9485 81.6042 27.9524C81.5207 27.9584 81.5207 27.9584 81.4356 27.9645C81.298 27.9744 81.1605 27.9841 81.0229 27.9937C81.0363 27.9228 81.0498 27.8519 81.0635 27.781C81.071 27.7415 81.0786 27.702 81.0863 27.6613C81.1102 27.5534 81.1102 27.5534 81.1594 27.4351C81.2064 27.3279 81.2064 27.3279 81.1976 27.182C81.1976 27.0214 81.2274 26.9095 81.2849 26.761C81.3154 26.7583 81.3459 26.7557 81.3773 26.7529C81.4171 26.7492 81.4568 26.7455 81.4978 26.7417C81.5373 26.7382 81.5768 26.7346 81.6175 26.7309C81.722 26.7227 81.722 26.7227 81.8089 26.6729C81.7868 26.6491 81.7647 26.6252 81.742 26.6005C81.7136 26.569 81.6853 26.5375 81.656 26.5051C81.6277 26.4739 81.5993 26.4428 81.5701 26.4107C81.5032 26.3207 81.5032 26.3207 81.5032 26.1887C81.46 26.1741 81.4168 26.1596 81.3722 26.1446C81.3722 26.1011 81.3722 26.0575 81.3722 26.0126C81.3434 26.0126 81.3146 26.0126 81.2849 26.0126C81.0734 25.5541 80.9864 25.1048 81.0666 24.6038C81.0666 24.5602 81.0666 24.5166 81.0666 24.4717C81.1012 24.3506 81.1373 24.231 81.1757 24.1112C81.1861 24.0782 81.1966 24.0452 81.2073 24.0112C81.233 23.9299 81.2589 23.8486 81.2849 23.7673C81.3137 23.7673 81.3425 23.7673 81.3722 23.7673C81.3839 23.7346 81.3956 23.7019 81.4077 23.6682C81.4575 23.552 81.5073 23.4655 81.5905 23.3711C81.6194 23.3711 81.6482 23.3711 81.6779 23.3711C81.6923 23.3275 81.7067 23.2839 81.7215 23.239C81.7504 23.239 81.7792 23.239 81.8089 23.239C81.8089 23.2099 81.8089 23.1809 81.8089 23.1509C81.8791 23.0845 81.8791 23.0845 81.9726 23.0134C82.003 22.9896 82.0334 22.9659 82.0647 22.9415C82.1582 22.8868 82.1582 22.8868 82.3329 22.8868C82.3329 22.8577 82.3329 22.8287 82.3329 22.7987C82.3905 22.7987 82.4481 22.7987 82.5075 22.7987C82.5075 22.7697 82.5075 22.7406 82.5075 22.7107C82.5652 22.7107 82.6228 22.7107 82.6822 22.7107C82.6822 22.6816 82.6822 22.6526 82.6822 22.6226C83.4085 22.5031 84.1487 22.5613 84.7619 23.0042Z" fill="white"/>
<path d="M130.452 46.3082C130.956 46.3082 131.46 46.3082 131.98 46.3082C131.98 47.6593 131.98 49.0104 131.98 50.4025C133.234 50.3807 133.234 50.3807 134.513 50.3585C134.469 50.2568 134.426 50.1551 134.382 50.0503C134.25 49.5436 134.334 48.9818 134.564 48.5177C134.79 48.1432 135.128 47.9303 135.541 47.819C136.15 47.6899 136.856 47.7105 137.396 48.0497C137.752 48.3131 137.966 48.6422 138.049 49.0818C138.103 49.7158 138.109 50.343 137.738 50.8813C137.425 51.252 136.985 51.4313 136.509 51.4711C136.349 51.4753 136.189 51.4755 136.028 51.4741C135.967 51.4741 135.906 51.4741 135.845 51.4742C135.68 51.4742 135.516 51.4734 135.351 51.4725C135.179 51.4717 135.006 51.4716 134.834 51.4714C134.508 51.471 134.182 51.47 133.856 51.4686C133.415 51.4669 132.974 51.4662 132.533 51.4654C131.839 51.4641 131.145 51.4615 130.452 51.4591C130.452 49.7593 130.452 48.0595 130.452 46.3082ZM135.91 48.9057C135.803 49.0664 135.799 49.2001 135.79 49.3872C135.788 49.4205 135.786 49.4538 135.784 49.4881C135.773 49.7643 135.769 50.0524 135.866 50.3145C135.981 50.4256 136.032 50.4453 136.194 50.4685C136.352 50.4612 136.352 50.4612 136.45 50.3447C136.589 50.1139 136.574 49.9049 136.576 49.6431C136.577 49.6022 136.577 49.5612 136.578 49.5191C136.58 49.2652 136.556 49.0852 136.434 48.8616C136.237 48.7188 136.098 48.7745 135.91 48.9057Z" fill="white"/>
<path d="M46.735 8.12737C47.3019 8.66741 47.598 9.43281 47.6221 10.2129C47.6191 11.061 47.3436 11.8432 46.7459 12.4528C46.2987 12.8445 45.8402 12.9745 45.2592 12.9509C44.7626 12.9113 44.3155 12.6437 43.9781 12.2759C43.3986 11.5586 43.2507 10.7574 43.2964 9.85535C43.3666 9.1964 43.6993 8.59176 44.1697 8.13837C44.1937 8.11278 44.2177 8.08718 44.2425 8.06081C44.9469 7.36463 46.0437 7.54868 46.735 8.12737Z" fill="white"/>
<path d="M65.3472 26.717C65.3616 26.717 65.376 26.717 65.3908 26.717C65.392 26.7793 65.3929 26.8417 65.3936 26.9041C65.3941 26.9388 65.3946 26.9736 65.3951 27.0093C65.391 27.1091 65.3748 27.1937 65.3472 27.2893C65.3184 27.2893 65.2895 27.2893 65.2598 27.2893C65.2531 27.3356 65.2531 27.3356 65.2462 27.3829C65.1824 27.6518 65.0333 27.8666 64.8669 28.0818C64.838 28.0818 64.8092 28.0818 64.7795 28.0818C64.7647 28.1199 64.7647 28.1199 64.7495 28.1588C64.5943 28.4272 64.3401 28.4873 64.0611 28.5734C63.9539 28.5994 63.9539 28.5994 63.9062 28.6541C63.432 28.7246 62.8424 28.7713 62.379 28.6273C62.1583 28.5843 61.8763 28.6849 61.6803 28.7872C61.6202 28.8286 61.5622 28.8732 61.5047 28.9182C61.4713 28.9328 61.438 28.9473 61.4037 28.9623C61.3672 28.9841 61.3672 28.9841 61.33 29.0063C61.3234 29.0334 61.3167 29.0604 61.3099 29.0883C61.2781 29.2153 61.2019 29.3 61.126 29.4041C60.9361 29.6873 60.8487 30.0186 60.755 30.3436C60.7187 30.4591 60.7187 30.4591 60.675 30.5031C60.6379 30.7893 60.6792 30.9769 60.8497 31.2075C61.0462 31.3735 61.2624 31.4441 61.5047 31.5157C61.5047 31.5448 61.5047 31.5738 61.5047 31.6038C61.5344 31.6056 61.5641 31.6074 61.5947 31.6093C61.7748 31.6634 61.9055 31.7694 62.0286 31.9119C62.0593 32.0088 62.0593 32.0088 62.0723 32.088C62.1011 32.088 62.1299 32.088 62.1596 32.088C62.2531 32.5098 62.2853 32.8619 62.0587 33.2437C62.0205 33.2994 61.9814 33.3545 61.9413 33.4088C61.9089 33.4533 61.8765 33.4978 61.8431 33.5436C61.6967 33.7148 61.5162 33.8565 61.33 33.9811C61.3012 33.9811 61.2724 33.9811 61.2427 33.9811C61.2427 34.0102 61.2427 34.0392 61.2427 34.0692C61.1282 34.1354 61.0135 34.2014 60.8988 34.2673C60.8499 34.2956 60.8499 34.2956 60.8 34.3246C60.7688 34.3424 60.7376 34.3603 60.7054 34.3787C60.6622 34.4036 60.6622 34.4036 60.6181 34.429C60.544 34.4654 60.544 34.4654 60.4567 34.4654C60.4567 34.4945 60.4567 34.5235 60.4567 34.5535C60.3858 34.583 60.3148 34.6123 60.2438 34.6415C60.2043 34.6579 60.1648 34.6742 60.1241 34.691C60.02 34.7296 60.02 34.7296 59.9327 34.7296C59.9327 34.7586 59.9327 34.7877 59.9327 34.8176C59.695 34.9048 59.695 34.9048 59.4524 34.9937C59.4958 34.8189 59.522 34.7844 59.645 34.6687C59.766 34.5446 59.868 34.4047 59.9737 34.2673C60.0701 34.1494 60.1747 34.0449 60.282 33.9371C60.3659 33.8443 60.4469 33.7493 60.5277 33.6537C60.5589 33.6176 60.5589 33.6176 60.5908 33.5807C60.7977 33.3358 60.9165 33.1245 60.9067 32.7976C60.8886 32.6714 60.836 32.5864 60.7624 32.4843C60.7624 32.4552 60.7624 32.4262 60.7624 32.3962C60.7372 32.3836 60.712 32.3709 60.6861 32.3579C60.6236 32.3263 60.5612 32.2946 60.4988 32.2626C60.455 32.2402 60.455 32.2402 60.4103 32.2174C60.3663 32.1948 60.3663 32.1948 60.3214 32.1718C60.2321 32.127 60.2321 32.127 60.1074 32.088C60.1074 32.059 60.1074 32.0299 60.1074 32C60.0524 31.9909 59.9975 31.9818 59.9409 31.9725C59.6835 31.9151 59.4497 31.8003 59.2341 31.6478C59.2197 31.6042 59.2053 31.5606 59.1904 31.5157C59.1616 31.5157 59.1328 31.5157 59.1031 31.5157C58.7222 30.8697 58.6588 30.2551 58.8331 29.5153C59.0017 29.0035 59.3129 28.5504 59.6419 28.1306C59.6975 28.0594 59.7513 27.9869 59.8045 27.9139C59.9076 27.7965 60.0173 27.7207 60.151 27.6415C60.1799 27.6415 60.2087 27.6415 60.2384 27.6415C60.2384 27.6125 60.2384 27.5834 60.2384 27.5535C60.3681 27.5099 60.4977 27.4663 60.6314 27.4214C60.6314 27.3923 60.6314 27.3633 60.6314 27.3333C61.3839 27.1592 62.096 27.1344 62.8146 27.4654C62.93 27.5126 63.0466 27.5554 63.1639 27.5975C63.1957 27.6099 63.2274 27.6223 63.2601 27.6351C63.6131 27.7606 64.0478 27.8181 64.3988 27.6685C64.5208 27.5955 64.6256 27.5109 64.7359 27.4214C64.7647 27.4214 64.7935 27.4214 64.8232 27.4214C64.835 27.3954 64.8468 27.3695 64.859 27.3428C64.9099 27.2465 64.9643 27.1751 65.0361 27.0939C65.1182 27 65.1966 26.9063 65.2735 26.8078C65.2978 26.7778 65.3221 26.7479 65.3472 26.717Z" fill="white"/>
<path d="M127.875 48.2453C128.365 48.2453 128.855 48.2453 129.36 48.2453C129.36 49.3058 129.36 50.3664 129.36 51.4591C128.233 51.4644 128.233 51.4644 127.752 51.4656C127.423 51.4663 127.095 51.4673 126.767 51.4691C126.502 51.4705 126.238 51.4713 125.973 51.4716C125.872 51.4719 125.771 51.4724 125.67 51.4731C125.529 51.474 125.387 51.4742 125.246 51.4741C125.184 51.4748 125.184 51.4748 125.121 51.4755C124.677 51.4735 124.319 51.3654 123.989 51.0629C123.704 50.7672 123.59 50.3784 123.592 49.9738C123.592 49.9314 123.592 49.8891 123.592 49.8454C123.593 49.7923 123.593 49.7391 123.594 49.6843C123.594 49.5145 123.595 49.3447 123.596 49.1698C124.029 49.1698 124.461 49.1698 124.906 49.1698C124.923 49.5715 124.923 49.5715 124.927 49.6966C124.937 49.8998 124.948 50.0842 125.037 50.2704C125.181 50.3673 125.306 50.3704 125.476 50.3725C125.53 50.3734 125.583 50.3743 125.638 50.3752C125.724 50.3759 125.724 50.3759 125.812 50.3767C125.871 50.3775 125.931 50.3784 125.99 50.3793C126.146 50.3815 126.302 50.3833 126.459 50.3849C126.618 50.3867 126.778 50.3889 126.937 50.3912C127.25 50.3955 127.563 50.399 127.875 50.4025C127.875 49.6906 127.875 48.9787 127.875 48.2453Z" fill="white"/>
<path d="M119.186 46.3082C119.676 46.3082 120.166 46.3082 120.671 46.3082C120.671 48.008 120.671 49.7078 120.671 51.4591C120.181 51.4591 119.691 51.4591 119.186 51.4591C119.186 49.7593 119.186 48.0595 119.186 46.3082Z" fill="white"/>
<path d="M58.5354 30.5031C58.5643 30.5031 58.5931 30.5031 58.6228 30.5031C58.6212 30.5404 58.6197 30.5776 58.6182 30.616C58.6091 30.9984 58.6288 31.2492 58.852 31.568C58.9854 31.7056 59.1192 31.8054 59.2777 31.9119C59.2519 32.061 59.2448 32.0805 59.114 32.1733C59.0672 32.2033 59.0203 32.2333 58.9721 32.2641C58.9325 32.3041 58.8928 32.3441 58.852 32.3852C58.8196 32.4179 58.7872 32.4506 58.7538 32.4843C58.7249 32.4843 58.6961 32.4843 58.6664 32.4843C58.652 32.5279 58.6376 32.5714 58.6228 32.6164C58.4724 32.7484 58.4724 32.7484 58.3608 32.7484C58.3464 32.792 58.332 32.8356 58.3171 32.8805C58.2235 32.9643 58.2235 32.9643 58.107 33.0539C57.9631 33.1651 57.8325 33.2781 57.7058 33.4088C57.6581 33.4516 57.6099 33.4938 57.5612 33.5354C57.5216 33.5693 57.5216 33.5693 57.4812 33.6038C57.4411 33.638 57.4411 33.638 57.4001 33.673C57.3492 33.7169 57.2982 33.761 57.2473 33.805C57.2224 33.8265 57.1974 33.8479 57.1718 33.87C57.1176 33.9171 57.0638 33.9646 57.0104 34.0124C56.9832 34.0366 56.956 34.0608 56.928 34.0857C56.9034 34.1078 56.8788 34.13 56.8535 34.1528C56.7888 34.2013 56.7888 34.2013 56.7015 34.2013C56.6799 34.2666 56.6799 34.2666 56.6578 34.3333C56.5074 34.4654 56.5074 34.4654 56.3958 34.4654C56.3742 34.5308 56.3742 34.5308 56.3522 34.5975C56.257 34.6828 56.257 34.6828 56.1393 34.7736C56.0133 34.8714 55.8962 34.968 55.7845 35.0818C55.7116 35.1441 55.6378 35.2055 55.5635 35.2661C55.5252 35.2976 55.4868 35.3291 55.4473 35.3616C55.3479 35.434 55.3479 35.434 55.2606 35.434C55.2461 35.4775 55.2317 35.5211 55.2169 35.566C55.1569 35.6403 55.1569 35.6403 55.0859 35.6981C55.0427 35.6981 54.9994 35.6981 54.9549 35.6981C54.9467 35.5963 54.9467 35.5963 54.9549 35.478C55.0122 35.4119 55.0122 35.4119 55.0859 35.3459C55.1297 35.2726 55.1734 35.1992 55.2169 35.1258C55.2734 35.0454 55.3307 34.9656 55.3888 34.8864C55.4794 34.7619 55.5686 34.6379 55.6535 34.5094C55.7671 34.3376 55.8893 34.1727 56.0114 34.0069C56.0905 33.8992 56.0905 33.8992 56.1362 33.7957C56.1775 33.717 56.1775 33.717 56.3085 33.6289C56.3538 33.5565 56.3972 33.483 56.4395 33.4088C56.5262 33.2861 56.6152 33.1652 56.7042 33.0442C56.7823 32.9338 56.8509 32.8207 56.9198 32.7044C56.9635 32.6604 57.0072 32.6164 57.0508 32.5723C57.0733 32.5333 57.0959 32.4942 57.119 32.454C57.1398 32.4204 57.1605 32.3868 57.1818 32.3522C57.2106 32.3522 57.2395 32.3522 57.2691 32.3522C57.2791 32.3213 57.289 32.2905 57.2992 32.2586C57.3688 32.1049 57.4665 31.9962 57.5748 31.8679C57.6306 31.7704 57.6306 31.7704 57.6621 31.6918C57.691 31.6918 57.7198 31.6918 57.7495 31.6918C57.7657 31.6442 57.7657 31.6442 57.7822 31.5955C57.8429 31.4578 57.9164 31.3682 58.0115 31.2516C58.062 31.1804 58.112 31.1088 58.1615 31.0369C58.1878 30.999 58.214 30.9611 58.241 30.9221C58.2884 30.8531 58.3356 30.7838 58.3823 30.7143C58.4312 30.6424 58.4831 30.5725 58.5354 30.5031Z" fill="white"/>
<path d="M60.5004 26.8491C60.5004 26.8781 60.5004 26.9072 60.5004 26.9371C60.7165 26.9589 60.7165 26.9589 60.937 26.9811C60.9586 27.0465 60.9586 27.0465 60.9807 27.1132C60.8661 27.1501 60.7515 27.1867 60.6368 27.2233C60.6042 27.2338 60.5716 27.2443 60.5381 27.2551C60.2919 27.3333 60.2919 27.3333 60.1947 27.3333C60.1947 27.3624 60.1947 27.3915 60.1947 27.4214C60.1506 27.4432 60.1064 27.465 60.061 27.4874C59.8881 27.5855 59.7786 27.7146 59.6566 27.8702C59.5774 27.9562 59.519 28.0003 59.4087 28.0378C59.2668 27.9772 59.2668 27.9772 59.1467 27.9057C59.1467 27.8766 59.1467 27.8476 59.1467 27.8176C58.3722 27.7866 57.8412 27.8177 57.1786 28.2519C57.0945 28.3019 57.0945 28.3019 57.0072 28.3019C57.0072 28.331 57.0072 28.36 57.0072 28.39C56.9369 28.4281 56.9369 28.4281 56.8653 28.467C56.7312 28.5442 56.6311 28.6261 56.5268 28.7422C56.4686 28.8009 56.4104 28.8596 56.3522 28.9183C56.309 28.9037 56.2657 28.8892 56.2212 28.8742C56.2212 28.8306 56.2212 28.7871 56.2212 28.7422C56.25 28.7422 56.2788 28.7422 56.3085 28.7422C56.3154 28.7176 56.3224 28.6931 56.3295 28.6679C56.4247 28.3539 56.5551 28.0925 56.7888 27.8617C56.8354 27.8059 56.8818 27.7499 56.928 27.6938C57.083 27.5146 57.2493 27.3784 57.4438 27.2453C57.4722 27.2248 57.5005 27.2043 57.5298 27.1832C57.7397 27.0391 57.9359 26.9763 58.1861 26.9371C58.1861 26.9081 58.1861 26.879 58.1861 26.8491C58.9318 26.6644 59.7486 26.7337 60.5004 26.8491Z" fill="white"/>
<path d="M62.4653 24.956C62.6813 25.0536 62.7964 25.1833 62.9019 25.3962C62.9757 25.6951 62.9543 25.9581 62.8146 26.2327C62.6638 26.4591 62.4677 26.6725 62.1975 26.7404C61.9726 26.7742 61.8049 26.7506 61.592 26.673C61.592 26.6439 61.592 26.6148 61.592 26.5849C61.5659 26.574 61.5397 26.5631 61.5128 26.5519C61.358 26.4627 61.2983 26.3569 61.2427 26.1887C61.2115 25.8096 61.2575 25.5326 61.4992 25.2311C61.7683 24.9138 62.073 24.9146 62.4653 24.956Z" fill="white"/>
<path d="M144.206 46.3082C144.682 46.3082 145.157 46.3082 145.647 46.3082C145.647 46.5987 145.647 46.8893 145.647 47.1887C145.172 47.1887 144.696 47.1887 144.206 47.1887C144.206 46.8981 144.206 46.6075 144.206 46.3082Z" fill="white"/>
<path d="M107.571 52.1195C108.018 52.1195 108.465 52.1195 108.925 52.1195C108.925 52.4101 108.925 52.7006 108.925 53C108.478 53 108.031 53 107.571 53C107.571 52.7094 107.571 52.4189 107.571 52.1195Z" fill="white"/>
<path d="M104.908 52.1195C105.268 52.1195 105.628 52.1195 105.999 52.1195C105.999 52.4101 105.999 52.7006 105.999 53C105.639 53 105.279 53 104.908 53C104.908 52.7094 104.908 52.4189 104.908 52.1195Z" fill="white"/>
<path d="M103.554 52.1195C103.914 52.1195 104.275 52.1195 104.646 52.1195C104.646 52.4101 104.646 52.7006 104.646 53C104.285 53 103.925 53 103.554 53C103.554 52.7094 103.554 52.4189 103.554 52.1195Z" fill="white"/>
<path d="M126.478 46.9245C126.838 46.9245 127.199 46.9245 127.57 46.9245C127.57 47.2151 127.57 47.5057 127.57 47.805C127.21 47.805 126.849 47.805 126.478 47.805C126.478 47.5145 126.478 47.2239 126.478 46.9245Z" fill="white"/>
<path d="M125.125 46.9245C125.485 46.9245 125.845 46.9245 126.216 46.9245C126.216 47.2151 126.216 47.5057 126.216 47.805C125.856 47.805 125.496 47.805 125.125 47.805C125.125 47.5145 125.125 47.2239 125.125 46.9245Z" fill="white"/>
<path d="M99.4495 46.3082C99.8098 46.3082 100.17 46.3082 100.541 46.3082C100.541 46.5987 100.541 46.8893 100.541 47.1887C100.181 47.1887 99.8207 47.1887 99.4495 47.1887C99.4495 46.8981 99.4495 46.6075 99.4495 46.3082Z" fill="white"/>
<path d="M98.0959 46.3082C98.4562 46.3082 98.8164 46.3082 99.1875 46.3082C99.1875 46.5987 99.1875 46.8893 99.1875 47.1887C98.8273 47.1887 98.4671 47.1887 98.0959 47.1887C98.0959 46.8981 98.0959 46.6075 98.0959 46.3082Z" fill="white"/>
<path d="M53.82 8.31445C53.8345 8.35804 53.849 8.40162 53.864 8.44653C53.8349 8.44653 53.8059 8.44653 53.7759 8.44653C53.7905 8.40294 53.805 8.35936 53.82 8.31445Z" fill="white"/>
<path d="M37.0086 8.31445C37.0376 8.31445 37.0667 8.31445 37.0966 8.31445C37.0821 8.35804 37.0676 8.40162 37.0526 8.44653C37.0381 8.40294 37.0236 8.35936 37.0086 8.31445Z" fill="white"/>
<path d="M45.3049 15.0943C45.3338 15.1089 45.3626 15.1234 45.3923 15.1384C45.349 15.1384 45.3058 15.1384 45.2613 15.1384C45.2757 15.1238 45.2901 15.1093 45.3049 15.0943Z" fill="white"/>
<path d="M49.8898 14.3899C49.9778 14.4339 49.9778 14.4339 49.9778 14.4339L49.8898 14.3899Z" fill="white"/>
<path d="M53.4266 11.2201C53.5147 11.2641 53.5147 11.2641 53.5147 11.2641L53.4266 11.2201Z" fill="white"/>
</g>
<defs>
<clipPath id="clip0_191_7658">
<rect width="122" height="49" fill="white" transform="translate(35 4)"/>
</clipPath>
</defs>
</svg>
