<svg width="343" height="343" viewBox="0 0 343 343" fill="none" xmlns="http://www.w3.org/2000/svg">
<path d="M282.845 175.884C344.742 209.998 345.065 265.311 283.572 299.425C222.079 333.54 122.053 333.54 60.1622 299.425C-1.72871 265.311 -2.05799 209.998 59.4282 175.877C120.914 141.755 220.947 141.762 282.845 175.884Z" fill="#F5F5F5"/>
<path d="M93.1245 269.276L104.498 275.882C105.364 276.387 106.349 276.654 107.352 276.654C108.355 276.654 109.34 276.387 110.206 275.882L202.665 222.127C202.951 221.96 203.189 221.721 203.354 221.434C203.519 221.147 203.605 220.822 203.605 220.491C203.605 220.16 203.519 219.834 203.354 219.547C203.189 219.26 202.951 219.021 202.665 218.855L191.298 212.242C190.431 211.739 189.446 211.475 188.444 211.475C187.442 211.475 186.458 211.739 185.59 212.242L93.1245 266.003C92.8384 266.17 92.6009 266.409 92.4359 266.696C92.2709 266.983 92.184 267.308 92.184 267.639C92.184 267.971 92.2709 268.296 92.4359 268.583C92.6009 268.87 92.8384 269.109 93.1245 269.276Z" fill="#E6E6E6"/>
<path d="M250.157 252.585C263.829 260.481 263.877 273.282 250.315 281.171C236.752 289.06 214.643 289.067 200.957 281.171C187.271 273.275 187.237 260.481 200.799 252.585C214.361 244.689 236.478 244.689 250.157 252.585Z" fill="#E6E6E6"/>
<path d="M83.4931 220.288C81.682 218.553 79.6103 216.659 79.48 214.155C79.3634 211.926 81.0029 209.834 83.0883 209.024C84.1479 208.667 85.2684 208.527 86.3833 208.612C87.4982 208.696 88.5846 209.005 89.5779 209.518C91.5615 210.561 93.3266 211.974 94.7778 213.682C99.1619 218.551 102.336 224.385 104.041 230.711C105.747 237.037 105.937 243.675 104.594 250.088C104.416 250.932 104.128 251.865 103.366 252.27C102.159 252.908 100.78 251.783 99.9365 250.692C98.1348 248.299 96.7736 245.604 95.9165 242.734C95.1962 240.313 95.5187 237.63 94.6063 235.346C92.3836 229.735 87.808 224.404 83.4931 220.288Z" fill="#A2BE24"/>
<path d="M102.317 249.018C102.19 249.018 102.067 248.967 101.977 248.877C101.887 248.787 101.837 248.665 101.837 248.538C101.782 241.509 100.163 234.581 97.0967 228.257C94.0306 221.932 89.5944 216.37 84.1105 211.974C84.0518 211.938 84.0013 211.89 83.9625 211.834C83.9236 211.777 83.8972 211.713 83.8849 211.645C83.8727 211.577 83.8749 211.508 83.8914 211.441C83.908 211.374 83.9384 211.312 83.9809 211.258C84.0233 211.204 84.0767 211.159 84.1375 211.127C84.1984 211.095 84.2653 211.076 84.3339 211.072C84.4025 211.068 84.4713 211.078 84.5356 211.102C84.6 211.127 84.6585 211.164 84.7073 211.213C90.3009 215.699 94.8262 221.375 97.955 227.827C101.084 234.279 102.738 241.347 102.797 248.517C102.8 248.582 102.79 248.647 102.767 248.707C102.744 248.768 102.709 248.823 102.664 248.87C102.619 248.917 102.565 248.954 102.506 248.98C102.446 249.005 102.382 249.018 102.317 249.018Z" fill="white"/>
<path d="M96.383 268.226C93.3303 269.207 89.523 268.569 87.7394 265.894C85.6814 262.752 86.9642 257.909 84.1791 255.37C82.6287 253.95 80.3375 253.813 78.2795 253.381C76.2215 252.949 73.9234 251.817 73.6147 249.731C73.2099 246.987 76.6056 244.676 76.1254 241.925C75.6452 239.174 71.9065 238.364 70.8021 235.847C69.7937 233.549 71.5773 230.764 73.9371 229.913C76.2969 229.062 78.9243 229.645 81.2773 230.517C83.6303 231.388 85.9215 232.54 88.4117 232.849C91.0048 233.165 93.9957 232.657 95.9028 234.441C98.4479 236.821 96.9936 241.362 98.9624 244.237C100.279 246.157 102.763 246.83 104.663 248.181C105.846 249.038 106.806 250.166 107.463 251.47C108.12 252.775 108.453 254.219 108.436 255.679C108.374 258.842 106.707 261.126 104.32 262.944C101.789 264.851 99.518 267.183 96.383 268.226Z" fill="#A2BE24"/>
<path opacity="0.2" d="M96.383 268.226C93.3303 269.207 89.523 268.569 87.7394 265.894C85.6814 262.752 86.9642 257.909 84.1791 255.37C82.6287 253.95 80.3375 253.813 78.2795 253.381C76.2215 252.949 73.9234 251.817 73.6147 249.731C73.2099 246.987 76.6056 244.676 76.1254 241.925C75.6452 239.174 71.9065 238.364 70.8021 235.847C69.7937 233.549 71.5773 230.764 73.9371 229.913C76.2969 229.062 78.9243 229.645 81.2773 230.517C83.6303 231.388 85.9215 232.54 88.4117 232.849C91.0048 233.165 93.9957 232.657 95.9028 234.441C98.4479 236.821 96.9936 241.362 98.9624 244.237C100.279 246.157 102.763 246.83 104.663 248.181C105.846 249.038 106.806 250.166 107.463 251.47C108.12 252.775 108.453 254.219 108.436 255.679C108.374 258.842 106.707 261.126 104.32 262.944C101.789 264.851 99.518 267.183 96.383 268.226Z" fill="black"/>
<path d="M95.011 246.576L94.9698 246.528C94.5171 245.842 94.0437 245.218 93.543 244.593C89.0364 238.999 82.9168 234.927 76.0157 232.931C75.8928 232.896 75.761 232.911 75.6491 232.972C75.5371 233.034 75.4543 233.138 75.4188 233.261C75.3834 233.383 75.3981 233.515 75.4599 233.627C75.5216 233.739 75.6253 233.822 75.7481 233.857C82.4565 235.801 88.4052 239.759 92.7884 245.197C92.9256 245.362 93.0422 245.547 93.1794 245.718C87.6914 243.715 82.1416 244.854 79.1713 247.248C79.1212 247.288 79.0794 247.338 79.0485 247.394C79.0176 247.45 78.9981 247.512 78.9911 247.575C78.9841 247.639 78.9897 247.704 79.0077 247.765C79.0256 247.827 79.0556 247.884 79.0958 247.934C79.1419 247.99 79.1995 248.034 79.2647 248.065C79.3299 248.096 79.401 248.112 79.4731 248.112C79.5837 248.114 79.6911 248.075 79.7749 248.003C82.7179 245.636 88.789 244.573 94.2976 247.248C97.7441 252.3 99.7677 258.185 100.156 264.288C100.161 264.411 100.215 264.528 100.304 264.612C100.394 264.697 100.513 264.743 100.636 264.741C100.699 264.738 100.761 264.722 100.818 264.694C100.875 264.667 100.926 264.628 100.968 264.581C101.01 264.534 101.042 264.479 101.063 264.419C101.084 264.36 101.093 264.297 101.089 264.233C100.694 257.907 98.5936 251.805 95.011 246.576Z" fill="white"/>
<path d="M74.184 51.8753C71.0559 53.6795 68.3668 57.3084 67.0702 61.0677C66.2469 61.1674 65.4542 61.441 64.7447 61.8703C64.58 61.9664 64.4154 62.0693 64.2439 62.1859C61.4241 64.25 59.5079 67.3209 58.8931 70.7609C58.7414 71.6416 58.7414 72.5418 58.8931 73.4226C58.9004 73.5079 58.8837 73.5936 58.8449 73.67C58.8062 73.7463 58.7468 73.8103 58.6736 73.8548L55.4562 75.7138C54.7183 76.1945 54.1044 76.8428 53.6645 77.6057C53.2247 78.3687 52.9712 79.2248 52.9249 80.1042C52.9249 81.7232 54.0705 82.3749 55.4768 81.5585L86.9368 63.3933C87.6771 62.9145 88.2932 62.2669 88.7345 61.5037C89.1757 60.7404 89.4295 59.8833 89.475 59.0029C89.475 57.3908 88.3294 56.7391 86.9231 57.5485L81.7712 60.5258C81.6134 60.615 81.5037 60.5258 81.5654 60.2925C82.0378 58.7947 82.2308 57.2228 82.1348 55.6552C81.7986 51.3951 78.643 49.6458 74.7671 51.5392L74.184 51.8753Z" fill="#E6E6E6"/>
<path d="M56.8008 36.7833C54.4906 38.2795 52.7584 40.5173 51.889 43.1288C51.3204 43.1974 50.7731 43.3868 50.2838 43.6845L49.9408 43.8971C47.9956 45.3261 46.6742 47.4481 46.2501 49.8242C46.1467 50.4326 46.1467 51.0542 46.2501 51.6627C46.2555 51.7203 46.2449 51.7783 46.2195 51.8304C46.1941 51.8824 46.1548 51.9264 46.1061 51.9576L43.904 53.2405C43.3915 53.5669 42.9634 54.0099 42.6546 54.5332C42.3458 55.0566 42.1651 55.6455 42.1273 56.252C42.1273 57.3633 42.9162 57.8161 43.8903 57.2536L65.6022 44.7409C66.1128 44.4093 66.538 43.9619 66.8432 43.4351C67.1483 42.9082 67.3248 42.3167 67.3583 41.7088C67.3583 40.5906 66.5626 40.1447 65.5953 40.7004L62.035 42.7584C61.9321 42.827 61.8566 42.7584 61.8978 42.6006C62.221 41.5676 62.3535 40.4843 62.2888 39.4038C62.0556 36.4609 59.8809 35.2878 57.2055 36.5775C57.0683 36.6393 56.938 36.7079 56.8008 36.7833Z" fill="#E6E6E6"/>
<path d="M197.403 30.4515C196.786 28.2701 192.368 24.1335 187.971 24.2227C187.549 24.2338 187.132 24.3149 186.736 24.4628L101.329 73.0521C99.9019 73.8644 98.7558 75.0919 98.0431 76.5713C97.4937 77.6855 97.2052 78.91 97.1993 80.1522V264.913C97.1993 269.619 102.626 274.112 107.716 271.951C107.829 271.918 107.939 271.874 108.045 271.821L193.466 223.115C194.716 222.399 195.754 221.367 196.477 220.121C197.2 218.876 197.581 217.461 197.582 216.021V31.3365C197.592 31.0316 197.531 30.7286 197.403 30.4515Z" fill="#37474F"/>
<path d="M109.108 99.6826C109.11 98.962 109.301 98.2545 109.662 97.6309C110.024 97.0073 110.542 96.4895 111.166 96.1292L190.468 51.011C190.782 50.8342 191.138 50.7432 191.498 50.747C191.859 50.7509 192.212 50.8495 192.523 51.0329C192.834 51.2163 193.09 51.4782 193.268 51.7922C193.445 52.1062 193.537 52.4613 193.534 52.822V201.766C193.532 202.487 193.341 203.194 192.98 203.818C192.619 204.442 192.1 204.959 191.476 205.32L112.168 250.513C111.856 250.687 111.505 250.777 111.148 250.774C110.791 250.77 110.441 250.675 110.133 250.495C109.824 250.316 109.567 250.06 109.388 249.752C109.208 249.443 109.112 249.094 109.108 248.737V99.6826Z" fill="#A2BE24"/>
<path opacity="0.5" d="M109.108 99.6826C109.11 98.962 109.301 98.2545 109.662 97.6309C110.024 97.0073 110.542 96.4895 111.166 96.1292L190.468 51.011C190.782 50.8342 191.138 50.7432 191.498 50.747C191.859 50.7509 192.212 50.8495 192.523 51.0329C192.834 51.2163 193.09 51.4782 193.268 51.7922C193.445 52.1062 193.537 52.4613 193.534 52.822V201.766C193.532 202.487 193.341 203.194 192.98 203.818C192.619 204.442 192.1 204.959 191.476 205.32L112.168 250.513C111.856 250.687 111.505 250.777 111.148 250.774C110.791 250.77 110.441 250.675 110.133 250.495C109.824 250.316 109.567 250.06 109.388 249.752C109.208 249.443 109.112 249.094 109.108 248.737V99.6826Z" fill="white"/>
<path d="M97.1993 80.1522V264.913C97.1993 269.619 102.626 274.112 107.716 271.951C107.408 272.06 107.079 272.094 106.755 272.05C106.432 272.007 106.123 271.887 105.855 271.701C105.587 271.514 105.367 271.267 105.213 270.979C105.06 270.691 104.977 270.37 104.972 270.044V85.2629C104.972 83.6557 105.45 82.0848 106.344 80.7491L97.9814 76.5713C97.4533 77.6905 97.1859 78.9148 97.1993 80.1522Z" fill="#263238"/>
<path d="M187.964 24.2158C187.542 24.2269 187.125 24.3081 186.729 24.4559L101.329 73.0521C99.9019 73.8644 98.7557 75.0919 98.0431 76.5713L106.405 80.7491C107.103 79.6808 108.043 78.7924 109.149 78.156L194.57 29.5666C194.813 29.433 195.08 29.3499 195.356 29.3223C195.632 29.2946 195.911 29.323 196.175 29.4056C196.44 29.4882 196.685 29.6235 196.896 29.8032C197.107 29.983 197.28 30.2035 197.403 30.4515C196.793 28.2632 192.375 24.1266 187.964 24.2158Z" fill="#455A64"/>
<path d="M161.855 60.073C162.452 59.7232 162.946 59.9976 162.952 60.6836C162.934 61.0592 162.829 61.4255 162.646 61.7539C162.463 62.0823 162.206 62.364 161.896 62.5769L145.137 72.2495C144.533 72.5994 144.053 72.3044 144.046 71.6184C144.066 71.2428 144.175 70.8773 144.363 70.5517C144.552 70.2262 144.814 69.95 145.13 69.7456L161.855 60.073Z" fill="#263238"/>
<path d="M140.788 72.2358C141.391 71.8859 141.872 72.1603 141.879 72.8532C141.859 73.2298 141.751 73.5965 141.562 73.9233C141.374 74.25 141.111 74.5274 140.795 74.7328C140.198 75.0827 139.697 74.7946 139.697 74.1086C139.719 73.7328 139.83 73.3674 140.019 73.0421C140.209 72.7168 140.472 72.4406 140.788 72.2358Z" fill="#263238"/>
<path d="M151.517 58.6667C152.717 57.9807 153.685 58.5227 153.685 59.9015C153.646 60.6543 153.431 61.3875 153.057 62.0417C152.683 62.696 152.16 63.253 151.531 63.6677C150.33 64.3537 149.342 63.7911 149.335 62.4123C149.38 61.6607 149.6 60.93 149.979 60.2794C150.358 59.6287 150.885 59.0763 151.517 58.6667Z" fill="#263238"/>
<path d="M151.524 232.602C153.966 231.189 155.935 232.314 155.941 235.12C155.864 236.652 155.427 238.145 154.664 239.477C153.901 240.808 152.834 241.941 151.551 242.782C149.109 244.154 147.085 243.036 147.078 240.23C147.167 238.699 147.616 237.21 148.389 235.884C149.161 234.559 150.235 233.434 151.524 232.602Z" fill="#263238"/>
<path d="M157.547 97.2954C158.336 96.8426 158.768 97.1307 158.768 98.0706V101.11C158.784 101.548 158.681 101.982 158.468 102.365C158.255 102.749 157.941 103.066 157.56 103.284C156.772 103.744 156.339 103.456 156.339 102.516V99.47C156.326 99.0323 156.431 98.5992 156.644 98.2164C156.856 97.8335 157.168 97.5153 157.547 97.2954ZM157.979 101.631V98.4684C157.979 98.05 157.821 97.9882 157.567 98.1323C157.427 98.2141 157.313 98.3345 157.239 98.4792C157.164 98.6239 157.133 98.7868 157.149 98.9486V102.111C157.149 102.53 157.307 102.598 157.56 102.447C157.7 102.365 157.814 102.244 157.888 102.1C157.962 101.955 157.994 101.793 157.979 101.631Z" fill="white"/>
<path d="M157.554 98.1323C157.807 97.9882 157.965 98.05 157.965 98.4684V101.631C157.98 101.793 157.948 101.955 157.874 102.1C157.8 102.244 157.687 102.365 157.547 102.447C157.293 102.598 157.135 102.53 157.135 102.111V98.9486C157.12 98.7868 157.151 98.6239 157.225 98.4792C157.299 98.3345 157.413 98.2141 157.554 98.1323Z" fill="#A2BE24"/>
<path d="M150.522 102.255C150.803 102.091 150.927 102.207 150.927 102.626V103.202C150.946 103.382 150.911 103.563 150.827 103.723C150.743 103.883 150.613 104.014 150.454 104.1L150.138 104.286V102.482L150.522 102.255Z" fill="#A2BE24"/>
<path d="M147.6 103.881C147.854 103.73 148.011 103.799 148.011 104.217V107.38C148.027 107.541 147.996 107.704 147.922 107.849C147.847 107.994 147.733 108.114 147.593 108.196C147.346 108.34 147.181 108.271 147.181 107.86V104.697C147.167 104.536 147.198 104.373 147.272 104.228C147.346 104.084 147.46 103.963 147.6 103.881Z" fill="#A2BE24"/>
<path d="M152.806 120.956L152.813 121.786L151.434 122.581V124.214L152.532 123.583V124.42L151.434 125.051L151.441 126.766L152.82 125.97L152.827 126.807L150.639 128.069L150.625 122.218L152.806 120.956Z" fill="white"/>
<path d="M155.551 119.371V120.208L154.714 120.688L154.727 125.709L153.925 126.169L153.911 121.148L153.074 121.635L153.067 120.805L155.551 119.371Z" fill="white"/>
<path d="M156.696 118.705L156.71 124.564L155.914 125.024L155.893 119.172L156.696 118.705Z" fill="white"/>
<path d="M159.817 116.908L159.831 122.76L159.008 123.24L158.013 119.563L158 119.57L158.013 123.809L157.286 124.228L157.272 118.376L158.274 117.8L159.097 120.832L159.111 120.825L159.097 117.32L159.817 116.908Z" fill="white"/>
<path d="M161.519 115.852C162.301 115.399 162.712 115.701 162.712 116.641V117.21L161.958 117.642V117.018C161.958 116.599 161.793 116.538 161.539 116.682C161.401 116.765 161.288 116.886 161.216 117.03C161.143 117.175 161.112 117.337 161.128 117.498V120.661C161.128 121.079 161.292 121.134 161.546 120.99C161.685 120.909 161.798 120.789 161.871 120.646C161.944 120.502 161.974 120.341 161.958 120.18V119.103L161.587 119.316V118.472L162.712 117.827V119.686C162.734 120.121 162.634 120.553 162.425 120.935C162.215 121.316 161.904 121.632 161.526 121.847C160.744 122.3 160.332 121.998 160.325 121.065V117.992C160.312 117.561 160.416 117.134 160.626 116.757C160.836 116.38 161.145 116.067 161.519 115.852Z" fill="white"/>
<path d="M154.179 141.782C154.425 141.638 154.59 141.707 154.59 142.125V145.288C154.604 145.45 154.572 145.612 154.498 145.756C154.424 145.901 154.311 146.021 154.172 146.104C153.918 146.248 153.76 146.187 153.76 145.761V142.599C153.745 142.437 153.777 142.275 153.851 142.13C153.925 141.985 154.039 141.865 154.179 141.782Z" fill="#A2BE24"/>
<path d="M150.159 143.271C150.947 142.818 151.38 143.1 151.38 144.039V147.085C151.392 147.523 151.285 147.957 151.072 148.34C150.858 148.722 150.545 149.04 150.165 149.26C149.376 149.713 148.944 149.418 148.944 148.485V145.432C148.93 144.995 149.036 144.563 149.25 144.182C149.464 143.801 149.778 143.486 150.159 143.271ZM150.584 147.6V144.437C150.584 144.026 150.426 143.957 150.165 144.101C150.028 144.186 149.918 144.308 149.845 144.452C149.772 144.596 149.741 144.757 149.754 144.918V148.08C149.754 148.505 149.912 148.567 150.165 148.416C150.307 148.336 150.422 148.216 150.495 148.07C150.568 147.925 150.597 147.761 150.577 147.6" fill="white"/>
<path d="M150.159 144.101C150.419 143.957 150.577 144.026 150.577 144.437V147.6C150.597 147.761 150.568 147.925 150.495 148.07C150.422 148.216 150.307 148.336 150.165 148.416C149.912 148.567 149.754 148.505 149.754 148.08V144.918C149.74 144.757 149.771 144.597 149.842 144.453C149.913 144.309 150.023 144.187 150.159 144.101Z" fill="#A2BE24"/>
<path d="M140.699 148.732C141.488 148.279 141.892 148.574 141.892 149.514V150.083L141.138 150.515V149.891C141.138 149.473 140.98 149.404 140.726 149.555C140.585 149.636 140.47 149.756 140.396 149.901C140.322 150.046 140.291 150.209 140.308 150.371V153.534C140.308 153.952 140.465 154.014 140.719 153.863C140.859 153.782 140.973 153.663 141.047 153.52C141.121 153.376 141.153 153.214 141.138 153.053V151.97L140.774 152.182V151.352L141.899 150.7V152.56C141.917 152.994 141.816 153.425 141.607 153.806C141.398 154.187 141.089 154.503 140.712 154.72C139.923 155.173 139.512 154.871 139.505 153.938V150.92C139.481 150.48 139.579 150.043 139.79 149.656C140.001 149.269 140.316 148.949 140.699 148.732Z" fill="white"/>
<path d="M148.663 144.197V145.041L147.826 145.521L147.84 150.543L147.037 151.002L147.024 145.981L146.187 146.468V145.631L148.663 144.197Z" fill="white"/>
<path d="M154.172 140.952C154.961 140.5 155.386 140.781 155.393 141.721V144.746C155.407 145.184 155.302 145.617 155.09 146C154.877 146.383 154.564 146.701 154.185 146.921C153.396 147.373 152.964 147.085 152.957 146.152V143.106C152.948 142.671 153.055 142.242 153.269 141.863C153.483 141.484 153.794 141.169 154.172 140.952ZM154.604 145.288V142.125C154.604 141.707 154.439 141.638 154.192 141.782C154.052 141.865 153.939 141.985 153.865 142.13C153.791 142.274 153.759 142.437 153.774 142.599V145.761C153.774 146.187 153.932 146.248 154.185 146.104C154.325 146.021 154.438 145.901 154.512 145.756C154.586 145.612 154.618 145.45 154.604 145.288Z" fill="white"/>
<path d="M160.531 137.351V138.188L159.214 138.949V140.712L160.25 140.116L160.256 140.952L159.221 141.549L159.227 143.964L158.425 144.43L158.411 138.572L160.531 137.351Z" fill="white"/>
<path d="M161.711 136.665L161.731 142.523L160.929 142.983L160.915 137.125L161.711 136.665Z" fill="white"/>
<path d="M163.426 135.608C164.208 135.156 164.619 135.458 164.619 136.391V136.96L163.865 137.399V136.768C163.865 136.356 163.7 136.288 163.446 136.432C163.307 136.514 163.194 136.635 163.122 136.78C163.049 136.924 163.019 137.087 163.035 137.248V140.41C163.035 140.829 163.199 140.891 163.453 140.74C163.592 140.659 163.705 140.539 163.778 140.396C163.851 140.252 163.881 140.091 163.865 139.93V139.1L164.619 138.661V139.443C164.64 139.877 164.54 140.308 164.331 140.688C164.121 141.069 163.81 141.383 163.433 141.597C162.651 142.05 162.239 141.748 162.239 140.815V137.769C162.218 137.335 162.317 136.903 162.527 136.521C162.736 136.14 163.047 135.824 163.426 135.608Z" fill="white"/>
<path d="M167.288 133.448L167.295 134.284L165.909 135.08V136.713L167.014 136.082V136.912L165.916 137.543L165.923 139.265L167.302 138.462L167.309 139.299L165.12 140.561L165.106 134.703L167.288 133.448Z" fill="white"/>
<path d="M158.713 159.248L158.72 160.085L157.883 160.565L157.897 165.587L157.094 166.053L157.08 161.032L156.243 161.512V160.675L158.713 159.248Z" fill="white"/>
<path d="M160.565 158.178L161.395 163.57L160.586 164.036L160.449 163.048L159.468 163.618L159.33 164.757L158.596 165.182L159.392 158.857L160.565 158.178ZM159.564 162.767L160.339 162.314L159.948 159.57L159.577 162.754" fill="white"/>
<path d="M159.934 159.584L159.948 159.577L160.339 162.321L159.564 162.76L159.934 159.584Z" fill="#A2BE24"/>
<path d="M144.101 167.617C144.89 167.164 145.322 167.446 145.329 168.386V171.431C145.342 171.87 145.236 172.303 145.022 172.686C144.808 173.069 144.495 173.387 144.115 173.606C143.326 174.059 142.901 173.771 142.894 172.838V169.792C142.879 169.354 142.983 168.92 143.196 168.537C143.409 168.154 143.722 167.836 144.101 167.617ZM144.533 171.953V168.79C144.533 168.372 144.376 168.303 144.122 168.454C143.982 168.537 143.868 168.657 143.794 168.802C143.72 168.946 143.689 169.109 143.703 169.271V172.433C143.703 172.851 143.868 172.913 144.115 172.769C144.255 172.687 144.369 172.567 144.444 172.422C144.518 172.277 144.549 172.115 144.533 171.953Z" fill="white"/>
<path d="M144.108 168.454C144.362 168.303 144.52 168.372 144.52 168.79V171.953C144.535 172.115 144.504 172.277 144.43 172.422C144.356 172.567 144.242 172.687 144.101 172.769C143.854 172.913 143.69 172.851 143.69 172.433V169.27C143.675 169.109 143.706 168.946 143.78 168.802C143.855 168.657 143.968 168.537 144.108 168.454Z" fill="#A2BE24"/>
<path d="M149.212 164.736V165.573L148.375 166.06L148.389 171.075L147.586 171.541L147.572 166.52L146.735 167V166.163L149.212 164.736Z" fill="white"/>
<path d="M152.086 163.076L152.1 168.934L151.284 169.408L151.277 166.897L150.364 167.418L150.378 169.929L149.575 170.389L149.562 164.53L150.357 164.071L150.364 166.581L151.277 166.06L151.27 163.549L152.086 163.076Z" fill="white"/>
<path d="M154.851 161.478V162.321L153.472 163.117V164.75L154.57 164.112L154.576 164.949L153.479 165.58L153.486 167.295L154.864 166.499V167.336L152.683 168.598L152.662 162.74L154.851 161.478Z" fill="white"/>
<path d="M162.829 156.806C163.604 156.36 164.009 156.662 164.009 157.595V157.78L163.254 158.219V157.972C163.254 157.554 163.103 157.485 162.85 157.629C162.713 157.712 162.603 157.832 162.532 157.976C162.462 158.119 162.434 158.28 162.452 158.439C162.452 158.864 162.616 159.09 163.138 159.317C163.416 159.4 163.657 159.578 163.819 159.819C163.98 160.061 164.052 160.351 164.023 160.641C164.041 161.076 163.939 161.507 163.729 161.888C163.518 162.27 163.207 162.585 162.829 162.802C162.04 163.254 161.635 162.952 161.635 162.019V161.656L162.397 161.224V161.635C162.397 162.061 162.561 162.116 162.815 161.971C162.954 161.889 163.067 161.768 163.14 161.623C163.213 161.479 163.243 161.316 163.227 161.155C163.227 160.73 163.069 160.503 162.541 160.284C162.262 160.201 162.021 160.023 161.86 159.781C161.698 159.54 161.626 159.249 161.656 158.96C161.634 158.528 161.733 158.098 161.94 157.718C162.147 157.338 162.454 157.022 162.829 156.806Z" fill="white"/>
<path d="M167.123 154.391L166.012 157.65L167.137 160.25L166.314 160.723L165.532 158.836L165.285 159.516L165.292 161.32L164.489 161.779L164.475 155.921L165.271 155.461L165.285 157.993L165.292 157.986L166.321 154.858L167.123 154.391Z" fill="white"/>
<path d="M129.4 174.367C130.086 173.956 130.683 174.285 130.683 175.101V181.495C130.659 181.94 130.531 182.374 130.308 182.76C130.085 183.146 129.774 183.474 129.4 183.718L123.617 187.058C122.931 187.463 122.328 187.134 122.328 186.324V179.924C122.352 179.48 122.481 179.048 122.704 178.663C122.927 178.278 123.237 177.951 123.61 177.708L129.4 174.367Z" fill="white"/>
<path d="M129.338 153.547C129.812 153.273 130.223 153.328 130.45 153.637L126.094 160.696L124.674 159.804L122.499 160.387L126.203 163.734L130.628 155.331V160.682C130.605 161.126 130.477 161.558 130.256 161.943C130.034 162.328 129.724 162.655 129.352 162.898L123.562 166.238C122.876 166.643 122.28 166.314 122.273 165.504V159.104C122.295 158.66 122.422 158.228 122.644 157.843C122.866 157.458 123.176 157.13 123.549 156.888L129.338 153.547Z" fill="white"/>
<path d="M173.558 196.265C173.742 196.131 173.958 196.047 174.184 196.023C174.411 195.999 174.64 196.035 174.848 196.127C175.534 196.539 175.534 197.863 174.848 199.091C174.545 199.651 174.103 200.123 173.565 200.463C173.38 200.596 173.164 200.678 172.937 200.701C172.711 200.724 172.483 200.687 172.275 200.593C171.589 200.189 171.589 198.865 172.275 197.637C172.576 197.075 173.018 196.602 173.558 196.265Z" fill="white"/>
<path d="M178.154 200.051C178.367 200.182 178.367 200.586 178.154 200.957C178.063 201.128 177.928 201.273 177.763 201.375C177.707 201.416 177.641 201.441 177.572 201.447C177.504 201.453 177.434 201.44 177.372 201.41L175.225 200.195C174.787 200.811 174.23 201.331 173.585 201.725C173.291 201.938 172.946 202.069 172.584 202.105C172.223 202.142 171.858 202.081 171.527 201.931C170.382 201.279 170.375 199.139 171.527 197.163C172.018 196.275 172.726 195.527 173.585 194.989C173.881 194.779 174.225 194.648 174.586 194.61C174.946 194.571 175.31 194.626 175.643 194.769C176.659 195.345 176.782 197.081 176.007 198.837L178.154 200.051ZM174.868 199.091C175.554 197.863 175.554 196.539 174.868 196.127C174.66 196.035 174.431 195.999 174.205 196.023C173.979 196.047 173.763 196.131 173.579 196.265C173.039 196.602 172.596 197.075 172.296 197.637C171.61 198.865 171.61 200.189 172.296 200.593C172.503 200.687 172.732 200.724 172.958 200.701C173.184 200.678 173.401 200.596 173.585 200.463C174.124 200.123 174.566 199.651 174.868 199.091Z" fill="#A2BE24"/>
<path d="M174.8 191.154C178.573 188.979 181.66 190.729 181.66 195.064C181.66 199.4 178.621 204.668 174.855 206.85C171.088 209.031 167.995 207.275 167.995 202.946C167.995 198.618 171.033 193.329 174.8 191.154ZM178.154 200.957C178.367 200.586 178.367 200.182 178.154 200.051L176.007 198.837C176.782 197.081 176.659 195.345 175.643 194.769C175.31 194.626 174.946 194.571 174.586 194.61C174.225 194.648 173.881 194.779 173.585 194.989C172.726 195.527 172.018 196.275 171.527 197.163C170.389 199.139 170.396 201.279 171.527 201.931C171.858 202.081 172.223 202.142 172.584 202.105C172.946 202.069 173.291 201.938 173.585 201.725C174.23 201.331 174.787 200.811 175.225 200.195L177.372 201.41C177.434 201.44 177.503 201.453 177.572 201.447C177.641 201.441 177.707 201.416 177.763 201.375C177.928 201.273 178.063 201.128 178.154 200.957Z" fill="white"/>
<path d="M134.113 148.711L130.628 155.331L126.203 163.734L122.499 160.387L124.674 159.804L126.094 160.696L130.45 153.637L132.46 150.385L134.113 148.711Z" fill="#455A64"/>
<path d="M158.02 138.798V139.635L156.71 140.397L156.717 142.153L157.746 141.556V142.4L156.717 142.99L156.724 145.411L155.921 145.878L155.9 140.019L158.02 138.798Z" fill="white"/>
<path d="M134.058 127.671L130.573 134.291L126.142 142.695L122.444 139.34L124.612 138.764L126.032 139.649L130.306 132.727L132.398 129.338L134.058 127.671Z" fill="#455A64"/>
<path d="M129.277 132.727C129.423 132.612 129.604 132.549 129.791 132.549C129.978 132.549 130.159 132.612 130.306 132.727L126.032 139.649L124.612 138.764L122.444 139.34L126.142 142.695L130.566 134.291V139.855C130.543 140.3 130.415 140.734 130.192 141.12C129.969 141.506 129.658 141.834 129.284 142.077L123.521 145.432C122.835 145.844 122.231 145.514 122.231 144.691V138.298C122.257 137.854 122.387 137.422 122.61 137.037C122.832 136.653 123.142 136.325 123.514 136.082L129.277 132.727Z" fill="white"/>
<path d="M146.043 104.004L145.494 110.185L144.43 110.796L144.142 107.846L143.854 111.132L142.75 111.77L142.167 106.248L142.942 105.795L143.381 110.172L143.758 105.322L144.533 104.876L144.938 109.3L145.35 104.409L146.043 104.004Z" fill="white"/>
<path d="M147.593 103.044C148.382 102.584 148.814 102.873 148.821 103.812V106.851C148.835 107.291 148.729 107.726 148.516 108.11C148.302 108.494 147.988 108.813 147.607 109.033C146.818 109.486 146.392 109.197 146.386 108.258V105.219C146.371 104.781 146.475 104.347 146.688 103.964C146.9 103.581 147.213 103.263 147.593 103.044ZM148.025 107.38V104.217C148.025 103.799 147.867 103.73 147.613 103.881C147.474 103.963 147.36 104.084 147.286 104.228C147.212 104.373 147.18 104.536 147.195 104.697V107.86C147.195 108.271 147.36 108.34 147.607 108.196C147.747 108.114 147.861 107.994 147.935 107.849C148.009 107.704 148.041 107.541 148.025 107.38Z" fill="white"/>
<path d="M151.743 105.87C151.731 106.091 151.761 106.313 151.832 106.522L151.016 106.995C150.948 106.774 150.924 106.54 150.947 106.309V105.397C150.947 104.848 150.783 104.711 150.419 104.951L150.138 105.109V107.496L149.342 107.956V102.104L150.556 101.418C151.38 100.938 151.736 101.178 151.743 102.104V102.571C151.766 103.113 151.579 103.644 151.222 104.052C151.627 104.011 151.757 104.375 151.757 104.985L151.743 105.87ZM150.92 103.202V102.626C150.92 102.207 150.796 102.091 150.515 102.255L150.124 102.482V104.272L150.44 104.087C150.599 104.001 150.729 103.869 150.813 103.709C150.897 103.549 150.932 103.368 150.913 103.188" fill="white"/>
<path d="M154.906 98.8869L153.801 102.145L154.926 104.745L154.096 105.219L153.314 103.332L153.067 104.011L153.074 105.809L152.271 106.275L152.258 100.417L153.053 99.9571L153.06 102.495L153.081 102.482L154.103 99.3534L154.906 98.8869Z" fill="white"/>
<path d="M164.42 93.3989V94.229L163.584 94.716L163.597 99.7307L162.802 100.197L162.781 95.1756L161.944 95.6627V94.8258L164.42 93.3989Z" fill="white"/>
<path d="M147.367 124.097L147.38 129.949L146.626 130.388L146.612 126.19L146.07 130.704L145.315 131.143L144.719 127.335V131.486L144.019 131.89L144.005 126.039L145.116 125.394L145.713 129.215L146.255 124.742L147.367 124.097Z" fill="white"/>
<path d="M161.635 95.0042V99.4632C161.653 99.898 161.551 100.329 161.34 100.71C161.13 101.091 160.819 101.407 160.442 101.624C159.653 102.077 159.248 101.782 159.241 100.842V96.383L160.044 95.9234V100.444C160.044 100.856 160.208 100.917 160.462 100.767C160.6 100.686 160.712 100.568 160.785 100.425C160.858 100.283 160.889 100.123 160.874 99.9639V95.4432L161.635 95.0042Z" fill="white"/>
<path d="M183.958 78.0051C185.33 77.2299 186.386 77.8541 186.393 79.3771V87.7463C186.351 88.5852 186.11 89.402 185.69 90.1295C185.27 90.8571 184.683 91.4744 183.978 91.9309L122.574 127.383C121.202 128.159 120.146 127.541 120.139 126.011V117.642C120.183 116.804 120.424 115.987 120.844 115.26C121.263 114.532 121.849 113.915 122.554 113.458L133.482 107.146L132.336 108.299L130.155 111.818C130.007 111.745 129.841 111.715 129.677 111.729C129.512 111.744 129.355 111.803 129.222 111.9L123.432 115.248C123.058 115.489 122.747 115.816 122.525 116.201C122.303 116.587 122.177 117.02 122.156 117.464V123.857C122.156 124.674 122.739 124.996 123.446 124.591L129.236 121.25C129.608 121.008 129.918 120.681 130.14 120.296C130.362 119.911 130.489 119.479 130.511 119.035V113.245L133.825 106.941L183.958 78.0051ZM145.494 110.185L146.043 104.011L145.357 104.416L144.966 109.3L144.547 104.883L143.772 105.335L143.408 110.172L142.956 105.802L142.18 106.255L142.763 111.777L143.868 111.139L144.142 107.86L144.444 110.803L145.507 110.192M154.94 104.745L153.815 102.152L154.919 98.8938L154.117 99.3602L153.095 102.488V99.9502L152.299 100.417V106.268L153.101 105.802V104.004L153.348 103.318L154.13 105.205L154.961 104.725M158.809 101.096V98.098C158.809 97.1582 158.377 96.8701 157.588 97.3228C157.208 97.5419 156.895 97.8597 156.681 98.2426C156.467 98.6255 156.361 99.0591 156.374 99.4974V102.543C156.374 103.483 156.806 103.771 157.595 103.312C157.975 103.094 158.289 102.776 158.502 102.393C158.715 102.009 158.819 101.575 158.802 101.137M148.862 106.851V103.812C148.862 102.873 148.423 102.584 147.634 103.044C147.254 103.263 146.942 103.581 146.729 103.964C146.516 104.347 146.412 104.781 146.427 105.219V108.258C146.427 109.197 146.859 109.486 147.648 109.033C148.029 108.813 148.343 108.494 148.557 108.11C148.771 107.726 148.876 107.291 148.862 106.851ZM151.05 106.995L151.867 106.522C151.795 106.313 151.765 106.091 151.777 105.87V104.958C151.777 104.347 151.647 103.984 151.242 104.025C151.6 103.616 151.786 103.086 151.764 102.543V102.077C151.764 101.178 151.4 100.938 150.577 101.391L149.363 102.077V107.928L150.159 107.469V105.081L150.44 104.924C150.803 104.711 150.961 104.821 150.968 105.37V106.33C150.945 106.561 150.968 106.794 151.037 107.016M164.441 94.2495V93.4195L161.965 94.8464V95.6833L162.802 95.1962V100.218L163.597 99.7513V94.7366L164.434 94.2495M161.69 99.4837V95.0247L160.929 95.4638V99.9845C160.944 100.144 160.913 100.304 160.84 100.446C160.767 100.588 160.655 100.707 160.517 100.787C160.263 100.938 160.099 100.876 160.099 100.465V95.944L159.296 96.4036V100.863C159.296 101.802 159.708 102.097 160.497 101.645C160.874 101.428 161.185 101.112 161.395 100.731C161.606 100.35 161.708 99.9186 161.69 99.4837Z" fill="#A2BE24"/>
<path d="M153.561 203.241C154.096 202.933 154.535 203.179 154.535 203.797V209.655L159.632 206.712C160.167 206.404 160.606 206.651 160.606 207.268C160.588 207.603 160.491 207.93 160.323 208.221C160.155 208.512 159.921 208.759 159.639 208.942L154.542 211.885V217.736C154.525 218.072 154.429 218.399 154.26 218.69C154.092 218.981 153.857 219.228 153.575 219.41C153.04 219.726 152.601 219.472 152.601 218.861V213.003L147.504 215.946C146.962 216.255 146.53 216.008 146.53 215.39C146.546 215.054 146.642 214.727 146.811 214.436C146.979 214.145 147.214 213.898 147.497 213.716L152.594 210.773V204.915C152.612 204.58 152.709 204.253 152.877 203.962C153.045 203.671 153.279 203.424 153.561 203.241Z" fill="#A2BE24"/>
<path d="M153.554 200.374C158.788 197.348 163.048 199.777 163.062 205.793C163.076 211.809 158.85 219.136 153.616 222.161C148.382 225.186 144.122 222.751 144.108 216.742C144.094 210.732 148.32 203.399 153.554 200.374ZM159.653 208.942C159.934 208.759 160.169 208.512 160.337 208.221C160.505 207.93 160.602 207.604 160.62 207.268C160.62 206.651 160.181 206.404 159.646 206.712L154.549 209.655V203.797C154.549 203.179 154.11 202.933 153.575 203.241C153.293 203.424 153.059 203.671 152.891 203.962C152.723 204.253 152.626 204.58 152.608 204.915V210.774L147.49 213.716C147.207 213.898 146.972 214.145 146.804 214.436C146.635 214.727 146.539 215.054 146.523 215.39C146.523 216.008 146.955 216.255 147.497 215.946L152.594 213.003V218.861C152.594 219.472 153.033 219.726 153.568 219.41C153.85 219.228 154.085 218.981 154.253 218.69C154.422 218.399 154.518 218.072 154.535 217.736V211.885L159.632 208.942" fill="white"/>
<path d="M132.329 218.457L133.674 220.803L136.672 219.575L134.511 223.252L135.032 226.387L132.35 226.311L129.675 229.474L130.175 225.756L128.001 224.583L130.999 222.346L132.329 218.457Z" fill="#A2BE24"/>
<path d="M132.316 215.685C136.089 213.504 139.176 215.253 139.176 219.589C139.176 223.924 136.144 229.193 132.371 231.381C128.598 233.569 125.511 231.806 125.511 227.478C125.511 223.149 128.55 217.86 132.316 215.685ZM135.06 226.387L134.538 223.252L136.699 219.575L133.701 220.803L132.329 218.457L131.026 222.346L128.028 224.583L130.203 225.756L129.702 229.474L132.377 226.311L135.06 226.387Z" fill="white"/>
<path d="M163.035 177.605V178.449L161.649 179.245L161.656 180.878L162.754 180.24V181.077L161.656 181.715L161.663 183.423L163.048 182.627V183.464L160.867 184.726L160.846 178.868L163.035 177.605Z" fill="white"/>
<path d="M160.263 179.204L160.277 185.062L159.522 185.501L159.509 181.296L158.967 185.817L158.212 186.256L157.622 182.449L157.602 182.462L157.615 186.599L156.916 187.004L156.902 181.145L158.013 180.507L158.61 184.328L159.152 179.849L160.263 179.204Z" fill="white"/>
<path d="M155.173 182.915C155.434 182.771 155.592 182.833 155.592 183.251V186.414C155.61 186.575 155.582 186.738 155.508 186.884C155.435 187.029 155.321 187.149 155.18 187.23C154.926 187.381 154.768 187.312 154.762 186.894V183.731C154.746 183.57 154.777 183.408 154.85 183.264C154.922 183.119 155.035 182.998 155.173 182.915Z" fill="#A2BE24"/>
<path d="M155.173 182.078C155.962 181.625 156.394 181.913 156.394 182.846V185.892C156.408 186.331 156.302 186.765 156.088 187.148C155.874 187.531 155.56 187.848 155.18 188.067C154.391 188.52 153.959 188.238 153.959 187.299V184.253C153.942 183.814 154.047 183.379 154.261 182.995C154.475 182.612 154.791 182.294 155.173 182.078ZM155.599 186.414V183.251C155.599 182.833 155.441 182.771 155.18 182.915C155.041 182.998 154.929 183.119 154.856 183.264C154.784 183.408 154.753 183.57 154.768 183.731V186.894C154.768 187.312 154.933 187.381 155.187 187.23C155.328 187.149 155.442 187.029 155.515 186.884C155.588 186.738 155.617 186.575 155.599 186.414Z" fill="white"/>
<path d="M153.444 183.141L153.458 189L152.642 189.473L152.635 186.962L151.729 187.484L151.736 189.995L150.934 190.461L150.913 184.603L151.716 184.136L151.729 186.647L152.635 186.126L152.628 183.615L153.444 183.141Z" fill="white"/>
<path d="M148.052 186.187C148.841 185.735 149.274 186.023 149.274 186.956V190.001C149.287 190.44 149.181 190.874 148.967 191.257C148.754 191.64 148.44 191.958 148.059 192.176C147.27 192.629 146.838 192.348 146.838 191.408V188.362C146.823 187.923 146.928 187.489 147.142 187.105C147.356 186.722 147.671 186.405 148.052 186.187ZM148.485 190.523V187.367C148.485 186.942 148.327 186.88 148.073 187.024C147.933 187.108 147.82 187.23 147.746 187.376C147.672 187.521 147.64 187.685 147.655 187.847V191.003C147.655 191.421 147.812 191.49 148.066 191.346C148.207 191.262 148.321 191.141 148.395 190.995C148.469 190.849 148.5 190.686 148.485 190.523Z" fill="white"/>
<path d="M148.059 187.024C148.313 186.88 148.471 186.942 148.471 187.367V190.523C148.486 190.686 148.455 190.849 148.381 190.995C148.307 191.141 148.193 191.262 148.053 191.346C147.799 191.49 147.641 191.421 147.641 191.003V187.847C147.627 187.685 147.658 187.521 147.732 187.376C147.806 187.23 147.919 187.108 148.059 187.024Z" fill="#A2BE24"/>
<path d="M145.192 187.841C145.981 187.388 146.392 187.69 146.392 188.623V189.192L145.631 189.631V189.007C145.631 188.581 145.473 188.52 145.219 188.664C145.08 188.746 144.967 188.867 144.895 189.012C144.822 189.156 144.792 189.319 144.808 189.48V192.643C144.808 193.061 144.972 193.116 145.226 192.972C145.364 192.89 145.476 192.77 145.549 192.627C145.622 192.483 145.653 192.322 145.638 192.162V191.085L145.274 191.298V190.461L146.399 189.809V191.668C146.417 192.103 146.315 192.535 146.104 192.916C145.894 193.297 145.583 193.613 145.206 193.829C144.417 194.282 144.012 193.987 144.005 193.047V190.022C143.983 189.584 144.082 189.149 144.291 188.764C144.501 188.379 144.812 188.06 145.192 187.841Z" fill="white"/>
<path d="M141.241 170.176C141.494 170.032 141.645 170.094 141.645 170.505V173.558C141.661 173.716 141.632 173.874 141.56 174.016C141.488 174.157 141.377 174.274 141.241 174.354L140.788 174.614V170.437L141.241 170.176Z" fill="#A2BE24"/>
<path d="M141.254 169.332C142.05 168.866 142.448 169.154 142.448 170.087V173.05C142.47 173.482 142.371 173.91 142.161 174.288C141.951 174.665 141.639 174.976 141.261 175.184L139.992 175.918V170.059L141.254 169.332ZM141.659 173.558V170.505C141.659 170.094 141.508 170.032 141.254 170.176L140.801 170.437V174.614L141.254 174.354C141.391 174.274 141.502 174.157 141.574 174.016C141.646 173.874 141.675 173.716 141.659 173.558Z" fill="white"/>
<path d="M129.455 195.181C130.141 194.776 130.745 195.105 130.745 195.915V202.315C130.72 202.759 130.592 203.192 130.369 203.577C130.146 203.962 129.835 204.289 129.462 204.531L123.693 207.858C123.007 208.27 122.41 207.94 122.41 207.124V200.724C122.434 200.279 122.563 199.847 122.786 199.462C123.009 199.077 123.32 198.75 123.693 198.508L129.455 195.181Z" fill="white"/>
<path d="M184.191 161.279C185.563 160.503 186.619 161.128 186.626 162.651V171.013C186.585 171.853 186.344 172.671 185.924 173.4C185.504 174.128 184.917 174.747 184.212 175.204L122.815 210.657C121.443 211.425 120.379 210.808 120.379 209.285V200.923C120.422 200.081 120.664 199.262 121.085 198.532C121.506 197.802 122.094 197.183 122.801 196.724L184.191 161.279ZM130.765 202.315V195.915C130.765 195.105 130.182 194.776 129.476 195.181L123.693 198.522C123.32 198.764 123.009 199.091 122.786 199.476C122.563 199.861 122.434 200.293 122.41 200.737V207.138C122.41 207.954 122.986 208.283 123.693 207.872L129.482 204.531C129.856 204.289 130.166 203.962 130.389 203.577C130.612 203.192 130.741 202.759 130.765 202.315ZM160.263 185.062V179.204L159.145 179.849L158.624 184.321L158.013 180.507L156.902 181.145V187.004L157.588 186.599V182.483L158.178 186.29L158.932 185.851L159.461 181.337V185.536L160.215 185.097M153.396 189.034V183.176L152.58 183.649V186.16L151.668 186.681V184.17L150.865 184.637V190.495L151.668 190.029V187.484L152.573 186.962V189.473L153.39 189M149.287 190.022V186.976C149.287 186.043 148.855 185.755 148.066 186.208C147.686 186.426 147.373 186.744 147.16 187.127C146.947 187.51 146.843 187.944 146.859 188.382V191.394C146.859 192.334 147.291 192.615 148.08 192.162C148.46 191.944 148.774 191.626 148.988 191.243C149.202 190.86 149.308 190.426 149.294 189.988M156.408 185.906V182.86C156.408 181.927 155.976 181.639 155.187 182.092C154.806 182.309 154.492 182.627 154.279 183.01C154.066 183.394 153.962 183.828 153.98 184.266V187.278C153.98 188.218 154.412 188.499 155.201 188.046C155.575 187.83 155.884 187.517 156.096 187.141C156.308 186.764 156.416 186.338 156.408 185.906ZM146.399 189.206V188.65C146.399 187.717 145.988 187.415 145.199 187.868C144.823 188.085 144.513 188.402 144.304 188.783C144.095 189.164 143.994 189.595 144.012 190.029V193.075C144.012 194.015 144.424 194.309 145.212 193.857C145.59 193.64 145.901 193.324 146.111 192.943C146.322 192.562 146.424 192.131 146.406 191.696V189.837L145.281 190.488V191.325L145.645 191.113V192.19C145.66 192.35 145.629 192.511 145.556 192.654C145.483 192.797 145.371 192.917 145.233 192.999C144.979 193.143 144.815 193.088 144.815 192.67V189.507C144.801 189.346 144.833 189.184 144.907 189.039C144.981 188.895 145.094 188.774 145.233 188.691C145.487 188.547 145.645 188.609 145.645 189.034V189.658L146.406 189.219M163.042 178.47V177.605L160.86 178.868V184.726L163.042 183.464V182.627L161.67 183.423V181.715L162.767 181.077V180.24L161.67 180.878V179.245L163.042 178.442" fill="#A2BE24"/>
<path d="M143.559 147.078C144.348 146.626 144.773 146.914 144.78 147.847V150.92C144.795 151.358 144.691 151.792 144.478 152.175C144.265 152.558 143.953 152.876 143.573 153.095C142.784 153.547 142.352 153.259 142.345 152.326V149.28C142.325 148.837 142.428 148.397 142.642 148.008C142.856 147.62 143.174 147.298 143.559 147.078ZM143.985 151.414V148.251C143.985 147.833 143.82 147.764 143.566 147.915C143.427 147.998 143.314 148.119 143.241 148.264C143.168 148.408 143.138 148.571 143.154 148.732V151.894C143.154 152.313 143.319 152.381 143.573 152.23C143.713 152.148 143.826 152.027 143.899 151.883C143.972 151.738 144.002 151.575 143.985 151.414Z" fill="white"/>
<path d="M143.559 147.915C143.813 147.764 143.978 147.833 143.978 148.251V151.414C143.995 151.575 143.965 151.738 143.892 151.883C143.819 152.027 143.706 152.148 143.566 152.23C143.312 152.381 143.154 152.313 143.148 151.894V148.732C143.131 148.571 143.161 148.408 143.234 148.263C143.307 148.119 143.42 147.998 143.559 147.915Z" fill="#A2BE24"/>
<path d="M184.136 140.458C185.474 139.683 186.565 140.308 186.565 141.83L186.592 150.234C186.547 151.073 186.306 151.89 185.886 152.619C185.466 153.347 184.881 153.966 184.177 154.425L122.794 189.857C121.456 190.633 120.366 190.008 120.359 188.485V180.123C120.405 179.283 120.648 178.466 121.068 177.738C121.489 177.01 122.076 176.391 122.78 175.932L184.136 140.458ZM130.704 181.495V175.101C130.704 174.285 130.127 173.956 129.421 174.367L123.631 177.708C123.258 177.951 122.947 178.278 122.724 178.663C122.501 179.048 122.372 179.48 122.348 179.924V186.324C122.348 187.134 122.931 187.463 123.638 187.058L129.421 183.718C129.794 183.474 130.105 183.146 130.328 182.76C130.551 182.374 130.68 181.94 130.704 181.495ZM160.586 164.036L161.395 163.57L160.565 158.178L159.392 158.864L158.596 165.189L159.33 164.763L159.468 163.625L160.449 163.055L160.586 164.043M167.137 160.256L166.012 157.65L167.123 154.391L166.321 154.858L165.326 157.986V155.454L164.53 155.914V161.773L165.333 161.313V159.509L165.58 158.823L166.362 160.702L167.185 160.229M152.148 168.914V163.055L151.332 163.529V166.039L150.419 166.561V164.05L149.623 164.51V170.368L150.426 169.908V167.398L151.332 166.876V169.442L152.148 168.969M145.384 171.466V168.42C145.384 167.48 144.945 167.199 144.156 167.652C143.776 167.87 143.464 168.188 143.251 168.571C143.038 168.955 142.934 169.388 142.949 169.826V172.872C142.949 173.805 143.381 174.093 144.17 173.64C144.55 173.421 144.863 173.103 145.077 172.721C145.291 172.338 145.397 171.904 145.384 171.466ZM149.26 165.607V164.77L146.783 166.197V167.041L147.62 166.554V171.575L148.423 171.109V166.094L149.26 165.607ZM157.945 165.607V160.586L158.775 160.106V159.269L156.305 160.695V161.532L157.142 161.052V166.074L157.945 165.607ZM142.503 173.071V170.107C142.503 169.174 142.105 168.886 141.309 169.353L140.04 170.08V175.938L141.309 175.204C141.687 174.996 141.999 174.686 142.209 174.308C142.419 173.931 142.519 173.502 142.496 173.071M162.877 162.822C163.255 162.606 163.566 162.29 163.777 161.909C163.987 161.528 164.089 161.096 164.071 160.661C164.1 160.372 164.028 160.081 163.867 159.84C163.705 159.598 163.464 159.42 163.186 159.337C162.657 159.111 162.5 158.884 162.5 158.459C162.482 158.3 162.51 158.14 162.58 157.996C162.651 157.853 162.761 157.733 162.898 157.65C163.151 157.506 163.302 157.574 163.302 157.993V158.24L164.057 157.801V157.615C164.057 156.682 163.652 156.381 162.877 156.826C162.502 157.043 162.195 157.359 161.988 157.739C161.781 158.119 161.682 158.548 161.704 158.98C161.674 159.27 161.746 159.56 161.908 159.802C162.069 160.044 162.31 160.221 162.589 160.304C163.117 160.524 163.275 160.75 163.275 161.176C163.291 161.337 163.261 161.499 163.188 161.644C163.115 161.788 163.002 161.909 162.863 161.992C162.609 162.136 162.445 162.081 162.445 161.656V161.21L161.683 161.642V162.006C161.683 162.939 162.088 163.241 162.877 162.788M154.892 162.308V161.464L152.704 162.726V168.584L154.885 167.322V166.485L153.513 167.281V165.566L154.611 164.935V164.098L153.513 164.729V163.103L154.885 162.308" fill="#A2BE24"/>
<path d="M150.131 122.499V123.329L148.752 124.132V125.764L149.857 125.126V125.963L148.752 126.601L148.759 128.316L150.145 127.521V128.351L147.963 129.613L147.95 123.761L150.131 122.499Z" fill="white"/>
<path d="M184.074 119.638C185.446 118.87 186.503 119.494 186.51 121.01V129.38C186.466 130.219 186.224 131.036 185.804 131.765C185.385 132.493 184.799 133.112 184.095 133.571L122.691 169.017C121.353 169.792 120.263 169.168 120.256 167.645V159.275C120.299 158.435 120.542 157.617 120.963 156.889C121.384 156.16 121.971 155.542 122.677 155.084L184.074 119.638ZM130.628 155.31L134.113 148.684L132.46 150.364L130.45 153.664C130.223 153.355 129.812 153.3 129.338 153.575L123.549 156.916C123.176 157.158 122.866 157.485 122.644 157.87C122.422 158.255 122.295 158.688 122.273 159.131V165.532C122.273 166.341 122.856 166.671 123.562 166.266L129.352 162.925C129.724 162.682 130.034 162.355 130.256 161.97C130.477 161.585 130.605 161.153 130.628 160.709V155.358M144.787 150.92V147.874C144.787 146.941 144.355 146.653 143.566 147.106C143.185 147.323 142.87 147.641 142.656 148.024C142.442 148.407 142.337 148.842 142.352 149.28V152.292C142.352 153.225 142.791 153.513 143.58 153.06C143.959 152.841 144.272 152.523 144.485 152.14C144.698 151.757 144.802 151.324 144.787 150.886M155.4 144.746V141.7C155.4 140.76 154.967 140.479 154.178 140.932C153.798 141.15 153.484 141.468 153.27 141.851C153.057 142.234 152.951 142.668 152.964 143.106V146.152C152.964 147.085 153.403 147.373 154.192 146.921C154.571 146.701 154.884 146.383 155.096 146C155.309 145.617 155.414 145.184 155.4 144.746ZM151.393 147.065V144.019C151.393 143.079 150.961 142.798 150.172 143.251C149.792 143.467 149.479 143.784 149.266 144.166C149.053 144.548 148.949 144.981 148.965 145.418V148.464C148.965 149.397 149.397 149.692 150.186 149.239C150.565 149.02 150.878 148.702 151.092 148.319C151.306 147.936 151.412 147.503 151.4 147.065M148.656 145.007V144.197L146.18 145.631V146.468L147.017 145.981V151.002L147.819 150.543V145.521L148.656 145.041M141.892 150.083V149.548C141.892 148.608 141.488 148.313 140.699 148.766C140.32 148.981 140.008 149.297 139.798 149.678C139.587 150.06 139.486 150.492 139.505 150.927V153.973C139.505 154.906 139.923 155.207 140.712 154.755C141.089 154.537 141.398 154.221 141.607 153.84C141.816 153.459 141.917 153.028 141.899 152.594V150.735L140.774 151.386V152.217L141.138 152.004V153.088C141.153 153.249 141.121 153.41 141.047 153.554C140.973 153.697 140.859 153.817 140.719 153.897C140.465 154.048 140.308 153.986 140.308 153.568V150.405C140.291 150.244 140.322 150.08 140.396 149.935C140.47 149.791 140.585 149.67 140.726 149.589C140.98 149.438 141.138 149.507 141.138 149.925V150.55L141.892 150.117M164.64 136.96V136.391C164.64 135.458 164.228 135.156 163.446 135.608C163.068 135.824 162.757 136.14 162.547 136.521C162.338 136.903 162.238 137.335 162.26 137.769V140.815C162.26 141.748 162.671 142.05 163.453 141.597C163.831 141.383 164.142 141.069 164.351 140.688C164.561 140.308 164.661 139.877 164.64 139.443V138.661L163.885 139.1V139.944C163.902 140.104 163.872 140.266 163.799 140.409C163.726 140.553 163.613 140.672 163.474 140.753C163.22 140.904 163.062 140.843 163.055 140.424V137.262C163.039 137.101 163.069 136.938 163.142 136.794C163.215 136.649 163.328 136.528 163.467 136.445C163.721 136.301 163.885 136.363 163.885 136.782V137.413L164.64 136.974M167.315 134.298V133.461L165.134 134.717V140.575L167.322 139.313V138.476L165.95 139.279V137.564L167.048 136.926V136.089L165.943 136.727V135.094L167.315 134.298ZM158.048 139.649V138.812L155.928 140.033V145.892L156.73 145.425V143.004L157.759 142.414V141.57L156.73 142.167V140.404L158.048 139.649ZM160.551 138.202V137.365L158.411 138.572V144.43L159.214 143.964V141.549L160.25 140.952V140.109L159.214 140.712V138.949L160.531 138.188M161.731 142.523V136.665L160.936 137.125V142.983L161.738 142.523" fill="#A2BE24"/>
<path d="M184.019 98.8252C185.357 98.05 186.448 98.6742 186.448 100.197V108.566C186.403 109.405 186.16 110.222 185.74 110.949C185.319 111.677 184.732 112.294 184.026 112.751L122.629 148.203C121.257 148.979 120.194 148.361 120.194 146.831V138.462C120.241 137.623 120.485 136.806 120.905 136.078C121.326 135.35 121.912 134.731 122.616 134.271L134.058 127.671L132.398 129.338L130.34 132.727C130.193 132.612 130.012 132.549 129.825 132.549C129.639 132.549 129.457 132.612 129.311 132.727L123.48 136.068C123.108 136.312 122.798 136.639 122.575 137.024C122.353 137.408 122.223 137.84 122.197 138.284V144.677C122.197 145.501 122.773 145.83 123.487 145.418L129.27 142.077C129.643 141.834 129.954 141.505 130.177 141.119C130.399 140.733 130.528 140.3 130.553 139.855V134.291L134.044 127.671L184.019 98.8252ZM147.38 129.949V124.097L146.269 124.735L145.734 129.208L145.13 125.394L144.019 126.039V131.89L144.705 131.486V127.37L145.315 131.17L146.07 130.731L146.598 126.224V130.415L147.353 129.976M159.838 122.794V116.942L159.118 117.354V120.859L158.294 117.821L157.293 118.404V124.255L158.013 123.837V119.57L159.008 123.247L159.831 122.767M155.55 120.215V119.364L153.074 120.798V121.628L153.911 121.148V126.162L154.714 125.703V120.681L155.55 120.201M162.712 117.203V116.62C162.712 115.68 162.301 115.378 161.519 115.831C161.141 116.049 160.829 116.366 160.619 116.748C160.409 117.13 160.307 117.563 160.325 117.999V121.045C160.325 121.978 160.743 122.28 161.526 121.827C161.904 121.612 162.215 121.296 162.425 120.914C162.634 120.533 162.734 120.101 162.712 119.666V117.807L161.587 118.452V119.295L161.958 119.083V120.16C161.974 120.32 161.944 120.482 161.871 120.625C161.798 120.769 161.685 120.888 161.546 120.969C161.292 121.113 161.135 121.058 161.128 120.64V117.478C161.112 117.316 161.143 117.154 161.216 117.01C161.288 116.865 161.401 116.745 161.539 116.661C161.793 116.517 161.958 116.579 161.958 116.997V117.622L162.712 117.189M152.813 121.765V120.935L150.632 122.197V128.049L152.82 126.787V125.95L151.448 126.745V125.03L152.546 124.399V123.562L151.448 124.193V122.561L152.82 121.765M150.138 123.309V122.478L147.956 123.741V129.592L150.138 128.33V127.5L148.766 128.296V126.581L149.864 125.943V125.126L148.759 125.764V124.166L150.131 123.363M156.71 124.598V118.747L155.907 119.206V125.058L156.703 124.598" fill="#A2BE24"/>
<path d="M133.996 106.632L133.832 106.947L130.511 113.252L126.087 121.655L122.382 118.301L124.55 117.724L125.97 118.609L130.155 111.832L132.336 108.299L133.482 107.146L133.996 106.632Z" fill="#455A64"/>
<path d="M129.222 111.907C129.356 111.812 129.514 111.754 129.678 111.741C129.842 111.727 130.007 111.759 130.155 111.832L125.97 118.609L124.55 117.724L122.382 118.301L126.087 121.655L130.511 113.252V119.042C130.489 119.485 130.362 119.918 130.14 120.303C129.918 120.688 129.608 121.015 129.236 121.257L123.48 124.598C122.794 125.003 122.197 124.681 122.19 123.864V117.471C122.211 117.026 122.338 116.594 122.56 116.208C122.782 115.823 123.092 115.496 123.466 115.255L129.222 111.907Z" fill="white"/>
<path d="M229.638 277.261C229.097 278.962 227.231 279.936 225.447 280.08C223.663 280.224 221.907 279.716 220.151 279.394C216.213 278.708 212.42 279.394 208.489 279.298C207.199 279.307 205.912 279.167 204.654 278.88C203.39 278.584 202.245 277.909 201.375 276.945C200.882 276.356 200.558 275.645 200.435 274.887C200.355 275.457 200.397 276.038 200.559 276.59C200.721 277.143 200.999 277.654 201.375 278.091C202.245 279.055 203.39 279.73 204.654 280.025C205.912 280.31 207.199 280.448 208.489 280.437C212.42 280.533 216.213 279.826 220.151 280.54C221.907 280.855 223.67 281.356 225.447 281.226C227.224 281.095 229.097 280.108 229.638 278.406C229.808 277.816 229.854 277.197 229.776 276.588C229.751 276.816 229.705 277.041 229.638 277.261Z" fill="#263238"/>
<path d="M229.542 273.995C229.295 272.802 229.055 271.615 228.815 270.421C228.724 269.782 228.519 269.164 228.212 268.596C228.051 268.316 227.817 268.084 227.536 267.925C227.255 267.766 226.936 267.685 226.613 267.691C224.459 267.403 221.427 266.621 219.637 267.856C216.802 269.793 213.423 270.774 209.991 270.654C208.215 270.586 206.431 270.222 204.661 270.442C202.891 270.661 201.053 271.642 200.545 273.344C200.396 273.849 200.366 274.382 200.456 274.901C200.578 275.659 200.903 276.37 201.396 276.959C202.266 277.923 203.41 278.598 204.675 278.893C205.933 279.18 207.22 279.321 208.51 279.312C212.44 279.401 216.234 278.694 220.172 279.408C221.928 279.723 223.691 280.224 225.468 280.094C227.244 279.963 229.117 278.976 229.659 277.274C229.726 277.051 229.772 276.821 229.796 276.588C229.847 275.716 229.762 274.841 229.542 273.995Z" fill="#455A64"/>
<path d="M219.115 264.11L218.957 268.768C218.944 269.245 219.114 269.71 219.433 270.065C219.753 270.42 220.196 270.638 220.672 270.675C222.238 270.783 223.809 270.767 225.372 270.627C226.004 270.566 226.594 270.28 227.034 269.823C227.474 269.365 227.736 268.764 227.773 268.13L227.958 264.7L219.115 264.11Z" fill="#FFA8A7"/>
<path d="M249.539 261.627C249.521 262.316 249.304 262.985 248.915 263.554C248.363 264.225 247.58 264.666 246.72 264.789C245.687 264.971 244.623 264.858 243.652 264.461C242.681 264.064 241.842 263.4 241.232 262.546C240.649 261.695 240.313 260.701 239.757 259.802C238.919 258.638 237.884 257.631 236.697 256.825C235.512 256.019 234.471 255.02 233.617 253.868C233.213 253.306 232.948 252.656 232.845 251.971C232.743 251.286 232.805 250.586 233.027 249.93C232.913 250.084 232.816 250.249 232.739 250.424C232.477 251.115 232.39 251.86 232.485 252.593C232.581 253.325 232.857 254.023 233.288 254.623C234.162 255.805 235.226 256.834 236.437 257.668C237.648 258.501 238.704 259.539 239.558 260.735C240.127 261.634 240.464 262.663 241.06 263.534C241.675 264.407 242.524 265.088 243.51 265.498C244.496 265.909 245.578 266.032 246.631 265.852C247.512 265.723 248.313 265.268 248.874 264.576C249.378 263.78 249.607 262.84 249.526 261.901C249.553 261.826 249.546 261.73 249.539 261.627Z" fill="#263238"/>
<path d="M248.126 255.782C246.713 253.299 243.791 251.488 241.534 249.731C240.303 248.66 238.787 247.971 237.171 247.749C236.365 247.653 235.55 247.797 234.826 248.163C234.102 248.529 233.503 249.101 233.103 249.807C233.083 249.849 233.067 249.892 233.055 249.937C232.833 250.593 232.77 251.293 232.873 251.978C232.975 252.662 233.24 253.313 233.645 253.875C234.498 255.026 235.539 256.026 236.725 256.832C237.911 257.637 238.947 258.645 239.784 259.809C240.34 260.68 240.676 261.675 241.259 262.553C241.869 263.407 242.708 264.07 243.679 264.467C244.65 264.864 245.714 264.978 246.747 264.796C247.607 264.672 248.39 264.232 248.943 263.561C249.332 262.992 249.549 262.323 249.567 261.634C249.581 261.405 249.581 261.176 249.567 260.948C249.525 259.132 249.03 257.357 248.126 255.782Z" fill="#455A64"/>
<path d="M241.987 253.628V257.861C243.026 258.348 244.168 258.576 245.315 258.526C246.462 258.476 247.579 258.149 248.572 257.572L248.97 253.758L241.987 253.628Z" fill="#FFA8A7"/>
<path d="M250.081 176.789C251.357 180.596 249.793 198.7 249.052 216.069C251.796 222.628 251.062 241.266 249.478 254.485C249.478 254.485 246.734 256.18 241.746 254.485L235.497 217.956L234.612 197.328C234.612 197.328 233.041 215.644 231.244 227.395C232.938 236.396 232.513 238.09 228.335 265.77C226.881 266.501 225.277 266.882 223.65 266.882C222.023 266.882 220.418 266.501 218.964 265.77C216.598 226.881 217.469 191.435 217.915 178.689L250.081 176.789Z" fill="#37474F"/>
<path d="M251.433 153.966L253.257 157.821L248.895 162.623L249.21 174.1L263.294 161.896C263.925 161.349 264.359 160.609 264.528 159.79C264.696 158.972 264.591 158.121 264.227 157.368L259.932 148.45L251.433 153.966Z" fill="#FFA8A7"/>
<path d="M255.775 161.251C255.775 161.251 253.799 159.618 253.257 157.821L252.174 159.015C253.033 160.205 254.327 161.009 255.775 161.251Z" fill="#F28F8F"/>
<path d="M251.076 154.892C256.667 154.405 260.481 148.608 260.481 148.608C255.48 138.366 251.11 126.965 242.378 129.688L251.076 154.892Z" fill="#A2BE24"/>
<path d="M217.181 147.565V179.732C236.135 187.669 248.414 180.5 250.109 176.768C249.238 163.666 252.331 148.341 252.098 141.824C251.865 135.307 251.062 127.98 240.964 129.476L230.228 130.525L224.782 131.849L217.181 147.565Z" fill="#A2BE24"/>
<path opacity="0.4" d="M217.181 147.565V179.732C236.135 187.669 248.414 180.5 250.109 176.768C249.238 163.666 252.331 148.341 252.098 141.824C251.865 135.307 251.062 127.98 240.964 129.476L230.228 130.525L224.782 131.849L217.181 147.565Z" fill="white"/>
<path d="M184.609 139.203C184.761 139.622 184.952 140.027 185.179 140.41L197.143 160.449C197.569 161.17 198.15 161.788 198.843 162.258C199.536 162.729 200.325 163.041 201.152 163.172C201.98 163.303 202.826 163.25 203.63 163.016C204.435 162.783 205.178 162.374 205.807 161.821L213.421 155.057L205.697 146.825L201.828 150.845L190.708 136.624L189 129.167C188.884 128.658 188.66 128.18 188.344 127.765C188.028 127.35 187.627 127.007 187.168 126.759L182.435 124.214C182.258 124.118 182.054 124.081 181.855 124.111C181.656 124.141 181.471 124.235 181.33 124.379C181.234 124.477 181.161 124.596 181.116 124.727C181.071 124.857 181.055 124.996 181.07 125.133C181.085 125.27 181.131 125.402 181.203 125.52C181.275 125.637 181.373 125.737 181.488 125.812L184.918 128.042L180.418 130.704C180.159 130.856 179.946 131.075 179.801 131.339C179.657 131.602 179.585 131.899 179.595 132.199L179.643 134.36C179.653 134.81 179.828 135.241 180.136 135.57C180.443 135.899 180.861 136.103 181.31 136.144L182.051 136.212L182.222 136.665C182.649 137.79 183.502 138.702 184.596 139.203H184.609Z" fill="#FFA8A7"/>
<path d="M199.461 155.784C199.461 155.784 200.099 152.649 201.828 150.845L200.765 149.431C199.962 150.92 198.823 153.808 199.461 155.784Z" fill="#F28F8F"/>
<path d="M204.744 146.852L215.617 136.15C218.033 133.774 221.17 132.267 224.535 131.863H224.734C229.337 141.947 223.252 146.873 223.252 146.873L213.14 156.161C209.33 154.147 206.356 150.849 204.744 146.852Z" fill="#A2BE24"/>
<path d="M223.828 105.473C221.523 104.601 219.273 101.295 221.578 99.8404C222.216 99.3602 224.089 99.9159 225.598 99.8404C224.274 98.6468 223.958 97.2199 224.624 96.7672C225.289 96.3144 227.052 98.0157 230.27 97.6933C233.487 97.3709 244.566 93.8037 245.952 101.905C247.502 99.8473 249.21 101.35 249.21 101.35L246.905 102.975C250.335 107.777 249.21 113.341 240.937 124.324C239.975 125.489 238.613 126.253 237.118 126.469C235.623 126.685 234.101 126.336 232.849 125.49L229.419 117.073L226.085 113.019L223.828 105.473Z" fill="#263238"/>
<path d="M223.06 112.202L220.837 116.064L223.272 116.963L223.06 112.202Z" fill="#F28F8F"/>
<path d="M223.828 105.473C222.35 110.824 222.13 116.445 223.183 121.895C223.302 122.833 223.654 123.727 224.205 124.495C224.568 124.886 225.005 125.202 225.49 125.425C225.974 125.647 226.499 125.772 227.032 125.792C228.097 125.832 229.163 125.73 230.201 125.49V130.518C234.015 131.417 237.946 131.774 240.937 129.469V124.324C238.783 125.013 236.492 125.156 234.269 124.742C231.635 123.315 231.107 118.5 231.477 117.196C231.712 117.505 232.032 117.738 232.397 117.867C232.763 117.996 233.158 118.016 233.535 117.923C233.899 117.823 234.238 117.649 234.533 117.413C234.828 117.177 235.072 116.884 235.25 116.551C235.604 115.888 235.821 115.16 235.888 114.411C236.074 113.51 235.936 112.572 235.497 111.763C235.163 111.309 234.698 110.969 234.164 110.788C233.63 110.608 233.054 110.596 232.513 110.755C231.429 111.095 230.524 111.849 229.995 112.854C229.824 113.164 229.677 113.488 229.556 113.821C229.511 113.951 229.423 114.061 229.306 114.134C229.189 114.206 229.051 114.236 228.915 114.218C228.779 114.2 228.653 114.136 228.558 114.036C228.464 113.937 228.407 113.807 228.397 113.67C228.263 112.226 228.524 110.773 229.151 109.465C228.716 109.42 228.297 109.277 227.924 109.048C227.551 108.819 227.234 108.509 226.997 108.141C226.746 107.798 226.579 107.401 226.507 106.982C226.436 106.563 226.463 106.133 226.586 105.726C225.659 105.798 224.726 105.712 223.828 105.473Z" fill="#FFA8A7"/>
<path opacity="0.3" d="M235.161 209.916L234.475 193.082C238.824 193.082 242.865 189.83 245.938 186.743C242.981 191.998 237.267 194.33 237.267 194.33L235.161 209.916Z" fill="black"/>
<path d="M235.257 180.418C240.903 160.627 246.054 131.904 241.76 129.386C242.257 128.979 242.869 128.738 243.511 128.697C244.152 128.657 244.79 128.819 245.334 129.16L245.554 129.304C251.007 135.588 238.858 181.824 238.858 181.824L235.257 180.418Z" fill="#A2BE24"/>
<path opacity="0.3" d="M235.257 180.418C240.903 160.627 246.054 131.904 241.76 129.386C242.257 128.979 242.869 128.738 243.511 128.697C244.152 128.657 244.79 128.819 245.334 129.16L245.554 129.304C251.007 135.588 238.858 181.824 238.858 181.824L235.257 180.418Z" fill="black"/>
<path d="M239.414 181.495C239.949 193.555 238.872 203.776 233.034 206.232C227.196 208.688 218.587 205.773 215.363 204.86C212.139 203.948 206.068 200.792 204.606 198.638C204.071 192.725 206.068 186.887 207.446 184.966C208.825 183.045 239.414 181.495 239.414 181.495Z" fill="#A2BE24"/>
<path opacity="0.2" d="M239.414 181.495C239.949 193.555 238.872 203.776 233.034 206.232C227.196 208.688 218.587 205.773 215.363 204.86C212.139 203.948 206.068 200.792 204.606 198.638C204.071 192.725 206.068 186.887 207.446 184.966C208.825 183.045 239.414 181.495 239.414 181.495Z" fill="black"/>
<path d="M217.153 174.045C224.068 175.355 232.815 178.003 239.441 181.495C238.111 184.493 236.252 187.546 234.921 190.543C234.522 191.652 233.888 192.661 233.062 193.5C231.539 194.824 229.296 194.831 227.286 194.632C221.644 194.061 216.161 192.431 211.123 189.83C209.402 188.938 207.611 187.772 207.007 185.933C206.534 184.404 207.007 182.75 207.611 181.269C208.002 180.301 208.455 179.252 208.983 178.202C209.691 176.702 210.878 175.479 212.357 174.726C213.836 173.974 215.523 173.734 217.153 174.045Z" fill="#A2BE24"/>
</svg>
