<svg width="96" height="96" viewBox="0 0 96 96" fill="none" xmlns="http://www.w3.org/2000/svg">
<path d="M28.1222 7.60132H11.1283V35.7332H28.1222V7.60132Z" fill="#E0E0E0"/>
<path d="M27.5578 7.60132H10.5638V35.7332H27.5578V7.60132Z" fill="#EBEBEB"/>
<path d="M26.8359 8.17151H11.2877V35.1609H26.8359V8.17151Z" fill="#FAFAFA"/>
<path d="M23.808 11.6794H14.2483V31.6551H23.808V11.6794Z" fill="#EBEBEB"/>
<path d="M14.2483 24.5856C14.2252 22.7194 15.9033 20.8973 17.7504 20.6381C18.6316 20.5133 19.5686 20.688 20.3923 20.3501C21.8611 19.7472 22.3296 17.7946 23.808 17.2167L23.8752 31.6551H14.2483V24.5856Z" fill="#E0E0E0"/>
<path d="M90.7027 8.6554H74.4038V25.6455H90.7027V8.6554Z" fill="#E0E0E0"/>
<path d="M89.5987 8.6554H73.2998V25.6455H89.5987V8.6554Z" fill="#FAFAFA"/>
<path d="M89.6027 25.6493H73.2942V8.64966H89.6027V25.6493ZM73.3038 25.6397H89.5931V8.65926H73.3038V25.6397Z" fill="#E0E0E0"/>
<path d="M87.4079 10.9382H75.4905V23.3606H87.4079V10.9382Z" fill="#FAFAFA"/>
<path d="M75.4905 23.4432C75.4067 23.5685 75.3081 23.6833 75.1968 23.785C75.0048 23.9866 74.7379 24.2573 74.4384 24.553C74.1389 24.8487 73.8624 25.1117 73.6608 25.298C73.5577 25.4077 73.4417 25.5044 73.3152 25.586C73.3996 25.4611 73.4982 25.3464 73.6089 25.2442C73.8009 25.0522 74.0659 24.7719 74.3673 24.4762C74.6688 24.1805 74.9433 23.9156 75.1469 23.7293C75.2497 23.6207 75.365 23.5246 75.4905 23.4432Z" fill="#E0E0E0"/>
<path d="M87.408 23.4125C87.5324 23.4975 87.647 23.596 87.7497 23.7062C87.9417 23.8982 88.222 24.1651 88.5177 24.4742C88.8134 24.7834 89.0745 25.0502 89.2627 25.2538C89.3719 25.3561 89.468 25.4715 89.5488 25.5974C89.4245 25.5137 89.3104 25.4158 89.2089 25.3056C89.0073 25.1136 88.7347 24.8467 88.4409 24.5376C88.1472 24.2285 87.8803 23.9616 87.694 23.7581C87.5847 23.6552 87.4886 23.5391 87.408 23.4125Z" fill="#E0E0E0"/>
<path d="M87.3755 10.9728C87.4593 10.8475 87.5579 10.7328 87.6692 10.6311C87.8612 10.4391 88.1262 10.1568 88.4257 9.86307C88.7252 9.56931 89.0017 9.30435 89.2052 9.11619C89.3088 9.00891 89.4241 8.9136 89.5489 8.83203C89.4652 8.95631 89.3673 9.07037 89.2571 9.17187C89.0651 9.37347 88.7982 9.64611 88.4891 9.93987C88.18 10.2336 87.9131 10.5005 87.7096 10.6868C87.6084 10.7934 87.4964 10.8893 87.3755 10.9728Z" fill="#E0E0E0"/>
<path d="M75.456 11.0017C75.3306 10.9179 75.2159 10.8192 75.1142 10.7079C74.9126 10.5159 74.6419 10.251 74.3462 9.95145C74.0505 9.65193 73.7875 9.37545 73.6012 9.17193C73.4924 9.06876 73.3958 8.95345 73.3132 8.82825C73.4384 8.91152 73.5531 9.0095 73.655 9.12009C73.847 9.31209 74.1273 9.57897 74.423 9.88809C74.7187 10.1972 74.9836 10.4641 75.1699 10.6676C75.2779 10.7675 75.3739 10.8796 75.456 11.0017Z" fill="#E0E0E0"/>
<path d="M87.3755 23.3607C87.3739 23.3409 87.3739 23.321 87.3755 23.3012C87.3755 23.259 87.3755 23.2014 87.3755 23.1265C87.3755 22.971 87.3755 22.7425 87.3755 22.4564C87.3755 21.8689 87.3755 21.0126 87.3639 19.9258C87.3639 17.7486 87.3505 14.6497 87.3409 10.9383L87.387 10.9844H75.5041L75.5559 10.9306C75.5559 15.4906 75.5559 19.7626 75.5559 23.353L75.5099 23.3089L84.1153 23.3319L86.5307 23.3434H87.1719H87.3947C87.3768 23.3452 87.3588 23.3452 87.3409 23.3434H87.1681H86.5364L84.1307 23.355L75.4907 23.378H75.4446V23.3319C75.4446 19.7358 75.4446 15.4695 75.4446 10.9095V10.8865H75.5003H87.3831H87.4292V10.9441C87.4177 14.6689 87.41 17.7774 87.4043 19.9681C87.4043 21.051 87.4043 21.9034 87.3927 22.489C87.3927 22.777 87.3927 22.9978 87.3927 23.1514C87.3927 23.2225 87.3927 23.2782 87.3927 23.3185C87.3927 23.3588 87.3755 23.3626 87.3755 23.3607Z" fill="#E0E0E0"/>
<path d="M83.4375 15.1622H79.4612V19.1386H83.4375V15.1622Z" fill="#EBEBEB"/>
<path d="M66.0865 88.272C65.7486 87.9821 64.9921 87.0624 65.5758 85.9911C65.7889 85.6071 66.2439 85.4036 66.6529 85.2231C67.0618 85.0426 67.4958 84.9005 67.8356 84.6106C68.4769 84.0653 68.6535 83.161 69.0798 82.4333C69.5674 81.5981 70.4794 80.9722 71.4433 81.0164C72.5454 81.0663 73.465 81.9668 73.8817 82.994C74.2983 84.0212 74.3137 85.1616 74.3233 86.2714C74.3233 86.8839 74.3002 87.5751 73.849 87.9898C73.4343 88.3738 72.8103 88.3738 72.2458 88.3584L66.219 88.1664" fill="#F5F5F5"/>
<path d="M77.6159 71.6986H61.7644L64.6194 88.7233C64.6783 89.0783 64.8368 89.4093 65.0764 89.6778C65.316 89.9463 65.627 90.1413 65.973 90.24L66.0287 90.2554C66.0748 90.2669 66.1209 90.2823 66.1689 90.2919C66.2752 90.3128 66.3831 90.325 66.4914 90.3284V90.3456L66.5682 90.3322H73.6338C73.7628 90.3318 73.8914 90.319 74.0178 90.2938C74.4303 90.2299 74.8105 90.0324 75.1001 89.7318C75.3896 89.4311 75.5726 89.0438 75.621 88.6292L76.9977 76.898L77.0591 76.4314L77.6025 71.7869L77.6159 71.6986ZM74.6246 82.5601H72.9983L73.1634 77.6199H75.047L74.6246 82.5601ZM75.2006 77.6199H76.7596L76.1836 82.5601H74.7839L75.2006 77.6199ZM70.5542 88.0378L70.4639 83.7428H72.8082L72.6642 88.0359L70.5542 88.0378ZM68.0255 83.7428H70.3007L70.4006 88.0359H68.3519L68.0255 83.7428ZM68.2022 88.0359H66.2937C66.1113 86.8839 65.8751 85.3709 65.6198 83.7428H67.8681L68.2022 88.0359ZM67.9334 82.5601L67.5494 77.6199H70.1606L70.2719 82.5601H67.9334ZM70.4294 82.5601L70.3161 77.6199H73.0041L72.8409 82.5601H70.4294ZM70.2892 76.4333L70.1836 71.858H73.1942L73.0425 76.4333H70.2892ZM70.1318 76.4333H67.4572L67.102 71.858H70.0281L70.1318 76.4333ZM67.2978 76.4333H64.4678C64.3679 75.8016 64.2758 75.2045 64.1874 74.665C63.8918 72.8161 63.7804 72.1191 63.719 71.858H66.9446L67.2978 76.4333ZM67.39 77.6199L67.7759 82.5601H65.4335C65.3548 82.0589 65.2761 81.552 65.1954 81.0452C65.013 79.8778 64.8287 78.7124 64.6559 77.6199H67.39ZM65.2799 82.5601H63.7439L62.9145 77.6199H64.4946C64.7385 79.1444 65.0054 80.8436 65.2799 82.5601ZM65.4719 83.7447C65.7062 85.2308 65.9346 86.6957 66.1458 88.0378H64.6751L63.9359 83.7428L65.4719 83.7447ZM72.8274 88.0378L72.9714 83.7447H74.5362L74.1695 88.0378H72.8274ZM73.2114 76.4333L73.3631 71.858H75.55L75.166 76.4333H73.2114ZM63.5788 71.858C63.6422 72.1882 63.9302 73.9892 64.318 76.4333H62.7263L61.9583 71.858H63.5788ZM75.55 88.0378H74.325L74.6879 83.7428H76.0492L75.55 88.0378ZM76.9113 76.4333H75.3158L75.6998 71.858H77.4412L76.9113 76.4333Z" fill="#E0E0E0"/>
<path d="M86.6381 90.5107C86.6381 90.5395 68.2195 90.5607 45.504 90.5607C22.7885 90.5607 4.36609 90.5395 4.36609 90.5107C4.36609 90.4819 22.7808 90.4608 45.504 90.4608C68.2272 90.4608 86.6381 90.4839 86.6381 90.5107Z" fill="#263238"/>
<path d="M64.61 69.7114L42.8161 69.696C41.5575 69.695 40.3507 69.1943 39.4611 68.304C38.5715 67.4136 38.0718 66.2065 38.0718 64.9478V10.3123C38.0723 9.68799 38.1959 9.06987 38.4356 8.49336C38.6753 7.91685 39.0263 7.39328 39.4686 6.9526C39.9109 6.51192 40.4357 6.1628 41.0131 5.92521C41.5905 5.68763 42.209 5.56624 42.8334 5.56801L64.6273 5.58145C65.8859 5.58247 67.0926 6.08317 67.9823 6.97351C68.8719 7.86386 69.3716 9.07099 69.3716 10.3296L69.3601 64.9632C69.3604 65.587 69.2376 66.2047 68.999 66.781C68.7603 67.3573 68.4104 67.8809 67.9693 68.3219C67.5281 68.7629 67.0044 69.1126 66.4279 69.351C65.8515 69.5894 65.2338 69.7119 64.61 69.7114Z" fill="#455A64"/>
<path d="M64.6044 7.51495H60.3804C60.2427 7.51794 60.107 7.54803 59.9809 7.6035C59.8549 7.65897 59.741 7.73872 59.6458 7.83822C59.5506 7.93771 59.4759 8.05498 59.426 8.18334C59.3761 8.3117 59.352 8.44864 59.3551 8.58631V9.35431C59.3581 9.49199 59.334 9.62892 59.2842 9.75728C59.2343 9.88564 59.1596 10.0029 59.0644 10.1024C58.9692 10.2019 58.8553 10.2817 58.7293 10.3371C58.6032 10.3926 58.4675 10.4227 58.3298 10.4257H50.093C49.8148 10.4191 49.5505 10.3024 49.3583 10.1012C49.166 9.89994 49.0615 9.63063 49.0677 9.35239V8.58439C49.0739 8.30616 48.9694 8.03684 48.7772 7.8356C48.5849 7.63437 48.3207 7.51766 48.0424 7.51111H42.8584C42.4217 7.51061 41.9891 7.5962 41.5854 7.763C41.1817 7.92979 40.8149 8.17452 40.5059 8.48319C40.1969 8.79186 39.9517 9.15841 39.7844 9.56189C39.6172 9.96537 39.5311 10.3979 39.5311 10.8346L39.5215 64.1626C39.5215 65.0439 39.8713 65.8892 40.4941 66.5127C41.1169 67.1362 41.9618 67.4871 42.8431 67.4881L64.5928 67.4996C65.0296 67.5001 65.4622 67.4145 65.8659 67.2477C66.2696 67.0809 66.6364 66.8362 66.9454 66.5275C67.2544 66.2188 67.4996 65.8523 67.6669 65.4488C67.8341 65.0453 67.9202 64.6128 67.9202 64.1761V10.8481C67.9222 9.96644 67.5741 9.12008 66.9523 8.49505C66.3305 7.87003 65.486 7.51749 64.6044 7.51495Z" fill="#FAFAFA"/>
<path d="M60.8257 9.24487H60.5837V9.58279H60.8257V9.24487Z" fill="#263238"/>
<path d="M61.2192 9.09509H60.9773V9.58469H61.2192V9.09509Z" fill="#263238"/>
<path d="M61.6111 8.98181H61.3691V9.58469H61.6111V8.98181Z" fill="#263238"/>
<path d="M62.0046 8.76294H61.7627V9.5847H62.0046V8.76294Z" fill="#263238"/>
<path d="M65.5701 9.6H64.3586C64.3355 9.60001 64.3133 9.59097 64.2968 9.57482C64.2803 9.55867 64.2708 9.53669 64.2703 9.5136V8.91072C64.2703 8.88781 64.2794 8.86583 64.2956 8.84963C64.3118 8.83342 64.3338 8.82432 64.3567 8.82432H65.5701C65.575 8.82239 65.5805 8.82239 65.5855 8.82432C65.5871 8.82996 65.5871 8.83596 65.5855 8.8416V9.0336H65.716C65.7221 9.0336 65.728 9.03603 65.7323 9.04035C65.7366 9.04467 65.7391 9.05053 65.7391 9.05664V9.34656C65.7386 9.35233 65.7359 9.35771 65.7317 9.36163C65.7274 9.36554 65.7218 9.3677 65.716 9.36768H65.5855V9.55968C65.5908 9.56172 65.5951 9.5658 65.5975 9.57102C65.5998 9.57624 65.6 9.58218 65.5979 9.58752C65.5959 9.59287 65.5918 9.59719 65.5866 9.59953C65.5814 9.60187 65.5755 9.60204 65.5701 9.6ZM65.5471 8.86848H64.3567C64.3511 8.86848 64.3456 8.86957 64.3405 8.8717C64.3354 8.87382 64.3307 8.87693 64.3268 8.88085C64.3229 8.88478 64.3198 8.88943 64.3176 8.89456C64.3155 8.89968 64.3144 8.90517 64.3144 8.91072V9.5136C64.3144 9.51931 64.3156 9.52497 64.3178 9.53022C64.3201 9.53548 64.3233 9.54022 64.3275 9.54417C64.3316 9.54812 64.3365 9.55119 64.3418 9.5532C64.3472 9.5552 64.3529 9.5561 64.3586 9.55584H65.5471V9.36384C65.5471 9.35773 65.5495 9.35187 65.5538 9.34755C65.5581 9.34323 65.564 9.3408 65.5701 9.3408H65.6987V9.08928H65.5701C65.5672 9.08955 65.5642 9.0892 65.5614 9.08826C65.5586 9.08732 65.5561 9.08581 65.5539 9.08382C65.5517 9.08183 65.55 9.07941 65.5488 9.07671C65.5477 9.07402 65.5471 9.0711 65.5471 9.06816V8.86848Z" fill="#263238"/>
<path d="M64.4141 9.45798V8.96838H65.4489V9.18918V9.23718V9.45798H64.4141Z" fill="#263238"/>
<path d="M63.1681 9.5539C63.1676 9.53063 63.1582 9.50845 63.1417 9.49199C63.1253 9.47553 63.1031 9.46607 63.0798 9.46558C63.0564 9.46558 63.0339 9.47488 63.0173 9.49144C63.0008 9.50801 62.9915 9.53047 62.9915 9.5539C62.9912 9.56557 62.9933 9.57717 62.9977 9.588C63.002 9.59884 63.0085 9.60868 63.0168 9.61693C63.025 9.62519 63.0349 9.63168 63.0457 9.63603C63.0565 9.64037 63.0681 9.64248 63.0798 9.64222C63.1032 9.64222 63.1257 9.63291 63.1423 9.61635C63.1588 9.59978 63.1681 9.57732 63.1681 9.5539Z" fill="#263238"/>
<path d="M62.7688 9.34078L62.8821 9.45406C62.907 9.42828 62.9368 9.40778 62.9698 9.39377C63.0028 9.37977 63.0382 9.37255 63.0741 9.37255C63.1099 9.37255 63.1454 9.37977 63.1784 9.39377C63.2114 9.40778 63.2412 9.42828 63.2661 9.45406L63.3794 9.34078C63.3391 9.30051 63.2911 9.26872 63.2384 9.24728C63.1856 9.22585 63.1291 9.21521 63.0722 9.21598C62.9586 9.21608 62.8496 9.26092 62.7688 9.34078Z" fill="#263238"/>
<path d="M63.072 8.96257C62.8929 8.96043 62.7203 9.02949 62.592 9.15457L62.7034 9.26785C62.8012 9.17089 62.9334 9.11648 63.0711 9.11648C63.2088 9.11648 63.341 9.17089 63.4388 9.26785L63.552 9.15457C63.4236 9.02985 63.2511 8.96085 63.072 8.96257Z" fill="#263238"/>
<path d="M62.4001 8.97788L62.5134 9.09116C62.6596 8.94507 62.8578 8.863 63.0645 8.863C63.2711 8.863 63.4693 8.94507 63.6155 9.09116L63.7288 8.97788C63.5524 8.80201 63.3135 8.70325 63.0645 8.70325C62.8154 8.70325 62.5765 8.80201 62.4001 8.97788Z" fill="#263238"/>
<path d="M55.1772 14.1504H53.7141C53.6134 14.1504 53.5317 14.2321 53.5317 14.3328V15.3254C53.5317 15.4262 53.6134 15.5078 53.7141 15.5078H55.1772C55.2779 15.5078 55.3596 15.4262 55.3596 15.3254V14.3328C55.3596 14.2321 55.2779 14.1504 55.1772 14.1504Z" fill="#263238"/>
<path d="M53.9349 14.2388H53.7429V14.0161C53.7379 13.9208 53.7524 13.8255 53.7854 13.7361C53.8184 13.6466 53.8693 13.5648 53.935 13.4956C54.0006 13.4264 54.0797 13.3713 54.1673 13.3337C54.2549 13.296 54.3493 13.2766 54.4447 13.2766C54.54 13.2766 54.6344 13.296 54.722 13.3337C54.8097 13.3713 54.8887 13.4264 54.9544 13.4956C55.02 13.5648 55.0709 13.6466 55.1039 13.7361C55.1369 13.8255 55.1514 13.9208 55.1464 14.0161V14.162H54.9544V14.0161C54.9587 13.9465 54.9487 13.8768 54.925 13.8112C54.9013 13.7457 54.8645 13.6856 54.8167 13.6349C54.7689 13.5841 54.7113 13.5436 54.6473 13.516C54.5833 13.4883 54.5144 13.474 54.4447 13.474C54.375 13.474 54.306 13.4883 54.242 13.516C54.178 13.5436 54.1204 13.5841 54.0726 13.6349C54.0249 13.6856 53.988 13.7457 53.9643 13.8112C53.9406 13.8768 53.9306 13.9465 53.9349 14.0161V14.2388Z" fill="#263238"/>
<path d="M39.7441 47.7869C39.7629 46.0607 40.2377 44.3701 41.1205 42.8865C42.0032 41.4029 43.2625 40.179 44.7707 39.3389C46.8827 38.1869 49.3441 37.8874 51.6923 37.3479C54.0405 36.8084 56.475 35.9175 57.9265 33.9956C59.8888 31.3978 59.5144 27.7057 60.9313 24.7796C61.5901 23.4584 62.5897 22.3371 63.8267 21.5314C65.0638 20.7258 66.4934 20.2649 67.9681 20.1965V64.8385C67.9681 65.558 67.6823 66.248 67.1735 66.7568C66.6648 67.2656 65.9747 67.5514 65.2552 67.5514H42.4609C42.1044 67.5517 41.7513 67.4817 41.4219 67.3455C41.0924 67.2093 40.7929 67.0095 40.5407 66.7576C40.2884 66.5057 40.0882 66.2065 39.9515 65.8772C39.8149 65.548 39.7444 65.195 39.7441 64.8385V47.7869Z" fill="#EBEBEB"/>
<path d="M44.5442 24.5357C44.5442 22.8807 45.412 21.8938 46.6159 21.8938C47.8197 21.8938 48.6933 22.8807 48.6933 24.5357C48.6933 26.1908 47.8178 27.1796 46.6159 27.1796C45.4139 27.1796 44.5442 26.1908 44.5442 24.5357ZM48.1442 24.5357C48.1442 23.1476 47.5202 22.3834 46.6082 22.3834C45.6962 22.3834 45.0722 23.1514 45.0722 24.5357C45.0722 25.92 45.6962 26.69 46.6082 26.69C47.5202 26.69 48.148 25.92 48.148 24.5357H48.1442Z" fill="#263238"/>
<path d="M53.2109 24.4916C53.2109 26.258 52.2509 27.1796 50.8359 27.1796C50.4071 27.1979 49.9814 27.1004 49.6033 26.8973L49.8183 26.4673C50.1244 26.6441 50.4751 26.7288 50.8282 26.7111C51.9495 26.7111 52.6695 25.9911 52.6695 24.5799C52.6695 24.4628 52.6695 24.313 52.6465 24.1575C52.3873 24.7335 51.7786 25.0484 51.0586 25.0484C50.0257 25.0484 49.3057 24.4397 49.3057 23.4893C49.3057 22.5389 50.0737 21.8938 51.0797 21.8938C52.4602 21.8881 53.2109 22.8481 53.2109 24.4916ZM52.4756 23.4605C52.4756 22.8845 52.0013 22.3469 51.1028 22.3469C50.3521 22.3469 49.8337 22.7847 49.8337 23.474C49.8337 24.1633 50.3386 24.5953 51.1393 24.5953C51.9399 24.5953 52.4756 24.1057 52.4756 23.4605Z" fill="#263238"/>
<path d="M53.9904 23.6006C53.988 23.5479 53.9965 23.4953 54.0153 23.4461C54.0341 23.3968 54.0629 23.352 54.0999 23.3143C54.1368 23.2767 54.1811 23.247 54.2299 23.2273C54.2788 23.2075 54.3313 23.198 54.384 23.1993C54.4367 23.1991 54.4889 23.2093 54.5376 23.2294C54.5863 23.2495 54.6305 23.2791 54.6676 23.3164C54.7048 23.3538 54.7342 23.3981 54.754 23.4469C54.7739 23.4957 54.7838 23.548 54.7833 23.6006C54.7844 23.7077 54.7429 23.8109 54.6681 23.8875C54.5932 23.9642 54.4911 24.0081 54.384 24.0096C54.3312 24.0088 54.2791 23.9976 54.2307 23.9766C54.1823 23.9556 54.1385 23.9252 54.1019 23.8872C54.0653 23.8492 54.0366 23.8043 54.0174 23.7551C53.9983 23.7059 53.9891 23.6534 53.9904 23.6006ZM53.9904 26.7629C53.988 26.7102 53.9965 26.6576 54.0153 26.6083C54.0341 26.5591 54.0629 26.5142 54.0999 26.4766C54.1368 26.4389 54.1811 26.4093 54.2299 26.3895C54.2788 26.3697 54.3313 26.3602 54.384 26.3616C54.4367 26.3613 54.4889 26.3715 54.5376 26.3916C54.5863 26.4117 54.6305 26.4413 54.6676 26.4787C54.7048 26.516 54.7342 26.5604 54.754 26.6092C54.7739 26.6579 54.7838 26.7102 54.7833 26.7629C54.7844 26.87 54.7429 26.9731 54.6681 27.0498C54.5932 27.1264 54.4911 27.1703 54.384 27.1718C54.3312 27.1711 54.2791 27.1599 54.2307 27.1389C54.1823 27.1179 54.1385 27.0875 54.1019 27.0494C54.0653 27.0114 54.0366 26.9665 54.0174 26.9173C53.9983 26.8681 53.9891 26.8156 53.9904 26.7629Z" fill="#263238"/>
<path d="M59.1054 26.6592V27.1353H55.4574V26.7513L57.6174 24.6393C58.2049 24.0633 58.3163 23.712 58.3163 23.3549C58.3163 22.7539 57.892 22.3833 57.099 22.3833C56.8345 22.3667 56.5695 22.4099 56.3239 22.5096C56.0783 22.6093 55.8583 22.763 55.6801 22.9593L55.2961 22.631C55.6974 22.1568 56.3425 21.8899 57.1374 21.8899C58.1915 21.8899 58.8654 22.4237 58.8654 23.2915C58.8654 23.7907 58.7099 24.2361 58.011 24.9177L56.2446 26.6457L59.1054 26.6592Z" fill="#263238"/>
<path d="M59.7429 24.5357C59.7429 22.8807 60.6108 21.8938 61.8146 21.8938C63.0184 21.8938 63.892 22.8807 63.892 24.5357C63.892 26.1908 63.0165 27.1796 61.8146 27.1796C60.6127 27.1796 59.7429 26.1908 59.7429 24.5357ZM63.3429 24.5357C63.3429 23.1476 62.7189 22.3834 61.8069 22.3834C60.8949 22.3834 60.2709 23.1514 60.2709 24.5357C60.2709 25.92 60.9084 26.688 61.8242 26.688C62.74 26.688 63.3429 25.92 63.3429 24.5357Z" fill="#263238"/>
<path d="M48.5209 17.9368C48.9563 15.9111 47.6671 13.916 45.6413 13.4806C43.6156 13.0452 41.6205 14.3344 41.1851 16.3602C40.7497 18.3859 42.0389 20.381 44.0646 20.8164C46.0904 21.2518 48.0855 19.9626 48.5209 17.9368Z" fill="#E0E0E0"/>
<path d="M24.5088 46.9939C24.2381 46.8019 23.904 46.7213 23.6026 46.5792C23.3011 46.4371 23.0093 46.1952 22.9805 45.8573C22.9402 45.3657 23.4816 44.9952 23.5143 44.5133C23.5584 43.8201 22.6215 43.4419 22.4851 42.7622C22.3719 42.1978 22.8499 41.6659 22.8307 41.0899C22.8115 40.5139 22.3123 40.0857 22.0858 39.5539C21.5559 38.3289 22.5312 36.7488 21.792 35.6371C21.5678 35.3575 21.3171 35.1003 21.0432 34.8691C20.7898 34.6157 20.569 34.2931 20.5997 33.9264L19.2135 33.2966C18.7488 32.5862 17.6947 32.5593 16.9095 32.8627C16.1242 33.1661 15.4215 33.7094 14.6055 33.913C14.2061 34.0109 14.2637 33.4195 13.8605 33.5021C13.3287 33.6096 12.6778 34.2298 12.5165 34.7443C12.3552 35.2954 12.2419 35.9059 12.0461 36.4473C11.8291 37.0445 11.1898 37.4611 11.1283 38.0947C11.0592 38.832 11.8215 39.4387 11.8234 40.176C11.8234 40.9728 10.944 41.687 11.2243 42.4339C11.3856 42.8601 11.8771 43.0886 12.0499 43.511C12.2861 44.087 11.8157 44.736 11.8579 45.3638C11.9002 45.9917 12.4224 46.4525 12.9159 46.8288C14.7948 48.2953 16.8971 49.4505 19.1424 50.2502C20.1159 50.5843 21.1411 50.8397 22.1664 50.7475C23.1917 50.6553 24.2227 50.1715 24.7603 49.2845C25.2 48.5645 25.1962 47.4873 24.5088 46.9939Z" fill="#263238"/>
<path d="M20.5439 33.5788C20.4179 33.0747 20.1599 32.6133 19.7964 32.2419C19.433 31.8706 18.9772 31.6027 18.4759 31.4659C17.9746 31.329 17.446 31.3281 16.9442 31.4632C16.4425 31.5984 15.9858 31.8647 15.6211 32.2348C15.3254 32.5344 15.0911 32.9011 14.7417 33.1353C14.3462 33.4022 14.2886 33.3273 13.847 33.4982C13.4054 33.6691 12.5932 34.9036 12.6067 35.3798L12.3859 37.4649C12.4031 37.9526 13.031 38.2329 13.4918 38.0678C13.9526 37.9027 14.2598 37.4764 14.5055 37.054C14.7513 36.6316 14.9759 36.1747 15.3791 35.904C16.0415 35.4374 16.9401 35.5987 17.7331 35.76C18.526 35.9212 19.4457 36.0384 20.0659 35.5161C20.5996 35.0572 20.7148 34.2566 20.5439 33.5788Z" fill="#263238"/>
<path d="M20.9817 36.5548C20.8915 35.1974 19.9891 33.5346 18.6374 33.6748L14.4134 34.7519C14.2156 34.7735 14.033 34.8685 13.9018 35.0182C13.7706 35.1678 13.7004 35.3613 13.7049 35.5602L14.1792 45.7362H14.1484C14.1484 45.7362 15.8764 49.3746 18.6566 48.4972C19.2096 48.3225 18.7065 46.9497 18.8179 46.3276H18.8448C18.8448 46.2546 18.8448 46.1855 18.8448 46.1145C18.8994 45.6504 18.9052 45.182 18.862 44.7167C18.862 43.895 18.862 43.5647 18.862 43.5647C18.862 43.5647 20.59 43.2729 20.9491 41.0111C21.1392 39.9071 21.0796 38.062 20.9817 36.5548Z" fill="#FFBE9D"/>
<path d="M20.6323 38.2982C20.6334 38.3742 20.6046 38.4475 20.5522 38.5024C20.4998 38.5573 20.4279 38.5895 20.352 38.592C20.3151 38.5949 20.278 38.5904 20.2429 38.5787C20.2078 38.5671 20.1754 38.5486 20.1475 38.5243C20.1196 38.5 20.0968 38.4704 20.0805 38.4372C20.0642 38.4039 20.0547 38.3678 20.0525 38.3309C20.0519 38.2551 20.0809 38.1821 20.1332 38.1273C20.1855 38.0724 20.2571 38.0401 20.3328 38.0371C20.3698 38.034 20.4069 38.0383 20.4422 38.0498C20.4774 38.0614 20.51 38.0798 20.5379 38.1042C20.5659 38.1286 20.5886 38.1583 20.6048 38.1916C20.6211 38.225 20.6304 38.2612 20.6323 38.2982Z" fill="#263238"/>
<path d="M20.5824 37.5148C20.5479 37.5532 20.3271 37.3919 20.0064 37.3919C19.6858 37.3919 19.4669 37.5513 19.4304 37.5129C19.3939 37.4745 19.4496 37.4265 19.5495 37.3554C19.6846 37.2612 19.8455 37.2109 20.0103 37.2114C20.1723 37.2113 20.3302 37.2623 20.4615 37.3574C20.5671 37.4399 20.6016 37.4975 20.5824 37.5148Z" fill="#263238"/>
<path d="M17.6812 38.3999C17.6823 38.4753 17.6537 38.5482 17.6016 38.6027C17.5496 38.6573 17.4782 38.6893 17.4028 38.6918C17.3659 38.6949 17.3287 38.6906 17.2935 38.6791C17.2582 38.6675 17.2257 38.649 17.1977 38.6247C17.1698 38.6003 17.147 38.5706 17.1308 38.5373C17.1146 38.5039 17.1052 38.4677 17.1033 38.4307C17.1023 38.3552 17.1308 38.2824 17.1829 38.2279C17.2349 38.1733 17.3063 38.1413 17.3817 38.1388C17.4186 38.1357 17.4558 38.14 17.4911 38.1515C17.5263 38.163 17.5589 38.1815 17.5868 38.2059C17.6147 38.2303 17.6375 38.26 17.6537 38.2933C17.6699 38.3267 17.6793 38.3629 17.6812 38.3999Z" fill="#263238"/>
<path d="M17.5142 37.5801C17.4796 37.6185 17.2588 37.4553 16.9382 37.4572C16.6175 37.4591 16.3987 37.6166 16.3622 37.5782C16.3257 37.5398 16.3814 37.4918 16.4812 37.4188C16.6168 37.3258 16.7776 37.2762 16.942 37.2767C17.1038 37.276 17.2618 37.3264 17.3932 37.4207C17.4988 37.4956 17.5315 37.5628 17.5142 37.5801Z" fill="#263238"/>
<path d="M18.6528 39.8937C18.817 39.8406 18.9874 39.8089 19.1597 39.7996C19.2384 39.7996 19.3152 39.7765 19.3287 39.7209C19.3342 39.6386 19.3155 39.5565 19.2749 39.4847C19.1981 39.2927 19.1194 39.0911 19.0368 38.878C18.7085 38.0159 18.4608 37.3055 18.505 37.2921C18.5491 37.2786 18.8352 37.9679 19.1635 38.8281C19.2423 39.0412 19.3191 39.2447 19.3901 39.4386C19.4406 39.5347 19.4556 39.6455 19.4323 39.7516C19.4208 39.7797 19.4031 39.8048 19.3805 39.8251C19.3579 39.8454 19.331 39.8603 19.3018 39.8687C19.2578 39.8798 19.2127 39.8863 19.1674 39.8879C18.9968 39.9109 18.8239 39.9129 18.6528 39.8937Z" fill="#263238"/>
<path d="M18.8774 43.584C17.8122 43.6026 16.7628 43.3254 15.8457 42.7833C15.8457 42.7833 16.583 44.3347 18.8467 44.1273L18.8774 43.584Z" fill="#EB996E"/>
<path d="M18.5222 40.6463C18.4629 40.5712 18.3853 40.5126 18.2969 40.4759C18.2085 40.4393 18.1122 40.4259 18.0172 40.437C17.9484 40.4434 17.8816 40.4638 17.8209 40.4968C17.7602 40.5298 17.7068 40.5748 17.6639 40.629C17.6219 40.681 17.597 40.7446 17.5925 40.8113C17.5881 40.878 17.6043 40.9444 17.639 41.0015C17.69 41.0569 17.7561 41.096 17.8291 41.1141C17.9022 41.1322 17.9789 41.1284 18.0499 41.1033C18.1968 41.0511 18.332 40.9702 18.4473 40.8652C18.4824 40.8397 18.5124 40.8078 18.5356 40.7711C18.5473 40.7541 18.5535 40.7341 18.5535 40.7135C18.5535 40.6929 18.5473 40.6728 18.5356 40.6559" fill="#EB996E"/>
<path d="M17.735 40.1106C17.7849 40.1106 17.7868 40.4466 18.0767 40.6866C18.3667 40.9266 18.7276 40.8882 18.7315 40.9362C18.7353 40.9842 18.6508 41.0015 18.4991 41.0053C18.2999 41.0074 18.1062 40.9395 17.9519 40.8133C17.8048 40.6929 17.7098 40.5202 17.687 40.3314C17.6735 40.1932 17.7119 40.1087 17.735 40.1106Z" fill="#263238"/>
<path d="M17.6639 37.033C17.6332 37.1194 17.3202 37.079 16.9554 37.1232C16.5906 37.1674 16.293 37.2691 16.2431 37.1942C16.222 37.1578 16.2738 37.0771 16.3929 37.0022C16.5503 36.897 16.7307 36.8311 16.919 36.8102C17.1065 36.7882 17.2966 36.8105 17.4738 36.8755C17.5986 36.9274 17.6639 36.9926 17.6639 37.033Z" fill="#263238"/>
<path d="M20.4653 36.6124C20.4115 36.6834 20.1965 36.6124 19.9373 36.6124C19.6781 36.6124 19.4611 36.6623 19.4093 36.5874C19.3882 36.5509 19.4227 36.4799 19.5168 36.4127C19.6455 36.3322 19.7951 36.2915 19.9468 36.296C20.0986 36.3004 20.2456 36.3497 20.3693 36.4377C20.4595 36.5049 20.4903 36.5778 20.4653 36.6124Z" fill="#263238"/>
<path d="M18.5625 33.1027L18.3705 32.8569C17.0639 33.0072 15.7838 33.334 14.5651 33.8285C14.0774 34.0205 13.5859 34.2624 13.2518 34.6694C12.7949 35.2281 12.7219 36 12.6758 36.72C12.4838 39.4656 12.3129 42.288 13.1769 44.9049C13.3843 44.5709 13.7913 44.4211 14.1773 44.3462C14.5632 44.2713 14.9683 44.2464 15.3293 44.0678C15.5189 43.9649 15.6851 43.8237 15.8174 43.6531C15.9496 43.4826 16.0449 43.2864 16.0973 43.0771C16.1997 42.6538 16.1501 42.208 15.9571 41.8176C15.7478 41.3817 15.3811 40.9613 15.4656 40.487C15.5501 40.0128 16.1299 39.7075 16.2643 39.2198C16.4966 38.3769 15.3043 37.6205 15.552 36.7795C15.6063 36.628 15.6911 36.4892 15.801 36.3717C15.911 36.2541 16.0438 36.1603 16.1913 36.096C16.4793 35.952 16.7961 35.8713 17.088 35.735C17.5727 35.4988 17.9737 35.1201 18.2373 34.6496C18.5008 34.1792 18.6143 33.6394 18.5625 33.1027Z" fill="#263238"/>
<path d="M29.9827 50.3481L27.3369 54.4646C27.4392 54.6148 27.5784 54.736 27.7412 54.8167C27.904 54.8974 28.0848 54.9349 28.2662 54.9254C28.9036 54.8985 29.7792 53.3088 29.8828 52.9881C29.9865 52.6675 29.8464 52.3565 29.9404 52.1414C30.0345 51.9264 29.998 51.3389 29.998 51.3389C29.9846 51.3734 30.5702 50.5901 29.9827 50.3481Z" fill="#FFBE9D"/>
<path d="M26.6055 54.4627L27.984 49.0118C28.0051 48.9315 28.0419 48.8562 28.0923 48.7903C28.1428 48.7244 28.2058 48.6692 28.2778 48.6278L30.2803 47.4854C30.3394 47.4523 30.4087 47.442 30.4748 47.4565C30.541 47.471 30.5996 47.5093 30.6394 47.5642C30.6629 47.5967 30.679 47.6341 30.6867 47.6735C30.6943 47.713 30.6932 47.7536 30.6835 47.7926L29.2243 53.5296L26.6055 54.4627Z" fill="#263238"/>
<path d="M25.9103 58.6866L29.111 52.775L27.9052 51.214L23.4009 54.6316L24.5817 57.8802L25.9103 58.6866Z" fill="#009379"/>
<path d="M29.1494 54.0576C29.1773 53.9784 29.1979 53.8967 29.2109 53.8138C29.2321 53.5837 29.2093 53.3517 29.1437 53.1302V53.1168V53.1034C29.1717 53.0586 29.1898 53.0084 29.1968 52.9561C29.2038 52.9037 29.1994 52.8505 29.184 52.8C29.1399 52.6861 29.0614 52.5888 28.9594 52.5216L28.9248 52.4986L28.9478 52.4621L29.3107 51.9206C29.3443 51.8774 29.3726 51.8304 29.3952 51.7805C29.4097 51.7334 29.4056 51.6825 29.3837 51.6384C29.3319 51.5366 29.2553 51.4494 29.161 51.385L29.1149 51.3523L29.1514 51.3101C29.2493 51.1987 29.3587 51.0874 29.4682 50.9741C29.6555 50.7813 29.8317 50.5781 29.9962 50.3654C30.0705 50.2678 30.1348 50.163 30.1882 50.0525C30.2132 50.0032 30.2294 49.9499 30.2362 49.895C30.2362 49.8451 30.217 49.8182 30.1882 49.8125H30.1766C30.115 49.8062 30.0528 49.8161 29.9962 49.8413C29.9308 49.8654 29.8667 49.893 29.8042 49.9238C29.687 49.9872 29.5776 50.0525 29.4778 50.1158C29.2858 50.2464 29.1034 50.3693 28.9632 50.471L28.6349 50.7091C28.5984 50.7413 28.5577 50.7684 28.5139 50.7898C28.5438 50.7514 28.5787 50.7172 28.6176 50.688C28.6886 50.6246 28.7942 50.5363 28.9306 50.4269C29.0669 50.3174 29.2358 50.1907 29.4355 50.0544C29.5373 49.9853 29.6448 49.9162 29.7658 49.849C29.8277 49.8147 29.8918 49.7846 29.9578 49.7587C30.0321 49.7222 30.1163 49.7108 30.1978 49.7261H30.1862C30.2274 49.7318 30.2647 49.7536 30.2899 49.7867C30.315 49.8198 30.3261 49.8615 30.3206 49.9027C30.3144 49.9694 30.2962 50.0345 30.2669 50.0947C30.2109 50.2123 30.1426 50.3236 30.0634 50.4269C29.8985 50.6445 29.7202 50.8516 29.5296 51.047C29.4202 51.1603 29.3107 51.2717 29.2128 51.3811V51.3062C29.3232 51.382 29.4119 51.4852 29.4701 51.6058C29.4997 51.6717 29.5038 51.7463 29.4816 51.815C29.4565 51.872 29.4243 51.9256 29.3856 51.9744C29.255 52.1664 29.1302 52.3469 29.0131 52.5158V52.4544C29.1287 52.5341 29.2161 52.6484 29.2627 52.7808C29.2804 52.8415 29.285 52.9053 29.276 52.9679C29.2671 53.0304 29.2449 53.0904 29.2109 53.1437V53.1168C29.2723 53.3472 29.2847 53.5879 29.2474 53.8234C29.2361 53.8866 29.216 53.948 29.1878 54.0058C29.1648 54.0403 29.1533 54.0595 29.1494 54.0576Z" fill="#EB996E"/>
<path d="M30.6393 47.5623C30.5893 47.6074 30.5338 47.6461 30.4742 47.6775C30.3647 47.7466 30.2054 47.8445 30.0057 47.9635L29.3049 48.384L28.8902 48.624C28.7393 48.6969 28.5986 48.7892 28.4716 48.8986C28.3614 49.0194 28.2881 49.1694 28.2604 49.3306C28.2182 49.4919 28.1779 49.6455 28.1395 49.7952L27.9302 50.5805C27.8687 50.8032 27.8169 50.9837 27.7785 51.1066C27.7645 51.1732 27.7419 51.2378 27.7113 51.2986C27.7125 51.2335 27.7229 51.1688 27.742 51.1066C27.767 50.9799 27.8092 50.7975 27.8611 50.5728C27.9129 50.3482 27.9801 50.0736 28.0531 49.7818C28.0889 49.632 28.1273 49.4765 28.1683 49.3152C28.1994 49.1363 28.2806 48.9698 28.4025 48.8352C28.5373 48.7214 28.6856 48.6247 28.8441 48.5472L29.2627 48.313L29.9731 47.929C30.1766 47.8176 30.3417 47.737 30.4569 47.6717C30.5122 47.6268 30.5736 47.5899 30.6393 47.5623Z" fill="#455A64"/>
<path d="M29.3126 49.4246C29.2627 49.5437 29.257 49.655 29.2992 49.6723C29.3415 49.6896 29.4163 49.6089 29.4663 49.4899C29.5162 49.3709 29.5219 49.2614 29.4797 49.2422C29.4374 49.223 29.3626 49.3075 29.3126 49.4246Z" fill="white"/>
<path d="M19.344 46.1202C20.0323 46.3681 20.665 46.7492 21.2059 47.2417C21.7469 47.7342 22.1855 48.3285 22.4966 48.9906L26.7936 58.1337L30.4954 59.6351L27.2314 60.574L24.3322 58.4447L19.344 46.1202Z" fill="#009379"/>
<path d="M27.2352 60.574L25.6761 61.7759L17.8963 53.7734L13.4496 45.7401L13.9641 44.2463L17.4029 45.6787L18.6336 47.4988L18.9081 45.1948L19.1289 45.5039L19.488 46.4774C19.488 46.4774 22.8633 49.2863 23.5929 51.5116C24.192 53.3759 24.0096 57.2159 24.384 58.2527L27.2352 60.574Z" fill="#FAFAFA"/>
<path d="M12.6163 45.6364C12.5645 45.792 9.29088 47.1072 9.13536 48.2534C8.97984 49.3996 11.4874 58.2624 11.4874 58.2624L15.4637 61.776H25.6762L22.4371 55.7107C21.7389 54.4028 20.8556 53.2026 19.8144 52.1472C18.8544 51.1756 17.7024 49.9737 17.0995 49.2575C16.4525 48.4799 13.7088 44.8416 13.7088 44.8416L12.6163 45.6364Z" fill="#009379"/>
<path d="M14.6649 45.9993C14.8634 46.0706 15.056 46.1573 15.2409 46.2585C15.5923 46.4313 16.0742 46.6732 16.6041 46.9478L17.207 47.2627L17.1379 47.3088C17.1148 46.9504 17.1361 46.5905 17.2012 46.2374C17.2194 46.0976 17.2576 45.9612 17.3145 45.8323C17.3035 45.9713 17.2856 46.1097 17.2608 46.247C17.2158 46.5965 17.2062 46.9496 17.232 47.3011V47.3856L17.1571 47.3472L16.5619 47.04C16.032 46.7654 15.5558 46.512 15.2179 46.3238C15.0256 46.2299 14.8407 46.1214 14.6649 45.9993Z" fill="#263238"/>
<path d="M22.5369 54.0825C22.4757 54.0005 22.4212 53.9138 22.3737 53.8233L21.9571 53.0994C21.6076 52.4869 21.12 51.6441 20.5708 50.7206C20.0217 49.797 19.5091 48.9695 19.1385 48.3705L18.6988 47.6601C18.6416 47.5754 18.5915 47.4861 18.5491 47.3932C18.6208 47.4688 18.6851 47.5511 18.7411 47.6389C18.8544 47.8002 19.0137 48.0364 19.2076 48.3321C19.5916 48.9215 20.1139 49.7452 20.6668 50.6706C21.2198 51.5961 21.694 52.4447 22.0281 53.0649C22.1971 53.3759 22.3296 53.6274 22.4121 53.8041C22.4612 53.8933 22.503 53.9864 22.5369 54.0825Z" fill="#263238"/>
<g opacity="0.3">
<path d="M20.9644 60.2611C21.5577 60.3609 22.1664 60.4531 22.7577 60.3494C23.3491 60.2457 23.927 59.8637 24.1132 59.2915C24.1426 59.1048 24.2186 58.9285 24.334 58.7789C24.5625 58.5677 24.9273 58.6982 25.2364 58.6694C25.4085 58.6431 25.5722 58.5775 25.7147 58.4776C25.8572 58.3777 25.9748 58.2462 26.0582 58.0934C26.2231 57.7876 26.339 57.4579 26.4019 57.1162C26.4517 56.9514 26.4725 56.7792 26.4633 56.6073C26.4574 56.5218 26.4299 56.4392 26.3836 56.3671C26.3373 56.2949 26.2736 56.2356 26.1984 56.1945C25.9641 56.0889 25.6992 56.2425 25.4918 56.3865C23.808 57.6 22.272 59.0093 20.736 60.4109" fill="black"/>
</g>
<path d="M24.7795 53.495C24.7795 53.495 25.3651 52.151 25.6761 51.959C25.9871 51.767 27.5404 50.8665 27.5404 50.8665L27.3484 51.6057L28.8671 50.5516C29.0591 50.4268 30.1363 49.4419 30.3283 49.8259C30.4684 50.1023 29.5833 50.8319 29.4643 50.9951C29.1686 51.4003 29.2723 51.3638 29.2723 51.3638C29.2723 51.3638 29.5929 51.5558 29.4316 51.8438C29.2998 52.0647 29.1549 52.2776 28.9977 52.4812C28.9977 52.4812 29.4201 52.631 29.1743 53.1801C29.2453 53.4081 29.2598 53.6499 29.2166 53.8847C29.1475 54.2956 28.4063 55.0732 28.4063 55.0732L24.7007 56.8319L23.2108 54.3052L24.7795 53.495Z" fill="#FFBE9D"/>
<path d="M16.176 50.9683L18.5453 56.0256L23.808 53.7446C23.808 53.7446 25.9872 55.0157 25.6858 56.4057L20.9434 60.288C20.5001 60.6521 19.9875 60.9224 19.4367 61.0825C18.8858 61.2425 18.3082 61.2891 17.7389 61.2192C17.128 61.1444 16.5407 60.9376 16.0178 60.613C15.495 60.2884 15.049 59.8538 14.711 59.3395L11.2858 54.1325L9.36575 51.0009C9.05818 50.5133 8.90172 49.9456 8.91607 49.3692C8.93042 48.7929 9.11493 48.2336 9.44639 47.7619C9.6274 47.5074 9.85712 47.2914 10.1222 47.1264C10.9805 46.6061 13.5226 46.3795 16.176 50.9683Z" fill="#009379"/>
<path d="M27.8266 51.2639C27.59 51.4678 27.3326 51.646 27.0586 51.7958C26.8005 51.9734 26.5252 52.1246 26.2368 52.247C26.4752 52.0455 26.7324 51.8674 27.0048 51.7151C27.2635 51.5385 27.5387 51.3874 27.8266 51.2639Z" fill="#EB996E"/>
<path d="M29.3069 51.214C29.1016 51.4839 28.8708 51.7334 28.6176 51.959C28.3868 52.2069 28.1342 52.4337 27.863 52.6367C28.0694 52.3678 28.3002 52.1184 28.5523 51.8917C28.7831 51.6437 29.0356 51.4169 29.3069 51.214Z" fill="#EB996E"/>
<path d="M29.1091 52.3545C29.0277 52.5219 28.9186 52.6745 28.7865 52.8057C28.5945 53.038 28.4025 53.2147 28.391 53.1897C28.4732 53.0217 28.5829 52.8685 28.7155 52.7366C28.8246 52.5883 28.9576 52.4591 29.1091 52.3545Z" fill="#EB996E"/>
<path d="M29.184 53.1225C29.2051 53.1398 29.1226 53.2627 29.0189 53.4125C28.9152 53.5622 28.8269 53.6813 28.8019 53.6678C28.777 53.6544 28.8346 53.5123 28.9421 53.3587C29.0496 53.2051 29.159 53.1053 29.184 53.1225Z" fill="#EB996E"/>
<path d="M20.1369 60.7949C20.1369 60.7949 20.1369 60.7853 20.1599 60.7718L20.2348 60.7085L20.5324 60.4685L21.669 59.5699L25.7279 56.3942L25.7106 56.4269C25.7127 56.1636 25.6625 55.9026 25.5628 55.6589C25.449 55.4036 25.3025 55.1641 25.127 54.9466C24.7433 54.4934 24.2895 54.1044 23.783 53.7946H23.8271L21.1065 54.9773L18.5644 56.064L18.5222 56.0813L18.501 56.041C17.8041 54.6682 17.157 53.3779 16.5081 52.2567C16.1836 51.6941 15.863 51.1738 15.5596 50.688C15.2562 50.2022 14.9836 49.753 14.6975 49.3651C14.2765 48.7402 13.7166 48.221 13.0617 47.8483C12.9484 47.7811 12.8428 47.7293 12.7506 47.6851C12.6585 47.641 12.5836 47.6045 12.5183 47.5776L12.3762 47.5143C12.3595 47.5083 12.3434 47.5006 12.3282 47.4912C12.8979 47.6865 13.4246 47.9896 13.8796 48.384C14.2059 48.6691 14.4978 48.9913 14.7494 49.344C15.0374 49.728 15.3254 50.1811 15.623 50.665C15.9206 51.1488 16.2546 51.6672 16.583 52.2298C17.2434 53.351 17.8905 54.6413 18.5913 56.0122L18.5279 55.9891L21.0604 54.887L23.781 53.7063L23.8041 53.6967L23.8252 53.7101C24.3411 54.0273 24.8027 54.4253 25.1922 54.889C25.3717 55.1143 25.522 55.3614 25.6396 55.6243C25.7423 55.8833 25.7938 56.1598 25.7913 56.4384V56.4576L25.774 56.471L21.6959 59.6103L20.5439 60.4896L20.2386 60.72L20.158 60.7776L20.1369 60.7949Z" fill="#263238"/>
<path d="M18.2265 57.6154C18.1977 57.6039 18.3436 57.2429 18.4185 56.7763C18.4934 56.3098 18.4953 55.92 18.526 55.9181C18.5912 56.2063 18.5912 56.5054 18.526 56.7936C18.4895 57.0866 18.3871 57.3676 18.2265 57.6154Z" fill="#263238"/>
<path d="M47.1282 72.4703L49.8796 75.9167C49.8796 75.9167 54.3071 74.279 54.8716 74.8665L48.3839 80.4479L43.8777 75.2639L47.1282 72.4703Z" fill="#009379"/>
<g opacity="0.6">
<path d="M47.6314 77.3606C47.5852 77.433 47.5675 77.52 47.5817 77.6048C47.5959 77.6895 47.6409 77.766 47.7082 77.8194C47.779 77.8684 47.8658 77.8883 47.9508 77.875C48.0359 77.8618 48.1126 77.8165 48.1652 77.7484C48.2137 77.671 48.2319 77.5784 48.2163 77.4884C48.2007 77.3984 48.1524 77.3173 48.0807 77.2607C48.0013 77.2178 47.9085 77.2072 47.8215 77.2312C47.7346 77.2552 47.6602 77.3119 47.6141 77.3894" fill="white"/>
</g>
<g opacity="0.6">
<path d="M48.3839 80.448L47.95 79.9065L54.3359 74.7571C54.3359 74.7571 54.7333 74.6342 54.8754 74.8665L48.3839 80.448Z" fill="white"/>
</g>
<path d="M49.9566 75.7939C49.9834 75.8265 49.8375 75.9859 49.7646 76.2124C49.6916 76.439 49.7281 76.654 49.6878 76.6656C49.6474 76.6771 49.538 76.4544 49.6263 76.1702C49.7146 75.886 49.9393 75.7593 49.9566 75.7939Z" fill="#263238"/>
<path d="M50.88 75.4905C50.9126 75.5154 50.8224 75.6825 50.8301 75.9148C50.8377 76.1471 50.928 76.3084 50.8953 76.3353C50.8627 76.3621 50.688 76.1989 50.6841 75.9167C50.6803 75.6345 50.8531 75.4559 50.88 75.4905Z" fill="#263238"/>
<path d="M51.9666 75.9744C51.9436 76.0051 51.7631 75.8841 51.694 75.6422C51.6249 75.4003 51.717 75.2025 51.7516 75.216C51.7862 75.2294 51.7766 75.408 51.8342 75.6C51.8918 75.792 51.9954 75.9437 51.9666 75.9744Z" fill="#263238"/>
<path d="M49.2421 75.072C49.2537 75.1123 49.0713 75.1949 48.9023 75.36C48.7333 75.5251 48.6431 75.7017 48.6028 75.6902C48.5625 75.6787 48.6028 75.4483 48.7948 75.2563C48.9868 75.0643 49.2364 75.0393 49.2421 75.072Z" fill="#263238"/>
<g opacity="0.3">
<path d="M47.6735 73.1539L48.1631 73.7683L44.949 76.4794L44.4844 75.9456L47.6735 73.1539Z" fill="black"/>
</g>
<path d="M48.674 74.3942C48.6874 74.4057 48.578 74.5324 48.3476 74.6707C48.2133 74.7521 48.0695 74.8166 47.9194 74.8627C47.8299 74.8887 47.7388 74.9092 47.6468 74.9241C47.5927 74.9323 47.5377 74.9323 47.4836 74.9241C47.4439 74.9178 47.4072 74.8993 47.3786 74.871C47.35 74.8428 47.331 74.8063 47.3242 74.7667C47.3209 74.7309 47.3261 74.6948 47.3394 74.6614C47.3528 74.628 47.3739 74.5983 47.401 74.5747C47.4411 74.5377 47.4872 74.5079 47.5373 74.4863C47.7631 74.3716 48.0138 74.3149 48.267 74.3212C48.4134 74.3106 48.5596 74.3454 48.6855 74.4211C48.6855 74.4441 48.5204 74.4076 48.2689 74.4211C48.1225 74.4323 47.9781 74.4614 47.8388 74.5075C47.7574 74.5355 47.6784 74.5702 47.6026 74.6111C47.5181 74.6515 47.4586 74.7014 47.4682 74.7475C47.4682 74.7647 47.4682 74.7686 47.5066 74.7763C47.5468 74.7817 47.5875 74.7817 47.6276 74.7763C47.7135 74.7647 47.7987 74.7487 47.883 74.7283C48.026 74.6909 48.1655 74.6408 48.2996 74.5785C48.4196 74.5077 48.5447 74.4461 48.674 74.3942Z" fill="#263238"/>
<path d="M48.672 74.4748C48.672 74.4882 48.5049 74.4287 48.3168 74.2329C48.1421 74.0483 48.0218 73.8191 47.9693 73.5705C47.95 73.5125 47.946 73.4506 47.9578 73.3907C47.9696 73.3308 47.9967 73.275 48.0365 73.2287C48.0655 73.2038 48.1012 73.1881 48.1392 73.1837C48.1772 73.1792 48.2156 73.1862 48.2496 73.2037C48.2991 73.2272 48.345 73.2576 48.3859 73.294C48.4838 73.3784 48.5639 73.4815 48.6216 73.5972C48.6792 73.7129 48.7133 73.8389 48.7219 73.9679C48.7411 74.2444 48.6413 74.3961 48.6278 74.3884C48.6369 74.2522 48.6369 74.1156 48.6278 73.9794C48.6047 73.838 48.5503 73.7035 48.4685 73.5858C48.4222 73.517 48.3659 73.4555 48.3014 73.4034C48.2323 73.3439 48.1593 73.3093 48.1382 73.3381C48.1201 73.3689 48.1089 73.4031 48.1052 73.4386C48.1016 73.474 48.1056 73.5098 48.1171 73.5436C48.1321 73.6272 48.1559 73.7089 48.1881 73.7874C48.241 73.9251 48.3134 74.0544 48.4032 74.1714C48.5491 74.3653 48.6854 74.4537 48.672 74.4748Z" fill="#263238"/>
<path d="M44.1389 83.0956L43.9681 87.6037C43.9681 87.6037 48.4935 89.2914 48.5434 90.1285L39.7882 90.1113L39.7671 83.0745L44.1389 83.0956Z" fill="#009379"/>
<g opacity="0.6">
<path d="M41.2608 87.2198C41.1766 87.2452 41.1048 87.3008 41.0591 87.3759C41.0134 87.451 40.997 87.5404 41.0131 87.6268C41.0362 87.7117 41.0907 87.7847 41.1655 87.831C41.2403 87.8774 41.33 87.8936 41.4163 87.8764C41.5047 87.8477 41.5797 87.7879 41.6273 87.7081C41.675 87.6283 41.6921 87.5339 41.6755 87.4425C41.643 87.3564 41.5785 87.2862 41.4955 87.2465C41.4126 87.2068 41.3175 87.2007 41.23 87.2294" fill="white"/>
</g>
<g opacity="0.6">
<path d="M39.7881 90.1113L39.815 89.4009L48.1919 89.6831C48.1919 89.6831 48.5759 89.854 48.5375 90.1286L39.7881 90.1113Z" fill="white"/>
</g>
<path d="M44.1102 87.5519C44.1102 87.5942 43.8951 87.6134 43.6839 87.7439C43.4727 87.8745 43.3614 88.0588 43.3211 88.0415C43.2807 88.0243 43.346 87.7785 43.6052 87.6172C43.8644 87.4559 44.1198 87.5212 44.1102 87.5519Z" fill="#263238"/>
<path d="M45.0278 87.9359C45.0278 87.9763 44.8511 88.0492 44.7052 88.2297C44.5593 88.4102 44.5132 88.6022 44.4748 88.6003C44.4364 88.5983 44.4057 88.3564 44.5919 88.1356C44.7782 87.9148 45.0259 87.9014 45.0278 87.9359Z" fill="#263238"/>
<path d="M45.5463 89.0419C45.5079 89.0419 45.4484 88.8364 45.5597 88.6022C45.6711 88.368 45.8689 88.2758 45.8881 88.3123C45.9073 88.3488 45.7805 88.4716 45.6961 88.6656C45.6116 88.8595 45.5885 89.038 45.5463 89.0419Z" fill="#263238"/>
<path d="M44.0351 86.5286C44.0159 86.567 43.82 86.5075 43.5781 86.5286C43.3362 86.5497 43.148 86.6208 43.1269 86.5843C43.1058 86.5478 43.2863 86.3923 43.5704 86.3808C43.8546 86.3692 44.0562 86.494 44.0351 86.5286Z" fill="#263238"/>
<g opacity="0.3">
<path d="M44.1044 83.9884L44.0756 84.791L39.7729 84.7449L39.769 84.0191L44.1044 83.9884Z" fill="black"/>
</g>
<path d="M44.0524 85.6166C43.9093 85.6572 43.7578 85.6572 43.6147 85.6166C43.3624 85.5706 43.1213 85.4767 42.9043 85.3402C42.8546 85.3133 42.8098 85.2782 42.7718 85.2365C42.7449 85.2057 42.7285 85.1671 42.7251 85.1263C42.7216 85.0856 42.7312 85.0448 42.7526 85.0099C42.7747 84.9798 42.8036 84.9552 42.837 84.9382C42.8703 84.9212 42.9072 84.9122 42.9446 84.912C42.9998 84.9118 43.0548 84.9196 43.1078 84.935C43.3604 84.9967 43.5935 85.1208 43.7856 85.296C43.9872 85.488 44.0563 85.6435 44.0409 85.6512C44.0256 85.6589 43.9238 85.5322 43.7184 85.3766C43.5999 85.2876 43.4709 85.2135 43.3344 85.1558C43.253 85.1222 43.1688 85.0958 43.0828 85.0771C42.9907 85.0521 42.912 85.0522 42.8908 85.0925C42.8697 85.1328 42.8812 85.1155 42.9004 85.1424C42.9293 85.1719 42.9623 85.1971 42.9984 85.2173C43.072 85.2667 43.149 85.311 43.2288 85.3498C43.3646 85.4177 43.5067 85.4723 43.6531 85.513C43.7883 85.539 43.9216 85.5737 44.0524 85.6166Z" fill="#263238"/>
<path d="M43.9968 85.6781C43.9133 85.5536 43.8729 85.4053 43.8816 85.2557C43.871 84.9957 43.9307 84.7377 44.0544 84.5088C44.0783 84.4511 44.1166 84.4004 44.1657 84.3618C44.2148 84.3231 44.273 84.2977 44.3347 84.288C44.3752 84.2872 44.4151 84.2985 44.4493 84.3204C44.4835 84.3422 44.5104 84.3737 44.5267 84.4109C44.549 84.4624 44.5645 84.5166 44.5728 84.5722C44.5918 84.7032 44.5846 84.8366 44.5516 84.9648C44.5187 85.0931 44.4606 85.2134 44.3808 85.319C44.208 85.5456 44.0294 85.5974 44.0256 85.5821C44.0217 85.5667 44.1619 85.4784 44.2924 85.2614C44.3687 85.1357 44.4166 84.9948 44.4326 84.8486C44.444 84.7645 44.444 84.6793 44.4326 84.5952C44.4192 84.503 44.3846 84.4282 44.35 84.4378C44.3155 84.4474 44.231 84.5069 44.1945 84.5798C44.1516 84.6558 44.1156 84.7355 44.087 84.8179C44.037 84.9589 44.0079 85.1063 44.0006 85.2557C43.968 85.513 44.0198 85.6723 43.9968 85.6781Z" fill="#263238"/>
<path d="M39.6997 61.776L48.3627 73.2883L44.3096 76.7693L40.1394 71.3146L39.6997 61.776Z" fill="#263238"/>
<path d="M21.3561 62.327C21.3561 62.327 35.2953 58.0799 36.5721 58.1337C37.8489 58.1874 40.2719 62.7974 40.2719 62.7974L36.359 62.6553C35.3548 65.1186 33.5001 67.6473 31.4111 70.2086L23.4105 69.8361L21.3561 62.327Z" fill="#263238"/>
<path d="M32.7494 58.9709C32.7494 58.9977 31.3248 59.447 29.5507 59.975C27.7766 60.503 26.3308 60.9081 26.3232 60.8813C26.3155 60.8544 27.7459 60.4051 29.5219 59.879C31.2979 59.3529 32.7417 58.944 32.7494 58.9709Z" fill="#263238"/>
<path d="M35.9885 62.5804H39.9014C40.8538 62.5811 41.7825 62.8769 42.5599 63.427C43.3373 63.9771 43.9251 64.7546 44.2425 65.6524C44.5476 66.5183 44.6819 67.435 44.6381 68.352L44.3328 84.288H39.0662L38.9702 79.2L38.304 69.5289L33.744 69.7209L31.1597 69.5596L35.9885 62.5804Z" fill="#263238"/>
<path d="M36.1056 62.5017C36.0881 62.6152 36.0631 62.7275 36.0307 62.8377C35.9554 63.1422 35.8631 63.4421 35.7542 63.7363C35.595 64.1728 35.4024 64.5965 35.1782 65.0035C34.8988 65.5027 34.5777 65.9773 34.2182 66.4224C33.5548 67.2138 32.8444 67.9646 32.0908 68.6707L31.415 69.3215C31.3356 69.4046 31.2495 69.481 31.1577 69.55C31.2281 69.4593 31.3044 69.3733 31.3862 69.2927C31.5379 69.1315 31.7702 68.9087 32.0409 68.6207C32.7781 67.9026 33.4785 67.1478 34.1395 66.359C34.7843 65.5585 35.306 64.666 35.687 63.7113C35.8252 63.3427 35.9308 63.0393 35.9923 62.8281C36.0212 62.7164 36.0591 62.6073 36.1056 62.5017Z" fill="#455A64"/>
<path d="M40.8961 62.688C40.6582 62.6886 40.4204 62.6771 40.1837 62.6534C39.746 62.6285 39.1393 62.6112 38.4711 62.6246C37.8029 62.6381 37.1962 62.6784 36.7565 62.7072C36.5208 62.7343 36.2835 62.7465 36.0461 62.7437C36.1082 62.7221 36.1727 62.7085 36.2381 62.7033C36.3591 62.6841 36.5357 62.6611 36.7546 62.6362C37.1924 62.5901 37.7991 62.5382 38.4826 62.5248C39.0593 62.5112 39.6363 62.531 40.2106 62.5843C40.4295 62.6035 40.6061 62.6285 40.729 62.6477C40.786 62.655 40.842 62.6685 40.8961 62.688Z" fill="#455A64"/>
<path d="M39.0432 81.3695C39.0341 81.3259 39.029 81.2816 39.0278 81.237C39.0278 81.1391 39.0163 81.0143 39.0067 80.853C38.9914 80.5093 38.9702 80.0332 38.9453 79.4514C38.8934 78.2687 38.8224 76.6348 38.7091 74.8319C38.5958 73.029 38.4614 71.397 38.3635 70.2239C38.3155 69.6479 38.2771 69.1679 38.2502 68.8261C38.2387 68.6687 38.231 68.542 38.2234 68.4421C38.2179 68.3975 38.2179 68.3524 38.2234 68.3077C38.2333 68.3514 38.2404 68.3956 38.2445 68.4402L38.2906 68.8242C38.327 69.1641 38.375 69.6383 38.4365 70.2181C38.5517 71.397 38.6957 73.029 38.8109 74.8261C38.9261 76.6233 38.9837 78.2668 39.0182 79.4514C39.0298 80.0274 39.0413 80.5093 39.049 80.853C39.049 81.0105 39.049 81.1372 39.049 81.237C39.052 81.2813 39.0501 81.3257 39.0432 81.3695Z" fill="#263238"/>
<path d="M44.6456 67.7452C44.6744 67.7452 44.6552 71.3932 44.6053 75.8918C44.5554 80.3904 44.4901 84.0384 44.4632 84.0384C44.4364 84.0384 44.4536 80.3904 44.5055 75.8899C44.5573 71.3894 44.6188 67.7452 44.6456 67.7452Z" fill="#455A64"/>
<path d="M40.3487 67.15C39.9621 67.3011 39.5862 67.4781 39.2236 67.6799C38.8797 67.9137 38.5519 68.1703 38.2424 68.4479C38.3016 68.3385 38.3796 68.2403 38.4728 68.158C38.8931 67.7291 39.4128 67.4105 39.9858 67.2307C40.1012 67.1831 40.224 67.1558 40.3487 67.15Z" fill="#263238"/>
<g opacity="0.3">
<path d="M31.1597 69.552C32.2233 69.744 33.3888 69.4233 34.2989 68.855C35.2077 68.287 35.8666 67.3947 36.1421 66.359C36.2592 65.9001 36.2937 65.424 36.4109 64.9651C36.5032 64.494 36.7547 64.0689 37.1232 63.7612C37.5686 63.4291 38.6592 63.2179 38.9933 62.7724C38.9933 62.7072 37.6915 62.8569 37.2557 62.8819C36.7795 62.9068 35.9827 63.0278 36 62.9721C35.874 63.4335 35.7201 63.8868 35.5392 64.3296C34.5907 65.9596 32.5075 68.3616 31.1597 69.5596" fill="black"/>
</g>
<path d="M9.43872 80.8204L10.921 90.5107H12.3898L11.6659 80.8588L9.43872 80.8204Z" fill="#263238"/>
<path d="M35.5103 80.8588V90.5107H37.0616L37.6395 80.8204L35.5103 80.8588Z" fill="#263238"/>
<path d="M9.17566 50.88C9.17566 50.88 7.10014 50.9626 6.46462 51.84C5.34526 53.376 5.97502 54.7046 5.91166 55.1578C5.8483 55.6109 9.4387 80.8205 9.4387 80.8205H10.9171L37.632 81.0682L38.9222 77.952L38.304 69.5213L31.1597 69.552C31.1597 69.552 28.2336 61.1539 25.6761 60.5933C23.9481 60.2093 19.8758 60.3475 17.4201 60.4742C16.8202 60.5054 16.2226 60.3779 15.6877 60.1045C15.1528 59.8311 14.6993 59.4216 14.3731 58.9171L9.17566 50.88Z" fill="#455A64"/>
<path d="M32.8608 79.8297C32.8608 79.8297 32.7129 79.8489 32.4288 79.8623C32.1446 79.8758 31.726 79.8854 31.1846 79.8892C30.0998 79.9046 28.5273 79.9084 26.5766 79.9065C22.6579 79.9065 17.1955 79.8739 11.0246 79.8201H10.9843V79.7817C10.8729 79.2537 10.7596 78.7103 10.6444 78.1593C10.5292 77.6082 10.4198 77.0438 10.3065 76.4774C8.96253 69.6383 8.17917 63.3715 7.75677 58.8268C7.54365 56.5555 7.41693 54.7123 7.33629 53.4374C7.30173 52.8038 7.27293 52.3103 7.25565 51.9705C7.25565 51.8054 7.24221 51.6787 7.23645 51.5865C7.23069 51.4943 7.23645 51.4559 7.23645 51.4559C7.23645 51.4559 7.23645 51.5001 7.24989 51.5865C7.26333 51.6729 7.26525 51.8035 7.27677 51.9705C7.29981 52.3084 7.33437 52.8019 7.37661 53.4355C7.46877 54.7084 7.60701 56.5497 7.82781 58.821C8.25597 63.3599 9.04509 69.6211 10.3852 76.4563C10.4979 77.0233 10.6105 77.5833 10.7232 78.1363C10.8358 78.6892 10.9491 79.23 11.063 79.7587L11.015 79.7203L26.567 79.8412L31.175 79.8527H32.4192C32.5612 79.8527 32.6668 79.8412 32.7398 79.8412L32.8608 79.8297Z" fill="#263238"/>
<path d="M32.5786 81.0239C32.5773 80.9833 32.5812 80.9426 32.5902 80.9029C32.6036 80.8146 32.619 80.7013 32.6401 80.5631C32.6612 80.4249 32.6938 80.2348 32.7169 80.0236C32.7399 79.8124 32.7783 79.5743 32.7956 79.3074C32.8129 79.0405 32.8474 78.7525 32.859 78.4377C32.8705 78.1228 32.8801 77.7906 32.8858 77.4373C32.8821 76.6726 32.8372 75.9086 32.7514 75.1487C32.6589 74.3897 32.5269 73.636 32.3559 72.8908C32.1946 72.2034 32.0218 71.5929 31.8548 71.0841C31.7799 70.8287 31.6935 70.6041 31.6244 70.4025C31.5553 70.2009 31.4919 70.03 31.4324 69.8917L31.3134 69.5692C31.2968 69.5325 31.2852 69.4937 31.2788 69.454C31.3003 69.4879 31.3183 69.524 31.3326 69.5615L31.4689 69.8764C31.5284 70.0146 31.5994 70.1836 31.6609 70.3833C31.7223 70.5829 31.826 70.8076 31.9066 71.0629C32.0814 71.5679 32.2638 72.1804 32.4308 72.8697C32.6071 73.6175 32.7424 74.3745 32.8359 75.1372C32.9214 75.9022 32.9637 76.6714 32.9626 77.4412C32.9626 77.7964 32.9511 78.1324 32.9262 78.4473C32.9012 78.7621 32.8801 79.054 32.8513 79.3189C32.8225 79.5839 32.786 79.8258 32.7553 80.0351C32.7246 80.2444 32.6938 80.4191 32.6631 80.5727C32.6324 80.7263 32.6113 80.8223 32.594 80.9106C32.5927 80.9488 32.5875 80.9867 32.5786 81.0239Z" fill="#263238"/>
<path d="M12.9965 62.951C13.0293 62.9174 13.0653 62.8872 13.104 62.8607C13.1865 62.7974 13.296 62.7167 13.4265 62.613L13.6627 62.4383C13.751 62.3788 13.8547 62.3212 13.9603 62.2559C14.1988 62.1018 14.447 61.9633 14.7033 61.8412L15.1488 61.6319C15.3024 61.5551 15.4733 61.4994 15.6441 61.4284C15.815 61.3574 15.9936 61.2844 16.1817 61.2249L16.7577 61.0329C17.6277 60.7768 18.517 60.5919 19.4169 60.4799C20.3137 60.3615 21.2177 60.3064 22.1222 60.3148C22.5389 60.3148 22.9344 60.3417 23.3049 60.3551C23.6755 60.3686 24.0173 60.4127 24.3302 60.4569C24.8237 60.5204 25.3134 60.6108 25.7971 60.7276L26.1811 60.8351C26.227 60.8463 26.2719 60.8611 26.3155 60.8793C26.2681 60.8756 26.2211 60.8672 26.1753 60.8543L25.7798 60.7641C25.4381 60.693 24.9369 60.599 24.3129 60.5279C24.0019 60.4876 23.6582 60.4684 23.2915 60.4377C22.9248 60.407 22.5235 60.3974 22.1126 60.407C21.2138 60.4047 20.3159 60.4618 19.4246 60.5778C18.5319 60.6896 17.6493 60.8706 16.7846 61.1193L16.2086 61.2978C16.0166 61.3554 15.8457 61.4322 15.6729 61.4898C15.5001 61.5474 15.3312 61.6127 15.1776 61.6818C15.024 61.751 14.8742 61.8239 14.7321 61.8911C14.4763 62.0096 14.2275 62.143 13.9872 62.2905C13.8797 62.3519 13.7779 62.4076 13.6857 62.4633L13.4477 62.6322L13.1155 62.8626C13.0786 62.8956 13.0387 62.9252 12.9965 62.951Z" fill="#263238"/>
<path d="M28.8787 64.3199C28.8787 64.3199 28.8787 64.3411 28.8595 64.3833C28.8403 64.4255 28.8268 64.4851 28.7942 64.5657C28.6947 64.7933 28.562 65.0048 28.4006 65.1935C28.1396 65.4898 27.8266 65.7357 27.4771 65.9193C27.2584 66.0314 27.0311 66.1257 26.7974 66.2015C26.5327 66.2803 26.2615 66.3356 25.9871 66.3667C25.358 66.4204 24.7244 66.3842 24.1055 66.2591C23.4355 66.1401 22.7385 65.9462 21.9935 65.7695C21.2277 65.5672 20.4394 65.4627 19.6473 65.4585C19.2307 65.4645 18.8171 65.5292 18.4185 65.6505C18.0086 65.7769 17.623 65.9716 17.278 66.2265C16.6065 66.7474 16.0408 67.392 15.6115 68.1254C15.1718 68.8223 14.8243 69.5423 14.4595 70.2086C14.1218 70.8457 13.719 71.446 13.2575 71.9999C12.854 72.4891 12.3506 72.8865 11.7811 73.1654C11.3082 73.3933 10.7928 73.5196 10.2681 73.5359C9.87329 73.5455 9.48087 73.4722 9.11609 73.3209C8.98182 73.2649 8.85324 73.1961 8.73209 73.1155C8.63225 73.0406 8.54009 72.9753 8.48633 72.9235L8.35385 72.7833C8.32313 72.7507 8.30969 72.7334 8.30969 72.7334C8.30969 72.7334 8.32889 72.7468 8.35961 72.7756L8.49977 72.9081C8.56313 72.9619 8.64953 73.0233 8.74745 73.1001C8.8694 73.1756 8.99792 73.2398 9.13145 73.2921C9.49242 73.4336 9.87874 73.499 10.2662 73.4841C10.7807 73.4654 11.2858 73.3412 11.7503 73.1193C12.3081 72.8416 12.8008 72.449 13.1961 71.9673C13.6507 71.413 14.0471 70.8134 14.3788 70.1779C14.7455 69.5135 15.0931 68.7916 15.5308 68.087C15.9668 67.3448 16.541 66.6931 17.2223 66.167C17.576 65.9065 17.9705 65.7067 18.3897 65.5756C18.798 65.4536 19.2212 65.389 19.6473 65.3836C20.448 65.3888 21.2448 65.4959 22.0185 65.7023C22.7577 65.8828 23.4527 66.0863 24.1151 66.2015C24.7275 66.3266 25.3543 66.366 25.9775 66.3187C26.2472 66.2905 26.5139 66.2385 26.7743 66.1631C27.0059 66.0911 27.2312 66.0006 27.4483 65.8924C27.7941 65.7154 28.1055 65.4781 28.3679 65.1916C28.5887 64.9338 28.7616 64.6386 28.8787 64.3199Z" fill="white"/>
<path d="M38.6439 76.6079L38.5594 76.6291L38.3117 76.679C38.1812 76.7111 38.053 76.7515 37.9277 76.7999C37.8456 76.8294 37.7654 76.864 37.6877 76.9036C37.5965 76.9434 37.508 76.9889 37.4227 77.0399C36.9788 77.2956 36.5658 77.6017 36.192 77.9519C35.7466 78.3551 35.2704 78.8486 34.6867 79.3343C34.3832 79.5931 34.0523 79.8178 33.6999 80.0044C33.5115 80.104 33.3157 80.1887 33.1143 80.2579L32.7975 80.3443C32.6891 80.3687 32.5795 80.3873 32.4691 80.3999C32.0071 80.4561 31.5389 80.4327 31.0848 80.3308C30.6056 80.2186 30.1424 80.0464 29.7062 79.8182C28.7805 79.3195 27.9239 78.7017 27.1584 77.9807C26.352 77.2492 25.5283 76.4755 24.5683 75.8419C24.098 75.5261 23.5888 75.2724 23.0534 75.0873C22.5337 74.9107 21.9851 74.8345 21.4368 74.8627C20.9079 74.8992 20.3887 75.0238 19.9008 75.2313C19.4313 75.4308 18.9787 75.6677 18.5472 75.9398C17.6986 76.4639 16.9267 77.0246 16.1414 77.4527C14.3432 78.4202 12.2893 78.8065 10.2624 78.5587C9.8258 78.5088 9.39418 78.4221 8.97217 78.2995C9.00122 78.3021 9.03008 78.3066 9.05857 78.3129L9.30625 78.3667C9.52321 78.4127 9.84769 78.4723 10.2662 78.5203C11.4534 78.6514 12.6545 78.5688 13.8125 78.2764C14.6102 78.0736 15.3791 77.7711 16.1011 77.3759C16.8691 76.9478 17.6486 76.3871 18.4992 75.8572C18.9342 75.5815 19.3907 75.3414 19.8643 75.1391C20.3616 74.9249 20.8911 74.7951 21.431 74.7551C21.9916 74.7253 22.5527 74.8028 23.0842 74.9836C23.6279 75.1706 24.1444 75.4288 24.6202 75.7516C25.5917 76.391 26.4173 77.1686 27.2218 77.9001C27.9804 78.6165 28.8291 79.231 29.7466 79.7279C30.1746 79.9612 30.6308 80.1387 31.104 80.2559C31.5476 80.358 32.0056 80.3827 32.4576 80.3289C32.566 80.3169 32.6737 80.299 32.7802 80.2751L33.0912 80.1945C33.289 80.1262 33.4816 80.0435 33.6672 79.9468C34.0165 79.7652 34.3443 79.5449 34.6445 79.2902C35.2205 78.8121 35.7082 78.3302 36.1574 77.9231C36.5341 77.5695 36.951 77.2615 37.3997 77.0054C37.4868 76.9551 37.5772 76.9108 37.6704 76.8729C37.7489 76.8327 37.8304 76.7987 37.9142 76.7711C38.0445 76.7261 38.1772 76.6883 38.3117 76.6579L38.5613 76.6175L38.6439 76.6079Z" fill="white"/>
<path d="M11.9232 55.6262C11.9168 55.7088 11.8993 55.7902 11.8713 55.8681C11.8073 56.0857 11.7211 56.2961 11.614 56.496C11.2652 57.1656 10.7194 57.7121 10.0503 58.062C9.38119 58.4118 8.62092 58.5481 7.87196 58.4525C7.64725 58.4263 7.42589 58.3768 7.21148 58.3046C7.13087 58.2827 7.05343 58.2504 6.98108 58.2086C7.27608 58.2881 7.57636 58.3465 7.87964 58.3833C8.61318 58.4585 9.35265 58.3166 10.0063 57.9753C10.6599 57.634 11.1989 57.1083 11.5564 56.4633C11.6975 56.1929 11.8201 55.9133 11.9232 55.6262Z" fill="white"/>
<path d="M72.0097 30.3975H35.7102C34.9743 30.3975 34.3777 30.994 34.3777 31.7299V41.5565C34.3777 42.2924 34.9743 42.889 35.7102 42.889H72.0097C72.7456 42.889 73.3422 42.2924 73.3422 41.5565V31.7299C73.3422 30.994 72.7456 30.3975 72.0097 30.3975Z" fill="white"/>
<path d="M72 42.889C72.0863 42.8832 72.1721 42.873 72.2573 42.8582C72.5068 42.8075 72.7363 42.6855 72.9178 42.5069C73.0527 42.3784 73.1576 42.2217 73.225 42.048C73.3033 41.8371 73.3354 41.6119 73.3191 41.3875C73.3191 40.8979 73.3191 40.3315 73.3191 39.696C73.3191 38.4211 73.3191 36.864 73.3191 35.0573C73.3191 34.153 73.3191 33.1853 73.3191 32.16C73.3358 31.9031 73.3203 31.6451 73.273 31.392C73.2049 31.1343 73.0591 30.9039 72.8554 30.7321C72.6516 30.5603 72.3999 30.4555 72.1344 30.432C71.8637 30.4205 71.5776 30.432 71.2935 30.432L35.712 30.4474C35.5025 30.4475 35.2962 30.4989 35.1111 30.5971C34.9267 30.695 34.7686 30.836 34.6503 31.008C34.5341 31.1803 34.4604 31.3777 34.4352 31.584C34.4179 31.7875 34.4352 32.0102 34.4352 32.2214V34.777C34.4352 36.4691 34.4352 38.1331 34.4352 39.769V40.992C34.4352 41.1955 34.4352 41.399 34.4352 41.5987C34.4432 41.7931 34.4943 41.9833 34.585 42.1555C34.6758 42.3254 34.8035 42.4729 34.9586 42.5871C35.1137 42.7014 35.2924 42.7796 35.4816 42.816C35.6728 42.8372 35.8654 42.8443 36.0576 42.8371H41.28L57.2717 42.8486L68.0525 42.864L70.9843 42.8736H71.7523H72.0115C72.0115 42.8736 71.9251 42.8736 71.7523 42.8736H70.9843H68.0525L57.2717 42.889L41.28 42.9005H36.0653C35.8647 42.9089 35.6637 42.9012 35.4643 42.8774C35.1545 42.8219 34.873 42.6618 34.6669 42.4238C34.4608 42.1859 34.3424 41.8845 34.3315 41.5699C34.3315 41.3645 34.3315 41.1648 34.3315 40.9613V32.1869C34.3315 31.9699 34.3315 31.7645 34.3411 31.5379C34.3661 31.3144 34.4455 31.1003 34.5724 30.9146C34.6993 30.7288 34.8697 30.577 35.0688 30.4723C35.2681 30.3665 35.4902 30.3111 35.7159 30.311L71.2877 30.3264C71.5738 30.3264 71.8522 30.3264 72.1344 30.3264C72.413 30.3519 72.677 30.4622 72.8909 30.6424C73.1048 30.8227 73.2583 31.0642 73.3306 31.3344C73.3649 31.464 73.3804 31.5978 73.3767 31.7318V32.1158C73.3767 33.1411 73.3767 34.1088 73.3767 35.0131C73.3767 36.8198 73.3767 38.377 73.3767 39.6518C73.3767 40.2874 73.3767 40.8538 73.3767 41.3434C73.3927 41.5713 73.3586 41.8 73.2768 42.0134C73.1922 42.22 73.0576 42.4022 72.8849 42.5436C72.7123 42.6851 72.5072 42.7813 72.288 42.8237C72.2246 42.8352 72.1604 42.8423 72.096 42.8448L72 42.889Z" fill="#263238"/>
<path d="M70.535 32.9606C70.5222 32.9607 70.5098 32.9559 70.5005 32.9472C70.4916 32.9379 70.4866 32.9255 70.4866 32.9126C70.4866 32.8997 70.4916 32.8873 70.5005 32.878L71.4605 31.9584C71.4698 31.9494 71.4821 31.9445 71.495 31.9445C71.5079 31.9445 71.5203 31.9494 71.5296 31.9584C71.5384 31.9673 71.5433 31.9794 71.5433 31.992C71.5433 32.0045 71.5384 32.0166 71.5296 32.0256L70.5696 32.9452C70.5652 32.9501 70.5599 32.954 70.554 32.9566C70.548 32.9593 70.5415 32.9606 70.535 32.9606Z" fill="#263238"/>
<path d="M71.4912 32.9645C71.4852 32.9647 71.4791 32.9636 71.4734 32.9613C71.4678 32.959 71.4627 32.9555 71.4586 32.951L70.5082 32.0237C70.5036 32.0194 70.4999 32.0142 70.4974 32.0084C70.4949 32.0026 70.4937 31.9964 70.4937 31.9901C70.4937 31.9838 70.4949 31.9775 70.4974 31.9718C70.4999 31.966 70.5036 31.9608 70.5082 31.9565C70.5172 31.9477 70.5292 31.9427 70.5418 31.9427C70.5544 31.9427 70.5664 31.9477 70.5754 31.9565L71.5354 32.8858C71.5442 32.8947 71.5491 32.9068 71.5491 32.9194C71.5491 32.9319 71.5442 32.944 71.5354 32.953C71.5297 32.9585 71.5226 32.9625 71.5148 32.9646C71.5071 32.9666 71.499 32.9666 71.4912 32.9645Z" fill="#263238"/>
<path d="M42.7739 39.07L42.3899 38.5152C42.1537 38.181 42.027 37.7819 42.027 37.3728V36.1248C42.027 35.6384 41.8526 35.1681 41.5356 34.7993C41.2186 34.4305 40.7798 34.1875 40.299 34.1145V33.5193C40.299 33.4465 40.27 33.3767 40.2186 33.3252C40.1671 33.2737 40.0972 33.2448 40.0244 33.2448C39.9885 33.2448 39.9528 33.2519 39.9196 33.2657C39.8864 33.2795 39.8563 33.2998 39.8309 33.3253C39.8056 33.3508 39.7856 33.3811 39.772 33.4144C39.7584 33.4477 39.7515 33.4833 39.7518 33.5193V34.0953C39.2567 34.154 38.8004 34.3923 38.4692 34.7649C38.138 35.1375 37.9549 35.6186 37.9547 36.1171V37.4092C37.9543 37.8535 37.8049 38.2849 37.5303 38.6342L37.1943 39.0624L42.7739 39.07Z" fill="#009379"/>
<path d="M39.6885 39.9763C39.8403 40.0379 40.0064 40.0557 40.1679 40.0279C40.3293 40.0001 40.4798 39.9277 40.6024 39.8189C40.7074 39.7222 40.7866 39.6007 40.8328 39.4656L39.2065 39.4541C39.2462 39.5698 39.3096 39.676 39.3925 39.7659C39.4755 39.8559 39.5763 39.9275 39.6885 39.9763Z" fill="#009379"/>
<path d="M64.7039 34.6175C64.7039 34.6444 60.3398 34.6675 54.9561 34.6675C49.5724 34.6675 45.2083 34.6444 45.2083 34.6175C45.2083 34.5907 49.5724 34.5676 54.9561 34.5676C60.3398 34.5676 64.7039 34.5907 64.7039 34.6175Z" fill="#263238"/>
<path d="M69.289 36.9773C69.289 37.0042 63.8957 37.0272 57.2448 37.0272C50.5939 37.0272 45.1987 37.0042 45.1987 36.9773C45.1987 36.9504 50.5901 36.9274 57.2448 36.9274C63.8995 36.9274 69.289 36.9485 69.289 36.9773Z" fill="#E0E0E0"/>
<path d="M69.289 38.4C69.289 38.4269 63.8957 38.4499 57.2448 38.4499C50.5939 38.4499 45.1987 38.4269 45.1987 38.4C45.1987 38.3731 50.5901 38.3501 57.2448 38.3501C63.8995 38.3501 69.289 38.3616 69.289 38.4Z" fill="#E0E0E0"/>
<path d="M65.7755 44.8397H41.6699C40.934 44.8397 40.3374 45.4363 40.3374 46.1722V52.0896C40.3374 52.8255 40.934 53.4221 41.6699 53.4221H65.7755C66.5114 53.4221 67.108 52.8255 67.108 52.0896V46.1722C67.108 45.4363 66.5114 44.8397 65.7755 44.8397Z" fill="#FAFAFA"/>
<path d="M65.7754 53.4221C65.7754 53.4221 65.8349 53.4221 65.9501 53.4029C66.121 53.3805 66.2856 53.3237 66.434 53.2358C66.6315 53.1205 66.7957 52.9558 66.9105 52.7579C67.0253 52.56 67.0867 52.3357 67.0887 52.1069V51.4944C67.0887 50.6266 67.0887 49.5744 67.0791 48.3399C67.0791 47.7255 67.0791 47.0669 67.0791 46.3699C67.0882 46.196 67.074 46.0217 67.0369 45.8515C66.9935 45.6789 66.9143 45.5174 66.8045 45.3773C66.692 45.2313 66.5495 45.1111 66.3865 45.025C66.2235 44.9389 66.0439 44.8888 65.8599 44.8781L41.6679 44.8896C41.3835 44.8893 41.107 44.9834 40.8819 45.1571C40.6567 45.3309 40.4956 45.5744 40.4237 45.8496C40.39 45.9871 40.3764 46.1287 40.3834 46.2701V46.7059C40.3834 46.9958 40.3834 47.2819 40.3834 47.5719V51.7958C40.3834 51.9341 40.3834 52.0742 40.3834 52.2048C40.3977 52.3368 40.4306 52.4661 40.4813 52.5888C40.5859 52.8303 40.7615 53.0342 40.9848 53.1734C41.208 53.3127 41.4684 53.3806 41.7313 53.3683H44.8743L55.7473 53.3779L63.0797 53.3952L65.0727 53.4048H65.5911H65.7677C65.7677 53.4048 65.7063 53.4048 65.5911 53.4048H65.0727H63.0797L55.7473 53.4202L44.8743 53.4317H41.7389C41.4565 53.4447 41.1767 53.3716 40.9368 53.2221C40.6968 53.0727 40.5078 52.8538 40.3949 52.5946C40.3416 52.4631 40.3067 52.3248 40.2913 52.1837C40.2797 52.0378 40.2913 51.9034 40.2913 51.7651V46.272C40.2841 46.1222 40.299 45.9721 40.3354 45.8266C40.4119 45.5286 40.5856 45.2646 40.8291 45.0764C41.0725 44.8883 41.3717 44.7867 41.6794 44.7879L65.8714 44.8051C66.1599 44.8236 66.4351 44.9333 66.6574 45.1182C66.8796 45.3032 67.0373 45.5539 67.1079 45.8343C67.1464 46.0094 67.1606 46.189 67.1501 46.368C67.1501 47.065 67.1501 47.7235 67.1501 48.3379C67.1501 49.5667 67.1501 50.6247 67.1501 51.4925C67.1501 51.7075 67.1501 51.913 67.1501 52.105C67.1478 52.2872 67.1079 52.4669 67.033 52.633C66.9152 52.8931 66.7183 53.1094 66.4705 53.2512C66.3193 53.3378 66.152 53.3927 65.9789 53.4125C65.9115 53.4214 65.8434 53.4246 65.7754 53.4221Z" fill="#263238"/>
<path d="M65.1802 46.6156C65.1737 46.6156 65.1673 46.6142 65.1613 46.6115C65.1554 46.6089 65.1501 46.6051 65.1456 46.6003C65.1411 46.596 65.1374 46.5908 65.1349 46.585C65.1324 46.5792 65.1311 46.573 65.1311 46.5667C65.1311 46.5604 65.1324 46.5542 65.1349 46.5484C65.1374 46.5426 65.1411 46.5374 65.1456 46.5331L65.8042 45.9014C65.8087 45.8968 65.8141 45.8931 65.82 45.8905C65.8259 45.888 65.8323 45.8867 65.8388 45.8867C65.8452 45.8867 65.8516 45.888 65.8575 45.8905C65.8635 45.8931 65.8689 45.8968 65.8733 45.9014C65.8821 45.9104 65.8871 45.9224 65.8871 45.935C65.8871 45.9476 65.8821 45.9596 65.8733 45.9686L65.2128 46.6003C65.2088 46.605 65.2038 46.6088 65.1982 46.6115C65.1925 46.6141 65.1864 46.6155 65.1802 46.6156Z" fill="#263238"/>
<path d="M65.8369 46.6176C65.824 46.6177 65.8117 46.6129 65.8023 46.6041L65.1495 45.9667C65.1426 45.9574 65.1392 45.946 65.14 45.9345C65.1408 45.923 65.1458 45.9121 65.154 45.9039C65.1621 45.8958 65.173 45.8908 65.1845 45.89C65.196 45.8892 65.2075 45.8926 65.2167 45.8995L65.8695 46.5369C65.8783 46.5459 65.8832 46.558 65.8832 46.5705C65.8832 46.5831 65.8783 46.5952 65.8695 46.6041C65.8606 46.6124 65.849 46.6172 65.8369 46.6176Z" fill="#263238"/>
<path d="M46.1051 50.7974L45.8363 50.4134C45.6746 50.1834 45.5875 49.9092 45.5867 49.6281V48.7679C45.5864 48.4343 45.4669 48.1118 45.2496 47.8586C45.0324 47.6054 44.7317 47.4383 44.402 47.3875V46.9785C44.402 46.9276 44.3818 46.8787 44.3458 46.8427C44.3098 46.8067 44.261 46.7865 44.21 46.7865C44.1591 46.7865 44.1103 46.8067 44.0743 46.8427C44.0383 46.8787 44.018 46.9276 44.018 46.9785V47.3817C43.6779 47.4217 43.3643 47.5851 43.1368 47.841C42.9092 48.0969 42.7835 48.4274 42.7835 48.7699V49.6569C42.7837 49.9618 42.6816 50.2579 42.4936 50.4979L42.2612 50.7935L46.1051 50.7974Z" fill="#455A64"/>
<path d="M43.9852 51.4214C44.0896 51.4633 44.2035 51.4753 44.3143 51.4564C44.4252 51.4374 44.5286 51.3881 44.6131 51.3139C44.6855 51.2474 44.7397 51.1635 44.7705 51.0701H43.6531C43.6817 51.1481 43.7259 51.2195 43.783 51.2799C43.8401 51.3403 43.9089 51.3885 43.9852 51.4214Z" fill="#455A64"/>
<path d="M61.1673 47.7389C61.1673 47.7658 58.1683 47.7888 54.4684 47.7888C50.7686 47.7888 47.7715 47.7658 47.7715 47.7389C47.7715 47.712 50.7705 47.689 54.4684 47.689C58.1664 47.689 61.1673 47.7101 61.1673 47.7389Z" fill="#263238"/>
<path d="M64.3201 49.3594C64.3201 49.3882 60.6145 49.4093 56.0449 49.4093C51.4753 49.4093 47.7678 49.3882 47.7678 49.3594C47.7678 49.3306 51.4715 49.3094 56.0449 49.3094C60.6184 49.3094 64.3201 49.3325 64.3201 49.3594Z" fill="#E0E0E0"/>
<path d="M64.3201 50.3309C64.3201 50.3578 60.6145 50.3808 56.0449 50.3808C51.4753 50.3808 47.7678 50.3578 47.7678 50.3309C47.7678 50.304 51.4715 50.281 56.0449 50.281C60.6184 50.281 64.3201 50.304 64.3201 50.3309Z" fill="#E0E0E0"/>
<path d="M65.6737 54.7565H41.7697C41.0338 54.7565 40.4373 55.353 40.4373 56.089V61.9411C40.4373 62.677 41.0338 63.2736 41.7697 63.2736H65.6737C66.4096 63.2736 67.0062 62.677 67.0062 61.9411V56.089C67.0062 55.353 66.4096 54.7565 65.6737 54.7565Z" fill="#FAFAFA"/>
<path d="M65.6737 63.2755C65.6737 63.2755 65.7332 63.2755 65.8465 63.2582C66.016 63.2351 66.1792 63.1783 66.3265 63.0912C66.568 62.9522 66.7595 62.7406 66.8737 62.4864C66.9445 62.3252 66.983 62.1517 66.987 61.9757V61.3689C66.987 60.5088 66.987 59.4585 66.987 58.2393C66.987 57.6288 66.987 56.976 66.987 56.2848C66.997 56.1121 66.9828 55.9389 66.9447 55.7702C66.9023 55.5992 66.8244 55.4389 66.7163 55.2998C66.6052 55.1543 66.4643 55.0341 66.3031 54.9473C66.1418 54.8606 65.9639 54.8093 65.7812 54.7968L41.7812 54.8064C41.4978 54.8082 41.2229 54.9032 40.9987 55.0767C40.7746 55.2501 40.6137 55.4925 40.5409 55.7664C40.5059 55.9024 40.491 56.0427 40.4967 56.183V57.4733C40.4967 58.6163 40.4967 59.7401 40.4967 60.8448V61.6685C40.4967 61.8048 40.4967 61.9449 40.4967 62.0736C40.5099 62.2056 40.5423 62.3349 40.5927 62.4576C40.6958 62.6975 40.869 62.9006 41.0898 63.0401C41.3105 63.1796 41.5683 63.249 41.8292 63.239H44.9473L55.7358 63.2486L63.0107 63.2659L64.9883 63.2755H65.5028H65.6775C65.6775 63.2755 65.618 63.2755 65.5028 63.2755H64.9883L63.0107 63.2851L55.7358 63.3005L44.9473 63.312H41.8254C41.5456 63.3213 41.2695 63.2463 41.0329 63.0966C40.7963 62.947 40.6102 62.7297 40.4987 62.4729C40.4451 62.3422 40.4102 62.2045 40.395 62.064C40.395 61.9219 40.395 61.7875 40.395 61.6493C40.395 61.3766 40.395 61.1021 40.395 60.8256V56.1753C40.3891 56.0266 40.4053 55.8778 40.443 55.7337C40.5228 55.4385 40.6978 55.1779 40.9408 54.9922C41.1837 54.8065 41.4812 54.7061 41.787 54.7065L65.787 54.7277C65.9793 54.7412 66.1664 54.7957 66.336 54.8874C66.5055 54.9791 66.6535 55.106 66.77 55.2595C66.8821 55.4071 66.9637 55.5755 67.01 55.7549C67.0467 55.929 67.0609 56.1071 67.0523 56.2848C67.0523 56.976 67.0523 57.6288 67.0523 58.2393C67.0523 59.4585 67.0523 60.5088 67.0427 61.3689C67.0427 61.5821 67.0427 61.7856 67.0427 61.9757C67.0361 62.2074 66.9697 62.4335 66.8499 62.632C66.7302 62.8305 66.5611 62.9946 66.3591 63.1085C66.2086 63.1946 66.0419 63.2488 65.8695 63.2678C65.8046 63.2757 65.7391 63.2783 65.6737 63.2755Z" fill="#263238"/>
<path d="M65.0879 56.5209C65.0814 56.5208 65.075 56.5194 65.0691 56.5168C65.0631 56.5142 65.0578 56.5103 65.0534 56.5056C65.0488 56.5013 65.0451 56.4961 65.0426 56.4903C65.0401 56.4845 65.0388 56.4783 65.0388 56.472C65.0388 56.4657 65.0401 56.4594 65.0426 56.4537C65.0451 56.4479 65.0488 56.4427 65.0534 56.4384L65.7081 55.8105C65.7174 55.8016 65.7298 55.7966 65.7426 55.7966C65.7555 55.7966 65.7679 55.8016 65.7772 55.8105C65.786 55.8195 65.7909 55.8316 65.7909 55.8441C65.7909 55.8567 65.786 55.8688 65.7772 55.8777L65.1225 56.5056C65.1182 56.5105 65.1129 56.5145 65.1069 56.5171C65.101 56.5198 65.0945 56.5211 65.0879 56.5209Z" fill="#263238"/>
<path d="M65.7445 56.5228C65.7317 56.523 65.7193 56.5181 65.71 56.5094L65.0629 55.8719C65.0538 55.863 65.0485 55.8509 65.0483 55.8381C65.0482 55.8253 65.0531 55.813 65.062 55.8038C65.0709 55.7946 65.0831 55.7894 65.0959 55.7892C65.1086 55.789 65.121 55.7939 65.1301 55.8028L65.7772 56.4364C65.786 56.4454 65.7909 56.4575 65.7909 56.47C65.7909 56.4826 65.786 56.4947 65.7772 56.5036C65.7692 56.5141 65.7575 56.521 65.7445 56.5228Z" fill="#263238"/>
<path d="M46.1626 60.672L45.888 60.288C45.7265 60.0602 45.6399 59.7878 45.6403 59.5085V58.6599C45.6401 58.3283 45.5214 58.0077 45.3056 57.7559C45.0898 57.5042 44.7911 57.3379 44.4634 57.2871V56.8819C44.4634 56.831 44.4432 56.7822 44.4071 56.7462C44.3711 56.7102 44.3223 56.6899 44.2714 56.6899C44.2205 56.6899 44.1716 56.7102 44.1356 56.7462C44.0996 56.7822 44.0794 56.831 44.0794 56.8819V57.2813C43.7422 57.3217 43.4315 57.4843 43.2061 57.7383C42.9807 57.9924 42.8563 58.3202 42.8563 58.6599V59.5411C42.8563 59.8439 42.7549 60.1379 42.5683 60.3763L42.3552 60.672H46.1626Z" fill="#E0E0E0"/>
<path d="M44.0583 61.2902C44.1621 61.3315 44.2753 61.3433 44.3854 61.3243C44.4955 61.3054 44.5983 61.2564 44.6823 61.1827C44.7538 61.1165 44.8073 61.0333 44.8378 60.9408H43.73C43.7579 61.0184 43.8014 61.0895 43.8579 61.1496C43.9144 61.2097 43.9826 61.2575 44.0583 61.2902Z" fill="#E0E0E0"/>
<path d="M61.1098 57.6345C61.1098 57.6633 58.1338 57.6844 54.4627 57.6844C50.7917 57.6844 47.8157 57.6633 47.8157 57.6345C47.8157 57.6057 50.7917 57.5846 54.4627 57.5846C58.1338 57.5846 61.1098 57.6 61.1098 57.6345Z" fill="#263238"/>
<path d="M64.2432 59.2435C64.2432 59.2723 60.5645 59.2934 56.0294 59.2934C51.4944 59.2934 47.8157 59.2723 47.8157 59.2435C47.8157 59.2147 51.4925 59.1936 56.0294 59.1936C60.5664 59.1936 64.2432 59.2166 64.2432 59.2435Z" fill="#E0E0E0"/>
<path d="M64.2432 60.2074C64.2432 60.2343 60.5645 60.2573 56.0294 60.2573C51.4944 60.2573 47.8157 60.2343 47.8157 60.2074C47.8157 60.1805 51.4925 60.1575 56.0294 60.1575C60.5664 60.1575 64.2432 60.1805 64.2432 60.2074Z" fill="#E0E0E0"/>
<path d="M85.3363 52.3643C83.3491 53.3953 81.8246 55.1675 80.7283 57.1182C79.6319 59.0689 78.9254 61.2135 78.2323 63.339L77.614 74.3041C79.9276 70.3681 81.7843 65.7428 82.2854 61.2078L80.7494 61.0695C81.7823 60.9121 82.6483 60.1652 83.1993 59.2782C83.7503 58.3911 84.0345 57.3697 84.311 56.3636L82.4294 56.6401C83.9119 55.6414 84.9528 54.1102 85.3363 52.3643Z" fill="#455A64"/>
<path d="M85.3363 52.3643C83.3491 53.3953 81.8246 55.1675 80.7283 57.1182C79.6319 59.0689 78.9254 61.2135 78.2323 63.339L77.614 74.3041C79.9276 70.3681 81.7843 65.7428 82.2854 61.2078L80.7494 61.0695C81.7823 60.9121 82.6483 60.1652 83.1993 59.2782C83.7503 58.3911 84.0345 57.3697 84.311 56.3636L82.4294 56.6401C83.9119 55.6414 84.9528 54.1102 85.3363 52.3643Z" fill="#009379"/>
<g opacity="0.3">
<path d="M85.3363 52.3643C83.3491 53.3953 81.8246 55.1675 80.7283 57.1182C79.6319 59.0689 78.9254 61.2135 78.2323 63.339L77.614 74.3041C79.9276 70.3681 81.7843 65.7428 82.2854 61.2078L80.7494 61.0695C81.7823 60.9121 82.6483 60.1652 83.1993 59.2782C83.7503 58.3911 84.0345 57.3697 84.311 56.3636L82.4294 56.6401C83.9119 55.6414 84.9528 54.1102 85.3363 52.3643Z" fill="black"/>
</g>
<path d="M77.2724 76.8749C77.2724 76.8749 72.2516 70.8673 72.3092 65.1303H74.3386C74.3386 65.1303 72.1345 63.6826 72.3092 62.8705C72.4839 62.0583 72.5415 58.9882 72.5415 58.9882L74.3962 59.4529C74.3962 59.4529 73.0061 58.7578 72.8314 57.6557C72.6567 56.5537 73.2365 51.4561 73.2365 51.4561C73.2365 51.4561 75.4964 53.833 76.1914 56.2657C76.8865 58.6983 78.7124 61.538 78.1767 68.9549C77.641 76.3719 77.2724 76.8749 77.2724 76.8749Z" fill="#009379"/>
<path d="M79.8162 77.4413C79.8162 77.4413 85.2556 73.8183 86.4633 69.1949L84.8332 68.7514C84.8332 68.7514 86.9222 68.0679 86.9586 67.3786C86.9951 66.6893 87.621 64.2068 87.621 64.2068L86.0294 64.1741C86.0294 64.1741 87.2985 63.9188 87.6806 63.072C88.0626 62.2253 88.7039 57.9994 88.7039 57.9994C88.7039 57.9994 86.3673 59.4144 85.2767 61.2192C84.1862 63.024 82.0972 64.9056 80.9049 70.9863C79.7126 77.0669 79.8162 77.4413 79.8162 77.4413Z" fill="#009379"/>
<path d="M74.6074 56.6957C74.6167 56.7152 74.6232 56.7358 74.6266 56.7571C74.6381 56.8051 74.6535 56.8666 74.6708 56.9491C74.7092 57.1181 74.7629 57.3581 74.8321 57.6614C74.9012 57.9648 74.9837 58.3507 75.0721 58.7923C75.1604 59.2339 75.2641 59.737 75.3677 60.2938C75.5828 61.4074 75.8113 62.7398 76.0436 64.2221C76.2759 65.7043 76.4967 67.3382 76.6983 69.0586C76.8999 70.7789 77.0477 72.4224 77.1649 73.9181C77.282 75.4138 77.3569 76.7635 77.4029 77.8963C77.4298 78.4627 77.4433 78.9754 77.4567 79.4323C77.4701 79.8893 77.4797 80.2714 77.4817 80.5843C77.4836 80.8973 77.4817 81.1411 77.4817 81.3139V81.5059C77.4834 81.5276 77.4834 81.5495 77.4817 81.5712C77.4783 81.5496 77.4783 81.5275 77.4817 81.5059C77.4817 81.4579 77.4817 81.3965 77.4817 81.3139C77.4817 81.1392 77.4663 80.8954 77.4548 80.5824C77.4433 80.2694 77.4317 79.8778 77.4125 79.4304C77.3933 78.983 77.3741 78.4704 77.3415 77.8944C77.2877 76.7616 77.1975 75.4138 77.0823 73.92C76.9671 72.4262 76.8039 70.7846 76.6061 69.0643C76.4084 67.344 76.1837 65.7139 75.961 64.2317C75.7383 62.7494 75.5137 61.417 75.3082 60.3014C75.2103 59.7446 75.1162 59.2397 75.0279 58.7981C74.9396 58.3565 74.8705 57.9744 74.8071 57.6634C74.7437 57.3523 74.6996 57.1181 74.665 56.9472C74.6516 56.8704 74.6401 56.809 74.6324 56.7552C74.6221 56.7362 74.6138 56.7163 74.6074 56.6957Z" fill="#263238"/>
<path d="M76.5753 80.5537C76.5753 80.5537 71.9808 75.3428 70.5561 72.1921L71.6313 71.7332C70.8518 71.8618 70.0512 71.5258 69.4464 71.017C68.8416 70.5082 68.3961 69.8382 67.9603 69.1777L69.3792 68.9377C68.076 68.5648 66.9664 67.7047 66.2803 66.5358C67.9545 66.8122 69.4694 67.7319 70.7174 68.8801C71.7077 69.8329 72.6075 70.8755 73.4054 71.9943C73.8062 72.5324 74.1552 73.1071 74.448 73.7108C75.2198 75.3063 76.5772 78.6394 76.5753 80.5537Z" fill="#009379"/>
<path d="M86.5362 61.0331C86.5313 61.0518 86.5242 61.0698 86.515 61.0868L86.4459 61.2385C86.3787 61.3767 86.2846 61.5707 86.1675 61.8145C85.9218 62.3156 85.5723 63.0433 85.1518 63.9476C84.307 65.7543 83.1954 68.2753 82.0971 71.1131C80.9989 73.9508 80.1272 76.5659 79.5358 78.4705C79.2402 79.4305 79.0078 80.1985 78.8523 80.7323C78.7755 80.9934 78.7141 81.1988 78.6699 81.3467L78.6181 81.506C78.6137 81.5246 78.6073 81.5426 78.5989 81.5598C78.5999 81.5409 78.6032 81.5222 78.6085 81.5041C78.6181 81.4619 78.6315 81.4081 78.6488 81.3409C78.6872 81.1911 78.7429 80.9838 78.812 80.7207C78.956 80.1812 79.1768 79.4036 79.4629 78.4494C80.0389 76.5294 80.899 73.9163 81.9954 71.0747C83.0917 68.2331 84.2206 65.714 85.0827 63.915C85.5128 63.0145 85.8718 62.2907 86.1291 61.803C86.2558 61.5611 86.3538 61.3691 86.4267 61.227L86.5054 61.0791C86.5246 61.0561 86.5342 61.0311 86.5362 61.0331Z" fill="#263238"/>
<path d="M76.9652 82.7886C76.9529 82.7578 76.9452 82.7255 76.9421 82.6926C76.9287 82.6158 76.9134 82.5255 76.8961 82.4161C76.8596 82.1761 76.8001 81.8286 76.7156 81.4023C76.6311 80.9761 76.514 80.473 76.3623 79.9182C76.2106 79.3633 76.0167 78.7662 75.7863 78.1441C75.5559 77.522 75.2948 76.946 75.0471 76.4295C74.7994 75.913 74.5498 75.458 74.331 75.0855C74.1121 74.713 73.9297 74.4097 73.7972 74.2042L73.6493 73.9662C73.6296 73.9399 73.6141 73.9108 73.6033 73.8798C73.6033 73.8798 73.6282 73.9028 73.6666 73.9546L73.8318 74.1812C73.9758 74.3732 74.1697 74.6746 74.3962 75.0452C74.6228 75.4158 74.8762 75.8727 75.1354 76.3892C75.3946 76.9057 75.65 77.4874 75.8861 78.1172C76.1223 78.747 76.3085 79.3479 76.4621 79.9047C76.6157 80.4615 76.7194 80.9703 76.7943 81.4004C76.8692 81.8305 76.9191 82.1799 76.9402 82.4218C76.9518 82.5332 76.9594 82.6254 76.9671 82.7022C76.9706 82.7309 76.97 82.76 76.9652 82.7886Z" fill="#263238"/>
<path d="M83.0284 81.5616H72.9734V83.6122H83.0284V81.5616Z" fill="#455A64"/>
<path d="M73.9314 83.6122L75.0181 90.5107H81.093L82.1068 83.6122H73.9314Z" fill="#455A64"/>
<path d="M82.4103 83.6122C82.4103 83.643 80.5076 83.666 78.1633 83.666C75.8189 83.666 73.9143 83.643 73.9143 83.6122C73.9143 83.5815 75.817 83.5585 78.1633 83.5585C80.5095 83.5585 82.4103 83.5834 82.4103 83.6122Z" fill="#263238"/>
<path d="M23.3511 32.6573L23.5604 30.1767C22.354 29.3748 21.4912 28.1507 21.1415 26.745C20.7919 25.3393 20.9807 23.8536 21.6709 22.58C22.361 21.3065 23.5026 20.3371 24.8712 19.8625C26.2398 19.3879 27.7364 19.4424 29.0669 20.0153C30.3974 20.5881 31.4654 21.638 32.0611 22.9584C32.6568 24.2788 32.7371 25.7742 32.2861 27.1508C31.8352 28.5274 30.8856 29.6855 29.6241 30.3975C28.3626 31.1095 26.8804 31.3238 25.4689 30.9984L23.3511 32.6573Z" fill="white"/>
<path d="M23.3511 32.6573L25.4842 31.0138L25.5053 30.9965L25.4804 30.985L25.4669 31.0176C25.9201 31.1226 26.3841 31.1742 26.8493 31.1712C27.4032 31.1644 27.9533 31.0791 28.4832 30.9178C28.7769 30.8292 29.0622 30.7148 29.3357 30.576C29.474 30.5011 29.6199 30.4301 29.76 30.3514L30.1748 30.0787C31.375 29.2058 32.1986 27.9093 32.4788 26.4518C32.6453 25.6419 32.6348 24.8055 32.448 24C32.2379 23.1567 31.8446 22.37 31.296 21.696C30.7284 20.9864 29.9998 20.4223 29.1706 20.0506L28.8461 19.9142C28.7386 19.8662 28.6234 19.8394 28.514 19.8029C28.4045 19.7664 28.2932 19.7261 28.1799 19.705L27.84 19.632C27.7276 19.606 27.6134 19.5887 27.4983 19.5802L27.1565 19.5398H26.8148C26.7016 19.5331 26.5881 19.5331 26.4749 19.5398C25.5897 19.59 24.7269 19.838 23.9501 20.2656C23.214 20.6674 22.5755 21.2266 22.08 21.9034C21.1933 23.1215 20.8065 24.633 20.9991 26.1274C21.0925 26.7578 21.2815 27.3703 21.5597 27.9437C21.8055 28.4391 22.1217 28.8964 22.4986 29.3011C22.8122 29.6381 23.1647 29.9365 23.5488 30.1901V30.1747C23.426 31.7606 23.3568 32.5363 23.3568 32.6573C23.3684 32.5363 23.4394 31.7626 23.5834 30.1785V30.169C23.2039 29.9138 22.8554 29.6155 22.5447 29.28C22.1732 28.8752 21.8616 28.4194 21.6192 27.9264C21.3463 27.3572 21.1612 26.75 21.0701 26.1254C20.8829 24.6458 21.2682 23.1505 22.1472 21.9456C22.6389 21.2781 23.2706 20.7263 23.9981 20.329C24.7664 19.9075 25.6192 19.6634 26.4941 19.6147C26.606 19.608 26.7182 19.608 26.8301 19.6147H27.168L27.506 19.655C27.6191 19.6639 27.7314 19.6812 27.842 19.7069L28.178 19.7779C28.2912 19.799 28.3968 19.8432 28.5082 19.8739C28.6196 19.9046 28.7309 19.9373 28.8365 19.9853L29.1552 20.1197C29.9744 20.4868 30.6944 21.0436 31.2557 21.744C31.7953 22.4127 32.1808 23.1922 32.3847 24.0269C32.5741 24.8184 32.5917 25.6414 32.4365 26.4403C32.1554 27.8846 31.3359 29.168 30.144 30.0307L29.7351 30.3014C29.5949 30.3821 29.4509 30.4512 29.3146 30.5261C29.0433 30.664 28.7607 30.7784 28.4698 30.8678C27.9453 31.0303 27.4003 31.1169 26.8512 31.1251C26.3889 31.131 25.9276 31.0827 25.4765 30.9811L25.465 31.0138V30.983C24.1191 32.0506 23.4509 32.5786 23.3511 32.6573Z" fill="#263238"/>
<path d="M25.9508 22.4026L26.1294 25.7741C26.137 25.9071 26.1929 26.0327 26.2866 26.1275C26.3802 26.2222 26.5053 26.2795 26.6382 26.2886C26.7771 26.2975 26.9141 26.2529 27.0212 26.164C27.1282 26.0752 27.1973 25.9487 27.2142 25.8105L27.6231 22.4275C27.6302 22.3671 27.6244 22.306 27.606 22.248C27.5877 22.1901 27.5574 22.1367 27.5169 22.0913C27.4764 22.0459 27.4268 22.0097 27.3713 21.9849C27.3159 21.9601 27.2557 21.9474 27.195 21.9475H26.3732C26.315 21.9479 26.2576 21.9602 26.2043 21.9836C26.1511 22.0071 26.1032 22.0411 26.0637 22.0838C26.0241 22.1264 25.9937 22.1767 25.9743 22.2315C25.9549 22.2863 25.9469 22.3445 25.9508 22.4026Z" fill="#009379"/>
<path d="M27.5194 27.984C27.4681 28.1382 27.3723 28.2739 27.244 28.3736C27.1156 28.4734 26.9606 28.5329 26.7985 28.5446C26.6363 28.5563 26.4744 28.5196 26.3331 28.4392C26.1918 28.3588 26.0776 28.2383 26.0048 28.093C25.932 27.9477 25.9039 27.784 25.9241 27.6227C25.9443 27.4614 26.0119 27.3098 26.1184 27.1869C26.2248 27.064 26.3653 26.9755 26.5221 26.9325C26.6788 26.8895 26.8448 26.8939 26.999 26.9453C27.2057 27.0141 27.3766 27.1621 27.4742 27.3569C27.5718 27.5517 27.588 27.7772 27.5194 27.984Z" fill="#009379"/>
</svg>
