<svg width="11" height="14" viewBox="0 0 11 14" fill="none" xmlns="http://www.w3.org/2000/svg">
<path d="M1.32506 7.84995C1.17506 7.74995 1.06272 7.62495 0.988057 7.47495C0.913391 7.32495 0.875391 7.16662 0.874058 6.99995C0.872724 6.83328 0.910391 6.67495 0.987058 6.52495C1.06372 6.37495 1.17606 6.24995 1.32406 6.14995L9.47406 0.974951C9.55739 0.924951 9.64506 0.887618 9.73706 0.862951C9.82906 0.838285 9.91672 0.825618 10.0001 0.824951C10.2667 0.824951 10.5001 0.920951 10.7001 1.11295C10.9001 1.30495 11.0001 1.54228 11.0001 1.82495V12.175C11.0001 12.4583 10.9001 12.696 10.7001 12.888C10.5001 13.08 10.2667 13.1756 10.0001 13.175C9.91672 13.175 9.82939 13.1623 9.73806 13.137C9.64672 13.1116 9.55906 13.0743 9.47506 13.025L1.32506 7.84995Z" fill="white"/>
</svg>
