<svg width="14" height="14" viewBox="0 0 14 14" fill="none" xmlns="http://www.w3.org/2000/svg">
<path d="M14 4V11.5C14.0001 12.1347 13.7588 12.7457 13.325 13.209C12.8912 13.6724 12.2974 13.9534 11.664 13.995L11.5 14H2.5C1.86528 14.0001 1.25429 13.7588 0.790955 13.325C0.327621 12.8912 0.0466377 12.2974 0.00500014 11.664L2.96809e-08 11.5V4H14ZM8.516 5.234C7.98533 5.234 7.56367 5.376 7.251 5.66C6.93767 5.944 6.78133 6.328 6.782 6.812C6.782 7.09133 6.853 7.33967 6.995 7.557C7.137 7.77367 7.33033 7.94467 7.575 8.07C7.28367 8.20067 7.057 8.387 6.895 8.629C6.73375 8.8718 6.64942 9.15756 6.653 9.449C6.653 9.94633 6.823 10.3423 7.163 10.637C7.503 10.9317 7.95533 11.0787 8.52 11.078C9.08267 11.078 9.53333 10.9313 9.872 10.638C10.2107 10.346 10.38 9.94967 10.38 9.449C10.38 9.147 10.3 8.87633 10.14 8.637C9.96956 8.38693 9.73169 8.19032 9.454 8.07C9.6911 7.95358 9.89324 7.77661 10.04 7.557C10.1833 7.339 10.255 7.09067 10.255 6.812C10.255 6.328 10.0983 5.944 9.785 5.66C9.473 5.376 9.05 5.234 8.516 5.234ZM5.496 5.293H5.375L3.156 6.109V6.91L4.551 6.434V11H5.496V5.293ZM8.512 8.461C8.78867 8.461 9.01067 8.54767 9.178 8.721C9.34534 8.89433 9.42933 9.12134 9.43 9.402C9.43 9.692 9.35 9.91733 9.19 10.078C9.03 10.24 8.80667 10.3207 8.52 10.32C8.234 10.32 8.00967 10.2367 7.847 10.07C7.68433 9.90333 7.60267 9.68067 7.602 9.402C7.602 9.11867 7.68467 8.891 7.85 8.719C8.01534 8.547 8.236 8.461 8.512 8.461ZM8.516 5.996C8.75867 5.996 8.95167 6.076 9.095 6.236C9.23833 6.396 9.30967 6.6 9.309 6.848C9.309 7.108 9.23833 7.31467 9.097 7.468C8.955 7.622 8.76267 7.699 8.52 7.699C8.278 7.699 8.086 7.62233 7.944 7.469C7.802 7.31567 7.731 7.10867 7.731 6.848C7.731 6.58467 7.80133 6.377 7.942 6.225C8.082 6.07167 8.27333 5.99533 8.516 5.996ZM11.5 2.96809e-08C12.1347 -9.77163e-05 12.7457 0.241233 13.209 0.67504C13.6724 1.10885 13.9534 1.70265 13.995 2.336L14 2.5V3H2.96809e-08V2.5C-9.77163e-05 1.86528 0.241233 1.25429 0.67504 0.790955C1.10885 0.327621 1.70265 0.0466377 2.336 0.00500014L2.5 2.96809e-08H11.5Z" fill="#3499C5"/>
</svg>
