<svg width="17" height="15" viewBox="0 0 17 15" fill="none" xmlns="http://www.w3.org/2000/svg">
<path d="M1.66667 14.1667C1.20833 14.1667 0.816111 14.0036 0.49 13.6775C0.163889 13.3514 0.000555556 12.9589 0 12.5V9.16667H4.16667V10H5.83333V9.16667H10.8333V10H12.5V9.16667H16.6667V12.5C16.6667 12.9583 16.5036 13.3508 16.1775 13.6775C15.8514 14.0042 15.4589 14.1672 15 14.1667H1.66667ZM0.354167 7.5L2.08333 3.5C2.20833 3.19445 2.40972 2.95139 2.6875 2.77083C2.96528 2.59028 3.26389 2.5 3.58333 2.5H4.16667V1.66667C4.16667 1.20833 4.33 0.815835 4.65667 0.489168C4.98333 0.162501 5.37556 -0.000554141 5.83333 1.41483e-06H10.8333C11.2917 1.41483e-06 11.6842 0.163335 12.0108 0.490001C12.3375 0.816668 12.5006 1.20889 12.5 1.66667V2.5H13.0833C13.4028 2.5 13.7014 2.59028 13.9792 2.77083C14.2569 2.95139 14.4583 3.19445 14.5833 3.5L16.3125 7.5H12.5V6.66667H10.8333V7.5H5.83333V6.66667H4.16667V7.5H0.354167ZM5.83333 2.5H10.8333V1.66667H5.83333V2.5Z" fill="#009379"/>
</svg>
