<svg width="21" height="21" viewBox="0 0 21 21" fill="none" xmlns="http://www.w3.org/2000/svg">
<path d="M4.5 12.5H7.575L12.55 7.5C12.7 7.35 12.8127 7.179 12.888 6.987C12.9633 6.795 13.0007 6.60767 13 6.425C12.9993 6.24233 12.962 6.06333 12.888 5.888C12.814 5.71267 12.7097 5.55 12.575 5.4L11.65 4.45C11.5 4.3 11.3333 4.18767 11.15 4.113C10.9667 4.03833 10.775 4.00067 10.575 4C10.3917 4 10.2083 4.03767 10.025 4.113C9.84167 4.18833 9.675 4.30067 9.525 4.45L4.5 9.425V12.5ZM10.55 7.4L9.6 6.475L10.575 5.5L11.5 6.45L10.55 7.4ZM9.7 12.5H16.5V10.5H11.7L9.7 12.5ZM0.5 20.5V2.5C0.5 1.95 0.696 1.47933 1.088 1.088C1.48 0.696667 1.95067 0.500667 2.5 0.5H18.5C19.05 0.5 19.521 0.696 19.913 1.088C20.305 1.48 20.5007 1.95067 20.5 2.5V14.5C20.5 15.05 20.3043 15.521 19.913 15.913C19.5217 16.305 19.0507 16.5007 18.5 16.5H4.5L0.5 20.5Z" fill="white"/>
</svg>
