<svg width="17" height="14" viewBox="0 0 17 14" fill="none" xmlns="http://www.w3.org/2000/svg">
<path fill-rule="evenodd" clip-rule="evenodd" d="M4.16675 1.66667C4.16675 1.22464 4.34234 0.800716 4.6549 0.488155C4.96746 0.175595 5.39139 0 5.83341 0H15.0001C15.4421 0 15.866 0.175595 16.1786 0.488155C16.4912 0.800716 16.6667 1.22464 16.6667 1.66667V7.5C16.6667 7.94203 16.4912 8.36595 16.1786 8.67851C15.866 8.99107 15.4421 9.16667 15.0001 9.16667H13.3334V5.83333C13.3334 5.17029 13.07 4.53441 12.6012 4.06557C12.1323 3.59673 11.4965 3.33333 10.8334 3.33333H4.16675V1.66667Z" fill="#009379"/>
<path fill-rule="evenodd" clip-rule="evenodd" d="M0 5.83341C0 5.39139 0.175595 4.96746 0.488155 4.6549C0.800716 4.34234 1.22464 4.16675 1.66667 4.16675H10.8333C11.2754 4.16675 11.6993 4.34234 12.0118 4.6549C12.3244 4.96746 12.5 5.39139 12.5 5.83341V11.6667C12.5 12.1088 12.3244 12.5327 12.0118 12.8453C11.6993 13.1578 11.2754 13.3334 10.8333 13.3334H1.66667C1.22464 13.3334 0.800716 13.1578 0.488155 12.8453C0.175595 12.5327 0 12.1088 0 11.6667V5.83341ZM6.25 6.66675C5.69747 6.66675 5.16756 6.88624 4.77686 7.27694C4.38616 7.66764 4.16667 8.19755 4.16667 8.75008C4.16667 9.30262 4.38616 9.83252 4.77686 10.2232C5.16756 10.6139 5.69747 10.8334 6.25 10.8334C6.80253 10.8334 7.33244 10.6139 7.72314 10.2232C8.11384 9.83252 8.33333 9.30262 8.33333 8.75008C8.33333 8.19755 8.11384 7.66764 7.72314 7.27694C7.33244 6.88624 6.80253 6.66675 6.25 6.66675Z" fill="#009379"/>
<path d="M7.08341 8.75008C7.08341 8.9711 6.99562 9.18306 6.83934 9.33934C6.68306 9.49562 6.4711 9.58341 6.25008 9.58341C6.02907 9.58341 5.81711 9.49562 5.66083 9.33934C5.50455 9.18306 5.41675 8.9711 5.41675 8.75008C5.41675 8.52907 5.50455 8.31711 5.66083 8.16083C5.81711 8.00455 6.02907 7.91675 6.25008 7.91675C6.4711 7.91675 6.68306 8.00455 6.83934 8.16083C6.99562 8.31711 7.08341 8.52907 7.08341 8.75008Z" fill="#009379"/>
</svg>
