<svg width="20" height="20" viewBox="0 0 20 20" fill="none" xmlns="http://www.w3.org/2000/svg">
<path fill-rule="evenodd" clip-rule="evenodd" d="M5.8335 4.99992C5.8335 4.55789 6.00909 4.13397 6.32165 3.82141C6.63421 3.50885 7.05814 3.33325 7.50016 3.33325H16.6668C17.1089 3.33325 17.5328 3.50885 17.8453 3.82141C18.1579 4.13397 18.3335 4.55789 18.3335 4.99992V10.8333C18.3335 11.2753 18.1579 11.6992 17.8453 12.0118C17.5328 12.3243 17.1089 12.4999 16.6668 12.4999H15.0002V9.16659C15.0002 8.50354 14.7368 7.86766 14.2679 7.39882C13.7991 6.92998 13.1632 6.66659 12.5002 6.66659H5.8335V4.99992Z" fill="#3499C5"/>
<path fill-rule="evenodd" clip-rule="evenodd" d="M1.66675 9.16667C1.66675 8.72464 1.84234 8.30072 2.1549 7.98816C2.46746 7.6756 2.89139 7.5 3.33341 7.5H12.5001C12.9421 7.5 13.366 7.6756 13.6786 7.98816C13.9912 8.30072 14.1667 8.72464 14.1667 9.16667V15C14.1667 15.442 13.9912 15.866 13.6786 16.1785C13.366 16.4911 12.9421 16.6667 12.5001 16.6667H3.33341C2.89139 16.6667 2.46746 16.4911 2.1549 16.1785C1.84234 15.866 1.66675 15.442 1.66675 15V9.16667ZM7.91675 10C7.36421 10 6.83431 10.2195 6.44361 10.6102C6.05291 11.0009 5.83341 11.5308 5.83341 12.0833C5.83341 12.6359 6.05291 13.1658 6.44361 13.5565C6.83431 13.9472 7.36421 14.1667 7.91675 14.1667C8.46928 14.1667 8.99919 13.9472 9.38989 13.5565C9.78059 13.1658 10.0001 12.6359 10.0001 12.0833C10.0001 11.5308 9.78059 11.0009 9.38989 10.6102C8.99919 10.2195 8.46928 10 7.91675 10Z" fill="#3499C5"/>
<path d="M8.75016 12.0833C8.75016 12.3043 8.66237 12.5163 8.50608 12.6726C8.3498 12.8289 8.13784 12.9167 7.91683 12.9167C7.69582 12.9167 7.48385 12.8289 7.32757 12.6726C7.17129 12.5163 7.0835 12.3043 7.0835 12.0833C7.0835 11.8623 7.17129 11.6504 7.32757 11.4941C7.48385 11.3378 7.69582 11.25 7.91683 11.25C8.13784 11.25 8.3498 11.3378 8.50608 11.4941C8.66237 11.6504 8.75016 11.8623 8.75016 12.0833Z" fill="#3499C5"/>
</svg>
