<svg width="24" height="24" viewBox="0 0 24 24" fill="none" xmlns="http://www.w3.org/2000/svg">
<g clip-path="url(#clip0_749_497)">
<path d="M13.5 21C15.5125 20.9995 17.4825 20.4206 19.1754 19.3323C20.8683 18.244 22.2127 16.692 23.0487 14.8613C23.8846 13.0306 24.1768 10.9982 23.8905 9.00616C23.6042 7.0141 22.7514 5.14628 21.4337 3.62512C20.116 2.10395 18.3889 0.993525 16.458 0.426052C14.5271 -0.14142 12.4738 -0.142029 10.5426 0.424299C8.6114 0.990626 6.88362 2.10003 5.56501 3.62041C4.2464 5.1408 3.39251 7.00811 3.105 9H9C10.1069 9.00003 11.175 9.40803 12 10.146V5.25C12 5.05109 12.079 4.86032 12.2197 4.71967C12.3603 4.57902 12.5511 4.5 12.75 4.5C12.9489 4.5 13.1397 4.57902 13.2803 4.71967C13.421 4.86032 13.5 5.05109 13.5 5.25V10.5H17.25C17.4489 10.5 17.6397 10.579 17.7803 10.7197C17.921 10.8603 18 11.0511 18 11.25C18 11.4489 17.921 11.6397 17.7803 11.7803C17.6397 11.921 17.4489 12 17.25 12H13.242C13.407 12.4695 13.497 12.975 13.497 13.5L13.5 21ZM0 13.5C0 12.7044 0.316071 11.9413 0.87868 11.3787C1.44129 10.8161 2.20435 10.5 3 10.5H9C9.79565 10.5 10.5587 10.8161 11.1213 11.3787C11.6839 11.9413 12 12.7044 12 13.5V21C12 21.7956 11.6839 22.5587 11.1213 23.1213C10.5587 23.6839 9.79565 24 9 24H3C2.20435 24 1.44129 23.6839 0.87868 23.1213C0.316071 22.5587 0 21.7956 0 21V13.5ZM8.25 13.5H3.75C3.55109 13.5 3.36032 13.579 3.21967 13.7197C3.07902 13.8603 3 14.0511 3 14.25C3 14.4489 3.07902 14.6397 3.21967 14.7803C3.36032 14.921 3.55109 15 3.75 15H8.25C8.44891 15 8.63968 14.921 8.78033 14.7803C8.92098 14.6397 9 14.4489 9 14.25C9 14.0511 8.92098 13.8603 8.78033 13.7197C8.63968 13.579 8.44891 13.5 8.25 13.5ZM8.25 16.5H3.75C3.55109 16.5 3.36032 16.579 3.21967 16.7197C3.07902 16.8603 3 17.0511 3 17.25C3 17.4489 3.07902 17.6397 3.21967 17.7803C3.36032 17.921 3.55109 18 3.75 18H8.25C8.44891 18 8.63968 17.921 8.78033 17.7803C8.92098 17.6397 9 17.4489 9 17.25C9 17.0511 8.92098 16.8603 8.78033 16.7197C8.63968 16.579 8.44891 16.5 8.25 16.5ZM8.25 19.5H3.75C3.55109 19.5 3.36032 19.579 3.21967 19.7197C3.07902 19.8603 3 20.0511 3 20.25C3 20.4489 3.07902 20.6397 3.21967 20.7803C3.36032 20.921 3.55109 21 3.75 21H8.25C8.44891 21 8.63968 20.921 8.78033 20.7803C8.92098 20.6397 9 20.4489 9 20.25C9 20.0511 8.92098 19.8603 8.78033 19.7197C8.63968 19.579 8.44891 19.5 8.25 19.5Z" fill="#009379"/>
</g>
<defs>
<clipPath id="clip0_749_497">
<rect width="24" height="24" fill="white"/>
</clipPath>
</defs>
</svg>
