<svg width="15" height="15" viewBox="0 0 15 15" fill="none" xmlns="http://www.w3.org/2000/svg">
<path fill-rule="evenodd" clip-rule="evenodd" d="M7.19077 2L7.19277 0L14.1928 0.00699997L14.1848 7.007L12.1848 7.005L12.1888 3.417L9.14477 6.461C9.83685 7.49163 10.121 8.7428 9.94183 9.97125C9.76271 11.1997 9.13317 12.3177 8.1756 13.1077C7.21804 13.8978 6.00088 14.3036 4.76077 14.2462C3.52065 14.1888 2.34621 13.6722 1.46577 12.797C0.592179 11.9241 0.0725658 10.7587 0.00704636 9.52543C-0.0584731 8.29219 0.334737 7.07832 1.11091 6.11772C1.88709 5.15713 2.99131 4.51777 4.21082 4.32284C5.43033 4.12792 6.67883 4.39121 7.71577 5.062L10.7738 2.004L7.19077 2ZM2.88077 7.14C3.44356 6.57748 4.20676 6.26156 5.00247 6.26175C5.39647 6.26184 5.7866 6.33953 6.15057 6.4904C6.51454 6.64126 6.84523 6.86233 7.12377 7.141C7.4023 7.41966 7.62322 7.75046 7.77391 8.11451C7.9246 8.47855 8.00211 8.86871 8.00202 9.26271C8.00193 9.65671 7.92423 10.0468 7.77337 10.4108C7.62251 10.7748 7.40143 11.1055 7.12277 11.384C6.55842 11.9388 5.79768 12.2482 5.00627 12.2447C4.21485 12.2412 3.45688 11.9251 2.89746 11.3653C2.33804 10.8055 2.02249 10.0473 2.01955 9.25589C2.01661 8.46447 2.32552 7.70396 2.88077 7.14Z" fill="#009379"/>
</svg>
