<svg width="24" height="24" viewBox="0 0 24 24" fill="none" xmlns="http://www.w3.org/2000/svg">
<path d="M6 14H9.075L14.05 9C14.2 8.85 14.3127 8.679 14.388 8.487C14.4633 8.295 14.5007 8.10767 14.5 7.925C14.4993 7.74233 14.462 7.56333 14.388 7.388C14.314 7.21267 14.2097 7.05 14.075 6.9L13.15 5.95C13 5.8 12.8333 5.68767 12.65 5.613C12.4667 5.53833 12.275 5.50067 12.075 5.5C11.8917 5.5 11.7083 5.53767 11.525 5.613C11.3417 5.68833 11.175 5.80067 11.025 5.95L6 10.925V14ZM12.05 8.9L11.1 7.975L12.075 7L13 7.95L12.05 8.9ZM11.2 14H18V12H13.2L11.2 14ZM2 22V4C2 3.45 2.196 2.97933 2.588 2.588C2.98 2.19667 3.45067 2.00067 4 2H20C20.55 2 21.021 2.196 21.413 2.588C21.805 2.98 22.0007 3.45067 22 4V16C22 16.55 21.8043 17.021 21.413 17.413C21.0217 17.805 20.5507 18.0007 20 18H6L2 22Z" fill="#009379"/>
</svg>
