<svg width="14" height="17" viewBox="0 0 14 17" fill="none" xmlns="http://www.w3.org/2000/svg">
<path d="M6.60915 5.81831L5.23082 7.05497C5.41302 7.67861 5.66752 8.2788 5.98915 8.84331C6.32463 9.40369 6.72888 9.91992 7.19248 10.38L8.97748 9.82997C9.97748 9.52164 11.0692 9.83831 11.7342 10.63L12.7508 11.84C13.1624 12.3257 13.3688 12.9526 13.3262 13.5879C13.2836 14.2232 12.9953 14.8169 12.5225 15.2433C10.8642 16.7566 8.31082 17.2683 6.39915 15.7666C4.71826 14.4445 3.29655 12.8228 2.20582 10.9833C1.11231 9.15288 0.380187 7.12964 0.0491508 5.02331C-0.317516 2.65331 1.41748 0.75664 3.58082 0.109973C4.87082 -0.276694 6.24748 0.38664 6.72082 1.62331L7.27915 3.08164C7.64582 4.04164 7.38248 5.12497 6.60915 5.81831Z" fill="#009379"/>
</svg>
