<svg width="16" height="16" viewBox="0 0 16 16" fill="none" xmlns="http://www.w3.org/2000/svg">
<path d="M10.1681 7.12597C9.51007 6.33931 9.18141 5.94597 8.80274 6.00597C8.42474 6.06664 8.24807 6.54131 7.89474 7.49064L7.80274 7.73597C7.70274 8.00597 7.65207 8.14064 7.55407 8.23997C7.45674 8.33931 7.32207 8.39197 7.05407 8.49731L6.80941 8.59264C5.86474 8.96264 5.39207 9.14797 5.33807 9.52597C5.28407 9.90397 5.68474 10.2253 6.48541 10.8666L6.69207 11.0333C6.92007 11.2153 7.03407 11.3066 7.09941 11.4313C7.16607 11.556 7.17607 11.7006 7.19674 11.9893L7.21607 12.252C7.28941 13.2673 7.32674 13.7753 7.67141 13.9486C8.01607 14.122 8.44074 13.8453 9.28941 13.2933L9.50874 13.15C9.75007 12.9933 9.87074 12.9146 10.0087 12.892C10.1474 12.87 10.2887 12.9066 10.5694 12.98L10.8261 13.0466C11.8161 13.304 12.3114 13.4333 12.5787 13.162C12.8461 12.8906 12.7074 12.3993 12.4314 11.4153L12.3594 11.162C12.2814 10.882 12.2421 10.742 12.2614 10.604C12.2814 10.4653 12.3581 10.344 12.5107 10.1L12.6507 9.87864C13.1887 9.02197 13.4574 8.59397 13.2774 8.25331C13.0981 7.91264 12.5887 7.88464 11.5694 7.82997L11.3054 7.81531C11.0161 7.79997 10.8707 7.79197 10.7447 7.72864C10.6181 7.66531 10.5247 7.55331 10.3381 7.32931L10.1681 7.12597Z" fill="#FFA629"/>
<path d="M9.91871 3.44462L10.0407 3.79262C10.1747 4.17462 10.242 4.36596 10.372 4.50596C10.5027 4.64729 10.6814 4.72196 11.0394 4.87062L11.3654 5.00662C12.6254 5.53062 13.2554 5.79329 13.3267 6.32862C13.3567 6.55129 13.282 6.76062 13.1067 6.99396C13.0507 6.97878 12.9942 6.96544 12.9374 6.95396C12.5867 6.88262 12.1407 6.85862 11.686 6.83396L11.3594 6.81662L11.206 6.80796L11.1054 6.68796L10.8947 6.43662C10.6014 6.08462 10.3147 5.74129 10.0467 5.50262C9.76204 5.24796 9.28604 4.91596 8.64471 5.01862C7.99671 5.12262 7.65138 5.59396 7.46471 5.92996C7.29204 6.24196 7.13671 6.65929 6.97938 7.08129L6.86604 7.38662L6.81805 7.51529C6.78249 7.52862 6.7396 7.54551 6.68938 7.56596L6.38538 7.68462C5.96538 7.84929 5.55005 8.01129 5.24071 8.18929C4.90871 8.38062 4.44071 8.73396 4.34804 9.38462C4.25671 10.0293 4.60004 10.5 4.85938 10.7793C5.05271 10.9866 5.31338 11.206 5.59138 11.4313C4.54538 11.7146 3.98938 11.8206 3.67338 11.4793C3.31738 11.0953 3.50138 10.3993 3.87004 9.00596L3.96471 8.64596C4.06938 8.24929 4.12204 8.05196 4.09604 7.85529C4.06938 7.65929 3.96738 7.48662 3.76338 7.14196L3.57804 6.82862C2.86004 5.61462 2.50138 5.00796 2.74004 4.52462C2.98004 4.04196 3.65938 4.00262 5.01871 3.92462L5.37005 3.90462C5.75671 3.88196 5.94938 3.87129 6.11804 3.78129C6.28605 3.69129 6.41071 3.53329 6.66004 3.21596L6.88671 2.92796C7.76404 1.81262 8.20271 1.25529 8.70671 1.34129C9.21071 1.42729 9.44671 2.09929 9.91804 3.44396" fill="#FFA629"/>
</svg>
