<svg width="24" height="24" viewBox="0 0 24 24" fill="none" xmlns="http://www.w3.org/2000/svg">
<path fill-rule="evenodd" clip-rule="evenodd" d="M20.5 14.432L20.5 9.568C20.5 7.274 20.5 6.128 19.778 5.415C19.123 4.768 18.104 4.709 16.182 4.703C16.283 5.378 16.304 6.183 16.31 7.131C16.31 7.22747 16.291 7.323 16.254 7.41212C16.2171 7.50124 16.1629 7.5822 16.0947 7.65037C16.0264 7.71854 15.9454 7.77258 15.8562 7.80941C15.767 7.84624 15.6715 7.86513 15.575 7.865C15.4785 7.86619 15.3827 7.84835 15.293 7.81251C15.2034 7.77667 15.1217 7.72352 15.0526 7.6561C14.9835 7.58869 14.9284 7.50832 14.8904 7.41959C14.8523 7.33087 14.8322 7.23552 14.831 7.139C14.825 6.075 14.798 5.321 14.691 4.749C14.588 4.197 14.424 3.879 14.184 3.641C13.911 3.371 13.528 3.196 12.804 3.101C12.06 3.001 11.074 3 9.659 3L8.674 3C7.259 3 6.273 3.002 5.528 3.1C4.805 3.196 4.422 3.372 4.15 3.641C3.877 3.911 3.699 4.289 3.602 5.003C3.502 5.737 3.5 6.712 3.5 8.108L3.5 15.892C3.5 17.289 3.502 18.262 3.602 18.997C3.699 19.711 3.877 20.09 4.149 20.359C4.422 20.629 4.805 20.804 5.529 20.899C6.272 21 7.258 21 8.673 21L9.658 21C11.073 21 12.059 20.998 12.804 20.9C13.527 20.804 13.91 20.628 14.183 20.359C14.423 20.122 14.587 19.803 14.69 19.251C14.797 18.679 14.824 17.925 14.83 16.861C14.8312 16.7645 14.8514 16.6691 14.8894 16.5804C14.9274 16.4917 14.9825 16.4113 15.0516 16.3439C15.1207 16.2765 15.2024 16.2233 15.292 16.1875C15.3817 16.1516 15.4775 16.1338 15.574 16.135C15.6705 16.1349 15.766 16.1538 15.8552 16.1906C15.9444 16.2274 16.0254 16.2815 16.0937 16.3496C16.1619 16.4178 16.2161 16.4988 16.253 16.5879C16.29 16.677 16.309 16.7725 16.309 16.869C16.303 17.817 16.282 18.622 16.181 19.297C18.103 19.291 19.121 19.232 19.777 18.585C20.499 17.872 20.5 16.725 20.5 14.432ZM18.065 11.484C18.1336 11.5513 18.188 11.6316 18.2252 11.7202C18.2624 11.8088 18.2816 11.9039 18.2816 12C18.2816 12.0961 18.2624 12.1912 18.2252 12.2798C18.188 12.3684 18.1336 12.4487 18.065 12.516L16.095 14.462C15.9555 14.5992 15.7677 14.676 15.572 14.676C15.3763 14.676 15.1885 14.5992 15.049 14.462C14.9804 14.3947 14.926 14.3144 14.8888 14.2258C14.8516 14.1372 14.8324 14.0421 14.8324 13.946C14.8324 13.8499 14.8516 13.7548 14.8888 13.6662C14.926 13.5776 14.9804 13.4973 15.049 13.43L15.759 12.73L8.673 12.73C8.265 12.73 7.933 12.403 7.933 12C7.933 11.597 8.265 11.27 8.673 11.27L15.76 11.27L15.05 10.57C14.9814 10.5027 14.927 10.4224 14.8898 10.3338C14.8526 10.2452 14.8334 10.1501 14.8334 10.054C14.8334 9.95791 14.8526 9.86279 14.8898 9.7742C14.927 9.6856 14.9814 9.6053 15.05 9.538C15.1895 9.40083 15.3773 9.32396 15.573 9.32396C15.7687 9.32396 15.9565 9.40083 16.096 9.538L18.065 11.484Z" fill="#3499C5"/>
</svg>
