<svg width="18" height="18" viewBox="0 0 18 18" fill="none" xmlns="http://www.w3.org/2000/svg">
<path d="M18 5.5V14.75C18 15.612 17.6576 16.4386 17.0481 17.0481C16.4386 17.6576 15.612 18 14.75 18H3.25C2.38805 18 1.5614 17.6576 0.951903 17.0481C0.34241 16.4386 0 15.612 0 14.75V5.5H18ZM10.995 7.695C10.331 7.695 9.80367 7.87233 9.413 8.227C9.02233 8.58167 8.827 9.062 8.827 9.668C8.827 10.016 8.91567 10.326 9.093 10.598C9.271 10.87 9.51267 11.084 9.818 11.24C9.47326 11.3858 9.17807 11.6282 8.968 11.938C8.76571 12.2415 8.66039 12.5993 8.666 12.964C8.666 13.586 8.87833 14.0807 9.303 14.448C9.72767 14.816 10.2933 15 11 15C11.7027 15 12.266 14.8167 12.69 14.45C13.1127 14.084 13.324 13.5887 13.324 12.964C13.324 12.5867 13.224 12.248 13.024 11.948C12.8098 11.6369 12.513 11.3917 12.167 11.24C12.4763 11.084 12.7203 10.87 12.899 10.598C13.079 10.326 13.1687 10.016 13.168 9.668C13.168 9.06267 12.9727 8.58267 12.582 8.228C12.1913 7.87267 11.6623 7.695 10.995 7.695ZM7.22 7.769H7.068L4.295 8.789V9.79L6.038 9.194V14.902H7.22V7.769ZM10.99 11.729C11.3353 11.729 11.613 11.837 11.823 12.053C12.033 12.2697 12.138 12.5537 12.138 12.905C12.138 13.267 12.038 13.5487 11.838 13.75C11.638 13.952 11.3587 14.053 11 14.053C10.642 14.053 10.3613 13.9487 10.158 13.74C9.954 13.532 9.852 13.2537 9.852 12.905C9.852 12.5503 9.95533 12.2657 10.162 12.051C10.3687 11.8363 10.6447 11.729 10.99 11.729ZM10.995 8.648C11.2977 8.648 11.5387 8.748 11.718 8.948C11.8973 9.148 11.9867 9.40267 11.986 9.712C11.986 10.0373 11.8973 10.296 11.72 10.488C11.5433 10.68 11.3033 10.776 11 10.776C10.6967 10.776 10.4567 10.68 10.28 10.488C10.102 10.2967 10.0133 10.038 10.014 9.712C10.014 9.38333 10.1017 9.12367 10.277 8.933C10.453 8.743 10.6923 8.648 10.995 8.648ZM14.75 0C15.612 0 16.4386 0.34241 17.0481 0.951903C17.6576 1.5614 18 2.38805 18 3.25V4H0V3.25C0 2.38805 0.34241 1.5614 0.951903 0.951903C1.5614 0.34241 2.38805 0 3.25 0H14.75Z" fill="#009379"/>
</svg>
