<svg width="20" height="20" viewBox="0 0 20 20" fill="none" xmlns="http://www.w3.org/2000/svg">
<path d="M4 12H7.075L12.05 7C12.2 6.85 12.3127 6.679 12.388 6.487C12.4633 6.295 12.5007 6.10767 12.5 5.925C12.4993 5.74233 12.462 5.56333 12.388 5.388C12.314 5.21267 12.2097 5.05 12.075 4.9L11.15 3.95C11 3.8 10.8333 3.68767 10.65 3.613C10.4667 3.53833 10.275 3.50067 10.075 3.5C9.89167 3.5 9.70833 3.53767 9.525 3.613C9.34167 3.68833 9.175 3.80067 9.025 3.95L4 8.925V12ZM10.05 6.9L9.1 5.975L10.075 5L11 5.95L10.05 6.9ZM9.2 12H16V10H11.2L9.2 12ZM0 20V2C0 1.45 0.196 0.979333 0.588 0.588C0.98 0.196667 1.45067 0.000666667 2 0H18C18.55 0 19.021 0.196 19.413 0.588C19.805 0.98 20.0007 1.45067 20 2V14C20 14.55 19.8043 15.021 19.413 15.413C19.0217 15.805 18.5507 16.0007 18 16H4L0 20Z" fill="white"/>
</svg>
